<?xml version="1.0" encoding="utf-8"?>
<!-- Generator: Adobe Illustrator 21.1.0, SVG Export Plug-In . SVG Version: 6.00 Build 0)  -->
<svg version="1.1" id="Слой_1" xmlns="http://www.w3.org/2000/svg" xmlns:xlink="http://www.w3.org/1999/xlink" x="0px" y="0px"
	 viewBox="0 0 384 425" style="enable-background:new 0 0 384 425;" xml:space="preserve">
<g>
	<polygon style="fill:#666666;" points="384,225 384,338 297,425 192,425 87,425 0,338 0,225 0,87 87,0 192,0 297,0 384,87 	"/>
	<path style="fill:#666666;" d="M297.4,426H86.6L-1,338.4V86.6L86.6-1h210.8L385,86.6v251.8L297.4,426z M87.4,424h209.2l86.4-86.4
		V87.4L296.6,1H87.4L1,87.4v250.2L87.4,424z"/>
</g>
<path style="fill:none;stroke:#666666;stroke-width:2;stroke-miterlimit:10;" d="M253,116"/>
<g>
	<polygon style="fill:#B3B3B3;" points="375,299 375,335 341.3,368 329,368 329,380 293.7,415 262,415 262,299 	"/>
	<path style="fill:#666666;" d="M294.1,416H261V298h115v37.4L341.7,369H330v11.4l-0.3,0.3L294.1,416z M263,414h30.3l34.7-34.4V367
		h12.9l33.1-32.4V300H263V414z"/>
</g>
<g>
	<polygon style="fill:#B3B3B3;" points="9,126 9,90 42.7,57 55,57 55,45 90.3,10 122,10 122,126 	"/>
	<path style="fill:#666666;" d="M123,127H8V89.6L42.3,56H54V44.6L89.9,9H123V127z M10,125h111V11H90.7L56,45.4V58H43.1L10,90.4V125z
		"/>
</g>
<g>
	<polygon style="fill:#B3B3B3;" points="132,10 186,10 186,15 199,15 199,10 253,10 253,44 247,44 247,56 253,56 253,93 132,93 
		132,55 137,55 137,44 132,44 	"/>
	<path style="fill:#666666;" d="M254,94H131V54h5v-9h-5V9h56v5h11V9h56v36h-6v10h6V94z M133,92h119V57h-6V43h6V11h-52v5h-15v-5h-52
		v32h5v13h-5V92z"/>
</g>
<g>
	<polygon style="fill:#B3B3B3;" points="131,415 185,415 185,410 198,410 198,415 252,415 252,381 246,381 246,369 252,369 252,332 
		131,332 131,370 136,370 136,381 131,381 	"/>
	<path style="fill:#666666;" d="M253,416h-56v-5h-11v5h-56v-36h5v-9h-5v-40h123v39h-6v10h6V416z M199,414h52v-32h-6v-14h6v-35H132
		v36h5v13h-5v32h52v-5h15V414z"/>
</g>
<g>
	<polygon style="fill:#B3B3B3;" points="122,93 253,93 253,117.3 253,126 132,126 132,117 122,117 	"/>
	<path style="fill:#666666;" d="M254,127H131v-9h-10V92h133V127z M133,125h119V94H123v22h10V125z"/>
</g>
<g>
	<polygon style="fill:#B3B3B3;" points="131,332 262,332 262,308 253,308 253,299 131,299 	"/>
	<path style="fill:#666666;" d="M263,333H130v-35h124v9h9V333z M132,331h129v-22h-9v-9H132V331z"/>
</g>
<g>
	<rect x="131" y="134" style="fill:#B3B3B3;" width="122" height="158"/>
	<path style="fill:#666666;" d="M254,293H130V133h124V293z M132,291h120V135H132V291z"/>
</g>
<g>
	<polygon style="fill:#B3B3B3;" points="262,134 369,134 369,140 375,140 375,205 369,205 369,217 375,217 375,285 369,285 369,292 
		262,292 262,218 268,218 268,206 262,206 	"/>
	<path style="fill:#666666;" d="M370,293H261v-76h6v-10h-6v-74h109v6h6v67h-6v10h6v70h-6V293z M263,291h105v-7h6v-66h-6v-14h6v-63
		h-6v-6H263v70h6v14h-6V291z"/>
</g>
<g>
	<rect x="318.8" y="338.9" style="fill:#FFFFFF;" width="9" height="6.8"/>
	<path style="fill:#53504F;" d="M328.1,346h-9.5v-7.3h9.5V346z M319,345.5h8.5v-6.3H319V345.5z"/>
</g>
<g>
	<rect x="318.8" y="325.3" style="fill:#FFFFFF;" width="9" height="6.8"/>
	<path style="fill:#53504F;" d="M328.1,332.4h-9.5v-7.3h9.5V332.4z M319,331.9h8.5v-6.3H319V331.9z"/>
</g>
<g>
	<rect x="318.8" y="318.3" style="fill:#FFFFFF;" width="9" height="6.8"/>
	<path style="fill:#53504F;" d="M328.1,325.4h-9.5v-7.3h9.5V325.4z M319,324.9h8.5v-6.3H319V324.9z"/>
</g>
<g>
	<rect x="318.8" y="311.5" style="fill:#FFFFFF;" width="9" height="6.8"/>
	<path style="fill:#53504F;" d="M328.1,318.6h-9.5v-7.3h9.5V318.6z M319,318.1h8.5v-6.3H319V318.1z"/>
</g>
<g>
	<rect x="337.4" y="345.7" style="fill:#FFFFFF;" width="9.1" height="6.8"/>
	<path style="fill:#53504F;" d="M346.8,352.8h-9.6v-7.3h9.6V352.8z M337.7,352.3h8.6V346h-8.6V352.3z"/>
</g>
<g>
	<rect x="337.4" y="338.9" style="fill:#FFFFFF;" width="9.1" height="6.8"/>
	<path style="fill:#53504F;" d="M346.8,346h-9.6v-7.3h9.6V346z M337.7,345.5h8.6v-6.3h-8.6V345.5z"/>
</g>
<g>
	<rect x="337.5" y="332.2" style="fill:#FFFFFF;" width="9" height="6.8"/>
	<path style="fill:#53504F;" d="M346.8,339.3h-9.5V332h9.5V339.3z M337.7,338.8h8.5v-6.3h-8.5V338.8z"/>
</g>
<g>
	<rect x="337.5" y="325.4" style="fill:#FFFFFF;" width="9" height="6.8"/>
	<path style="fill:#53504F;" d="M346.8,332.5h-9.5v-7.3h9.5V332.5z M337.7,332h8.5v-6.3h-8.5V332z"/>
</g>
<g>
	<rect x="337.5" y="318.4" style="fill:#FFFFFF;" width="9" height="7"/>
	<path style="fill:#53504F;" d="M346.8,325.7h-9.5v-7.5h9.5V325.7z M337.7,325.2h8.5v-6.5h-8.5V325.2z"/>
</g>
<g>
	<rect x="341.9" y="303.6" style="fill:#4F5150;" width="0.5" height="47.2"/>
	<path style="fill:#53504F;" d="M342.5,351h-0.7v-47.4h0.7V351z M342,350.8h0.3v-47H342V350.8z"/>
</g>
<g>
	<rect x="323.1" y="303.6" style="fill:#4F5150;" width="19.4" height="0.6"/>
	<path style="fill:#53504F;" d="M342.5,304.3H323v-0.8h19.6V304.3z M323.2,304.1h19.2v-0.4h-19.2V304.1z"/>
</g>
<g>
	<polygon style="fill:#4F5150;" points="323.5,342 323.5,343.6 324.3,342 	"/>
	<path style="fill:#53504F;" d="M323.4,344v-2.1h1.1L323.4,344z M323.6,342.1v1.1l0.6-1.1H323.6z"/>
</g>
<g>
	<polygon style="fill:#4F5150;" points="323.3,342 323.3,343.6 322.5,342 	"/>
	<path style="fill:#53504F;" d="M323.4,344l-1.1-2.1h1.1V344z M322.6,342.1l0.6,1.1v-1.1H322.6z"/>
</g>
<g>
	<rect x="327.8" y="307.1" style="fill:#FFFFFF;" width="9.6" height="50.9"/>
	<path style="fill:#53504F;" d="M337.7,358.3h-10.1v-51.4h10.1V358.3z M328.1,357.8h9.1v-50.4h-9.1V357.8z"/>
</g>
<g>
	<rect x="329.4" y="309" style="fill:#FFFFFF;" width="6.8" height="47.2"/>
	<path style="fill:#53504F;" d="M336.4,356.4h-7.3v-47.7h7.3V356.4z M329.6,355.9h6.3v-46.7h-6.3V355.9z"/>
</g>
<g>
	<rect x="318.8" y="332.1" style="fill:#FFFFFF;" width="9" height="6.8"/>
	<path style="fill:#53504F;" d="M328.1,339.2h-9.5v-7.3h9.5V339.2z M319,338.7h8.5v-6.3H319V338.7z"/>
</g>
<g>
	<rect x="323.1" y="304.2" style="fill:#504F50;" width="0.5" height="38.1"/>
	<path style="fill:#53504F;" d="M323.7,342.4H323v-38.3h0.7V342.4z M323.2,342.2h0.3v-37.9h-0.3V342.2z"/>
</g>
<g>
	<rect x="56.6" y="81.6" style="fill:#FFFFFF;" width="9" height="6.4"/>
	<path style="fill:#53504F;" d="M65.8,88.2h-9.5v-6.9h9.5V88.2z M56.8,87.7h8.5v-5.9h-8.5V87.7z"/>
</g>
<g>
	<rect x="56.3" y="94.4" style="fill:#FFFFFF;" width="9.3" height="6.2"/>
	<path style="fill:#53504F;" d="M65.8,100.9H56v-6.7h9.8V100.9z M56.5,100.4h8.8v-5.7h-8.8V100.4z"/>
</g>
<g>
	<rect x="56.6" y="100.9" style="fill:#FFFFFF;" width="9" height="6.4"/>
	<path style="fill:#53504F;" d="M65.8,107.6h-9.5v-6.9h9.5V107.6z M56.8,107.1h8.5v-5.9h-8.5V107.1z"/>
</g>
<g>
	<rect x="56.6" y="107.3" style="fill:#FFFFFF;" width="9" height="6.4"/>
	<path style="fill:#53504F;" d="M65.8,114h-9.5v-6.9h9.5V114z M56.8,113.5h8.5v-5.9h-8.5V113.5z"/>
</g>
<g>
	<rect x="38" y="75.2" style="fill:#FFFFFF;" width="9.1" height="6.4"/>
	<path style="fill:#53504F;" d="M47.3,81.8h-9.6v-6.9h9.6V81.8z M38.2,81.3h8.6v-5.9h-8.6V81.3z"/>
</g>
<g>
	<rect x="38" y="81.6" style="fill:#FFFFFF;" width="9.1" height="6.4"/>
	<path style="fill:#53504F;" d="M47.3,88.2h-9.6v-6.9h9.6V88.2z M38.2,87.7h8.6v-5.9h-8.6V87.7z"/>
</g>
<g>
	<rect x="38" y="87.9" style="fill:#FFFFFF;" width="9" height="6.4"/>
	<path style="fill:#53504F;" d="M47.2,94.5h-9.5v-6.9h9.5V94.5z M38.2,94h8.5v-5.9h-8.5V94z"/>
</g>
<g>
	<rect x="38" y="94.3" style="fill:#FFFFFF;" width="9" height="6.4"/>
	<path style="fill:#53504F;" d="M47.2,100.9h-9.5V94h9.5V100.9z M38.2,100.4h8.5v-5.9h-8.5V100.4z"/>
</g>
<g>
	<rect x="38" y="100.7" style="fill:#FFFFFF;" width="9" height="6.6"/>
	<path style="fill:#53504F;" d="M47.2,107.5h-9.5v-7.1h9.5V107.5z M38.2,107h8.5v-6.1h-8.5V107z"/>
</g>
<g>
	<rect x="42" y="76.7" style="fill:#4F5150;" width="0.5" height="44.4"/>
	<path style="fill:#53504F;" d="M42.7,121.2h-0.7V76.6h0.7V121.2z M42.1,121h0.3V76.8h-0.3V121z"/>
</g>
<g>
	<rect x="42" y="120.6" style="fill:#4F5150;" width="19.3" height="0.5"/>
	<path style="fill:#53504F;" d="M61.4,121.2H41.9v-0.7h19.5V121.2z M42.1,121h19.1v-0.3H42.1V121z"/>
</g>
<g>
	<polygon style="fill:#4F5150;" points="61,84.9 61,83.2 60.1,84.9 	"/>
	<path style="fill:#53504F;" d="M61.1,85H60l1.1-2.2V85z M60.3,84.8h0.6v-1.2L60.3,84.8z"/>
</g>
<g>
	<polygon style="fill:#4F5150;" points="61.1,84.9 61.1,83.2 62,84.9 	"/>
	<path style="fill:#53504F;" d="M62.1,85H61v-2.2L62.1,85z M61.2,84.8h0.6l-0.6-1.2V84.8z"/>
</g>
<g>
	<rect x="47.1" y="70" style="fill:#FFFFFF;" width="9.5" height="47.9"/>
	<path style="fill:#53504F;" d="M56.8,118.2h-10V69.8h10V118.2z M47.3,117.7h9V70.3h-9V117.7z"/>
</g>
<g>
	<rect x="48.3" y="71.8" style="fill:#FFFFFF;" width="6.7" height="44.4"/>
	<path style="fill:#53504F;" d="M55.3,116.4h-7.2V71.5h7.2V116.4z M48.6,115.9h6.2V72h-6.2V115.9z"/>
</g>
<g>
	<rect x="56.6" y="88" style="fill:#FFFFFF;" width="9" height="6.4"/>
	<path style="fill:#53504F;" d="M65.8,94.6h-9.5v-6.9h9.5V94.6z M56.8,94.1h8.5v-5.9h-8.5V94.1z"/>
</g>
<g>
	<rect x="60.8" y="84.8" style="fill:#504F50;" width="0.5" height="35.8"/>
	<path style="fill:#53504F;" d="M61.4,120.7h-0.7v-36h0.7V120.7z M60.9,120.5h0.3V84.9h-0.3V120.5z"/>
</g>
<rect id="door_16_" x="120.7" y="93.9" style="fill:#B3B3B3;" width="18.7" height="23.1"/>
<rect id="door_19_" x="248.6" y="308.8" style="fill:#B3B3B3;" width="16.9" height="22.1"/>
<rect id="door_20_" x="181" y="123.5" style="fill:#B3B3B3;" width="23.1" height="14.3"/>
<rect id="door_21_" x="181" y="290" style="fill:#B3B3B3;" width="23.1" height="12"/>
<rect id="door_23_" x="86.6" y="117.3" style="fill:#B3B3B3;" width="23.1" height="17.8"/>
<rect id="door_25_" x="277.3" y="289" style="fill:#B3B3B3;" width="23.1" height="15.2"/>
<g style="enable-background:new    ;">
	<path style="fill:#666666;" d="M328.9,363.6c0,0.1,0,0.3-0.1,0.4c0,0.1-0.1,0.2-0.2,0.3c-0.1,0.1-0.1,0.2-0.2,0.2
		c-0.1,0.1-0.2,0.1-0.3,0.2c-0.1,0-0.2,0.1-0.4,0.1c-0.1,0-0.3,0-0.4,0h-1.2c-0.1,0-0.1,0-0.1-0.1c0,0-0.1-0.1-0.1-0.2v-4
		c0-0.1,0-0.2,0.1-0.2c0,0,0.1-0.1,0.1-0.1h1c0.3,0,0.5,0,0.7,0.1c0.2,0.1,0.3,0.1,0.4,0.2c0.1,0.1,0.2,0.2,0.3,0.4
		c0.1,0.1,0.1,0.3,0.1,0.5c0,0.1,0,0.2,0,0.3c0,0.1-0.1,0.2-0.1,0.3c0,0.1-0.1,0.2-0.2,0.2c-0.1,0.1-0.2,0.1-0.3,0.2
		c0.1,0,0.2,0.1,0.3,0.1c0.1,0.1,0.2,0.1,0.3,0.2c0.1,0.1,0.1,0.2,0.2,0.3C328.9,363.3,328.9,363.4,328.9,363.6z M328,361.6
		c0-0.1,0-0.2,0-0.3c0-0.1-0.1-0.2-0.1-0.2c-0.1-0.1-0.1-0.1-0.3-0.1c-0.1,0-0.2,0-0.4,0h-0.6v1.4h0.7c0.2,0,0.3,0,0.4-0.1
		c0.1,0,0.2-0.1,0.2-0.2c0.1-0.1,0.1-0.1,0.1-0.2C328,361.8,328,361.7,328,361.6z M328.3,363.6c0-0.1,0-0.3-0.1-0.4
		c0-0.1-0.1-0.2-0.2-0.3c-0.1-0.1-0.2-0.1-0.3-0.2c-0.1,0-0.3-0.1-0.5-0.1h-0.7v1.6h0.9c0.1,0,0.3,0,0.4,0c0.1,0,0.2-0.1,0.3-0.1
		c0.1-0.1,0.1-0.1,0.2-0.2C328.3,363.9,328.3,363.7,328.3,363.6z"/>
	<path style="fill:#666666;" d="M332.5,364.8C332.5,364.8,332.5,364.8,332.5,364.8C332.5,364.8,332.5,364.8,332.5,364.8
		c-0.1,0.1-0.1,0.1-0.1,0.1c0,0-0.1,0-0.1,0c-0.1,0-0.1,0-0.1,0c0,0-0.1,0-0.1,0c0,0,0,0,0,0s0,0,0,0v-1.4h-1.6v1.4c0,0,0,0,0,0
		c0,0,0,0,0,0c0,0,0,0-0.1,0c0,0-0.1,0-0.1,0c-0.1,0-0.1,0-0.1,0c0,0-0.1,0-0.1,0c0,0,0,0,0,0c0,0,0,0,0,0v-3.1c0,0,0,0,0,0
		c0,0,0,0,0,0c0,0,0.1,0,0.1,0c0,0,0.1,0,0.1,0c0.1,0,0.1,0,0.1,0c0,0,0.1,0,0.1,0c0,0,0,0,0,0c0,0,0,0,0,0v1.3h1.6v-1.3
		c0,0,0,0,0,0c0,0,0,0,0,0c0,0,0,0,0.1,0c0,0,0.1,0,0.1,0c0.1,0,0.1,0,0.1,0c0,0,0.1,0,0.1,0c0,0,0,0,0,0c0,0,0,0,0,0V364.8z"/>
	<path style="fill:#666666;" d="M336.3,364.8C336.3,364.8,336.3,364.8,336.3,364.8C336.3,364.8,336.3,364.9,336.3,364.8
		c-0.1,0.1-0.1,0.1-0.1,0.1c0,0-0.1,0-0.1,0c-0.1,0-0.1,0-0.1,0c0,0-0.1,0-0.1,0c0,0,0,0,0,0c0,0,0,0,0,0V363c0-0.1,0-0.2,0-0.3
		c0-0.1,0-0.2,0-0.3c-0.1,0.1-0.1,0.2-0.2,0.3c-0.1,0.1-0.1,0.2-0.2,0.3l-1.3,1.8c0,0,0,0,0,0c0,0,0,0,0,0c0,0,0,0-0.1,0
		c0,0-0.1,0-0.1,0c-0.1,0-0.1,0-0.1,0c0,0-0.1,0-0.1,0c0,0,0,0,0,0c0,0,0,0,0,0v-3.1c0,0,0,0,0,0c0,0,0,0,0,0c0,0,0.1,0,0.1,0
		c0,0,0.1,0,0.1,0c0.1,0,0.2,0,0.2,0c0,0,0.1,0,0.1,0.1v1.8c0,0.1,0,0.2,0,0.3c0,0.1,0,0.2,0,0.3c0.1-0.1,0.1-0.2,0.2-0.3
		c0.1-0.1,0.1-0.2,0.2-0.2l1.3-1.8c0,0,0,0,0,0c0,0,0,0,0.1,0c0,0,0,0,0.1,0c0,0,0.1,0,0.1,0c0,0,0.1,0,0.1,0c0,0,0.1,0,0.1,0
		c0,0,0,0,0,0c0,0,0,0,0,0V364.8z"/>
	<path style="fill:#666666;" d="M339.5,363.9c0,0.2,0,0.3-0.1,0.4c-0.1,0.1-0.2,0.2-0.3,0.3c-0.1,0.1-0.3,0.2-0.4,0.2
		c-0.2,0-0.4,0.1-0.6,0.1c-0.1,0-0.2,0-0.3,0c-0.1,0-0.2,0-0.3-0.1c-0.1,0-0.2-0.1-0.2-0.1c-0.1,0-0.1-0.1-0.1-0.1c0,0,0,0-0.1-0.1
		c0,0,0,0,0-0.1c0,0,0,0,0-0.1c0,0,0-0.1,0-0.1c0,0,0-0.1,0-0.1c0,0,0,0,0-0.1c0,0,0,0,0,0c0,0,0,0,0,0c0,0,0.1,0,0.1,0
		c0,0,0.1,0.1,0.2,0.1c0.1,0,0.2,0.1,0.3,0.1c0.1,0,0.2,0,0.4,0c0.1,0,0.2,0,0.3,0c0.1,0,0.2-0.1,0.2-0.1c0.1,0,0.1-0.1,0.2-0.2
		c0-0.1,0.1-0.2,0.1-0.2c0-0.1,0-0.2-0.1-0.2c0-0.1-0.1-0.1-0.2-0.2c-0.1,0-0.2-0.1-0.3-0.1c-0.1,0-0.3,0-0.4,0h-0.3c0,0,0,0-0.1,0
		c0,0,0,0,0,0c0,0,0,0,0-0.1c0,0,0-0.1,0-0.1c0,0,0-0.1,0-0.1c0,0,0,0,0-0.1c0,0,0,0,0,0c0,0,0,0,0.1,0h0.3c0.1,0,0.3,0,0.4,0
		c0.1,0,0.2-0.1,0.3-0.1c0.1,0,0.1-0.1,0.2-0.2c0-0.1,0-0.1,0-0.2c0-0.1,0-0.1,0-0.2c0-0.1-0.1-0.1-0.1-0.1c-0.1,0-0.1-0.1-0.2-0.1
		c-0.1,0-0.2,0-0.3,0c-0.1,0-0.3,0-0.4,0c-0.1,0-0.2,0.1-0.3,0.1c-0.1,0-0.1,0.1-0.2,0.1c-0.1,0-0.1,0-0.1,0c0,0,0,0,0,0
		c0,0,0,0,0,0c0,0,0,0,0-0.1c0,0,0-0.1,0-0.1c0-0.1,0-0.1,0-0.2c0,0,0-0.1,0.1-0.1c0,0,0.1-0.1,0.1-0.1c0.1,0,0.2-0.1,0.2-0.1
		c0.1,0,0.2-0.1,0.3-0.1c0.1,0,0.2,0,0.3,0c0.2,0,0.3,0,0.5,0.1c0.1,0,0.3,0.1,0.4,0.2c0.1,0.1,0.2,0.2,0.2,0.3
		c0.1,0.1,0.1,0.2,0.1,0.4c0,0.1,0,0.2,0,0.2c0,0.1-0.1,0.1-0.1,0.2c-0.1,0.1-0.1,0.1-0.2,0.2c-0.1,0.1-0.2,0.1-0.3,0.1l0,0
		c0.1,0,0.2,0,0.3,0.1c0.1,0,0.2,0.1,0.2,0.2c0.1,0.1,0.1,0.1,0.2,0.2C339.5,363.7,339.5,363.8,339.5,363.9z"/>
</g>
<g style="enable-background:new    ;">
	<path style="fill:#666666;" d="M48.6,65.4c0,0.1,0,0.3-0.1,0.4c0,0.1-0.1,0.2-0.2,0.3c-0.1,0.1-0.1,0.2-0.2,0.2
		c-0.1,0.1-0.2,0.1-0.3,0.2c-0.1,0-0.2,0.1-0.4,0.1c-0.1,0-0.3,0-0.4,0h-1.2c-0.1,0-0.1,0-0.1-0.1c0,0-0.1-0.1-0.1-0.2v-4
		c0-0.1,0-0.2,0.1-0.2c0,0,0.1-0.1,0.1-0.1h1c0.3,0,0.5,0,0.7,0.1c0.2,0.1,0.3,0.1,0.4,0.2c0.1,0.1,0.2,0.2,0.3,0.4
		c0.1,0.1,0.1,0.3,0.1,0.5c0,0.1,0,0.2,0,0.3c0,0.1-0.1,0.2-0.1,0.3c0,0.1-0.1,0.2-0.2,0.2c-0.1,0.1-0.2,0.1-0.3,0.2
		c0.1,0,0.2,0.1,0.3,0.1c0.1,0.1,0.2,0.1,0.3,0.2c0.1,0.1,0.1,0.2,0.2,0.3C48.6,65.1,48.6,65.2,48.6,65.4z M47.8,63.4
		c0-0.1,0-0.2,0-0.3c0-0.1-0.1-0.2-0.1-0.2c-0.1-0.1-0.1-0.1-0.3-0.1c-0.1,0-0.2,0-0.4,0h-0.6v1.4H47c0.2,0,0.3,0,0.4-0.1
		c0.1,0,0.2-0.1,0.2-0.2c0.1-0.1,0.1-0.1,0.1-0.2C47.7,63.6,47.8,63.5,47.8,63.4z M48,65.4c0-0.1,0-0.3-0.1-0.4
		c0-0.1-0.1-0.2-0.2-0.3c-0.1-0.1-0.2-0.1-0.3-0.2c-0.1,0-0.3-0.1-0.5-0.1h-0.7v1.6h0.9c0.1,0,0.3,0,0.4,0c0.1,0,0.2-0.1,0.3-0.1
		c0.1-0.1,0.1-0.1,0.2-0.2C48,65.7,48,65.5,48,65.4z"/>
	<path style="fill:#666666;" d="M52.2,66.6C52.2,66.6,52.2,66.6,52.2,66.6C52.2,66.6,52.2,66.6,52.2,66.6c-0.1,0.1-0.1,0.1-0.1,0.1
		c0,0-0.1,0-0.1,0c-0.1,0-0.1,0-0.1,0c0,0-0.1,0-0.1,0c0,0,0,0,0,0c0,0,0,0,0,0v-1.4h-1.6v1.4c0,0,0,0,0,0s0,0,0,0c0,0,0,0-0.1,0
		c0,0-0.1,0-0.1,0c-0.1,0-0.1,0-0.1,0c0,0-0.1,0-0.1,0c0,0,0,0,0,0c0,0,0,0,0,0v-3.1c0,0,0,0,0,0c0,0,0,0,0,0c0,0,0.1,0,0.1,0
		c0,0,0.1,0,0.1,0c0.1,0,0.1,0,0.1,0c0,0,0.1,0,0.1,0c0,0,0,0,0,0c0,0,0,0,0,0v1.3h1.6v-1.3c0,0,0,0,0,0c0,0,0,0,0,0c0,0,0,0,0.1,0
		c0,0,0.1,0,0.1,0c0.1,0,0.1,0,0.1,0c0,0,0.1,0,0.1,0c0,0,0,0,0,0c0,0,0,0,0,0V66.6z"/>
	<path style="fill:#666666;" d="M56,66.6C56,66.6,56,66.6,56,66.6C56,66.6,56,66.7,56,66.6c-0.1,0.1-0.1,0.1-0.1,0.1
		c0,0-0.1,0-0.1,0c-0.1,0-0.1,0-0.1,0c0,0-0.1,0-0.1,0c0,0,0,0,0,0c0,0,0,0,0,0v-1.8c0-0.1,0-0.2,0-0.3c0-0.1,0-0.2,0-0.3
		c-0.1,0.1-0.1,0.2-0.2,0.3c-0.1,0.1-0.1,0.2-0.2,0.3l-1.3,1.8c0,0,0,0,0,0c0,0,0,0,0,0c0,0,0,0-0.1,0c0,0-0.1,0-0.1,0
		c-0.1,0-0.1,0-0.1,0c0,0-0.1,0-0.1,0c0,0,0,0,0,0c0,0,0,0,0,0v-3.1c0,0,0,0,0,0c0,0,0,0,0,0c0,0,0.1,0,0.1,0c0,0,0.1,0,0.1,0
		c0.1,0,0.2,0,0.2,0c0,0,0.1,0,0.1,0.1v1.8c0,0.1,0,0.2,0,0.3c0,0.1,0,0.2,0,0.3c0.1-0.1,0.1-0.2,0.2-0.3c0.1-0.1,0.1-0.2,0.2-0.2
		l1.3-1.8c0,0,0,0,0,0c0,0,0,0,0.1,0c0,0,0,0,0.1,0c0,0,0.1,0,0.1,0c0,0,0.1,0,0.1,0c0,0,0.1,0,0.1,0c0,0,0,0,0,0c0,0,0,0,0,0V66.6z
		"/>
	<path style="fill:#666666;" d="M59.2,65.7c0,0.2,0,0.3-0.1,0.4c-0.1,0.1-0.2,0.2-0.3,0.3c-0.1,0.1-0.3,0.2-0.4,0.2
		c-0.2,0-0.4,0.1-0.6,0.1c-0.1,0-0.2,0-0.3,0c-0.1,0-0.2,0-0.3-0.1c-0.1,0-0.2-0.1-0.2-0.1c-0.1,0-0.1-0.1-0.1-0.1c0,0,0,0-0.1-0.1
		c0,0,0,0,0-0.1c0,0,0,0,0-0.1c0,0,0-0.1,0-0.1c0,0,0-0.1,0-0.1c0,0,0,0,0-0.1c0,0,0,0,0,0c0,0,0,0,0,0c0,0,0.1,0,0.1,0
		c0,0,0.1,0.1,0.2,0.1c0.1,0,0.2,0.1,0.3,0.1c0.1,0,0.2,0,0.4,0c0.1,0,0.2,0,0.3,0c0.1,0,0.2-0.1,0.2-0.1c0.1,0,0.1-0.1,0.2-0.2
		c0-0.1,0.1-0.2,0.1-0.2c0-0.1,0-0.2-0.1-0.2c0-0.1-0.1-0.1-0.2-0.2c-0.1,0-0.2-0.1-0.3-0.1c-0.1,0-0.3,0-0.4,0h-0.3c0,0,0,0-0.1,0
		c0,0,0,0,0,0c0,0,0,0,0-0.1c0,0,0-0.1,0-0.1c0,0,0-0.1,0-0.1c0,0,0,0,0-0.1c0,0,0,0,0,0c0,0,0,0,0.1,0h0.3c0.1,0,0.3,0,0.4,0
		c0.1,0,0.2-0.1,0.3-0.1c0.1,0,0.1-0.1,0.2-0.2c0-0.1,0-0.1,0-0.2c0-0.1,0-0.1,0-0.2c0-0.1-0.1-0.1-0.1-0.1c-0.1,0-0.1-0.1-0.2-0.1
		c-0.1,0-0.2,0-0.3,0c-0.1,0-0.3,0-0.4,0c-0.1,0-0.2,0.1-0.3,0.1c-0.1,0-0.1,0.1-0.2,0.1c-0.1,0-0.1,0-0.1,0c0,0,0,0,0,0
		c0,0,0,0,0,0c0,0,0,0,0-0.1c0,0,0-0.1,0-0.1c0-0.1,0-0.1,0-0.2c0,0,0-0.1,0.1-0.1c0,0,0.1-0.1,0.1-0.1c0.1,0,0.2-0.1,0.2-0.1
		c0.1,0,0.2-0.1,0.3-0.1c0.1,0,0.2,0,0.3,0c0.2,0,0.3,0,0.5,0.1c0.1,0,0.3,0.1,0.4,0.2c0.1,0.1,0.2,0.2,0.2,0.3
		c0.1,0.1,0.1,0.2,0.1,0.4c0,0.1,0,0.2,0,0.2c0,0.1-0.1,0.1-0.1,0.2c-0.1,0.1-0.1,0.1-0.2,0.2c-0.1,0.1-0.2,0.1-0.3,0.1l0,0
		c0.1,0,0.2,0,0.3,0.1c0.1,0,0.2,0.1,0.2,0.2c0.1,0.1,0.1,0.1,0.2,0.2C59.2,65.5,59.2,65.6,59.2,65.7z"/>
</g>
<g>
	<ellipse style="fill:#FFFFFF;" cx="97.8" cy="51.5" rx="10.2" ry="9.6"/>
	<path style="fill:#FFFFFF;" d="M97.8,61.4c-5.8,0-10.4-4.4-10.4-9.9s4.7-9.9,10.4-9.9s10.4,4.4,10.4,9.9S103.6,61.4,97.8,61.4z
		 M97.8,42.1c-5.5,0-9.9,4.2-9.9,9.4s4.5,9.4,9.9,9.4s9.9-4.2,9.9-9.4S103.3,42.1,97.8,42.1z"/>
</g>
<g>
	<ellipse style="fill:#FFFFFF;" cx="288.8" cy="374.5" rx="10.2" ry="9.6"/>
	<path style="fill:#FFFFFF;" d="M288.8,384.4c-5.8,0-10.4-4.4-10.4-9.9s4.7-9.9,10.4-9.9c5.8,0,10.4,4.4,10.4,9.9
		S294.6,384.4,288.8,384.4z M288.8,365.1c-5.5,0-9.9,4.2-9.9,9.4s4.5,9.4,9.9,9.4s9.9-4.2,9.9-9.4S294.3,365.1,288.8,365.1z"/>
</g>
<g id="Rooms">
	<g id="Room-1">
		<g>
			<polygon style="fill:#B3B3B3;" points="9,299 9,335 42.7,368 55,368 55,380 90.3,415 122,415 122,299 			"/>
			<path style="fill:#666666;" d="M123,416H89.9L54,380.4V369H42.3L8,335.4V298h115V416z M90.7,414H121V300H10v34.6L43.1,367H56
				v12.6L90.7,414z"/>
		</g>
	</g>
	<g id="Room-3">
		<g>
			<polygon style="fill:#D9D9D9;" points="375,126 375,90 341.3,57 329,57 329,45 293.7,10 262,10 262,126 			"/>
			<path style="fill:#666666;" d="M376,127H261V9h33.1l0.3,0.3L330,44.6V56h11.7L376,89.6V127z M263,125h111V90.4L340.9,58H328V45.4
				L293.3,11H263V125z"/>
		</g>
		<g>
			<rect x="266.5" y="68" style="fill:#FFFFFF;" width="9" height="24.8"/>
			<path style="fill:#FFFFFF;" d="M275.8,93.1h-9.7V67.7h9.7V93.1z M266.8,92.4h8.4V68.3h-8.4V92.4z"/>
		</g>
		<g>
			<rect x="266.5" y="41.1" style="fill:#FFFFFF;" width="9" height="24.8"/>
			<path style="fill:#FFFFFF;" d="M275.8,66.2h-9.7V40.7h9.7V66.2z M266.8,65.5h8.4V41.4h-8.4V65.5z"/>
		</g>
		<g>
			<rect x="266.5" y="14.2" style="fill:#FFFFFF;" width="9" height="24.8"/>
			<path style="fill:#FFFFFF;" d="M275.8,39.3h-9.7V13.9h9.7V39.3z M266.8,38.7h8.4V14.6h-8.4V38.7z"/>
		</g>
	</g>
	<g id="Room-2">
		<g>
			<polygon style="fill:#D9D9D9;" points="122,134 15,134 15,140 9,140 9,205 15,205 15,217 9,217 9,285 15,285 15,292 122,292 
				122,218 116,218 116,206 122,206 			"/>
			<path style="fill:#666666;" d="M123,293H14v-7H8v-70h6v-10H8v-67h6v-6h109v74h-6v10h6V293z M16,291h105v-72h-6v-14h6v-70H16v6h-6
				v63h6v14h-6v66h6V291z"/>
		</g>
		<g>
			<rect x="19.2" y="253.5" style="fill:#FFFFFF;" width="11.2" height="30.8"/>
			<path style="fill:#FFFFFF;" d="M30.8,284.6H18.9v-31.5h11.9V284.6z M19.6,284h10.6v-30.2H19.6V284z"/>
		</g>
		<g>
			<rect x="19.2" y="218.5" style="fill:#FFFFFF;" width="11.2" height="30.8"/>
			<path style="fill:#FFFFFF;" d="M30.8,249.6H18.9v-31.5h11.9V249.6z M19.6,249h10.6v-30.2H19.6V249z"/>
		</g>
		<g>
			<rect x="19.2" y="184.5" style="fill:#FFFFFF;" width="11.2" height="30.8"/>
			<path style="fill:#FFFFFF;" d="M30.8,215.6H18.9v-31.5h11.9V215.6z M19.6,215h10.6v-30.2H19.6V215z"/>
		</g>
	</g>
</g>
<g>
	<path style="fill:#666666;" d="M38.6,338.3c0,0.1,0,0.1,0,0.2s0,0.1,0,0.1s0,0.1-0.1,0.1s-0.1,0-0.1,0h-4c0,0-0.1,0-0.1,0
		s0,0-0.1-0.1s0-0.1,0-0.1s0-0.1,0-0.2c0-0.1,0-0.1,0-0.2s0-0.1,0-0.1s0-0.1,0.1-0.1s0.1,0,0.1,0H36v-5.8l-1.5,0.9
		c-0.1,0-0.1,0.1-0.2,0.1s-0.1,0-0.1,0s0-0.1-0.1-0.1s0-0.1,0-0.2c0-0.1,0-0.1,0-0.2s0-0.1,0-0.1s0-0.1,0-0.1s0,0,0.1-0.1l1.7-1.1
		c0,0,0,0,0.1,0s0.1,0,0.1,0s0.1,0,0.1,0s0.1,0,0.2,0c0.1,0,0.2,0,0.2,0s0.1,0,0.1,0s0.1,0,0.1,0.1s0,0,0,0.1v6.7h1.4
		c0,0,0.1,0,0.1,0s0,0,0.1,0.1s0,0.1,0,0.1S38.6,338.3,38.6,338.3z"/>
	<path style="fill:#666666;" d="M42.5,335.8c0,0.2,0,0.3-0.1,0.3s-0.1,0.1-0.2,0.1h-2.4c-0.1,0-0.1,0-0.2-0.1s-0.1-0.2-0.1-0.3
		s0-0.3,0.1-0.3s0.1-0.1,0.2-0.1h2.4c0,0,0.1,0,0.1,0s0,0,0.1,0.1s0,0.1,0,0.1S42.5,335.7,42.5,335.8z"/>
	<path style="fill:#666666;" d="M47.8,338.6c0,0,0,0.1,0,0.1s-0.1,0-0.1,0.1s-0.1,0-0.2,0c-0.1,0-0.2,0-0.2,0s-0.1,0-0.1-0.1
		s0-0.1,0-0.1v-0.5c-0.2,0.2-0.5,0.4-0.8,0.6s-0.6,0.2-0.9,0.2c-0.3,0-0.5,0-0.8-0.1s-0.4-0.2-0.6-0.3s-0.3-0.3-0.4-0.5
		s-0.1-0.4-0.1-0.7c0-0.3,0.1-0.6,0.2-0.8s0.3-0.4,0.5-0.5s0.5-0.3,0.8-0.3s0.7-0.1,1.1-0.1h0.7v-0.4c0-0.2,0-0.4-0.1-0.5
		s-0.1-0.3-0.2-0.4s-0.2-0.2-0.4-0.2s-0.3-0.1-0.6-0.1c-0.2,0-0.5,0-0.6,0.1s-0.4,0.1-0.5,0.2s-0.3,0.1-0.4,0.2s-0.2,0.1-0.2,0.1
		c0,0-0.1,0-0.1,0s0,0-0.1-0.1s0-0.1,0-0.1s0-0.1,0-0.2c0-0.1,0-0.2,0-0.2s0-0.1,0.1-0.2s0.1-0.1,0.3-0.2s0.3-0.1,0.4-0.2
		s0.4-0.1,0.6-0.1s0.4-0.1,0.6-0.1c0.4,0,0.7,0,1,0.1s0.5,0.2,0.6,0.4s0.3,0.4,0.4,0.6s0.1,0.5,0.1,0.9V338.6z M46.8,336.2H46
		c-0.3,0-0.5,0-0.7,0.1s-0.4,0.1-0.5,0.2s-0.2,0.2-0.3,0.3s-0.1,0.3-0.1,0.4c0,0.3,0.1,0.5,0.3,0.7s0.4,0.2,0.7,0.2
		c0.3,0,0.5-0.1,0.7-0.2s0.4-0.3,0.7-0.6V336.2z"/>
	<path style="fill:#666666;" d="M53.5,338.6C53.5,338.6,53.4,338.6,53.5,338.6c0,0.1-0.1,0.1-0.1,0.1s-0.1,0-0.1,0s-0.1,0-0.2,0
		c-0.1,0-0.2,0-0.2,0s-0.1,0-0.1,0s-0.1,0-0.1-0.1s0-0.1,0-0.1v-2.2h-0.6c-0.2,0-0.4,0-0.6,0.1s-0.3,0.1-0.4,0.2s-0.2,0.2-0.3,0.4
		s-0.2,0.3-0.2,0.5l-0.4,1c0,0.1,0,0.1-0.1,0.1s-0.1,0.1-0.1,0.1s-0.1,0-0.2,0s-0.2,0-0.3,0c-0.1,0-0.1,0-0.2,0s-0.1,0-0.1,0
		s-0.1,0-0.1,0s0,0,0-0.1c0,0,0-0.1,0-0.1s0.1-0.2,0.1-0.3l0.4-1c0.1-0.3,0.2-0.5,0.4-0.6s0.3-0.3,0.6-0.4c-0.4-0.1-0.7-0.2-0.9-0.5
		s-0.3-0.5-0.3-0.9c0-0.3,0.1-0.5,0.2-0.7s0.3-0.4,0.5-0.5s0.5-0.3,0.8-0.3s0.6-0.1,1-0.1c0.1,0,0.2,0,0.3,0s0.3,0,0.4,0
		s0.3,0,0.4,0s0.2,0,0.3,0c0.1,0,0.2,0.1,0.3,0.1s0.1,0.2,0.1,0.3V338.6z M52.5,333.9c-0.1,0-0.3,0-0.4,0s-0.3,0-0.4,0
		c-0.3,0-0.5,0-0.7,0.1s-0.3,0.1-0.4,0.2s-0.2,0.2-0.2,0.3s-0.1,0.2-0.1,0.4c0,0.1,0,0.3,0.1,0.4s0.1,0.2,0.2,0.3s0.2,0.1,0.4,0.2
		s0.4,0.1,0.7,0.1h0.8V333.9z"/>
	<path style="fill:#666666;" d="M61.7,337.8c0,0.1,0,0.1,0,0.2s0,0.1,0,0.1s0,0.1,0,0.1s0,0.1-0.1,0.1s-0.1,0.1-0.2,0.2
		s-0.2,0.1-0.4,0.2s-0.3,0.1-0.5,0.1s-0.3,0.1-0.5,0.1c-0.4,0-0.7-0.1-1-0.2s-0.5-0.3-0.7-0.5s-0.3-0.5-0.5-0.9s-0.2-0.8-0.2-1.2
		c0-0.5,0.1-1,0.2-1.3s0.3-0.7,0.5-0.9s0.5-0.4,0.8-0.5s0.6-0.2,1-0.2c0.2,0,0.3,0,0.5,0s0.3,0.1,0.4,0.1s0.3,0.1,0.4,0.2
		s0.2,0.1,0.2,0.2s0.1,0.1,0.1,0.1s0,0.1,0,0.1s0,0.1,0,0.1s0,0.1,0,0.2c0,0.2,0,0.3-0.1,0.3s-0.1,0.1-0.1,0.1c-0.1,0-0.1,0-0.2-0.1
		s-0.2-0.1-0.3-0.2s-0.3-0.1-0.4-0.2s-0.4-0.1-0.6-0.1c-0.5,0-0.8,0.2-1.1,0.5s-0.4,0.9-0.4,1.6c0,0.3,0,0.6,0.1,0.9
		s0.2,0.5,0.3,0.6s0.3,0.3,0.5,0.4s0.4,0.1,0.6,0.1c0.2,0,0.4,0,0.6-0.1s0.3-0.1,0.4-0.2s0.2-0.2,0.3-0.2s0.1-0.1,0.2-0.1
		c0,0,0.1,0,0.1,0s0,0,0,0.1s0,0.1,0,0.1S61.7,337.7,61.7,337.8z"/>
	<path style="fill:#666666;" d="M67.5,335.7c0,0.2,0,0.3-0.1,0.3s-0.2,0.1-0.3,0.1h-3.5c0,0.3,0,0.6,0.1,0.8
		c0.1,0.2,0.2,0.4,0.3,0.6c0.1,0.2,0.3,0.3,0.5,0.4s0.5,0.1,0.8,0.1c0.3,0,0.5,0,0.7-0.1s0.4-0.1,0.5-0.1c0.1-0.1,0.3-0.1,0.4-0.1
		s0.2-0.1,0.2-0.1c0,0,0.1,0,0.1,0s0,0,0.1,0.1c0,0,0,0.1,0,0.1s0,0.1,0,0.2c0,0.1,0,0.1,0,0.1s0,0.1,0,0.1s0,0.1,0,0.1s0,0-0.1,0.1
		s-0.1,0.1-0.2,0.1s-0.2,0.1-0.4,0.1s-0.4,0.1-0.6,0.1s-0.5,0.1-0.7,0.1c-0.4,0-0.8-0.1-1.1-0.2s-0.6-0.3-0.8-0.5s-0.4-0.5-0.5-0.9
		s-0.2-0.8-0.2-1.3c0-0.5,0.1-0.9,0.2-1.2s0.3-0.7,0.5-0.9s0.5-0.4,0.8-0.6s0.7-0.2,1-0.2c0.4,0,0.8,0.1,1.1,0.2s0.5,0.3,0.7,0.5
		s0.3,0.5,0.4,0.8s0.1,0.6,0.1,1V335.7z M66.6,335.4c0-0.5-0.1-0.9-0.3-1.2c-0.2-0.3-0.6-0.4-1.1-0.4c-0.2,0-0.5,0-0.6,0.1
		c-0.2,0.1-0.3,0.2-0.5,0.4c-0.1,0.1-0.2,0.3-0.3,0.5s-0.1,0.4-0.1,0.6H66.6z"/>
	<path style="fill:#666666;" d="M73.9,335.9c0,0.5,0,0.9-0.1,1.2s-0.2,0.7-0.4,0.9s-0.4,0.5-0.7,0.6s-0.6,0.2-1,0.2
		c-0.2,0-0.3,0-0.4,0s-0.3-0.1-0.4-0.1s-0.3-0.2-0.4-0.3s-0.3-0.2-0.4-0.4v2.6c0,0,0,0.1,0,0.1s0,0-0.1,0.1s-0.1,0-0.1,0
		s-0.1,0-0.2,0c-0.1,0-0.2,0-0.2,0s-0.1,0-0.1,0s-0.1,0-0.1-0.1s0-0.1,0-0.1v-7.4c0,0,0-0.1,0-0.1s0,0,0.1-0.1s0.1,0,0.1,0
		s0.1,0,0.2,0c0.1,0,0.1,0,0.2,0s0.1,0,0.1,0s0.1,0,0.1,0.1s0,0,0,0.1v0.7c0.2-0.2,0.3-0.3,0.5-0.4s0.3-0.2,0.4-0.3s0.3-0.1,0.5-0.2
		s0.3-0.1,0.5-0.1c0.4,0,0.7,0.1,1,0.2s0.5,0.4,0.7,0.6s0.3,0.6,0.4,0.9S73.9,335.5,73.9,335.9z M72.9,336c0-0.3,0-0.5-0.1-0.8
		c0-0.3-0.1-0.5-0.2-0.7c-0.1-0.2-0.2-0.4-0.4-0.5c-0.2-0.1-0.4-0.2-0.6-0.2c-0.1,0-0.3,0-0.4,0.1c-0.1,0-0.2,0.1-0.4,0.2
		c-0.1,0.1-0.3,0.2-0.4,0.3c-0.1,0.1-0.3,0.3-0.4,0.5v2.1c0.3,0.3,0.5,0.6,0.8,0.7c0.2,0.2,0.5,0.3,0.8,0.3c0.2,0,0.5-0.1,0.6-0.2
		c0.2-0.1,0.3-0.3,0.4-0.5s0.2-0.4,0.2-0.7S72.9,336.2,72.9,336z"/>
	<path style="fill:#666666;" d="M79.6,337.1c0,0.3-0.1,0.5-0.2,0.7s-0.3,0.4-0.5,0.5s-0.5,0.3-0.8,0.3s-0.7,0.1-1.1,0.1
		c-0.1,0-0.3,0-0.4,0s-0.2,0-0.4,0s-0.2,0-0.3,0s-0.2,0-0.3,0c-0.2,0-0.3-0.1-0.3-0.2s-0.1-0.2-0.1-0.4v-4.5c0-0.2,0-0.3,0.1-0.4
		s0.2-0.1,0.3-0.2c0.1,0,0.2,0,0.3,0s0.2,0,0.4,0s0.2,0,0.4,0s0.3,0,0.4,0c0.4,0,0.7,0,1,0.1s0.5,0.2,0.7,0.3s0.3,0.3,0.4,0.4
		s0.1,0.4,0.1,0.6c0,0.3-0.1,0.6-0.2,0.8s-0.4,0.4-0.7,0.5c0.4,0.1,0.7,0.2,0.9,0.5S79.6,336.7,79.6,337.1z M78.5,334.6
		c0-0.1,0-0.2-0.1-0.3s-0.1-0.2-0.2-0.3s-0.2-0.1-0.4-0.2s-0.4-0.1-0.6-0.1c-0.2,0-0.4,0-0.5,0s-0.3,0-0.4,0v1.6h1
		c0.4,0,0.7-0.1,0.9-0.2S78.5,334.9,78.5,334.6z M78.6,337.1c0-0.2,0-0.3-0.1-0.4s-0.1-0.2-0.3-0.3s-0.3-0.1-0.5-0.2
		s-0.4-0.1-0.7-0.1h-0.9v1.9c0.1,0,0.2,0,0.2,0s0.2,0,0.2,0s0.2,0,0.3,0s0.2,0,0.2,0c0.3,0,0.5,0,0.7-0.1s0.3-0.1,0.4-0.2
		s0.2-0.2,0.3-0.3S78.6,337.2,78.6,337.1z"/>
	<path style="fill:#666666;" d="M85.6,335.7c0,0.2,0,0.3-0.1,0.3s-0.2,0.1-0.3,0.1h-3.5c0,0.3,0,0.6,0.1,0.8
		c0.1,0.2,0.2,0.4,0.3,0.6c0.1,0.2,0.3,0.3,0.5,0.4s0.5,0.1,0.8,0.1c0.3,0,0.5,0,0.7-0.1s0.4-0.1,0.5-0.1c0.1-0.1,0.3-0.1,0.4-0.1
		s0.2-0.1,0.2-0.1c0,0,0.1,0,0.1,0s0,0,0.1,0.1c0,0,0,0.1,0,0.1s0,0.1,0,0.2c0,0.1,0,0.1,0,0.1s0,0.1,0,0.1s0,0.1,0,0.1s0,0-0.1,0.1
		s-0.1,0.1-0.2,0.1s-0.2,0.1-0.4,0.1s-0.4,0.1-0.6,0.1s-0.5,0.1-0.7,0.1c-0.4,0-0.8-0.1-1.1-0.2s-0.6-0.3-0.8-0.5s-0.4-0.5-0.5-0.9
		s-0.2-0.8-0.2-1.3c0-0.5,0.1-0.9,0.2-1.2s0.3-0.7,0.5-0.9s0.5-0.4,0.8-0.6s0.7-0.2,1-0.2c0.4,0,0.8,0.1,1.1,0.2s0.5,0.3,0.7,0.5
		s0.3,0.5,0.4,0.8s0.1,0.6,0.1,1V335.7z M84.6,335.4c0-0.5-0.1-0.9-0.3-1.2c-0.2-0.3-0.6-0.4-1.1-0.4c-0.2,0-0.5,0-0.6,0.1
		c-0.2,0.1-0.3,0.2-0.5,0.4c-0.1,0.1-0.2,0.3-0.3,0.5s-0.1,0.4-0.1,0.6H84.6z"/>
	<path style="fill:#666666;" d="M91.9,335.9c0,0.5,0,0.9-0.1,1.2s-0.2,0.7-0.4,0.9s-0.4,0.5-0.7,0.6s-0.6,0.2-1,0.2
		c-0.2,0-0.3,0-0.4,0s-0.3-0.1-0.4-0.1s-0.3-0.2-0.4-0.3s-0.3-0.2-0.4-0.4v2.6c0,0,0,0.1,0,0.1s0,0-0.1,0.1s-0.1,0-0.1,0
		s-0.1,0-0.2,0c-0.1,0-0.2,0-0.2,0s-0.1,0-0.1,0s-0.1,0-0.1-0.1s0-0.1,0-0.1v-7.4c0,0,0-0.1,0-0.1s0,0,0.1-0.1s0.1,0,0.1,0
		s0.1,0,0.2,0c0.1,0,0.1,0,0.2,0s0.1,0,0.1,0s0.1,0,0.1,0.1s0,0,0,0.1v0.7c0.2-0.2,0.3-0.3,0.5-0.4s0.3-0.2,0.4-0.3s0.3-0.1,0.5-0.2
		s0.3-0.1,0.5-0.1c0.4,0,0.7,0.1,1,0.2s0.5,0.4,0.7,0.6s0.3,0.6,0.4,0.9S91.9,335.5,91.9,335.9z M90.9,336c0-0.3,0-0.5-0.1-0.8
		c0-0.3-0.1-0.5-0.2-0.7c-0.1-0.2-0.2-0.4-0.4-0.5c-0.2-0.1-0.4-0.2-0.6-0.2c-0.1,0-0.3,0-0.4,0.1c-0.1,0-0.2,0.1-0.4,0.2
		c-0.1,0.1-0.3,0.2-0.4,0.3c-0.1,0.1-0.3,0.3-0.4,0.5v2.1c0.3,0.3,0.5,0.6,0.8,0.7c0.2,0.2,0.5,0.3,0.8,0.3c0.2,0,0.5-0.1,0.6-0.2
		c0.2-0.1,0.3-0.3,0.4-0.5s0.2-0.4,0.2-0.7S90.9,336.2,90.9,336z"/>
	<path style="fill:#666666;" d="M98,338.6C98,338.6,97.9,338.6,98,338.6c0,0.1-0.1,0.1-0.1,0.1s-0.1,0-0.1,0s-0.1,0-0.2,0
		c-0.1,0-0.2,0-0.2,0s-0.1,0-0.1,0s-0.1,0-0.1-0.1s0,0,0-0.1v-2.3h-2.7v2.3c0,0,0,0.1,0,0.1s0,0-0.1,0.1s-0.1,0-0.1,0s-0.1,0-0.2,0
		c-0.1,0-0.2,0-0.2,0s-0.1,0-0.1,0s-0.1,0-0.1-0.1s0,0,0-0.1v-5.3c0,0,0-0.1,0-0.1s0,0,0.1-0.1s0.1,0,0.1,0s0.1,0,0.2,0
		c0.1,0,0.2,0,0.2,0s0.1,0,0.1,0s0.1,0,0.1,0.1s0,0,0,0.1v2.1H97v-2.1c0,0,0-0.1,0-0.1s0,0,0.1-0.1s0.1,0,0.1,0s0.1,0,0.2,0
		c0.1,0,0.2,0,0.2,0s0.1,0,0.1,0s0.1,0,0.1,0.1s0,0,0,0.1V338.6z"/>
	<path style="fill:#666666;" d="M103.7,338.6c0,0,0,0.1,0,0.1s-0.1,0-0.1,0.1s-0.1,0-0.2,0c-0.1,0-0.2,0-0.2,0s-0.1,0-0.1-0.1
		s0-0.1,0-0.1v-0.5c-0.2,0.2-0.5,0.4-0.8,0.6s-0.6,0.2-0.9,0.2c-0.3,0-0.5,0-0.8-0.1s-0.4-0.2-0.6-0.3s-0.3-0.3-0.4-0.5
		s-0.1-0.4-0.1-0.7c0-0.3,0.1-0.6,0.2-0.8s0.3-0.4,0.5-0.5s0.5-0.3,0.8-0.3s0.7-0.1,1.1-0.1h0.7v-0.4c0-0.2,0-0.4-0.1-0.5
		s-0.1-0.3-0.2-0.4s-0.2-0.2-0.4-0.2s-0.3-0.1-0.6-0.1c-0.2,0-0.5,0-0.6,0.1s-0.4,0.1-0.5,0.2s-0.3,0.1-0.4,0.2s-0.2,0.1-0.2,0.1
		c0,0-0.1,0-0.1,0s0,0-0.1-0.1s0-0.1,0-0.1s0-0.1,0-0.2c0-0.1,0-0.2,0-0.2s0-0.1,0.1-0.2s0.1-0.1,0.3-0.2s0.3-0.1,0.4-0.2
		s0.4-0.1,0.6-0.1s0.4-0.1,0.6-0.1c0.4,0,0.7,0,1,0.1s0.5,0.2,0.6,0.4s0.3,0.4,0.4,0.6s0.1,0.5,0.1,0.9V338.6z M102.8,336.2h-0.8
		c-0.3,0-0.5,0-0.7,0.1s-0.4,0.1-0.5,0.2s-0.2,0.2-0.3,0.3s-0.1,0.3-0.1,0.4c0,0.3,0.1,0.5,0.3,0.7s0.4,0.2,0.7,0.2
		c0.3,0,0.5-0.1,0.7-0.2s0.4-0.3,0.7-0.6V336.2z"/>
	<path style="fill:#666666;" d="M109.4,338.6C109.4,338.6,109.4,338.6,109.4,338.6c0,0.1-0.1,0.1-0.1,0.1s-0.1,0-0.1,0s-0.1,0-0.2,0
		c-0.1,0-0.2,0-0.2,0s-0.1,0-0.1,0s-0.1,0-0.1-0.1s0-0.1,0-0.1v-2.2h-0.6c-0.2,0-0.4,0-0.6,0.1s-0.3,0.1-0.4,0.2s-0.2,0.2-0.3,0.4
		s-0.2,0.3-0.2,0.5l-0.4,1c0,0.1,0,0.1-0.1,0.1s-0.1,0.1-0.1,0.1s-0.1,0-0.2,0s-0.2,0-0.3,0c-0.1,0-0.1,0-0.2,0s-0.1,0-0.1,0
		s-0.1,0-0.1,0s0,0,0-0.1c0,0,0-0.1,0-0.1s0.1-0.2,0.1-0.3l0.4-1c0.1-0.3,0.2-0.5,0.4-0.6s0.3-0.3,0.6-0.4c-0.4-0.1-0.7-0.2-0.9-0.5
		s-0.3-0.5-0.3-0.9c0-0.3,0.1-0.5,0.2-0.7s0.3-0.4,0.5-0.5s0.5-0.3,0.8-0.3s0.6-0.1,1-0.1c0.1,0,0.2,0,0.3,0s0.3,0,0.4,0
		s0.3,0,0.4,0s0.2,0,0.3,0c0.1,0,0.2,0.1,0.3,0.1s0.1,0.2,0.1,0.3V338.6z M108.4,333.9c-0.1,0-0.3,0-0.4,0s-0.3,0-0.4,0
		c-0.3,0-0.5,0-0.7,0.1s-0.3,0.1-0.4,0.2s-0.2,0.2-0.2,0.3s-0.1,0.2-0.1,0.4c0,0.1,0,0.3,0.1,0.4s0.1,0.2,0.2,0.3s0.2,0.1,0.4,0.2
		s0.4,0.1,0.7,0.1h0.8V333.9z"/>
</g>
<g>
	<rect id="door_1_" x="130" y="308.7" style="fill:#FFFFFF;" width="4" height="15.9"/>
	<path style="fill:#666666;" d="M134.5,325.1h-5v-16.9h5V325.1z M130.5,324.1h3v-14.9h-3V324.1z"/>
</g>
<g>
	<g>
		<path style="fill:#333333;" d="M139.2,305.9l-1.8-1.2c-0.5-0.3-0.7-0.8-0.5-1.1l0.9-1.3c0.2-0.3,0.8-0.3,1.2,0l1.8,1.2
			c0.5,0.3,0.7,0.8,0.5,1.1l-0.9,1.3C140.2,306.2,139.6,306.2,139.2,305.9z"/>
		<path style="fill:#333333;" d="M139.9,307.7c-0.5,0-1.1-0.2-1.5-0.5l-1.8-1.2c-1.2-0.8-1.5-2.2-0.9-3.2l0.9-1.3
			c0.4-0.6,1-0.9,1.8-0.9c0.5,0,1.1,0.2,1.6,0.5l1.8,1.2c0.5,0.3,0.8,0.8,1,1.3c0.3,0.7,0.2,1.4-0.2,2l-0.9,1.3
			C141.2,307.3,140.6,307.7,139.9,307.7z M140,304.7L140,304.7L140,304.7z M140,303.8C140,303.8,140,303.8,140,303.8L140,303.8z"/>
	</g>
	<path style="fill:#FFFFFF;" d="M142.3,306.2l2.3-0.4c0.1,0,0.2,0.1,0.1,0.2l-1.8,2.7c-0.1,0.1-0.2,0.1-0.2,0l-0.5-2.3
		C142.2,306.3,142.3,306.2,142.3,306.2z"/>
</g>
<g>
	<g>
		<path style="fill:#333333;" d="M139.2,324.8l-1.8,1.2c-0.5,0.3-0.7,0.8-0.5,1.1l0.9,1.3c0.2,0.3,0.8,0.3,1.2,0l1.8-1.2
			c0.5-0.3,0.7-0.8,0.5-1.1l-0.9-1.3C140.2,324.5,139.6,324.5,139.2,324.8z"/>
		<path style="fill:#333333;" d="M138.3,330.3C138.3,330.3,138.3,330.3,138.3,330.3c-0.7,0-1.4-0.3-1.8-0.9l-0.9-1.3
			c-0.4-0.6-0.4-1.3-0.2-2c0.2-0.5,0.6-0.9,1-1.3l1.8-1.2c0.5-0.3,1-0.5,1.6-0.5c0.7,0,1.4,0.3,1.8,0.9l0.9,1.3
			c0.4,0.6,0.4,1.3,0.2,2c-0.2,0.5-0.6,0.9-1,1.3l-1.8,1.2C139.3,330.1,138.8,330.3,138.3,330.3z M140,326L140,326
			C140,326.1,140,326.1,140,326l-0.8-1.2L140,326C140,326,140,326,140,326z"/>
	</g>
	<path style="fill:#FFFFFF;" d="M142.3,324.6l2.3,0.4c0.1,0,0.2-0.1,0.1-0.2l-1.8-2.7c-0.1-0.1-0.2-0.1-0.2,0l-0.5,2.3
		C142.2,324.5,142.3,324.6,142.3,324.6z"/>
</g>
<g>
	<g>
		<path style="fill:#333333;" d="M245.7,324.2l1.8,1.2c0.5,0.3,0.7,0.8,0.5,1.1l-0.9,1.3c-0.2,0.3-0.8,0.3-1.2,0l-1.8-1.2
			c-0.5-0.3-0.7-0.8-0.5-1.1l0.9-1.3C244.6,323.9,245.2,323.9,245.7,324.2z"/>
		<path style="fill:#333333;" d="M246.6,329.6c-0.5,0-1.1-0.2-1.5-0.5l-1.8-1.2c-0.5-0.3-0.8-0.8-1-1.3c-0.3-0.7-0.2-1.4,0.2-2
			l0.9-1.3c0.3-0.4,0.8-0.8,1.3-0.9c0.7-0.1,1.4,0,2,0.4l1.8,1.2c1.2,0.8,1.5,2.2,0.9,3.2l-0.9,1.3
			C247.9,329.3,247.3,329.6,246.6,329.6z M245.7,324.2l-0.8,1.2c0,0,0,0,0,0l0,0c0,0,0,0,0,0h0L245.7,324.2z M245.7,325.1
			L245.7,325.1C245.7,325.1,245.7,325.1,245.7,325.1z"/>
	</g>
	<path style="fill:#FFFFFF;" d="M242.5,324l-2.3,0.4c-0.1,0-0.2-0.1-0.1-0.2l1.8-2.7c0.1-0.1,0.2-0.1,0.2,0l0.5,2.3
		C242.6,323.9,242.5,323.9,242.5,324z"/>
</g>
<g>
	<g>
		<path style="fill:#333333;" d="M43.1,283.8v2.2c0,0.6-0.3,1-0.7,1h-1.6c-0.4,0-0.7-0.5-0.7-1v-2.2c0-0.6,0.3-1,0.7-1h1.6
			C42.8,282.8,43.1,283.3,43.1,283.8z"/>
		<path style="fill:#333333;" d="M42.4,288.6h-1.6c-1.2,0-2.2-1.1-2.2-2.5v-2.2c0-1.4,1-2.5,2.2-2.5h1.6c1.2,0,2.2,1.1,2.2,2.5v2.2
			C44.6,287.5,43.7,288.6,42.4,288.6z M41.7,283.8h1.5H41.7L41.7,283.8z M41.6,283.8L41.6,283.8C41.7,283.8,41.7,283.8,41.6,283.8
			L41.6,283.8C41.6,283.8,41.6,283.8,41.6,283.8L41.6,283.8z"/>
	</g>
	<path style="fill:#FFFFFF;" d="M41.6,281l-1.6-1.6c-0.1-0.1,0-0.2,0.1-0.2h3.2c0.1,0,0.2,0.1,0.1,0.2l-1.6,1.6
		C41.7,281.1,41.6,281.1,41.6,281z"/>
</g>
<g>
	<rect id="door_2_" x="249" y="101.5" style="fill:#FFFFFF;" width="4" height="15.9"/>
	<path style="fill:#666666;" d="M253.5,118h-5V101h5V118z M249.5,117h3V102h-3V117z"/>
</g>
<g>
	<rect id="door_4_" x="184.5" y="89.1" style="fill:#FFFFFF;" width="15.9" height="4"/>
	<path style="fill:#666666;" d="M201,93.6H184v-5H201V93.6z M185,92.6H200v-3H185V92.6z"/>
</g>
<g>
	<rect id="door_5_" x="184.5" y="328" style="fill:#FFFFFF;" width="15.9" height="4"/>
	<path style="fill:#666666;" d="M201,332.5H184v-5H201V332.5z M185,331.5H200v-3H185V331.5z"/>
</g>
</svg>
