<?xml version="1.0" encoding="utf-8"?>
<!-- Generator: Adobe Illustrator 21.1.0, SVG Export Plug-In . SVG Version: 6.00 Build 0)  -->
<svg version="1.1" id="Слой_1" xmlns="http://www.w3.org/2000/svg" xmlns:xlink="http://www.w3.org/1999/xlink" x="0px" y="0px"
	 viewBox="0 0 630.1 347.4" style="enable-background:new 0 0 630.1 347.4;" xml:space="preserve">
<g id="Слой_1_1_">
	<polygon style="fill:#CFCECD;stroke:#000000;stroke-width:2;stroke-miterlimit:10;" points="3,3 3,125.8 194.2,125.8 194.2,97.5 
		276.4,97.5 276.4,125.8 484.2,125.8 484.2,3 355.7,3 	"/>
	<polygon style="fill:#CFCECD;stroke:#53504F;stroke-width:2;stroke-miterlimit:10;" points="355.6,14.1 355.7,3 328.5,3 138.7,3 
		138.7,14.1 185.8,59.9 302.8,59.9 	"/>
	<path style="fill:#CFCECD;stroke:#000000;stroke-miterlimit:10;" d="M328.8,37.4"/>
	<path style="fill:#D6D3D8;stroke:#53504F;stroke-width:2;stroke-miterlimit:10;" d="M160.1,3.5v30.9c0,0.3,0.2,0.5,0.5,0.5h170.5
		c0.3,0,0.5-0.2,0.5-0.5V3.5c0-0.3-0.2-0.5-0.5-0.5H160.6C160.3,2.9,160.1,3.2,160.1,3.5z"/>
	<rect x="204.6" y="34.9" style="fill:#CFCECD;stroke:#53504F;stroke-width:2;stroke-miterlimit:10;" width="77" height="25"/>
	<rect x="3" y="141.2" style="fill:#CFCECD;stroke:#53504F;stroke-width:2;stroke-miterlimit:10;" width="41.9" height="48.2"/>
	<rect x="45" y="141.2" style="fill:#CFCECD;stroke:#53504F;stroke-width:2;stroke-miterlimit:10;" width="73.5" height="48.2"/>
	<rect x="118.5" y="141.2" style="fill:#CFCECD;stroke:#53504F;stroke-width:2;stroke-miterlimit:10;" width="57.5" height="48.2"/>
	<rect x="176" y="141.2" style="fill:#CFCECD;stroke:#53504F;stroke-width:2;stroke-miterlimit:10;" width="26.4" height="18.2"/>
	<rect x="176" y="159.4" style="fill:#CFCECD;stroke:#53504F;stroke-width:2;stroke-miterlimit:10;" width="26.4" height="17.8"/>
	<rect x="147.2" y="239.7" style="fill:#CFCECD;stroke:#53504F;stroke-width:2;stroke-miterlimit:10;" width="55.1" height="30.2"/>
	<rect x="147.2" y="269.9" style="fill:#CFCECD;stroke:#53504F;stroke-width:2;stroke-miterlimit:10;" width="55.1" height="32.8"/>
	<rect x="147.2" y="302.7" style="fill:#CFCECD;stroke:#53504F;stroke-width:2;stroke-miterlimit:10;" width="92.2" height="28.3"/>
	<polygon style="fill:#CFCECD;stroke:#53504F;stroke-width:2;stroke-miterlimit:10;" points="213.4,291.6 340.4,291.6 339.7,204.7 
		356.1,204.7 356.1,141.2 281.7,141.2 271.6,161.9 213.4,161.9 	"/>
	<rect x="356.1" y="141.2" style="fill:#CFCECD;stroke:#53504F;stroke-width:2;stroke-miterlimit:10;" width="22.7" height="63.5"/>
	<rect x="378.7" y="141.2" style="fill:#CFCECD;stroke:#53504F;stroke-width:2;stroke-miterlimit:10;" width="57" height="63.5"/>
	<rect x="435.7" y="141.2" style="fill:#CFCECD;stroke:#53504F;stroke-width:2;stroke-miterlimit:10;" width="48.5" height="63.5"/>
	<rect x="527.7" y="90.4" style="fill:#CFCECD;stroke:#53504F;stroke-width:2;stroke-miterlimit:10;" width="99.8" height="50.8"/>
	<rect x="16.9" y="89.3" style="fill:#F2F1F1;stroke:#53504F;stroke-width:2;stroke-miterlimit:10;" width="72" height="26.5"/>
	<rect x="75.9" y="37.9" style="fill:#F2F1F1;stroke:#53504F;stroke-width:2;stroke-miterlimit:10;" width="72" height="26.5"/>
	<rect x="443.7" y="42.5" style="fill:#F2F1F1;stroke:#53504F;stroke-width:2;stroke-miterlimit:10;" width="26.5" height="72"/>
	<polygon style="fill:#CFCECD;stroke:#53504F;stroke-width:2;stroke-miterlimit:10;" points="176,189.3 176,212.9 176,239.7 
		147.2,239.7 147.2,189.3 	"/>
	<rect x="176" y="211.9" style="fill:#CFCECD;stroke:#53504F;stroke-width:2;stroke-miterlimit:10;" width="26.4" height="27.8"/>
	<rect x="176" y="177.1" style="fill:#CFCECD;stroke:#53504F;stroke-width:2;stroke-miterlimit:10;" width="26.4" height="34.8"/>
	<rect x="176.5" y="237.3" style="fill:#F2F1F1;stroke:#53504F;stroke-miterlimit:10;" width="9.1" height="2.4"/>
	<rect x="173.5" y="197.2" style="fill:#F2F1F1;stroke:#53504F;stroke-miterlimit:10;" width="2.4" height="9.1"/>
	<path style="fill:#CFCECD;stroke:#000000;stroke-miterlimit:10;" d="M111.9,45.4"/>
	<path style="fill:#CFCECD;stroke:#000000;stroke-miterlimit:10;" d="M109.8,50.6"/>
	<ellipse style="fill:none;stroke:#58595B;stroke-miterlimit:10;" cx="457.3" cy="78.5" rx="5.7" ry="5.8"/>
	<polygon style="fill:#A9A5B0;stroke:#53504F;stroke-width:2;stroke-miterlimit:10;" points="3,125.8 3,141.2 202.4,141.2 
		202.4,302.7 239.4,302.7 239.4,331 255.1,331 288.1,331 288.1,302.7 288.1,291.6 213.4,291.6 213.4,161.9 271.6,161.9 281.7,141.2 
		484.2,141.2 484.2,204.7 527.7,204.7 527.7,141.2 527.7,3 484.2,3 484.2,125.8 276.4,125.8 276.4,97.5 194.2,97.5 194.2,125.8 	"/>
	<rect x="243" y="331" style="fill:#F2F1F1;stroke:#53504F;stroke-miterlimit:10;" width="9.1" height="2.4"/>
	<rect x="81.3" y="189.3" style="fill:#F2F1F1;stroke:#53504F;stroke-miterlimit:10;" width="20" height="2.4"/>
	<rect x="246.9" y="153.8" style="fill:#CFCECD;stroke:#53504F;stroke-width:0.5;stroke-miterlimit:10;" width="5" height="6.1"/>
	<rect x="236.9" y="153.8" style="fill:#CFCECD;stroke:#53504F;stroke-width:0.5;stroke-miterlimit:10;" width="5" height="6.1"/>
	<rect x="231.8" y="153.8" style="fill:#CFCECD;stroke:#53504F;stroke-width:0.5;stroke-miterlimit:10;" width="5" height="6.1"/>
	<rect x="226.8" y="153.8" style="fill:#CFCECD;stroke:#53504F;stroke-width:0.5;stroke-miterlimit:10;" width="5" height="6.1"/>
	<rect x="251.9" y="141.2" style="fill:#CFCECD;stroke:#53504F;stroke-width:0.5;stroke-miterlimit:10;" width="5" height="6.1"/>
	<rect x="246.9" y="141.2" style="fill:#CFCECD;stroke:#53504F;stroke-width:0.5;stroke-miterlimit:10;" width="5" height="6.1"/>
	<rect x="242" y="141.2" style="fill:#CFCECD;stroke:#53504F;stroke-width:0.5;stroke-miterlimit:10;" width="5" height="6.1"/>
	<rect x="237" y="141.2" style="fill:#CFCECD;stroke:#53504F;stroke-width:0.5;stroke-miterlimit:10;" width="5" height="6.1"/>
	<rect x="231.9" y="141.2" style="fill:#CFCECD;stroke:#53504F;stroke-width:0.5;stroke-miterlimit:10;" width="5.1" height="6.1"/>
	<rect x="221" y="143.9" style="fill:#4F5150;stroke:#53504F;stroke-width:0.2;stroke-miterlimit:10;" width="34.6" height="0.4"/>
	<rect x="221" y="143.9" style="fill:#4F5150;stroke:#53504F;stroke-width:0.2;stroke-miterlimit:10;" width="0.4" height="13.1"/>
	<polygon style="fill:#4F5150;stroke:#53504F;stroke-width:0.2;stroke-miterlimit:10;" points="249.2,156.7 250.3,156.7 
		249.2,156.1 	"/>
	<polygon style="fill:#4F5150;stroke:#53504F;stroke-width:0.2;stroke-miterlimit:10;" points="249.2,156.9 250.3,156.9 
		249.2,157.5 	"/>
	
		<rect x="223.5" y="147.3" style="fill:#CFCECD;stroke:#53504F;stroke-width:0.5;stroke-miterlimit:10;" width="37.4" height="6.4"/>
	
		<rect x="224.9" y="148.2" style="fill:#CFCECD;stroke:#53504F;stroke-width:0.5;stroke-miterlimit:10;" width="34.6" height="4.6"/>
	<rect x="241.9" y="153.8" style="fill:#CFCECD;stroke:#53504F;stroke-width:0.5;stroke-miterlimit:10;" width="5" height="6.1"/>
	
		<rect x="221.4" y="156.6" style="fill:#504F50;stroke:#53504F;stroke-width:0.2;stroke-miterlimit:10;" width="27.9" height="0.4"/>
	<path style="fill:none;stroke:#58595B;stroke-width:0.5;stroke-miterlimit:10;" d="M453.7,78.8l1.2-1.6c0.2-0.2,0.5-0.3,0.7-0.1
		l3.2,2.3c0.2,0.1,0.3,0.2,0.4,0l0.9-1.4l0.1,0.1l-1,1.6c-0.1,0.2-0.2,0.2-0.4,0l-3.4-2.4c-0.1-0.1-0.3-0.1-0.4,0.1l-1.2,1.6
		L453.7,78.8z"/>
	<ellipse style="fill:none;stroke:#58595B;stroke-miterlimit:10;" cx="111.9" cy="50.6" rx="5.7" ry="5.8"/>
	<path style="fill:none;stroke:#58595B;stroke-width:0.5;stroke-miterlimit:10;" d="M108.3,50.9l1.2-1.6c0.2-0.2,0.5-0.3,0.7-0.1
		l3.2,2.3c0.2,0.1,0.3,0.2,0.4,0l0.9-1.4l0.1,0.1l-1,1.6c-0.1,0.2-0.2,0.2-0.4,0l-3.4-2.4c-0.1-0.1-0.3-0.1-0.4,0.1l-1.2,1.6
		L108.3,50.9z"/>
	<ellipse style="fill:none;stroke:#58595B;stroke-miterlimit:10;" cx="52.9" cy="102.6" rx="5.7" ry="5.8"/>
	<path style="fill:none;stroke:#58595B;stroke-width:0.5;stroke-miterlimit:10;" d="M49.3,102.9l1.2-1.6c0.2-0.2,0.5-0.3,0.7-0.1
		l3.2,2.3c0.2,0.1,0.3,0.2,0.4,0l0.9-1.4l0.1,0.1l-1,1.6c-0.1,0.2-0.2,0.2-0.4,0l-3.4-2.4c-0.1-0.1-0.3-0.1-0.4,0.1l-1.2,1.6
		L49.3,102.9z"/>
	<rect x="86.3" y="138.8" style="fill:#F2F1F1;stroke:#53504F;stroke-miterlimit:10;" width="9.1" height="2.4"/>
	<rect x="192" y="106.7" style="fill:#F2F1F1;stroke:#53504F;stroke-miterlimit:10;" width="2.4" height="9.1"/>
	<rect x="202.4" y="219.7" style="fill:#F2F1F1;stroke:#53504F;stroke-miterlimit:10;" width="2.4" height="9.1"/>
	<rect x="255.1" y="302.7" style="fill:#CFCECD;stroke:#53504F;stroke-width:2;stroke-miterlimit:10;" width="33" height="28.3"/>
	<rect x="525.3" y="122.2" style="fill:#F2F1F1;stroke:#53504F;stroke-miterlimit:10;" width="2.4" height="9.1"/>
	<rect x="182" y="116.8" style="fill:#CFCECD;stroke:#53504F;stroke-width:0.5;stroke-miterlimit:10;" width="6.5" height="4.2"/>
	<rect x="182" y="112.6" style="fill:#CFCECD;stroke:#53504F;stroke-width:0.5;stroke-miterlimit:10;" width="6.5" height="4.2"/>
	<rect x="182" y="108.5" style="fill:#CFCECD;stroke:#53504F;stroke-width:0.5;stroke-miterlimit:10;" width="6.5" height="4.2"/>
	<rect x="182" y="104.3" style="fill:#CFCECD;stroke:#53504F;stroke-width:0.5;stroke-miterlimit:10;" width="6.5" height="4.2"/>
	<rect x="182" y="100" style="fill:#CFCECD;stroke:#53504F;stroke-width:0.5;stroke-miterlimit:10;" width="6.5" height="4.3"/>
	<polygon style="fill:none;stroke:#53504F;stroke-width:2;stroke-miterlimit:10;" points="194.2,125.8 276.4,125.8 276.4,97.5 
		210.2,97.5 194.2,97.5 	"/>
	<rect x="210.1" y="98.5" style="fill:#A9A5B0;" width="50.2" height="29.7"/>
	<rect x="532.7" y="95" style="fill:#86715B;stroke:#85715A;stroke-width:0.65;stroke-miterlimit:10;" width="7.9" height="7.7"/>
	<rect x="541.8" y="95" style="fill:#86715B;stroke:#85715A;stroke-width:0.65;stroke-miterlimit:10;" width="7.9" height="7.7"/>
	<rect x="550.7" y="95" style="fill:#86715B;stroke:#85715A;stroke-width:0.65;stroke-miterlimit:10;" width="7.9" height="7.7"/>
	<rect x="559.8" y="95" style="fill:#86715B;stroke:#85715A;stroke-width:0.65;stroke-miterlimit:10;" width="7.9" height="7.7"/>
	<rect x="569" y="95" style="fill:#86715B;stroke:#85715A;stroke-width:0.65;stroke-miterlimit:10;" width="7.9" height="7.7"/>
	<rect x="578.2" y="95" style="fill:#86715B;stroke:#85715A;stroke-width:0.65;stroke-miterlimit:10;" width="7.9" height="7.7"/>
	<rect x="587.2" y="95" style="fill:#86715B;stroke:#85715A;stroke-width:0.65;stroke-miterlimit:10;" width="7.9" height="7.7"/>
	<rect x="596.1" y="95" style="fill:#86715B;stroke:#85715A;stroke-width:0.65;stroke-miterlimit:10;" width="7.9" height="7.7"/>
	<rect x="605.2" y="95" style="fill:#86715B;stroke:#85715A;stroke-width:0.65;stroke-miterlimit:10;" width="7.9" height="7.7"/>
	<rect x="614.4" y="95" style="fill:#86715B;stroke:#85715A;stroke-width:0.65;stroke-miterlimit:10;" width="7.9" height="7.7"/>
	<rect x="150" y="259.2" style="fill:#86715B;stroke:#85715A;stroke-width:0.65;stroke-miterlimit:10;" width="7.9" height="7.7"/>
	
		<rect x="159.1" y="259.2" style="fill:#86715B;stroke:#85715A;stroke-width:0.65;stroke-miterlimit:10;" width="7.9" height="7.7"/>
	<rect x="168" y="259.2" style="fill:#86715B;stroke:#85715A;stroke-width:0.65;stroke-miterlimit:10;" width="7.9" height="7.7"/>
	
		<rect x="179.4" y="256.2" style="fill:#86715B;stroke:#85715A;stroke-width:0.65;stroke-miterlimit:10;" width="11" height="10.7"/>
	<rect x="150" y="241.9" style="fill:#7BC366;stroke:#83C566;stroke-width:0.65;stroke-miterlimit:10;" width="10.6" height="3.9"/>
	
		<rect x="189.2" y="241.9" style="fill:#7BC366;stroke:#83C566;stroke-width:0.65;stroke-miterlimit:10;" width="10.6" height="3.9"/>
	
		<rect x="195.9" y="256.4" style="fill:#7BC366;stroke:#83C566;stroke-width:0.65;stroke-miterlimit:10;" width="3.9" height="10.6"/>
	<rect x="180.4" y="98.5" style="fill:none;stroke:#58595B;stroke-width:0.5;stroke-miterlimit:10;" width="9.5" height="24.2"/>
</g>
<g id="Контур">
	<polygon style="fill:none;stroke:#635D5D;stroke-width:6;stroke-miterlimit:10;" points="3.7,3 627.1,3 626.4,344.4 3,344.4 	"/>
</g>
</svg>
