<?xml version="1.0" encoding="utf-8"?>
<!-- Generator: Adobe Illustrator 22.0.0, SVG Export Plug-In . SVG Version: 6.00 Build 0)  -->
<svg version="1.1" id="Слой_1" xmlns="http://www.w3.org/2000/svg" xmlns:xlink="http://www.w3.org/1999/xlink" x="0px" y="0px"
	 viewBox="0 0 629 346.4" style="enable-background:new 0 0 629 346.4;" xml:space="preserve">
<style type="text/css">
	.st0{fill:#B3B3B3;stroke:#666666;stroke-width:2;stroke-miterlimit:10;}
	.st1{fill:#CFCECD;stroke:#000000;stroke-miterlimit:10;}
	.st2{fill:#D9D9D9;stroke:#666666;stroke-width:2;stroke-miterlimit:10;}
	.st3{fill:#FFFFFF;stroke:#666666;stroke-width:2;stroke-miterlimit:10;}
	.st4{fill:#FFFFFF;stroke:#666666;stroke-miterlimit:10;}
	.st5{fill:none;stroke:#58595B;stroke-miterlimit:10;}
	.st6{fill:#FFF5BE;stroke:#666666;stroke-width:2;stroke-miterlimit:10;}
	.st7{fill:#FFFFFF;stroke:#53504F;stroke-width:0.5;stroke-miterlimit:10;}
	.st8{fill:#4F5150;stroke:#53504F;stroke-width:0.2;stroke-miterlimit:10;}
	.st9{fill:#504F50;stroke:#53504F;stroke-width:0.2;stroke-miterlimit:10;}
	.st10{fill:none;stroke:#58595B;stroke-width:0.5;stroke-miterlimit:10;}
	.st11{fill:#FFF5BE;}
	.st12{fill:#86715B;stroke:#85715A;stroke-width:0.65;stroke-miterlimit:10;}
	.st13{fill:#7BC366;stroke:#83C566;stroke-width:0.65;stroke-miterlimit:10;}
	.st14{fill:#FFFFFF;stroke:#58595B;stroke-width:0.5;stroke-miterlimit:10;}
	.st15{fill:#666666;stroke:#666666;stroke-width:2;stroke-miterlimit:10;}
	.st16{fill:none;stroke:#666666;stroke-width:5;stroke-miterlimit:10;}
</style>
<g id="Слой_1_1_">
	<polygon class="st0" points="2.5,2.5 2.5,125.3 193.7,125.3 193.7,97 275.9,97 275.9,125.3 483.7,125.3 483.7,2.5 355.2,2.5 	"/>
	<polygon class="st0" points="355.1,13.6 355.2,2.5 328,2.5 138.2,2.5 138.2,13.6 185.3,59.4 302.3,59.4 	"/>
	<path class="st1" d="M328.2,36.9"/>
	<path class="st0" d="M159.6,3v30.9c0,0.3,0.2,0.5,0.5,0.5h170.5c0.3,0,0.5-0.2,0.5-0.5V3c0-0.3-0.2-0.5-0.5-0.5H160.1
		C159.8,2.4,159.6,2.7,159.6,3z"/>
	<rect x="204.1" y="34.4" class="st0" width="77" height="25"/>
	<rect x="2.5" y="140.7" class="st0" width="41.9" height="48.2"/>
	<rect x="44.4" y="140.7" class="st0" width="73.5" height="48.2"/>
	<rect x="118" y="140.7" class="st0" width="57.5" height="48.2"/>
	<rect x="175.4" y="140.7" class="st0" width="26.4" height="18.2"/>
	<rect x="175.4" y="158.9" class="st0" width="26.4" height="17.8"/>
	<rect x="146.7" y="239.2" class="st2" width="55.1" height="30.2"/>
	<rect x="146.7" y="269.4" class="st0" width="55.1" height="32.8"/>
	<rect x="146.7" y="302.2" class="st0" width="92.2" height="28.3"/>
	<polygon class="st0" points="212.9,291.1 339.9,291.1 339.6,204.2 355.5,204.2 355.5,140.7 281.2,140.7 271,161.4 212.9,161.4 	"/>
	<rect x="355.5" y="140.7" class="st0" width="22.7" height="63.5"/>
	<rect x="378.2" y="140.7" class="st0" width="57" height="63.5"/>
	<rect x="435.2" y="140.7" class="st0" width="48.5" height="63.5"/>
	<rect x="527.2" y="89.9" class="st2" width="99.3" height="50.8"/>
	<rect x="16.4" y="88.8" class="st3" width="72" height="26.5"/>
	<rect x="75.4" y="37.4" class="st3" width="72" height="26.5"/>
	<rect x="443.2" y="41.9" class="st3" width="26.5" height="72"/>
	<polygon class="st0" points="175.4,188.8 175.4,212.4 175.4,239.2 146.7,239.2 146.7,188.8 	"/>
	<rect x="175.4" y="211.4" class="st0" width="26.4" height="27.8"/>
	<rect x="175.4" y="176.6" class="st0" width="26.4" height="34.8"/>
	<rect x="175.9" y="236.8" class="st4" width="9.1" height="2.4"/>
	<rect x="173" y="196.7" class="st4" width="2.4" height="9.1"/>
	<path class="st1" d="M111.4,44.9"/>
	<path class="st1" d="M109.3,50.1"/>
	<ellipse class="st5" cx="456.8" cy="77.9" rx="5.7" ry="5.8"/>
	<polygon class="st6" points="2.5,125.3 2.5,140.7 201.8,140.7 201.8,302.2 238.9,302.2 238.9,330.5 254.5,330.5 287.5,330.5 
		287.5,302.2 287.5,291.1 212.9,291.1 212.9,161.4 271,161.4 281.2,140.7 483.7,140.7 483.7,204.2 527.2,204.2 527.2,140.7 
		527.2,2.5 483.7,2.5 483.7,125.3 275.9,125.3 275.9,97 193.7,97 193.7,125.3 	"/>
	<rect x="246.4" y="153.2" class="st7" width="5" height="6.1"/>
	<rect x="236.4" y="153.2" class="st7" width="5" height="6.1"/>
	<rect x="231.3" y="153.2" class="st7" width="5" height="6.1"/>
	<rect x="226.3" y="153.2" class="st7" width="5" height="6.1"/>
	<rect x="251.4" y="140.7" class="st7" width="5" height="6.1"/>
	<rect x="246.4" y="140.7" class="st7" width="5" height="6.1"/>
	<rect x="241.4" y="140.7" class="st7" width="5" height="6.1"/>
	<rect x="236.5" y="140.7" class="st7" width="5" height="6.1"/>
	<rect x="231.3" y="140.7" class="st7" width="5.1" height="6.1"/>
	<rect x="220.5" y="143.4" class="st8" width="34.6" height="0.4"/>
	<rect x="220.5" y="143.4" class="st8" width="0.4" height="13.1"/>
	<polygon class="st8" points="248.7,156.2 249.8,156.2 248.7,155.6 	"/>
	<polygon class="st8" points="248.7,156.4 249.8,156.4 248.7,157 	"/>
	<rect x="223" y="146.8" class="st7" width="37.4" height="6.4"/>
	<rect x="224.4" y="147.7" class="st7" width="34.6" height="4.6"/>
	<rect x="241.4" y="153.2" class="st7" width="5" height="6.1"/>
	<rect x="220.9" y="156.1" class="st9" width="27.9" height="0.4"/>
	<path class="st10" d="M453.2,78.3l1.2-1.6c0.2-0.2,0.5-0.3,0.7-0.1l3.2,2.3c0.2,0.1,0.3,0.2,0.4,0l0.9-1.4l0.1,0.1l-1,1.6
		c-0.1,0.2-0.2,0.2-0.4,0l-3.4-2.4c-0.1-0.1-0.3-0.1-0.4,0.1l-1.2,1.6L453.2,78.3z"/>
	<ellipse class="st5" cx="111.4" cy="50.1" rx="5.7" ry="5.8"/>
	<path class="st10" d="M107.8,50.4l1.2-1.6c0.2-0.2,0.5-0.3,0.7-0.1l3.2,2.3c0.2,0.1,0.3,0.2,0.4,0l0.9-1.4l0.1,0.1l-1,1.6
		c-0.1,0.2-0.2,0.2-0.4,0l-3.4-2.4c-0.1-0.1-0.3-0.1-0.4,0.1l-1.2,1.6L107.8,50.4z"/>
	<ellipse class="st5" cx="52.4" cy="102" rx="5.7" ry="5.8"/>
	<path class="st10" d="M48.8,102.3l1.2-1.6c0.2-0.2,0.5-0.3,0.7-0.1l3.2,2.3c0.2,0.1,0.3,0.2,0.4,0l0.9-1.4l0.1,0.1l-1,1.6
		c-0.1,0.2-0.2,0.2-0.4,0l-3.4-2.4c-0.1-0.1-0.3-0.1-0.4,0.1l-1.2,1.6L48.8,102.3z"/>
	<rect x="85.8" y="138.3" class="st4" width="9.1" height="2.4"/>
	<rect x="191.3" y="106.2" class="st4" width="2.4" height="9.1"/>
	<rect x="201.8" y="219.2" class="st4" width="2.4" height="9.1"/>
	<rect x="254.5" y="302.2" class="st0" width="33" height="28.3"/>
	<rect x="524.8" y="121.6" class="st4" width="2.4" height="9.1"/>
	<polygon class="st6" points="193.7,125.3 275.9,125.3 275.9,97 209.7,97 193.7,97 	"/>
	<rect x="209.5" y="98" class="st11" width="50.2" height="29.7"/>
	<rect x="530.7" y="94.5" class="st12" width="7.9" height="7.7"/>
	<rect x="539.7" y="94.5" class="st12" width="7.9" height="7.7"/>
	<rect x="149.5" y="258.7" class="st12" width="7.9" height="7.7"/>
	<rect x="158.6" y="258.7" class="st12" width="7.9" height="7.7"/>
	<rect x="167.5" y="258.7" class="st12" width="7.9" height="7.7"/>
	<rect x="149.5" y="241.4" class="st13" width="10.6" height="3.9"/>
	<rect x="188.6" y="241.4" class="st13" width="10.6" height="3.9"/>
	<rect x="195.3" y="255.8" class="st13" width="3.9" height="10.6"/>
	<rect x="179.9" y="98" class="st14" width="9.5" height="24.2"/>
	<rect x="181.1" y="258.7" class="st12" width="7.9" height="7.7"/>
	<rect x="548.7" y="94.5" class="st12" width="7.9" height="7.7"/>
	<rect x="557.7" y="94.5" class="st12" width="7.9" height="7.7"/>
	<rect x="566.7" y="94.5" class="st12" width="7.9" height="7.7"/>
	<rect x="575.7" y="94.5" class="st12" width="7.9" height="7.7"/>
	<rect x="584.7" y="94.5" class="st12" width="7.9" height="7.7"/>
	<rect x="593.7" y="94.5" class="st12" width="7.9" height="7.7"/>
	<rect x="602.7" y="94.5" class="st12" width="7.9" height="7.7"/>
	<rect x="611.7" y="94.5" class="st12" width="7.9" height="7.7"/>
	<rect x="181.4" y="116.3" class="st7" width="6.5" height="4.2"/>
	<rect x="181.4" y="112.1" class="st7" width="6.5" height="4.2"/>
	<rect x="181.4" y="108" class="st7" width="6.5" height="4.2"/>
	<rect x="181.4" y="103.8" class="st7" width="6.5" height="4.2"/>
	<rect x="181.4" y="99.5" class="st7" width="6.5" height="4.3"/>
	<polygon class="st15" points="2.5,188.8 146.7,188.8 146.7,330.5 287.5,330.5 287.5,291.1 339.9,291.1 339.6,204.2 527.2,204.2 
		626.5,204.2 626.5,343.9 2.5,343.9 	"/>
	<rect x="527.2" y="140.7" class="st15" width="99.3" height="63.5"/>
	<rect x="527.2" y="2.5" class="st15" width="99.3" height="87.4"/>
	<rect x="2.5" y="2.5" class="st16" width="624" height="341.4"/>
	<rect x="80.3" y="188.8" class="st4" width="20" height="2.4"/>
</g>
<g id="Контур">
	<rect x="242.5" y="330.5" class="st4" width="9.1" height="2.4"/>
</g>
</svg>
