<?xml version="1.0" encoding="utf-8"?>
<!-- Generator: Adobe Illustrator 21.1.0, SVG Export Plug-In . SVG Version: 6.00 Build 0)  -->
<svg version="1.1" id="Слой_1" xmlns="http://www.w3.org/2000/svg" xmlns:xlink="http://www.w3.org/1999/xlink" x="0px" y="0px"
	 viewBox="0 0 666.8 367.2" style="enable-background:new 0 0 666.8 367.2;" xml:space="preserve">
<g id="Main">
	<g>
		<rect style="fill:#E6E6E5;" width="666.8" height="367.2"/>
		<path style="fill:#B3B3B3;" d="M667.8,368.2H-1V-1h668.8V368.2z M1,366.2h664.8V1H1V366.2z"/>
	</g>
	<g>
		<polygon style="fill:#B3B3B3;" points="23.3,20.6 23.3,143.4 214.6,143.4 214.6,115.1 296.7,115.1 296.7,143.4 504.5,143.4 
			504.5,20.6 376,20.6 		"/>
		<path style="fill:#666666;" d="M505.5,144.4H295.7v-28.3h-80.1v28.3H22.3V19.6h483.2V144.4z M297.7,142.4h205.8V21.6H24.3v120.8
			h189.3v-28.3h84.1V142.4z"/>
	</g>
	<g>
		<polygon style="fill:#B3B3B3;" points="375.9,31.7 376,20.6 348.8,20.6 159,20.6 159,31.7 206.1,77.5 323.1,77.5 		"/>
		<path style="fill:#666666;" d="M323.5,78.5H205.7L158,32.1V19.6h219l-0.1,12.6L323.5,78.5z M206.5,76.5h116.2l52.2-45.3l0.1-9.6
			H160v9.7L206.5,76.5z"/>
	</g>
	<path style="fill:#CFCECD;stroke:#000000;stroke-miterlimit:10;" d="M349.1,55"/>
	<g>
		<path style="fill:#B3B3B3;" d="M180.4,21.1V52c0,0.3,0.2,0.5,0.5,0.5h170.5c0.3,0,0.5-0.2,0.5-0.5V21.1c0-0.3-0.2-0.5-0.5-0.5
			H180.9C180.6,20.5,180.4,20.8,180.4,21.1z"/>
		<path style="fill:#666666;" d="M351.4,53.5H180.9c-0.9,0-1.5-0.6-1.5-1.5V21.1c0-0.5,0.2-1,0.6-1.3c0.3-0.2,0.6-0.3,1-0.2h170.4
			c0.9,0,1.5,0.6,1.5,1.5V52C352.9,52.9,352.3,53.5,351.4,53.5z M181.4,51.5h169.5V21.6H181.4V51.5z"/>
	</g>
	<g>
		<rect x="224.9" y="52.5" style="fill:#B3B3B3;" width="77" height="25"/>
		<path style="fill:#666666;" d="M302.9,78.5h-79v-27h79V78.5z M225.9,76.5h75v-23h-75V76.5z"/>
	</g>
	<g>
		<rect x="23.3" y="158.8" style="fill:#B3B3B3;" width="41.9" height="48.2"/>
		<path style="fill:#666666;" d="M66.2,208H22.3v-50.2h43.9V208z M24.3,206h39.9v-46.2H24.3V206z"/>
	</g>
	<g>
		<rect x="65.3" y="158.8" style="fill:#B3B3B3;" width="73.5" height="48.2"/>
		<path style="fill:#666666;" d="M139.8,208H64.3v-50.2h75.5V208z M66.3,206h71.5v-46.2H66.3V206z"/>
	</g>
	<g>
		<rect x="138.8" y="158.8" style="fill:#B3B3B3;" width="57.5" height="48.2"/>
		<path style="fill:#666666;" d="M197.3,208h-59.5v-50.2h59.5V208z M139.8,206h55.5v-46.2h-55.5V206z"/>
	</g>
	<g>
		<rect x="196.3" y="158.8" style="fill:#B3B3B3;" width="26.4" height="18.2"/>
		<path style="fill:#666666;" d="M223.7,178h-28.4v-20.2h28.4V178z M197.3,176h24.4v-16.2h-24.4V176z"/>
	</g>
	<g>
		<rect x="196.3" y="177" style="fill:#B3B3B3;" width="26.4" height="17.8"/>
		<path style="fill:#666666;" d="M223.7,195.8h-28.4V176h28.4V195.8z M197.3,193.8h24.4V178h-24.4V193.8z"/>
	</g>
	<g>
		<rect x="167.5" y="287.5" style="fill:#B3B3B3;" width="55.1" height="32.8"/>
		<path style="fill:#666666;" d="M223.6,321.3h-57.1v-34.8h57.1V321.3z M168.5,319.3h53.1v-30.8h-53.1V319.3z"/>
	</g>
	<g>
		<rect x="167.5" y="320.3" style="fill:#B3B3B3;" width="92.2" height="28.3"/>
		<path style="fill:#666666;" d="M260.7,349.6h-94.2v-30.3h94.2V349.6z M168.5,347.6h90.2v-26.3h-90.2V347.6z"/>
	</g>
	<g>
		<polygon style="fill:#B3B3B3;" points="233.7,309.2 360.7,309.2 360.5,222.3 376.4,222.3 376.4,158.8 302,158.8 291.9,179.5 
			233.7,179.5 		"/>
		<path style="fill:#666666;" d="M361.7,310.2h-129V178.5h58.6l10.1-20.7h76v65.5h-15.9L361.7,310.2z M234.7,308.2h125l-0.2-86.9
			h15.9v-61.5h-72.8l-10.1,20.7h-57.8V308.2z"/>
	</g>
	<g>
		<rect x="376.4" y="158.8" style="fill:#B3B3B3;" width="22.7" height="63.5"/>
		<path style="fill:#666666;" d="M400.1,223.3h-24.7v-65.5h24.7V223.3z M377.4,221.3h20.7v-61.5h-20.7V221.3z"/>
	</g>
	<g>
		<rect x="399" y="158.8" style="fill:#B3B3B3;" width="57" height="63.5"/>
		<path style="fill:#666666;" d="M457,223.3h-59v-65.5h59V223.3z M400,221.3h55v-61.5h-55V221.3z"/>
	</g>
	<g>
		<rect x="456" y="158.8" style="fill:#B3B3B3;" width="48.5" height="63.5"/>
		<path style="fill:#666666;" d="M505.5,223.3H455v-65.5h50.5V223.3z M457,221.3h46.5v-61.5H457V221.3z"/>
	</g>
	<g>
		<rect x="37.2" y="106.9" style="fill:#B3B3B3;" width="72" height="26.5"/>
		<path style="fill:#666666;" d="M110.2,134.4h-74v-28.5h74V134.4z M38.2,132.4h70v-24.5h-70V132.4z"/>
	</g>
	<g>
		<rect x="96.2" y="55.5" style="fill:#B3B3B3;" width="72" height="26.5"/>
		<path style="fill:#666666;" d="M169.2,83h-74V54.5h74V83z M97.2,81h70V56.5h-70V81z"/>
	</g>
	<g>
		<rect x="464" y="60" style="fill:#B3B3B3;" width="26.5" height="72"/>
		<path style="fill:#666666;" d="M491.5,133H463V59h28.5V133z M465,131h24.5V61H465V131z"/>
	</g>
	<g>
		<polygon style="fill:#B3B3B3;" points="196.3,206.9 196.3,230.5 196.3,257.3 167.5,257.3 167.5,206.9 		"/>
		<path style="fill:#666666;" d="M197.3,258.3h-30.8v-52.4h30.8V258.3z M168.5,256.3h26.8v-48.4h-26.8V256.3z"/>
	</g>
	<g>
		<rect x="196.3" y="229.5" style="fill:#B3B3B3;" width="26.4" height="27.8"/>
		<path style="fill:#666666;" d="M223.7,258.3h-28.4v-29.8h28.4V258.3z M197.3,256.3h24.4v-25.8h-24.4V256.3z"/>
	</g>
	<g>
		<rect x="196.3" y="194.7" style="fill:#B3B3B3;" width="26.4" height="34.8"/>
		<path style="fill:#666666;" d="M223.7,230.5h-28.4v-36.8h28.4V230.5z M197.3,228.5h24.4v-32.8h-24.4V228.5z"/>
	</g>
	<g>
		<rect x="196.8" y="254.9" style="fill:#FFFFFF;" width="9.1" height="2.4"/>
		<path style="fill:#666666;" d="M206.4,257.8h-10.1v-3.4h10.1V257.8z M197.3,256.8h8.1v-1.4h-8.1V256.8z"/>
	</g>
	<g>
		<rect x="193.9" y="214.8" style="fill:#FFFFFF;" width="2.4" height="9.1"/>
		<path style="fill:#666666;" d="M196.8,224.4h-3.4v-10.1h3.4V224.4z M194.4,223.4h1.4v-8.1h-1.4V223.4z"/>
	</g>
	<path style="fill:#CFCECD;stroke:#000000;stroke-miterlimit:10;" d="M132.2,63"/>
	<path style="fill:#CFCECD;stroke:#000000;stroke-miterlimit:10;" d="M130.1,68.2"/>
	<path style="fill:#FFFFFF;" d="M477.6,102.3c-3.4,0-6.2-2.8-6.2-6.3s2.8-6.3,6.2-6.3c3.4,0,6.2,2.8,6.2,6.3S481,102.3,477.6,102.3z
		 M477.6,90.7c-2.9,0-5.2,2.4-5.2,5.3s2.3,5.3,5.2,5.3s5.2-2.4,5.2-5.3S480.5,90.7,477.6,90.7z"/>
	<g>
		<polygon style="fill:#B3B3B3;" points="23.3,143.4 23.3,158.8 222.7,158.8 222.7,320.3 259.7,320.3 259.7,348.6 275.4,348.6 
			308.4,348.6 308.4,320.3 308.4,309.2 233.7,309.2 233.7,179.5 291.9,179.5 302,158.8 504.5,158.8 504.5,222.3 548,222.3 
			548,158.8 548,20.6 504.5,20.6 504.5,143.4 296.7,143.4 296.7,115.1 214.6,115.1 214.6,143.4 		"/>
		<path style="fill:#666666;" d="M309.4,349.6h-50.7v-28.3h-37V159.8H22.3v-17.4h191.3v-28.3h84.1v28.3h205.8V19.6H549v203.7h-45.5
			v-63.5H302.6l-10.1,20.7h-57.8v127.7h74.7V349.6z M260.7,347.6h46.7v-37.4h-74.7V178.5h58.6l10.1-20.7h204.1v63.5H547V21.6h-41.5
			v122.8H295.7v-28.3h-80.1v28.3H24.3v13.4h199.4v161.5h37V347.6z"/>
	</g>
	<g>
		<rect x="276.6" y="171.3" style="fill:#FFFFFF;" width="5" height="6.1"/>
		<path style="fill:#53504F;" d="M281.9,177.6h-5.5V171h5.5V177.6z M276.9,177.1h4.5v-5.6h-4.5V177.1z"/>
	</g>
	<g>
		<rect x="266.6" y="171.3" style="fill:#FFFFFF;" width="5" height="6.1"/>
		<path style="fill:#53504F;" d="M271.9,177.6h-5.5V171h5.5V177.6z M266.9,177.1h4.5v-5.6h-4.5V177.1z"/>
	</g>
	<g>
		<rect x="261.5" y="171.3" style="fill:#FFFFFF;" width="5" height="6.1"/>
		<path style="fill:#53504F;" d="M266.8,177.6h-5.5V171h5.5V177.6z M261.8,177.1h4.5v-5.6h-4.5V177.1z"/>
	</g>
	<g>
		<rect x="256.5" y="171.3" style="fill:#FFFFFF;" width="5" height="6.1"/>
		<path style="fill:#53504F;" d="M261.8,177.6h-5.5V171h5.5V177.6z M256.8,177.1h4.5v-5.6h-4.5V177.1z"/>
	</g>
	<g>
		<rect x="281.6" y="158.8" style="fill:#FFFFFF;" width="5" height="6.1"/>
		<path style="fill:#53504F;" d="M286.9,165.1h-5.5v-6.6h5.5V165.1z M281.9,164.6h4.5V159h-4.5V164.6z"/>
	</g>
	<g>
		<rect x="276.6" y="158.8" style="fill:#FFFFFF;" width="5" height="6.1"/>
		<path style="fill:#53504F;" d="M281.9,165.1h-5.5v-6.6h5.5V165.1z M276.9,164.6h4.5V159h-4.5V164.6z"/>
	</g>
	<g>
		<rect x="271.7" y="158.8" style="fill:#FFFFFF;" width="5" height="6.1"/>
		<path style="fill:#53504F;" d="M277,165.1h-5.5v-6.6h5.5V165.1z M272,164.6h4.5V159H272V164.6z"/>
	</g>
	<g>
		<rect x="266.7" y="158.8" style="fill:#FFFFFF;" width="5" height="6.1"/>
		<path style="fill:#53504F;" d="M272,165.1h-5.5v-6.6h5.5V165.1z M267,164.6h4.5V159H267V164.6z"/>
	</g>
	<g>
		<rect x="261.6" y="158.8" style="fill:#FFFFFF;" width="5.1" height="6.1"/>
		<path style="fill:#53504F;" d="M267,165.1h-5.6v-6.6h5.6V165.1z M261.9,164.6h4.6V159h-4.6V164.6z"/>
	</g>
	<g>
		<rect x="250.7" y="161.5" style="fill:#4F5150;" width="34.6" height="0.4"/>
		<path style="fill:#53504F;" d="M285.4,162h-34.8v-0.6h34.8V162z M250.8,161.8h34.4v-0.2h-34.4V161.8z"/>
	</g>
	<g>
		<rect x="250.7" y="161.5" style="fill:#4F5150;" width="0.4" height="13.1"/>
		<path style="fill:#53504F;" d="M251.2,174.7h-0.6v-13.3h0.6V174.7z M250.8,174.5h0.2v-12.9h-0.2V174.5z"/>
	</g>
	<g>
		<polygon style="fill:#4F5150;" points="278.9,174.3 280,174.3 278.9,173.7 		"/>
		<path style="fill:#53504F;" d="M280.4,174.4h-1.6v-0.9L280.4,174.4z M279,174.2h0.6l-0.6-0.3V174.2z"/>
	</g>
	<g>
		<polygon style="fill:#4F5150;" points="278.9,174.5 280,174.5 278.9,175.1 		"/>
		<path style="fill:#53504F;" d="M278.8,175.3v-0.9h1.6L278.8,175.3z M279,174.6v0.3l0.6-0.3H279z"/>
	</g>
	<g>
		<rect x="253.2" y="164.9" style="fill:#FFFFFF;" width="37.4" height="6.4"/>
		<path style="fill:#53504F;" d="M290.9,171.5H253v-6.9h37.9V171.5z M253.5,171h36.9v-5.9h-36.9V171z"/>
	</g>
	<g>
		<rect x="254.6" y="165.8" style="fill:#FFFFFF;" width="34.6" height="4.6"/>
		<path style="fill:#53504F;" d="M289.5,170.6h-35.1v-5.1h35.1V170.6z M254.9,170.1H289V166h-34.1V170.1z"/>
	</g>
	<g>
		<rect x="271.6" y="171.3" style="fill:#FFFFFF;" width="5" height="6.1"/>
		<path style="fill:#53504F;" d="M276.9,177.6h-5.5V171h5.5V177.6z M271.9,177.1h4.5v-5.6h-4.5V177.1z"/>
	</g>
	<g>
		<rect x="251.1" y="174.2" style="fill:#504F50;" width="27.9" height="0.4"/>
		<path style="fill:#53504F;" d="M279.1,174.7H251v-0.6h28.1V174.7z M251.2,174.5h27.7v-0.2h-27.7V174.5z"/>
	</g>
	<path style="fill:#FFFFFF;" d="M479.3,97.7c-0.2,0-0.3-0.1-0.4-0.2l-3.4-2.4l-0.1,0l-1.4,1.9l-0.3-0.7l1.3-1.7
		c0.4-0.4,0.8-0.4,1.1-0.1l3.2,2.3c0,0,0,0,0,0l1-1.6l0.5,0.5l-1.1,1.8C479.7,97.5,479.6,97.7,479.3,97.7
		C479.4,97.7,479.4,97.7,479.3,97.7z"/>
	<path style="fill:#FFFFFF;" d="M132.2,74.5c-3.4,0-6.2-2.8-6.2-6.3c0-3.5,2.8-6.3,6.2-6.3c3.4,0,6.2,2.8,6.2,6.3
		C138.4,71.7,135.6,74.5,132.2,74.5z M132.2,62.9c-2.9,0-5.2,2.4-5.2,5.3s2.3,5.3,5.2,5.3s5.2-2.4,5.2-5.3S135.1,62.9,132.2,62.9z"
		/>
	<path style="fill:#FFFFFF;" d="M133.9,69.8c-0.2,0-0.3-0.1-0.4-0.2l-3.4-2.4l-0.1,0l-1.4,1.9l-0.4-0.7l1.3-1.7
		c0.4-0.4,0.8-0.4,1.1-0.1l3.2,2.3c0,0,0,0,0,0l1-1.6l0.5,0.5l-1.1,1.8C134.3,69.6,134.2,69.8,133.9,69.8
		C134,69.8,134,69.8,133.9,69.8z"/>
	<path style="fill:#FFFFFF;" d="M73.2,126.4c-3.4,0-6.2-2.8-6.2-6.3c0-3.5,2.8-6.3,6.2-6.3c3.4,0,6.2,2.8,6.2,6.3
		C79.4,123.6,76.6,126.4,73.2,126.4z M73.2,114.8c-2.9,0-5.2,2.4-5.2,5.3s2.3,5.3,5.2,5.3s5.2-2.4,5.2-5.3S76.1,114.8,73.2,114.8z"
		/>
	<path style="fill:#FFFFFF;" d="M74.9,121.7c-0.2,0-0.3-0.1-0.4-0.2l-3.4-2.4l-0.1,0l-1.4,1.9l-0.4-0.7l1.3-1.7
		c0.4-0.4,0.8-0.4,1.1-0.1l3.2,2.3c0,0,0,0,0,0l1-1.6l0.5,0.5l-1.1,1.8C75.3,121.5,75.2,121.7,74.9,121.7
		C75,121.7,75,121.7,74.9,121.7z"/>
	<g>
		<rect x="106.6" y="156.4" style="fill:#FFFFFF;" width="9.1" height="2.4"/>
		<path style="fill:#666666;" d="M116.2,159.3h-10.1v-3.4h10.1V159.3z M107.1,158.3h8.1v-1.4h-8.1V158.3z"/>
	</g>
	<g>
		<rect x="212.2" y="124.3" style="fill:#FFFFFF;" width="2.4" height="9.1"/>
		<path style="fill:#666666;" d="M215.1,133.9h-3.4v-10.1h3.4V133.9z M212.7,132.9h1.4v-8.1h-1.4V132.9z"/>
	</g>
	<g>
		<rect x="222.7" y="237.3" style="fill:#FFFFFF;" width="2.4" height="9.1"/>
		<path style="fill:#666666;" d="M225.6,246.9h-3.4v-10.1h3.4V246.9z M223.2,245.9h1.4v-8.1h-1.4V245.9z"/>
	</g>
	<g>
		<rect x="275.4" y="320.3" style="fill:#B3B3B3;" width="33" height="28.3"/>
		<path style="fill:#666666;" d="M309.4,349.6h-35v-30.3h35V349.6z M276.4,347.6h31v-26.3h-31V347.6z"/>
	</g>
	<g>
		<rect x="545.6" y="139.7" style="fill:#FFFFFF;" width="2.4" height="9.1"/>
		<path style="fill:#666666;" d="M548.5,149.3h-3.4v-10.1h3.4V149.3z M546.1,148.3h1.4v-8.1h-1.4V148.3z"/>
	</g>
	<g>
		<polygon style="fill:#B3B3B3;" points="214.6,143.4 296.7,143.4 296.7,115.1 230.5,115.1 214.6,115.1 		"/>
		<path style="fill:#666666;" d="M297.7,144.4h-84.1v-30.3h84.1V144.4z M215.6,142.4h80.1v-26.3h-80.1V142.4z"/>
	</g>
	<rect x="230.4" y="116.1" style="fill:#B3B3B3;" width="50.2" height="29.7"/>
	<g id="Rooms">
		<g id="room_x5F_2">
			<g>
				<rect x="167.5" y="257.3" style="fill:#D9D9D9;" width="55.1" height="30.2"/>
				<path style="fill:#666666;" d="M223.6,288.5h-57.1v-32.2h57.1V288.5z M168.5,286.5h53.1v-28.2h-53.1V286.5z"/>
			</g>
			<g>
				<rect x="170.3" y="276.8" style="fill:#FFFFFF;" width="7.9" height="7.7"/>
				<path style="fill:#FFFFFF;" d="M178.5,284.8H170v-8.4h8.6V284.8z M170.6,284.2h7.3v-7h-7.3V284.2z"/>
			</g>
			<g>
				<rect x="180.1" y="276.8" style="fill:#FFFFFF;" width="7.9" height="7.7"/>
				<path style="fill:#FFFFFF;" d="M188.3,284.8h-8.6v-8.4h8.6V284.8z M180.4,284.2h7.2v-7h-7.2V284.2z"/>
			</g>
			<g>
				<rect x="189.6" y="276.8" style="fill:#FFFFFF;" width="7.9" height="7.7"/>
				<path style="fill:#FFFFFF;" d="M197.8,284.8h-8.6v-8.4h8.6V284.8z M189.9,284.2h7.2v-7h-7.2V284.2z"/>
			</g>
			<g>
				<rect x="170.3" y="259.5" style="fill:#FFFFFF;" width="10.6" height="3.9"/>
				<path style="fill:#FFFFFF;" d="M181.2,263.7H170v-4.6h11.3V263.7z M170.6,263.1h9.9v-3.3h-9.9V263.1z"/>
			</g>
			<g>
				<rect x="209.5" y="259.5" style="fill:#FFFFFF;" width="10.6" height="3.9"/>
				<path style="fill:#FFFFFF;" d="M220.4,263.7h-11.3v-4.6h11.3V263.7z M209.8,263.1h9.9v-3.3h-9.9V263.1z"/>
			</g>
			<g>
				<rect x="216.2" y="273.9" style="fill:#FFFFFF;" width="3.9" height="10.6"/>
				<path style="fill:#FFFFFF;" d="M220.4,284.8h-4.6v-11.3h4.6V284.8z M216.5,284.2h3.2v-9.9h-3.2V284.2z"/>
			</g>
			<g>
				<rect x="201.9" y="276.8" style="fill:#FFFFFF;" width="7.9" height="7.7"/>
				<path style="fill:#FFFFFF;" d="M210.1,284.8h-8.6v-8.4h8.6V284.8z M202.2,284.2h7.2v-7h-7.2V284.2z"/>
			</g>
		</g>
		<g id="room_x5F_1">
			<g>
				<rect x="548" y="108" style="fill:#D9D9D9;" width="99.3" height="50.8"/>
				<path style="fill:#666666;" d="M648.3,159.8H547V107h101.3V159.8z M549,157.8h97.3V109H549V157.8z"/>
			</g>
			<g>
				<rect x="551.5" y="112.6" style="fill:#FFFFFF;" width="7.9" height="7.7"/>
				<path style="fill:#FFFFFF;" d="M559.7,120.6h-8.6v-8.4h8.6V120.6z M551.8,120h7.3v-7h-7.3V120z"/>
			</g>
			<g>
				<rect x="560.6" y="112.6" style="fill:#FFFFFF;" width="7.9" height="7.7"/>
				<path style="fill:#FFFFFF;" d="M568.8,120.6h-8.6v-8.4h8.6V120.6z M560.9,120h7.3v-7h-7.3V120z"/>
			</g>
			<g>
				<rect x="569.5" y="112.6" style="fill:#FFFFFF;" width="7.9" height="7.7"/>
				<path style="fill:#FFFFFF;" d="M577.7,120.6h-8.6v-8.4h8.6V120.6z M569.8,120h7.3v-7h-7.3V120z"/>
			</g>
			<g>
				<rect x="578.6" y="112.6" style="fill:#FFFFFF;" width="7.9" height="7.7"/>
				<path style="fill:#FFFFFF;" d="M586.8,120.6h-8.6v-8.4h8.6V120.6z M578.9,120h7.3v-7h-7.3V120z"/>
			</g>
			<g>
				<rect x="587.5" y="112.6" style="fill:#FFFFFF;" width="7.9" height="7.7"/>
				<path style="fill:#FFFFFF;" d="M595.7,120.6h-8.6v-8.4h8.6V120.6z M587.8,120h7.3v-7h-7.3V120z"/>
			</g>
			<g>
				<rect x="596.6" y="112.6" style="fill:#FFFFFF;" width="7.9" height="7.7"/>
				<path style="fill:#FFFFFF;" d="M604.8,120.6h-8.6v-8.4h8.6V120.6z M596.9,120h7.3v-7h-7.3V120z"/>
			</g>
			<g>
				<rect x="605.5" y="112.6" style="fill:#FFFFFF;" width="7.9" height="7.7"/>
				<path style="fill:#FFFFFF;" d="M613.7,120.6h-8.6v-8.4h8.6V120.6z M605.8,120h7.3v-7h-7.3V120z"/>
			</g>
			<g>
				<rect x="614.6" y="112.6" style="fill:#FFFFFF;" width="7.9" height="7.7"/>
				<path style="fill:#FFFFFF;" d="M622.8,120.6h-8.6v-8.4h8.6V120.6z M614.9,120h7.3v-7h-7.3V120z"/>
			</g>
			<g>
				<rect x="623.5" y="112.6" style="fill:#FFFFFF;" width="7.9" height="7.7"/>
				<path style="fill:#FFFFFF;" d="M631.7,120.6h-8.6v-8.4h8.6V120.6z M623.8,120h7.3v-7h-7.3V120z"/>
			</g>
			<g>
				<rect x="632.6" y="112.6" style="fill:#FFFFFF;" width="7.9" height="7.7"/>
				<path style="fill:#FFFFFF;" d="M640.8,120.6h-8.6v-8.4h8.6V120.6z M632.9,120h7.3v-7h-7.3V120z"/>
			</g>
		</g>
	</g>
	<g>
		<rect x="101.2" y="206.9" style="fill:#FFFFFF;" width="20" height="2.4"/>
		<path style="fill:#666666;" d="M121.7,209.8h-21v-3.4h21V209.8z M101.7,208.8h19v-1.4h-19V208.8z"/>
	</g>
	<g>
		<rect x="194.7" y="117.2" style="fill:#FFFFFF;" width="9.5" height="24.2"/>
		<path style="fill:#58595B;" d="M204.5,141.6h-10V117h10V141.6z M195,141.1h9v-23.7h-9V141.1z"/>
	</g>
	<g>
		<rect x="196.2" y="135.4" style="fill:#FFFFFF;" width="6.5" height="4.2"/>
		<path style="fill:#53504F;" d="M203,139.9h-7v-4.7h7V139.9z M196.5,139.4h6v-3.7h-6V139.4z"/>
	</g>
	<g>
		<rect x="196.2" y="131.3" style="fill:#FFFFFF;" width="6.5" height="4.2"/>
		<path style="fill:#53504F;" d="M203,135.8h-7V131h7V135.8z M196.5,135.3h6v-3.7h-6V135.3z"/>
	</g>
	<g>
		<rect x="196.2" y="127.1" style="fill:#FFFFFF;" width="6.5" height="4.2"/>
		<path style="fill:#53504F;" d="M203,131.5h-7v-4.7h7V131.5z M196.5,131h6v-3.7h-6V131z"/>
	</g>
	<g>
		<rect x="196.2" y="123" style="fill:#FFFFFF;" width="6.5" height="4.2"/>
		<path style="fill:#53504F;" d="M203,127.5h-7v-4.7h7V127.5z M196.5,127h6v-3.7h-6V127z"/>
	</g>
	<g>
		<rect x="196.2" y="118.7" style="fill:#FFFFFF;" width="6.5" height="4.3"/>
		<path style="fill:#53504F;" d="M203,123.3h-7v-4.8h7V123.3z M196.5,122.8h6V119h-6V122.8z"/>
	</g>
</g>
<g id="Cameras">
	<g id="Camera-7">
		<g>
			<path style="fill:#333333;" d="M224.2,148.8l1.2-1.9c0.3-0.5,0.8-0.7,1.1-0.5l1.3,0.8c0.3,0.2,0.3,0.8,0,1.2l-1.2,1.9
				c-0.3,0.5-0.8,0.7-1.1,0.5l-1.3-0.8C223.9,149.9,223.9,149.3,224.2,148.8z"/>
			<path style="fill:#333333;" d="M225.8,152.4c-0.4,0-0.8-0.1-1.1-0.3l-1.2-0.7c-0.4-0.2-0.7-0.6-0.9-1c-0.3-0.7-0.1-1.6,0.3-2.3
				l1.2-1.9c0.4-0.6,1-1.1,1.6-1.2c0.6-0.1,1.1,0,1.6,0.3l1.3,0.8c0.5,0.3,0.8,0.8,0.9,1.4c0.1,0.7-0.1,1.4-0.4,1.9l-1.2,1.9
				c-0.4,0.6-1,1.1-1.6,1.2C226.1,152.4,225.9,152.4,225.8,152.4z M226.2,149.5L226.2,149.5C226.3,149.5,226.2,149.5,226.2,149.5z
				 M225.7,147.7C225.7,147.7,225.8,147.7,225.7,147.7L225.7,147.7z"/>
		</g>
		<path style="fill:#FFFFFF;" d="M224,152l0.5,2.2c0,0.1-0.1,0.2-0.2,0.1l-2.7-1.7c-0.1-0.1-0.1-0.2,0-0.2l2.2-0.5
			C223.9,151.9,224,152,224,152z"/>
	</g>
	<g id="Camera-6">
		<g>
			<path style="fill:#333333;" d="M235.8,148.8l-1.2-1.9c-0.3-0.5-0.8-0.7-1.1-0.5l-1.3,0.8c-0.3,0.2-0.3,0.8,0,1.2l1.2,1.9
				c0.3,0.5,0.8,0.7,1.1,0.5l1.3-0.8C236.1,149.9,236.1,149.3,235.8,148.8z"/>
			<path style="fill:#333333;" d="M234.2,152.4c-0.2,0-0.3,0-0.5-0.1c-0.7-0.1-1.3-0.6-1.7-1.3l-1.2-1.8c-0.4-0.6-0.6-1.3-0.4-1.9
				c0.1-0.6,0.4-1.1,0.9-1.4l1.3-0.8c0.4-0.3,1-0.4,1.5-0.2c0.7,0.1,1.3,0.6,1.7,1.3l1.2,1.9c0.4,0.7,0.6,1.6,0.3,2.3
				c-0.2,0.4-0.5,0.8-0.9,1l-1.2,0.8C235,152.3,234.6,152.4,234.2,152.4z M234.5,149.6C234.5,149.6,234.5,149.6,234.5,149.6l1.3-0.8
				L234.5,149.6L234.5,149.6z M233.7,149.5C233.7,149.5,233.7,149.5,233.7,149.5L233.7,149.5z M234.3,147.6L234.3,147.6
				C234.3,147.7,234.3,147.7,234.3,147.6z"/>
		</g>
		<path style="fill:#FFFFFF;" d="M236,152l-0.5,2.2c0,0.1,0.1,0.2,0.2,0.1l2.7-1.7c0.1-0.1,0.1-0.2,0-0.2l-2.2-0.5
			C236.1,151.9,236,152,236,152z"/>
	</g>
	<g id="Camera-5">
		<g>
			<path style="fill:#333333;" d="M202.2,111h2.2c0.6,0,1,0.3,1,0.7v1.6c0,0.4-0.5,0.7-1,0.7h-2.2c-0.6,0-1-0.3-1-0.7v-1.6
				C201.2,111.4,201.7,111,202.2,111z"/>
			<path style="fill:#333333;" d="M204.4,115.5h-2.2c-1.4,0-2.5-0.9-2.5-2.2v-1.6c0-1.3,1.3-2.2,2.5-2.2h2.2c1.4,0,2.5,0.9,2.5,2.2
				v1.6C206.9,114.5,205.8,115.5,204.4,115.5z"/>
		</g>
		<path style="fill:#FFFFFF;" d="M199.4,112.6l-1.6,1.6c-0.1,0.1-0.2,0-0.2-0.1v-3.2c0-0.1,0.1-0.2,0.2-0.1l1.6,1.6
			C199.5,112.5,199.5,112.6,199.4,112.6z"/>
	</g>
	<g id="Camera-4">
		<g>
			<path style="fill:#333333;" d="M207,120.1v-2.2c0-0.6,0.3-1,0.7-1h1.6c0.4,0,0.7,0.5,0.7,1v2.2c0,0.6-0.3,1-0.7,1h-1.6
				C207.3,121.1,207,120.6,207,120.1z"/>
			<path style="fill:#333333;" d="M209.3,122.6h-1.6c-1.2,0-2.2-1.1-2.2-2.5v-2.2c0-1.4,0.9-2.5,2.2-2.5h1.6c1.2,0,2.2,1.1,2.2,2.5
				v2.2C211.5,121.5,210.6,122.6,209.3,122.6z"/>
		</g>
		<path style="fill:#FFFFFF;" d="M208.6,122.9l1.6,1.6c0.1,0.1,0,0.2-0.1,0.2h-3.2c-0.1,0-0.2-0.1-0.1-0.2l1.6-1.6
			C208.4,122.8,208.5,122.8,208.6,122.9z"/>
	</g>
	<g id="Camera-3">
		<g>
			<path style="fill:#333333;" d="M213.6,110.6l-1.6,1.5c-0.4,0.4-1,0.5-1.2,0.2l-1-1.2c-0.3-0.3-0.1-0.8,0.3-1.2l1.6-1.5
				c0.4-0.4,1-0.5,1.2-0.2l1,1.2C214.1,109.7,214,110.2,213.6,110.6z"/>
			<path style="fill:#333333;" d="M211.2,114c-0.1,0-0.1,0-0.2,0c-0.5-0.1-1-0.3-1.4-0.7l-0.9-1.1c-0.7-0.8-0.8-2.1,0.4-3.3l1.6-1.5
				c0.5-0.5,1.3-0.8,2.1-0.8c0.5,0.1,1,0.3,1.4,0.7l1.1,1.3c0.6,0.9,0.4,2.2-0.5,3.1l0,0l-1.6,1.5C212.5,113.7,211.9,114,211.2,114z
				 M210.9,111C210.9,111,210.9,111,210.9,111L210.9,111z M212.8,109.5L212.8,109.5C212.8,109.5,212.8,109.5,212.8,109.5z"/>
		</g>
		<path style="fill:#FFFFFF;" d="M214.6,107.6l0.1-2.3c0-0.1,0.1-0.2,0.2-0.1l2.2,2.4c0.1,0.1,0,0.2-0.1,0.2L214.6,107.6
			C214.7,107.7,214.6,107.7,214.6,107.6z"/>
	</g>
	<g id="Camera-2">
		<g>
			<path style="fill:#333333;" d="M239.8,172.2h-2.2c-0.6,0-1,0.3-1,0.7v1.6c0,0.4,0.5,0.7,1,0.7h2.2c0.6,0,1-0.3,1-0.7v-1.6
				C240.8,172.6,240.4,172.2,239.8,172.2z"/>
			<path style="fill:#333333;" d="M239.8,176.7h-2.2c-1.4,0-2.5-1-2.5-2.2v-1.6c0-1.3,1.1-2.2,2.5-2.2h2.2c1.4,0,2.5,1,2.5,2.2v1.6
				C242.3,175.8,241.2,176.7,239.8,176.7z M238.1,173.7h1.2H238.1z"/>
		</g>
		<path style="fill:#FFFFFF;" d="M242.6,173.8l1.6,1.6c0.1,0.1,0.2,0,0.2-0.1v-3.2c0-0.1-0.1-0.2-0.2-0.1l-1.6,1.6
			C242.6,173.7,242.6,173.8,242.6,173.8z"/>
	</g>
	<g id="Camera-1">
		<g>
			<path style="fill:#333333;" d="M269.3,359.6v2.2c0,0.6-0.3,1-0.7,1H267c-0.4,0-0.7-0.5-0.7-1v-2.2c0-0.6,0.3-1,0.7-1h1.6
				C269,358.6,269.3,359.1,269.3,359.6z"/>
			<path style="fill:#333333;" d="M268.6,364.3H267c-1.2,0-2.2-1.1-2.2-2.5v-2.2c0-1.4,0.9-2.5,2.2-2.5h1.6c1.2,0,2.2,1.1,2.2,2.5
				v2.2C270.8,363.2,269.9,364.3,268.6,364.3z"/>
		</g>
		<path style="fill:#FFFFFF;" d="M267.8,356.8l-1.6-1.6c-0.1-0.1,0-0.2,0.1-0.2h3.2c0.1,0,0.2,0.1,0.1,0.2l-1.6,1.6
			C267.9,356.9,267.8,356.9,267.8,356.8z"/>
	</g>
</g>
<g id="Контур">
	<g>
		<rect x="263.3" y="348.6" style="fill:#FFFFFF;" width="9.1" height="2.4"/>
		<path style="fill:#666666;" d="M272.9,351.5h-10.1v-3.4h10.1V351.5z M263.8,350.5h8.1v-1.4h-8.1V350.5z"/>
	</g>
</g>
</svg>
