<?xml version="1.0" encoding="utf-8"?>
<!-- Generator: Adobe Illustrator 17.1.0, SVG Export Plug-In . SVG Version: 6.00 Build 0)  -->
<!DOCTYPE svg PUBLIC "-//W3C//DTD SVG 1.0//EN" "http://www.w3.org/TR/2001/REC-SVG-20010904/DTD/svg10.dtd">
<svg version="1.0" xmlns="http://www.w3.org/2000/svg" xmlns:xlink="http://www.w3.org/1999/xlink" x="0px" y="0px"
	 viewBox="0 0 841.9 595.3" enable-background="new 0 0 841.9 595.3" xml:space="preserve">
<g id="Слой_1">
	<polygon fill="#CFCECD" stroke="#000000" stroke-width="2" stroke-miterlimit="10" points="130.6,98.9 130.6,221.7 321.8,221.7 
		321.8,193.4 404,193.4 404,221.7 611.8,221.7 611.8,98.9 483.3,98.9 	"/>
	<polygon fill="#CFCECD" stroke="#53504F" stroke-width="2" stroke-miterlimit="10" points="483.2,110 483.3,98.9 456.1,98.9 
		266.3,98.9 266.3,110 313.4,155.8 430.4,155.8 	"/>
	<path fill="#CFCECD" stroke="#000000" stroke-miterlimit="10" d="M456.4,133.3"/>
	<path fill="#D6D3D8" stroke="#53504F" stroke-width="2" stroke-miterlimit="10" d="M287.7,99.4v30.9c0,0.3,0.2,0.5,0.5,0.5h170.5
		c0.3,0,0.5-0.2,0.5-0.5V99.4c0-0.3-0.2-0.5-0.5-0.5H288.2C287.9,98.8,287.7,99.1,287.7,99.4z"/>
	<rect x="332.2" y="130.8" fill="#CFCECD" stroke="#53504F" stroke-width="2" stroke-miterlimit="10" width="77" height="25"/>
	<rect x="130.6" y="237.1" fill="#CFCECD" stroke="#53504F" stroke-width="2" stroke-miterlimit="10" width="41.9" height="48.2"/>
	<rect x="172.6" y="237.1" fill="#CFCECD" stroke="#53504F" stroke-width="2" stroke-miterlimit="10" width="73.5" height="48.2"/>
	<rect x="246.1" y="237.1" fill="#CFCECD" stroke="#53504F" stroke-width="2" stroke-miterlimit="10" width="57.5" height="48.2"/>
	<rect x="303.6" y="237.1" fill="#CFCECD" stroke="#53504F" stroke-width="2" stroke-miterlimit="10" width="26.4" height="18.2"/>
	<rect x="303.6" y="255.3" fill="#CFCECD" stroke="#53504F" stroke-width="2" stroke-miterlimit="10" width="26.4" height="17.8"/>
	<rect x="274.8" y="335.6" fill="#CFCECD" stroke="#53504F" stroke-width="2" stroke-miterlimit="10" width="55.1" height="30.2"/>
	<rect x="274.8" y="365.8" fill="#CFCECD" stroke="#53504F" stroke-width="2" stroke-miterlimit="10" width="55.1" height="32.8"/>
	<rect x="274.8" y="398.6" fill="#CFCECD" stroke="#53504F" stroke-width="2" stroke-miterlimit="10" width="92.2" height="28.3"/>
	<polygon fill="#CFCECD" stroke="#53504F" stroke-width="2" stroke-miterlimit="10" points="341,387.5 468,387.5 467.3,300.6 
		483.7,300.6 483.7,237.1 409.3,237.1 399.2,257.8 341,257.8 	"/>
	<rect x="483.7" y="237.1" fill="#CFCECD" stroke="#53504F" stroke-width="2" stroke-miterlimit="10" width="22.7" height="63.5"/>
	<rect x="506.3" y="237.1" fill="#CFCECD" stroke="#53504F" stroke-width="2" stroke-miterlimit="10" width="57" height="63.5"/>
	<rect x="563.3" y="237.1" fill="#CFCECD" stroke="#53504F" stroke-width="2" stroke-miterlimit="10" width="48.5" height="63.5"/>
	<rect x="655.3" y="186.3" fill="#CFCECD" stroke="#53504F" stroke-width="2" stroke-miterlimit="10" width="99.8" height="50.8"/>
	<rect x="144.5" y="185.2" fill="#F2F1F1" stroke="#53504F" stroke-width="2" stroke-miterlimit="10" width="72" height="26.5"/>
	<rect x="203.5" y="133.8" fill="#F2F1F1" stroke="#53504F" stroke-width="2" stroke-miterlimit="10" width="72" height="26.5"/>
	<rect x="571.3" y="138.4" fill="#F2F1F1" stroke="#53504F" stroke-width="2" stroke-miterlimit="10" width="26.5" height="72"/>
	<polygon fill="#CFCECD" stroke="#53504F" stroke-width="2" stroke-miterlimit="10" points="303.6,285.2 303.6,308.8 303.6,335.6 
		274.8,335.6 274.8,285.2 	"/>
	<rect x="303.6" y="307.8" fill="#CFCECD" stroke="#53504F" stroke-width="2" stroke-miterlimit="10" width="26.4" height="27.8"/>
	<rect x="303.6" y="273" fill="#CFCECD" stroke="#53504F" stroke-width="2" stroke-miterlimit="10" width="26.4" height="34.8"/>
	<rect x="304.1" y="333.2" fill="#F2F1F1" stroke="#53504F" stroke-miterlimit="10" width="9.1" height="2.4"/>
	<rect x="301.1" y="293.1" fill="#F2F1F1" stroke="#53504F" stroke-miterlimit="10" width="2.4" height="9.1"/>
	<path fill="#CFCECD" stroke="#000000" stroke-miterlimit="10" d="M239.5,141.3"/>
	<path fill="#CFCECD" stroke="#000000" stroke-miterlimit="10" d="M237.4,146.5"/>
	<ellipse fill="none" stroke="#58595B" stroke-miterlimit="10" cx="584.9" cy="174.4" rx="5.7" ry="5.8"/>
	<polygon fill="#A9A5B0" stroke="#53504F" stroke-width="2" stroke-miterlimit="10" points="130.6,221.7 130.6,237.1 330,237.1 
		330,398.6 367,398.6 367,426.9 382.7,426.9 415.7,426.9 415.7,398.6 415.7,387.5 341,387.5 341,257.8 399.2,257.8 409.3,237.1 
		611.8,237.1 611.8,300.6 655.3,300.6 655.3,237.1 655.3,98.9 611.8,98.9 611.8,221.7 404,221.7 404,193.4 321.8,193.4 321.8,221.7 
			"/>
	<rect x="370.6" y="426.9" fill="#F2F1F1" stroke="#53504F" stroke-miterlimit="10" width="9.1" height="2.4"/>
	<rect x="208.9" y="285.2" fill="#F2F1F1" stroke="#53504F" stroke-miterlimit="10" width="20" height="2.4"/>
	<rect x="374.5" y="249.7" fill="#CFCECD" stroke="#53504F" stroke-width="0.5" stroke-miterlimit="10" width="5" height="6.1"/>
	<rect x="364.5" y="249.7" fill="#CFCECD" stroke="#53504F" stroke-width="0.5" stroke-miterlimit="10" width="5" height="6.1"/>
	<rect x="359.4" y="249.7" fill="#CFCECD" stroke="#53504F" stroke-width="0.5" stroke-miterlimit="10" width="5" height="6.1"/>
	<rect x="354.4" y="249.7" fill="#CFCECD" stroke="#53504F" stroke-width="0.5" stroke-miterlimit="10" width="5" height="6.1"/>
	<rect x="379.5" y="237.1" fill="#CFCECD" stroke="#53504F" stroke-width="0.5" stroke-miterlimit="10" width="5" height="6.1"/>
	<rect x="374.5" y="237.1" fill="#CFCECD" stroke="#53504F" stroke-width="0.5" stroke-miterlimit="10" width="5" height="6.1"/>
	<rect x="369.6" y="237.1" fill="#CFCECD" stroke="#53504F" stroke-width="0.5" stroke-miterlimit="10" width="5" height="6.1"/>
	<rect x="364.6" y="237.1" fill="#CFCECD" stroke="#53504F" stroke-width="0.5" stroke-miterlimit="10" width="5" height="6.1"/>
	<rect x="359.5" y="237.1" fill="#CFCECD" stroke="#53504F" stroke-width="0.5" stroke-miterlimit="10" width="5.1" height="6.1"/>
	<rect x="348.6" y="239.8" fill="#4F5150" stroke="#53504F" stroke-width="0.2" stroke-miterlimit="10" width="34.6" height="0.4"/>
	<rect x="348.6" y="239.8" fill="#4F5150" stroke="#53504F" stroke-width="0.2" stroke-miterlimit="10" width="0.4" height="13.1"/>
	<polygon fill="#4F5150" stroke="#53504F" stroke-width="0.2" stroke-miterlimit="10" points="376.8,252.6 377.9,252.6 376.8,252 	
		"/>
	<polygon fill="#4F5150" stroke="#53504F" stroke-width="0.2" stroke-miterlimit="10" points="376.8,252.8 377.9,252.8 376.8,253.4 
			"/>
	<rect x="351.1" y="243.2" fill="#CFCECD" stroke="#53504F" stroke-width="0.5" stroke-miterlimit="10" width="37.4" height="6.4"/>
	<rect x="352.5" y="244.1" fill="#CFCECD" stroke="#53504F" stroke-width="0.5" stroke-miterlimit="10" width="34.6" height="4.6"/>
	<rect x="369.5" y="249.7" fill="#CFCECD" stroke="#53504F" stroke-width="0.5" stroke-miterlimit="10" width="5" height="6.1"/>
	<rect x="349" y="252.5" fill="#504F50" stroke="#53504F" stroke-width="0.2" stroke-miterlimit="10" width="27.9" height="0.4"/>
	<path fill="none" stroke="#58595B" stroke-width="0.5" stroke-miterlimit="10" d="M581.3,174.7l1.2-1.6c0.2-0.2,0.5-0.3,0.7-0.1
		l3.2,2.3c0.2,0.1,0.3,0.2,0.4,0l0.9-1.4l0.1,0.1l-1,1.6c-0.1,0.2-0.2,0.2-0.4,0l-3.4-2.4c-0.1-0.1-0.3-0.1-0.4,0.1l-1.2,1.6
		L581.3,174.7z"/>
	<ellipse fill="none" stroke="#58595B" stroke-miterlimit="10" cx="239.5" cy="146.5" rx="5.7" ry="5.8"/>
	<path fill="none" stroke="#58595B" stroke-width="0.5" stroke-miterlimit="10" d="M235.9,146.8l1.2-1.6c0.2-0.2,0.5-0.3,0.7-0.1
		l3.2,2.3c0.2,0.1,0.3,0.2,0.4,0l0.9-1.4l0.1,0.1l-1,1.6c-0.1,0.2-0.2,0.2-0.4,0l-3.4-2.4c-0.1-0.1-0.3-0.1-0.4,0.1l-1.2,1.6
		L235.9,146.8z"/>
	<ellipse fill="none" stroke="#58595B" stroke-miterlimit="10" cx="180.5" cy="198.5" rx="5.7" ry="5.8"/>
	<path fill="none" stroke="#58595B" stroke-width="0.5" stroke-miterlimit="10" d="M176.9,198.8l1.2-1.6c0.2-0.2,0.5-0.3,0.7-0.1
		l3.2,2.3c0.2,0.1,0.3,0.2,0.4,0l0.9-1.4l0.1,0.1l-1,1.6c-0.1,0.2-0.2,0.2-0.4,0l-3.4-2.4c-0.1-0.1-0.3-0.1-0.4,0.1l-1.2,1.6
		L176.9,198.8z"/>
	<rect x="213.9" y="234.7" fill="#F2F1F1" stroke="#53504F" stroke-miterlimit="10" width="9.1" height="2.4"/>
	<rect x="319.6" y="202.6" fill="#F2F1F1" stroke="#53504F" stroke-miterlimit="10" width="2.4" height="9.1"/>
	<rect x="330" y="315.6" fill="#F2F1F1" stroke="#53504F" stroke-miterlimit="10" width="2.4" height="9.1"/>
	<rect x="382.7" y="398.6" fill="#CFCECD" stroke="#53504F" stroke-width="2" stroke-miterlimit="10" width="33" height="28.3"/>
	<rect x="652.9" y="218.1" fill="#F2F1F1" stroke="#53504F" stroke-miterlimit="10" width="2.4" height="9.1"/>
	<rect x="309.6" y="212.7" fill="#CFCECD" stroke="#53504F" stroke-width="0.5" stroke-miterlimit="10" width="6.5" height="4.2"/>
	<rect x="309.6" y="208.5" fill="#CFCECD" stroke="#53504F" stroke-width="0.5" stroke-miterlimit="10" width="6.5" height="4.2"/>
	<rect x="309.6" y="204.4" fill="#CFCECD" stroke="#53504F" stroke-width="0.5" stroke-miterlimit="10" width="6.5" height="4.2"/>
	<rect x="309.6" y="200.2" fill="#CFCECD" stroke="#53504F" stroke-width="0.5" stroke-miterlimit="10" width="6.5" height="4.2"/>
	<rect x="309.6" y="195.9" fill="#CFCECD" stroke="#53504F" stroke-width="0.5" stroke-miterlimit="10" width="6.5" height="4.3"/>
	<polygon fill="none" stroke="#53504F" stroke-width="2" stroke-miterlimit="10" points="321.8,221.7 404,221.7 404,193.4 
		337.8,193.4 321.8,193.4 	"/>
	<rect x="337.7" y="194.4" fill="#A9A5B0" width="50.2" height="29.7"/>
	<rect x="660.3" y="190.9" fill="#86715B" stroke="#85715A" stroke-width="0.65" stroke-miterlimit="10" width="7.9" height="7.7"/>
	<rect x="669.4" y="190.9" fill="#86715B" stroke="#85715A" stroke-width="0.65" stroke-miterlimit="10" width="7.9" height="7.7"/>
	<rect x="678.3" y="190.9" fill="#86715B" stroke="#85715A" stroke-width="0.65" stroke-miterlimit="10" width="7.9" height="7.7"/>
	<rect x="687.4" y="190.9" fill="#86715B" stroke="#85715A" stroke-width="0.65" stroke-miterlimit="10" width="7.9" height="7.7"/>
	<rect x="696.6" y="190.9" fill="#86715B" stroke="#85715A" stroke-width="0.65" stroke-miterlimit="10" width="7.9" height="7.7"/>
	<rect x="705.8" y="190.9" fill="#86715B" stroke="#85715A" stroke-width="0.65" stroke-miterlimit="10" width="7.9" height="7.7"/>
	<rect x="714.8" y="190.9" fill="#86715B" stroke="#85715A" stroke-width="0.65" stroke-miterlimit="10" width="7.9" height="7.7"/>
	<rect x="723.7" y="190.9" fill="#86715B" stroke="#85715A" stroke-width="0.65" stroke-miterlimit="10" width="7.9" height="7.7"/>
	<rect x="732.8" y="190.9" fill="#86715B" stroke="#85715A" stroke-width="0.65" stroke-miterlimit="10" width="7.9" height="7.7"/>
	<rect x="742" y="190.9" fill="#86715B" stroke="#85715A" stroke-width="0.65" stroke-miterlimit="10" width="7.9" height="7.7"/>
	<rect x="277.6" y="355.1" fill="#86715B" stroke="#85715A" stroke-width="0.65" stroke-miterlimit="10" width="7.9" height="7.7"/>
	<rect x="286.7" y="355.1" fill="#86715B" stroke="#85715A" stroke-width="0.65" stroke-miterlimit="10" width="7.9" height="7.7"/>
	<rect x="295.6" y="355.1" fill="#86715B" stroke="#85715A" stroke-width="0.65" stroke-miterlimit="10" width="7.9" height="7.7"/>
	<rect x="307" y="352.1" fill="#86715B" stroke="#85715A" stroke-width="0.65" stroke-miterlimit="10" width="11" height="10.7"/>
	
		<rect x="277.6" y="337.8" fill="#7BC366" stroke="#83C566" stroke-width="0.65" stroke-miterlimit="10" width="10.6" height="3.9"/>
	
		<rect x="316.8" y="337.8" fill="#7BC366" stroke="#83C566" stroke-width="0.65" stroke-miterlimit="10" width="10.6" height="3.9"/>
	
		<rect x="323.5" y="352.3" fill="#7BC366" stroke="#83C566" stroke-width="0.65" stroke-miterlimit="10" width="3.9" height="10.6"/>
	<rect x="308" y="194.4" fill="none" stroke="#58595B" stroke-width="0.5" stroke-miterlimit="10" width="9.5" height="24.2"/>
</g>
<g id="Контур">
	<polygon fill="none" stroke="#635D5D" stroke-width="6" stroke-miterlimit="10" points="131.3,98.9 754.7,98.9 754,440.3 
		130.6,440.3 	"/>
</g>
</svg>
