<?xml version="1.0" encoding="utf-8"?>
<!-- Generator: Adobe Illustrator 22.0.0, SVG Export Plug-In . SVG Version: 6.00 Build 0)  -->
<svg version="1.1" id="Слой_1" xmlns="http://www.w3.org/2000/svg" xmlns:xlink="http://www.w3.org/1999/xlink" x="0px" y="0px"
	 viewBox="0 0 451 284.9" style="enable-background:new 0 0 451 284.9;" xml:space="preserve">
<style type="text/css">
	.st0{fill:none;stroke:#666666;stroke-width:2;stroke-miterlimit:10;}
	.st1{fill:#FFFFFF;stroke:#666666;stroke-width:2;stroke-miterlimit:10;}
	.st2{fill:#D9D9D9;stroke:#666666;stroke-width:2;stroke-miterlimit:10;}
	.st3{fill:#A3A3A3;stroke:#666666;stroke-width:2;stroke-miterlimit:10;}
	.st4{fill:#B3B3B3;stroke:#666666;stroke-width:2;stroke-miterlimit:10;}
	.st5{fill:#FFFFFF;stroke:#666666;stroke-width:0.5;stroke-miterlimit:10;}
	.st6{fill:#666666;stroke:#666666;stroke-width:0.2;stroke-miterlimit:10;}
	.st7{fill:#080708;stroke:#666666;stroke-width:0.2;stroke-miterlimit:10;}
	.st8{fill:#FFF5BE;stroke:#666666;stroke-width:2;stroke-miterlimit:10;}
	.st9{fill:#FFFFFF;stroke:#666666;stroke-miterlimit:10;}
	.st10{fill:#666666;stroke:#666666;stroke-width:2;stroke-miterlimit:10;}
	.st11{enable-background:new    ;}
	.st12{fill:#666666;}
	.st13{fill:#333333;stroke:#333333;stroke-width:3;stroke-miterlimit:10;}
	.st14{fill:#74C044;}
</style>
<g id="Контур">
	<rect x="1" y="1" class="st0" width="449" height="282.9"/>
</g>
<g id="Слой_2_1_">
	<path class="st1" d="M450,122"/>
	<polygon id="room_K_1_" class="st2" points="450,170.7 450,120.2 358.8,120.2 358.8,110.8 304.8,110.8 304.8,170.7 	"/>
	<rect x="248.8" y="205.2" class="st0" width="29.7" height="78.8"/>
	<polygon id="room_3_1_" class="st2" points="248.8,283.9 131.1,283.9 131.1,247.5 109.9,247.5 109.9,178.7 248.8,178.7 	"/>
	<polygon id="room_4_1_" class="st2" points="131.1,283.9 131.1,247.5 109.9,247.5 109.9,167.4 21.7,167.4 21.7,283.9 	"/>
	<rect id="office_1_" x="21.7" y="45.7" class="st2" width="88.2" height="121.6"/>
	<polygon id="room_2_1_" class="st2" points="219.3,178.7 219.3,143.2 188.2,143.2 188.2,83 109.9,83 109.9,178.7 	"/>
	<rect x="188.2" y="83" class="st3" width="90.4" height="60.2"/>
	<rect x="1" y="1" class="st4" width="20.7" height="44.7"/>
	<rect x="21.7" y="1" class="st4" width="27.4" height="44.7"/>
	<rect x="237.4" y="107.5" class="st5" width="7.2" height="10.4"/>
	<rect x="230.2" y="107.5" class="st5" width="7.2" height="10.4"/>
	<rect x="223" y="107.5" class="st5" width="7.2" height="10.4"/>
	<rect x="215.7" y="107.5" class="st5" width="7.2" height="10.4"/>
	<rect x="208.5" y="107.5" class="st5" width="7.2" height="10.4"/>
	<rect x="244.6" y="86.2" class="st5" width="7.2" height="10.4"/>
	<rect x="237.4" y="86.2" class="st5" width="7.2" height="10.4"/>
	<rect x="230.2" y="86.2" class="st5" width="7.2" height="10.4"/>
	<rect x="223" y="86.2" class="st5" width="7.2" height="10.4"/>
	<rect x="215.7" y="86.2" class="st5" width="7.2" height="10.4"/>
	<rect x="200.1" y="90.7" class="st6" width="50.6" height="0.6"/>
	<rect x="200.7" y="112.3" class="st6" width="40.2" height="0.6"/>
	<rect x="200.1" y="90.7" class="st6" width="0.6" height="22.2"/>
	<polygon class="st7" points="241,112.7 243.3,112.7 241,111.5 	"/>
	<polygon class="st6" points="241,112.8 243.3,112.8 241,114 	"/>
	<rect x="203.8" y="96.5" class="st5" width="53.8" height="11"/>
	<rect x="205.8" y="98" class="st5" width="49.8" height="7.8"/>
	<polygon class="st4" points="304.8,110.5 358.8,110.5 358.8,120.2 450,120.2 450,56.2 304.8,56.2 	"/>
	<polygon class="st8" points="49.1,1 170.5,1 170.5,49.7 180.6,58.4 188.2,58.4 188.2,41.2 295.8,41.2 304.8,48.1 304.8,170.3 
		278.5,170.3 278.5,205.1 248.8,205.1 248.8,178.4 219.3,178.4 219.3,142.6 278.5,142.6 278.5,82.1 109.9,82.1 109.9,45.7 
		49.1,45.7 	"/>
	<rect id="door_4_" x="21.7" y="17.5" class="st9" width="4" height="15.2"/>
	<rect id="door_3_" x="49.1" y="17.5" class="st9" width="4" height="15.2"/>
	<rect id="door_2_" x="109.9" y="61.2" class="st9" width="4" height="15.2"/>
	<rect id="door_1_" x="166.5" y="6.2" class="st9" width="4" height="15.2"/>
	<rect id="door" x="133.9" y="1.1" class="st9" width="15.2" height="4"/>
	<rect id="door_12_" x="277" y="42.4" class="st9" width="15.2" height="4"/>
	<rect id="door_11_" x="300.8" y="63.3" class="st9" width="4" height="15.2"/>
	<rect x="188.2" y="121.6" class="st3" width="90.4" height="21.6"/>
	<rect id="door_7_" x="219.3" y="150.6" class="st9" width="4" height="15.2"/>
	<rect id="door_5_" x="300.8" y="148.9" class="st9" width="4" height="15.2"/>
	<rect id="door_10_" x="256.1" y="201.2" class="st9" width="15.2" height="4"/>
	<rect id="door_6_" x="274.5" y="177.1" class="st9" width="4" height="15.2"/>
	<rect id="door_8_" x="226.8" y="174.6" class="st9" width="15.2" height="4"/>
	<rect id="door_9_" x="222.6" y="143.2" class="st9" width="15.2" height="4"/>
	<rect id="door_14_" x="257.6" y="83" class="st9" width="15.2" height="4"/>
	<rect id="door_13_" x="131.1" y="258.1" class="st9" width="4" height="15.2"/>
	<rect id="room_5" x="278.5" y="170.7" class="st2" width="171.5" height="113.3"/>
	<rect x="1" y="45.7" class="st10" width="20.7" height="238.2"/>
	<path class="st0" d="M304.8,57.8"/>
	<polygon class="st4" points="450,56.2 450,1 170.5,1 170.5,50.8 180.6,59.5 188.2,59.5 188.2,42.4 295.8,42.4 304.8,50 304.8,56.2 
			"/>
	<rect x="248.8" y="205.1" class="st8" width="29.7" height="78.9"/>
</g>
<g id="Подписи">
	<g class="st11">
		<path class="st12" d="M56.9,109.9c0,0.7-0.1,1.2-0.2,1.8s-0.4,1-0.7,1.3c-0.3,0.4-0.7,0.6-1.1,0.8c-0.5,0.2-1,0.3-1.6,0.3
			c-0.6,0-1.1-0.1-1.6-0.3c-0.4-0.2-0.8-0.4-1.1-0.8s-0.5-0.8-0.6-1.3c-0.1-0.5-0.2-1.1-0.2-1.8c0-0.6,0.1-1.2,0.2-1.7
			c0.2-0.5,0.4-1,0.7-1.3c0.3-0.4,0.7-0.6,1.1-0.8c0.5-0.2,1-0.3,1.6-0.3c0.6,0,1.1,0.1,1.5,0.3c0.4,0.2,0.8,0.4,1.1,0.8
			c0.3,0.3,0.5,0.8,0.7,1.3C56.8,108.6,56.9,109.2,56.9,109.9z M55.8,109.9c0-0.5,0-0.9-0.1-1.3c-0.1-0.4-0.2-0.7-0.4-1
			c-0.2-0.3-0.4-0.5-0.8-0.7c-0.3-0.2-0.7-0.2-1.2-0.2c-0.5,0-0.9,0.1-1.2,0.3c-0.3,0.2-0.6,0.4-0.8,0.7c-0.2,0.3-0.3,0.6-0.4,1
			c-0.1,0.4-0.1,0.8-0.1,1.2c0,0.5,0,0.9,0.1,1.3c0.1,0.4,0.2,0.7,0.4,1c0.2,0.3,0.4,0.5,0.7,0.7c0.3,0.2,0.7,0.2,1.2,0.2
			c0.5,0,0.9-0.1,1.2-0.3c0.3-0.2,0.6-0.4,0.8-0.7c0.2-0.3,0.3-0.6,0.4-1C55.7,110.8,55.8,110.4,55.8,109.9z"/>
		<path class="st12" d="M64.9,111c0,0.4-0.1,0.8-0.2,1.2c-0.1,0.4-0.3,0.7-0.6,1c-0.3,0.3-0.6,0.5-0.9,0.7c-0.4,0.2-0.8,0.3-1.3,0.3
			v1.9c0,0,0,0.1,0,0.1c0,0,0,0-0.1,0.1c0,0-0.1,0-0.2,0c-0.1,0-0.1,0-0.2,0c-0.1,0-0.2,0-0.2,0c-0.1,0-0.1,0-0.2,0
			c0,0-0.1,0-0.1-0.1c0,0,0-0.1,0-0.1v-1.9c-0.5,0-0.9-0.1-1.3-0.3c-0.4-0.1-0.7-0.3-0.9-0.6c-0.2-0.3-0.4-0.6-0.6-0.9
			c-0.1-0.4-0.2-0.8-0.2-1.2c0-0.4,0.1-0.8,0.2-1.2c0.1-0.4,0.3-0.7,0.6-1c0.3-0.3,0.6-0.5,0.9-0.7c0.4-0.2,0.8-0.3,1.3-0.3v-2.4
			c0,0,0-0.1,0-0.1c0,0,0,0,0.1-0.1c0,0,0.1,0,0.2,0c0.1,0,0.1,0,0.2,0s0.2,0,0.2,0c0.1,0,0.1,0,0.2,0c0,0,0.1,0,0.1,0.1
			c0,0,0,0.1,0,0.1v2.4c0.5,0,0.9,0.1,1.3,0.3c0.4,0.1,0.7,0.4,0.9,0.6c0.2,0.3,0.4,0.6,0.6,0.9C64.9,110.1,64.9,110.5,64.9,111z
			 M61,108.8c-0.6,0-1.1,0.2-1.4,0.6c-0.3,0.4-0.5,0.9-0.5,1.6c0,0.3,0,0.6,0.1,0.9c0.1,0.3,0.2,0.5,0.3,0.7
			c0.2,0.2,0.3,0.3,0.6,0.5c0.2,0.1,0.5,0.2,0.9,0.2L61,108.8L61,108.8z M63.9,111c0-0.7-0.1-1.2-0.4-1.6s-0.8-0.6-1.5-0.7v4.4
			c0.6,0,1.1-0.2,1.4-0.6C63.7,112.3,63.9,111.7,63.9,111z"/>
		<path class="st12" d="M71.4,113.8C71.4,113.9,71.4,113.9,71.4,113.8c0,0.1-0.1,0.1-0.1,0.1c0,0-0.1,0-0.2,0c-0.1,0-0.1,0-0.2,0
			c-0.1,0-0.2,0-0.2,0c-0.1,0-0.1,0-0.2,0s-0.1,0-0.1-0.1c0,0,0-0.1,0-0.1v-3.2c0-0.2,0-0.3,0-0.5c0-0.2,0-0.3,0-0.5
			c-0.1,0.2-0.2,0.3-0.3,0.5s-0.2,0.3-0.3,0.5l-2.4,3.2c0,0-0.1,0.1-0.1,0.1c0,0-0.1,0-0.1,0.1s-0.1,0-0.1,0s-0.1,0-0.2,0
			c-0.1,0-0.2,0-0.2,0c-0.1,0-0.1,0-0.1,0c0,0-0.1,0-0.1-0.1c0,0,0-0.1,0-0.1v-5.6c0,0,0-0.1,0-0.1c0,0,0,0,0.1-0.1c0,0,0.1,0,0.2,0
			c0.1,0,0.1,0,0.2,0c0.2,0,0.3,0,0.4,0c0.1,0,0.1,0.1,0.1,0.1v3.2c0,0.2,0,0.3,0,0.5c0,0.2,0,0.3,0,0.5c0.1-0.2,0.2-0.3,0.3-0.5
			s0.2-0.3,0.3-0.4l2.4-3.3c0,0,0.1-0.1,0.1-0.1c0,0,0.1,0,0.1-0.1c0,0,0.1,0,0.1,0c0.1,0,0.1,0,0.2,0s0.2,0,0.2,0
			c0.1,0,0.1,0,0.1,0c0,0,0.1,0,0.1,0.1c0,0,0,0.1,0,0.1L71.4,113.8L71.4,113.8z"/>
		<path class="st12" d="M77.3,113c0,0.1,0,0.1,0,0.2s0,0.1,0,0.1c0,0,0,0.1,0,0.1c0,0,0,0.1-0.1,0.1c-0.1,0.1-0.1,0.1-0.3,0.2
			c-0.1,0.1-0.3,0.1-0.4,0.2c-0.2,0.1-0.3,0.1-0.5,0.1c-0.2,0-0.4,0.1-0.6,0.1c-0.4,0-0.8-0.1-1.1-0.2c-0.3-0.1-0.6-0.3-0.8-0.6
			c-0.2-0.3-0.4-0.6-0.5-0.9c-0.1-0.4-0.2-0.8-0.2-1.3c0-0.6,0.1-1,0.2-1.4c0.1-0.4,0.3-0.7,0.6-1c0.2-0.3,0.5-0.4,0.8-0.6
			c0.3-0.1,0.7-0.2,1-0.2c0.2,0,0.4,0,0.5,0c0.2,0,0.3,0.1,0.5,0.1c0.1,0.1,0.3,0.1,0.4,0.2c0.1,0.1,0.2,0.1,0.2,0.2
			c0.1,0,0.1,0.1,0.1,0.1s0,0.1,0,0.1c0,0,0,0.1,0,0.1s0,0.1,0,0.2c0,0.2,0,0.3-0.1,0.3c0,0.1-0.1,0.1-0.1,0.1c-0.1,0-0.1,0-0.2-0.1
			c-0.1-0.1-0.2-0.1-0.3-0.2c-0.1-0.1-0.3-0.2-0.4-0.2c-0.2-0.1-0.4-0.1-0.6-0.1c-0.5,0-0.9,0.2-1.1,0.6c-0.3,0.4-0.4,0.9-0.4,1.6
			c0,0.4,0,0.7,0.1,0.9c0.1,0.3,0.2,0.5,0.3,0.7c0.1,0.2,0.3,0.3,0.5,0.4c0.2,0.1,0.4,0.1,0.7,0.1c0.2,0,0.4,0,0.6-0.1
			c0.2-0.1,0.3-0.2,0.5-0.2c0.1-0.1,0.2-0.2,0.3-0.2c0.1-0.1,0.2-0.1,0.2-0.1c0,0,0.1,0,0.1,0c0,0,0,0,0.1,0.1s0,0.1,0,0.1
			C77.3,112.8,77.3,112.9,77.3,113z"/>
	</g>
	<g class="st11">
		<path class="st12" d="M127.1,166.6c0,0.1,0,0.1,0,0.2c0,0.1,0,0.1,0,0.1c0,0,0,0.1-0.1,0.1c0,0-0.1,0-0.1,0h-4.4
			c-0.1,0-0.1,0-0.2,0c0,0-0.1,0-0.1-0.1c0,0-0.1-0.1-0.1-0.1c0-0.1,0-0.1,0-0.2c0-0.1,0-0.2,0-0.2c0-0.1,0-0.1,0-0.2
			c0,0,0-0.1,0.1-0.1c0,0,0.1-0.1,0.1-0.2l1.6-1.7c0.4-0.4,0.7-0.7,0.9-1c0.2-0.3,0.4-0.6,0.5-0.8c0.1-0.2,0.2-0.5,0.2-0.7
			c0-0.2,0.1-0.4,0.1-0.6c0-0.2,0-0.3-0.1-0.5c-0.1-0.2-0.1-0.3-0.3-0.4c-0.1-0.1-0.3-0.2-0.4-0.3c-0.2-0.1-0.4-0.1-0.6-0.1
			c-0.3,0-0.5,0-0.7,0.1s-0.4,0.1-0.5,0.2c-0.2,0.1-0.3,0.2-0.4,0.2c-0.1,0.1-0.2,0.1-0.2,0.1c0,0-0.1,0-0.1,0c0,0,0,0-0.1-0.1
			s0-0.1,0-0.1c0-0.1,0-0.1,0-0.2c0-0.1,0-0.1,0-0.2c0,0,0-0.1,0-0.1c0,0,0-0.1,0-0.1c0,0,0.1-0.1,0.1-0.1c0.1,0,0.1-0.1,0.3-0.2
			c0.1-0.1,0.3-0.1,0.5-0.2c0.2-0.1,0.4-0.1,0.6-0.2c0.2,0,0.5-0.1,0.7-0.1c0.4,0,0.7,0.1,1,0.2c0.3,0.1,0.5,0.3,0.7,0.5
			c0.2,0.2,0.3,0.4,0.4,0.7c0.1,0.3,0.1,0.5,0.1,0.8c0,0.3,0,0.5-0.1,0.8c0,0.3-0.1,0.5-0.3,0.8c-0.1,0.3-0.4,0.6-0.6,1
			s-0.6,0.8-1.1,1.3l-1.3,1.3h3.5c0,0,0.1,0,0.1,0c0,0,0.1,0,0.1,0.1c0,0,0,0.1,0.1,0.1C127.1,166.5,127.1,166.5,127.1,166.6z"/>
		<path class="st12" d="M131.3,163.9c0,0.2,0,0.3-0.1,0.3c0,0.1-0.1,0.1-0.2,0.1h-2.6c-0.1,0-0.1,0-0.2-0.1c0-0.1-0.1-0.2-0.1-0.3
			c0-0.2,0-0.3,0.1-0.3c0-0.1,0.1-0.1,0.2-0.1h2.6c0,0,0.1,0,0.1,0c0,0,0.1,0,0.1,0.1c0,0,0,0.1,0,0.1
			C131.3,163.8,131.3,163.8,131.3,163.9z"/>
		<path class="st12" d="M136.9,166.9c0,0,0,0.1,0,0.1c0,0-0.1,0-0.1,0.1c-0.1,0-0.1,0-0.3,0c-0.1,0-0.2,0-0.3,0s-0.1,0-0.1-0.1
			c0,0,0-0.1,0-0.1v-0.6c-0.2,0.3-0.5,0.5-0.8,0.6c-0.3,0.1-0.6,0.2-1,0.2c-0.3,0-0.6,0-0.8-0.1c-0.2-0.1-0.4-0.2-0.6-0.3
			c-0.2-0.1-0.3-0.3-0.4-0.5c-0.1-0.2-0.1-0.5-0.1-0.7c0-0.3,0.1-0.6,0.2-0.8c0.1-0.2,0.3-0.4,0.6-0.6c0.2-0.2,0.5-0.3,0.9-0.3
			c0.3-0.1,0.7-0.1,1.2-0.1h0.8v-0.4c0-0.2,0-0.4-0.1-0.6c0-0.2-0.1-0.3-0.2-0.4c-0.1-0.1-0.2-0.2-0.4-0.2c-0.2-0.1-0.4-0.1-0.6-0.1
			c-0.3,0-0.5,0-0.7,0.1c-0.2,0.1-0.4,0.1-0.5,0.2c-0.2,0.1-0.3,0.1-0.4,0.2c-0.1,0.1-0.2,0.1-0.2,0.1c0,0-0.1,0-0.1,0
			c0,0,0,0-0.1-0.1c0,0,0-0.1,0-0.1s0-0.1,0-0.2c0-0.1,0-0.2,0-0.2c0-0.1,0-0.1,0.1-0.2c0.1-0.1,0.2-0.1,0.3-0.2
			c0.1-0.1,0.3-0.1,0.5-0.2c0.2-0.1,0.4-0.1,0.6-0.1s0.4-0.1,0.6-0.1c0.4,0,0.7,0,1,0.1c0.3,0.1,0.5,0.2,0.7,0.4
			c0.2,0.2,0.3,0.4,0.4,0.7c0.1,0.3,0.1,0.6,0.1,0.9L136.9,166.9L136.9,166.9z M135.9,164.3H135c-0.3,0-0.5,0-0.7,0.1
			c-0.2,0-0.4,0.1-0.5,0.2c-0.1,0.1-0.2,0.2-0.3,0.3s-0.1,0.3-0.1,0.5c0,0.3,0.1,0.5,0.3,0.7c0.2,0.2,0.4,0.3,0.8,0.3
			c0.3,0,0.5-0.1,0.7-0.2c0.2-0.1,0.5-0.3,0.7-0.6V164.3z"/>
		<path class="st12" d="M142.9,166.9C142.9,166.9,142.9,167,142.9,166.9c0,0.1-0.1,0.1-0.1,0.1c0,0-0.1,0-0.2,0c-0.1,0-0.2,0-0.3,0
			c-0.1,0-0.2,0-0.2,0c-0.1,0-0.1,0-0.2,0c0,0-0.1,0-0.1-0.1c0,0,0-0.1,0-0.1v-2.4h-0.6c-0.3,0-0.5,0-0.6,0.1
			c-0.1,0-0.3,0.1-0.4,0.2c-0.1,0.1-0.2,0.2-0.3,0.4s-0.2,0.3-0.3,0.6l-0.5,1.1c0,0.1,0,0.1-0.1,0.1c0,0-0.1,0.1-0.1,0.1
			c0,0-0.1,0-0.2,0c-0.1,0-0.2,0-0.3,0c-0.1,0-0.1,0-0.2,0c-0.1,0-0.1,0-0.2,0c0,0-0.1,0-0.1,0c0,0,0-0.1,0-0.1c0,0,0-0.1,0-0.1
			c0-0.1,0.1-0.2,0.1-0.3l0.4-1.1c0.1-0.3,0.3-0.5,0.4-0.7c0.2-0.2,0.4-0.3,0.6-0.4c-0.4-0.1-0.7-0.2-1-0.5c-0.2-0.2-0.4-0.6-0.4-1
			c0-0.3,0.1-0.5,0.2-0.7c0.1-0.2,0.3-0.4,0.5-0.6c0.2-0.2,0.5-0.3,0.8-0.3c0.3-0.1,0.7-0.1,1.1-0.1c0.1,0,0.2,0,0.3,0
			c0.1,0,0.3,0,0.4,0c0.1,0,0.3,0,0.4,0c0.1,0,0.2,0,0.3,0c0.1,0,0.2,0.1,0.3,0.1c0.1,0.1,0.1,0.2,0.1,0.3L142.9,166.9L142.9,166.9z
			 M141.9,161.9c-0.1,0-0.3,0-0.5,0c-0.2,0-0.3,0-0.4,0c-0.3,0-0.5,0-0.7,0.1c-0.2,0-0.3,0.1-0.5,0.2c-0.1,0.1-0.2,0.2-0.2,0.3
			c0,0.1-0.1,0.3-0.1,0.4c0,0.1,0,0.3,0.1,0.4c0.1,0.1,0.1,0.2,0.3,0.3c0.1,0.1,0.3,0.1,0.4,0.2c0.2,0,0.4,0.1,0.7,0.1h0.8V161.9z"
			/>
		<path class="st12" d="M151.7,166c0,0.1,0,0.1,0,0.2c0,0.1,0,0.1,0,0.1c0,0,0,0.1,0,0.1c0,0,0,0.1-0.1,0.1
			c-0.1,0.1-0.1,0.1-0.3,0.2c-0.1,0.1-0.3,0.1-0.4,0.2c-0.2,0.1-0.3,0.1-0.5,0.1c-0.2,0-0.4,0.1-0.6,0.1c-0.4,0-0.8-0.1-1.1-0.2
			c-0.3-0.1-0.6-0.3-0.8-0.6c-0.2-0.3-0.4-0.6-0.5-0.9c-0.1-0.4-0.2-0.8-0.2-1.3c0-0.6,0.1-1,0.2-1.4c0.1-0.4,0.3-0.7,0.6-1
			c0.2-0.3,0.5-0.4,0.8-0.6c0.3-0.1,0.7-0.2,1-0.2c0.2,0,0.4,0,0.5,0c0.2,0,0.3,0.1,0.5,0.1c0.1,0.1,0.3,0.1,0.4,0.2
			c0.1,0.1,0.2,0.1,0.2,0.2c0,0,0.1,0.1,0.1,0.1c0,0,0,0.1,0,0.1c0,0,0,0.1,0,0.1s0,0.1,0,0.2c0,0.2,0,0.3-0.1,0.3
			c0,0.1-0.1,0.1-0.1,0.1c-0.1,0-0.1,0-0.2-0.1c-0.1-0.1-0.2-0.1-0.3-0.2c-0.1-0.1-0.3-0.2-0.5-0.2c-0.2-0.1-0.4-0.1-0.6-0.1
			c-0.5,0-0.9,0.2-1.1,0.6c-0.3,0.4-0.4,0.9-0.4,1.6c0,0.4,0,0.7,0.1,0.9c0.1,0.3,0.2,0.5,0.3,0.7c0.1,0.2,0.3,0.3,0.5,0.4
			c0.2,0.1,0.4,0.1,0.7,0.1c0.2,0,0.4,0,0.6-0.1c0.2-0.1,0.3-0.2,0.5-0.2c0.1-0.1,0.2-0.2,0.3-0.2c0.1-0.1,0.2-0.1,0.2-0.1
			c0,0,0.1,0,0.1,0c0,0,0,0,0.1,0.1c0,0,0,0.1,0,0.2C151.7,165.9,151.7,166,151.7,166z"/>
		<path class="st12" d="M157.8,163.9c0,0.2,0,0.3-0.1,0.3s-0.2,0.1-0.3,0.1h-3.7c0,0.3,0,0.6,0.1,0.8c0.1,0.2,0.2,0.5,0.3,0.6
			c0.1,0.2,0.3,0.3,0.6,0.4c0.2,0.1,0.5,0.1,0.9,0.1c0.3,0,0.5,0,0.7-0.1c0.2,0,0.4-0.1,0.5-0.1c0.2-0.1,0.3-0.1,0.4-0.1
			c0.1,0,0.2-0.1,0.2-0.1c0,0,0.1,0,0.1,0c0,0,0,0,0.1,0.1c0,0,0,0.1,0,0.1c0,0.1,0,0.1,0,0.2c0,0.1,0,0.1,0,0.1s0,0.1,0,0.1
			c0,0,0,0.1,0,0.1c0,0,0,0-0.1,0.1c0,0-0.1,0.1-0.2,0.1s-0.3,0.1-0.4,0.2c-0.2,0-0.4,0.1-0.6,0.1c-0.2,0-0.5,0.1-0.7,0.1
			c-0.5,0-0.9-0.1-1.2-0.2c-0.3-0.1-0.6-0.3-0.9-0.6c-0.2-0.3-0.4-0.6-0.5-1c-0.1-0.4-0.2-0.8-0.2-1.3c0-0.5,0.1-0.9,0.2-1.3
			c0.1-0.4,0.3-0.7,0.5-1c0.2-0.3,0.5-0.5,0.8-0.6c0.3-0.1,0.7-0.2,1.1-0.2c0.4,0,0.8,0.1,1.1,0.2c0.3,0.1,0.6,0.3,0.8,0.6
			c0.2,0.2,0.3,0.5,0.4,0.8c0.1,0.3,0.1,0.7,0.1,1L157.8,163.9L157.8,163.9z M156.8,163.6c0-0.5-0.1-1-0.4-1.3
			c-0.3-0.3-0.6-0.5-1.1-0.5c-0.3,0-0.5,0-0.7,0.1c-0.2,0.1-0.4,0.2-0.5,0.4c-0.1,0.2-0.2,0.3-0.3,0.5c-0.1,0.2-0.1,0.4-0.1,0.7
			L156.8,163.6L156.8,163.6z"/>
		<path class="st12" d="M164.5,164c0,0.5-0.1,0.9-0.2,1.3c-0.1,0.4-0.3,0.7-0.5,1c-0.2,0.3-0.5,0.5-0.8,0.6s-0.6,0.2-1,0.2
			c-0.2,0-0.3,0-0.5,0c-0.1,0-0.3-0.1-0.4-0.2c-0.1-0.1-0.3-0.2-0.4-0.3c-0.1-0.1-0.3-0.2-0.4-0.4v2.8c0,0,0,0.1,0,0.1
			c0,0,0,0-0.1,0.1s-0.1,0-0.2,0c-0.1,0-0.2,0-0.3,0c-0.1,0-0.2,0-0.2,0c-0.1,0-0.1,0-0.2,0c0,0-0.1,0-0.1-0.1c0,0,0-0.1,0-0.1v-7.8
			c0,0,0-0.1,0-0.1s0,0,0.1-0.1c0,0,0.1,0,0.1,0c0.1,0,0.1,0,0.2,0c0.1,0,0.2,0,0.2,0c0.1,0,0.1,0,0.1,0c0,0,0.1,0,0.1,0.1
			c0,0,0,0.1,0,0.1v0.8c0.2-0.2,0.3-0.3,0.5-0.5c0.2-0.1,0.3-0.2,0.5-0.3c0.2-0.1,0.3-0.1,0.5-0.2c0.2,0,0.3-0.1,0.5-0.1
			c0.4,0,0.8,0.1,1,0.2c0.3,0.2,0.5,0.4,0.7,0.6s0.3,0.6,0.4,1C164.5,163.2,164.5,163.6,164.5,164z M163.5,164.1
			c0-0.3,0-0.6-0.1-0.8c0-0.3-0.1-0.5-0.2-0.7c-0.1-0.2-0.2-0.4-0.4-0.5c-0.2-0.1-0.4-0.2-0.7-0.2c-0.1,0-0.3,0-0.4,0.1
			c-0.1,0-0.3,0.1-0.4,0.2c-0.1,0.1-0.3,0.2-0.4,0.3c-0.1,0.1-0.3,0.3-0.5,0.5v2.2c0.3,0.3,0.6,0.6,0.8,0.8c0.3,0.2,0.5,0.3,0.8,0.3
			c0.3,0,0.5-0.1,0.7-0.2c0.2-0.1,0.3-0.3,0.5-0.5c0.1-0.2,0.2-0.4,0.3-0.7C163.4,164.7,163.5,164.4,163.5,164.1z"/>
		<path class="st12" d="M170.7,165.3c0,0.3-0.1,0.6-0.2,0.8s-0.3,0.4-0.5,0.6c-0.2,0.2-0.5,0.3-0.8,0.4c-0.3,0.1-0.7,0.1-1.1,0.1
			c-0.1,0-0.3,0-0.4,0c-0.1,0-0.3,0-0.4,0c-0.1,0-0.2,0-0.4,0c-0.1,0-0.2,0-0.4,0c-0.2,0-0.3-0.1-0.4-0.2c-0.1-0.1-0.1-0.2-0.1-0.4
			v-4.8c0-0.2,0-0.3,0.1-0.4c0.1-0.1,0.2-0.1,0.4-0.2c0.1,0,0.2,0,0.3,0c0.1,0,0.2,0,0.4,0c0.1,0,0.3,0,0.4,0s0.3,0,0.4,0
			c0.4,0,0.8,0,1,0.1c0.3,0.1,0.5,0.2,0.7,0.3c0.2,0.1,0.3,0.3,0.4,0.5c0.1,0.2,0.1,0.4,0.1,0.6c0,0.3-0.1,0.6-0.3,0.8
			c-0.2,0.2-0.4,0.4-0.7,0.5c0.4,0.1,0.7,0.3,0.9,0.5S170.7,164.9,170.7,165.3z M169.4,162.7c0-0.1,0-0.3-0.1-0.4
			c-0.1-0.1-0.1-0.2-0.2-0.3c-0.1-0.1-0.3-0.1-0.4-0.2c-0.2,0-0.4-0.1-0.7-0.1c-0.2,0-0.4,0-0.5,0c-0.2,0-0.3,0-0.4,0v1.7h1
			c0.4,0,0.8-0.1,1-0.2C169.3,163.2,169.4,163,169.4,162.7z M169.6,165.3c0-0.2,0-0.3-0.1-0.4c-0.1-0.1-0.1-0.2-0.3-0.3
			c-0.1-0.1-0.3-0.1-0.5-0.2c-0.2,0-0.4-0.1-0.7-0.1h-1v2c0.1,0,0.2,0,0.2,0c0.1,0,0.2,0,0.3,0c0.1,0,0.2,0,0.3,0c0.1,0,0.2,0,0.2,0
			c0.3,0,0.5,0,0.7-0.1c0.2,0,0.3-0.1,0.5-0.2s0.2-0.2,0.3-0.3C169.6,165.6,169.6,165.5,169.6,165.3z"/>
		<path class="st12" d="M176.9,163.9c0,0.2,0,0.3-0.1,0.3c-0.1,0.1-0.2,0.1-0.3,0.1h-3.7c0,0.3,0,0.6,0.1,0.8
			c0.1,0.2,0.2,0.5,0.3,0.6c0.1,0.2,0.3,0.3,0.6,0.4c0.2,0.1,0.5,0.1,0.9,0.1c0.3,0,0.5,0,0.7-0.1c0.2,0,0.4-0.1,0.5-0.1
			c0.2-0.1,0.3-0.1,0.4-0.1c0.1,0,0.2-0.1,0.2-0.1c0,0,0.1,0,0.1,0c0,0,0,0,0.1,0.1c0,0,0,0.1,0,0.1c0,0.1,0,0.1,0,0.2
			c0,0.1,0,0.1,0,0.1s0,0.1,0,0.1c0,0,0,0.1,0,0.1c0,0,0,0-0.1,0.1c0,0-0.1,0.1-0.2,0.1s-0.3,0.1-0.4,0.2c-0.2,0-0.4,0.1-0.6,0.1
			c-0.2,0-0.5,0.1-0.7,0.1c-0.5,0-0.9-0.1-1.2-0.2c-0.3-0.1-0.6-0.3-0.9-0.6c-0.2-0.3-0.4-0.6-0.5-1c-0.1-0.4-0.2-0.8-0.2-1.3
			c0-0.5,0.1-0.9,0.2-1.3c0.1-0.4,0.3-0.7,0.5-1c0.2-0.3,0.5-0.5,0.8-0.6c0.3-0.1,0.7-0.2,1.1-0.2c0.4,0,0.8,0.1,1.1,0.2
			s0.6,0.3,0.8,0.6c0.2,0.2,0.3,0.5,0.4,0.8c0.1,0.3,0.1,0.7,0.1,1L176.9,163.9L176.9,163.9z M175.9,163.6c0-0.5-0.1-1-0.4-1.3
			c-0.3-0.3-0.6-0.5-1.1-0.5c-0.3,0-0.5,0-0.7,0.1c-0.2,0.1-0.4,0.2-0.5,0.4c-0.1,0.2-0.2,0.3-0.3,0.5c-0.1,0.2-0.1,0.4-0.1,0.7
			L175.9,163.6L175.9,163.6z"/>
		<path class="st12" d="M183.6,164c0,0.5-0.1,0.9-0.2,1.3c-0.1,0.4-0.3,0.7-0.5,1c-0.2,0.3-0.5,0.5-0.8,0.6c-0.3,0.1-0.6,0.2-1,0.2
			c-0.2,0-0.3,0-0.5,0c-0.1,0-0.3-0.1-0.4-0.2c-0.1-0.1-0.3-0.2-0.4-0.3c-0.1-0.1-0.3-0.2-0.4-0.4v2.8c0,0,0,0.1,0,0.1
			c0,0,0,0-0.1,0.1s-0.1,0-0.2,0c-0.1,0-0.2,0-0.3,0c-0.1,0-0.2,0-0.2,0c-0.1,0-0.1,0-0.2,0c0,0-0.1,0-0.1-0.1c0,0,0-0.1,0-0.1v-7.8
			c0,0,0-0.1,0-0.1c0,0,0,0,0.1-0.1c0,0,0.1,0,0.1,0c0.1,0,0.1,0,0.2,0c0.1,0,0.2,0,0.2,0c0.1,0,0.1,0,0.1,0c0,0,0.1,0,0.1,0.1
			c0,0,0,0.1,0,0.1v0.8c0.2-0.2,0.3-0.3,0.5-0.5c0.2-0.1,0.3-0.2,0.5-0.3c0.2-0.1,0.3-0.1,0.5-0.2c0.2,0,0.3-0.1,0.5-0.1
			c0.4,0,0.8,0.1,1,0.2c0.3,0.2,0.5,0.4,0.7,0.6s0.3,0.6,0.4,1C183.6,163.2,183.6,163.6,183.6,164z M182.6,164.1
			c0-0.3,0-0.6-0.1-0.8c0-0.3-0.1-0.5-0.2-0.7c-0.1-0.2-0.2-0.4-0.4-0.5c-0.2-0.1-0.4-0.2-0.7-0.2c-0.1,0-0.3,0-0.4,0.1
			c-0.1,0-0.3,0.1-0.4,0.2c-0.1,0.1-0.3,0.2-0.4,0.3c-0.1,0.1-0.3,0.3-0.5,0.5v2.2c0.3,0.3,0.6,0.6,0.8,0.8c0.3,0.2,0.5,0.3,0.8,0.3
			c0.3,0,0.5-0.1,0.7-0.2c0.2-0.1,0.3-0.3,0.5-0.5c0.1-0.2,0.2-0.4,0.3-0.7S182.6,164.4,182.6,164.1z"/>
		<path class="st12" d="M190.1,166.9C190.1,166.9,190.1,167,190.1,166.9c0,0.1-0.1,0.1-0.1,0.1s-0.1,0-0.2,0c-0.1,0-0.1,0-0.2,0
			c-0.1,0-0.2,0-0.3,0c-0.1,0-0.1,0-0.2,0c0,0-0.1,0-0.1-0.1s0-0.1,0-0.1v-2.5h-2.9v2.5c0,0,0,0.1,0,0.1s0,0-0.1,0.1s-0.1,0-0.2,0
			c-0.1,0-0.2,0-0.3,0c-0.1,0-0.2,0-0.2,0c-0.1,0-0.1,0-0.2,0c0,0-0.1,0-0.1-0.1c0,0,0-0.1,0-0.1v-5.6c0,0,0-0.1,0-0.1
			c0,0,0,0,0.1-0.1c0,0,0.1,0,0.2,0c0.1,0,0.1,0,0.2,0c0.1,0,0.2,0,0.3,0c0.1,0,0.1,0,0.2,0c0,0,0.1,0,0.1,0.1c0,0,0,0.1,0,0.1v2.3
			h2.9v-2.3c0,0,0-0.1,0-0.1s0,0,0.1-0.1c0,0,0.1,0,0.2,0c0.1,0,0.2,0,0.3,0c0.1,0,0.2,0,0.2,0c0.1,0,0.1,0,0.2,0c0,0,0.1,0,0.1,0.1
			c0,0,0,0.1,0,0.1V166.9z"/>
		<path class="st12" d="M196.2,166.9c0,0,0,0.1,0,0.1c0,0-0.1,0-0.1,0.1c-0.1,0-0.1,0-0.3,0c-0.1,0-0.2,0-0.3,0s-0.1,0-0.1-0.1
			c0,0,0-0.1,0-0.1v-0.6c-0.2,0.3-0.5,0.5-0.8,0.6c-0.3,0.1-0.6,0.2-1,0.2c-0.3,0-0.6,0-0.8-0.1c-0.2-0.1-0.4-0.2-0.6-0.3
			c-0.2-0.1-0.3-0.3-0.4-0.5c-0.1-0.2-0.1-0.5-0.1-0.7c0-0.3,0.1-0.6,0.2-0.8s0.3-0.4,0.6-0.6c0.2-0.2,0.5-0.3,0.9-0.3
			c0.3-0.1,0.7-0.1,1.2-0.1h0.8v-0.4c0-0.2,0-0.4-0.1-0.6c0-0.2-0.1-0.3-0.2-0.4c-0.1-0.1-0.2-0.2-0.4-0.2s-0.4-0.1-0.6-0.1
			c-0.3,0-0.5,0-0.7,0.1c-0.2,0.1-0.4,0.1-0.5,0.2c-0.2,0.1-0.3,0.1-0.4,0.2c-0.1,0.1-0.2,0.1-0.2,0.1c0,0-0.1,0-0.1,0s0,0-0.1-0.1
			c0,0,0-0.1,0-0.1s0-0.1,0-0.2c0-0.1,0-0.2,0-0.2c0-0.1,0-0.1,0.1-0.2c0.1-0.1,0.2-0.1,0.3-0.2c0.1-0.1,0.3-0.1,0.5-0.2
			c0.2-0.1,0.4-0.1,0.6-0.1c0.2,0,0.4-0.1,0.6-0.1c0.4,0,0.7,0,1,0.1c0.3,0.1,0.5,0.2,0.7,0.4c0.2,0.2,0.3,0.4,0.4,0.7
			c0.1,0.3,0.1,0.6,0.1,0.9L196.2,166.9L196.2,166.9z M195.2,164.3h-0.9c-0.3,0-0.5,0-0.7,0.1c-0.2,0-0.4,0.1-0.5,0.2
			c-0.1,0.1-0.2,0.2-0.3,0.3s-0.1,0.3-0.1,0.5c0,0.3,0.1,0.5,0.3,0.7c0.2,0.2,0.4,0.3,0.8,0.3c0.3,0,0.5-0.1,0.7-0.2
			c0.2-0.1,0.5-0.3,0.7-0.6L195.2,164.3L195.2,164.3z"/>
		<path class="st12" d="M202.2,166.9C202.2,166.9,202.2,167,202.2,166.9c0,0.1-0.1,0.1-0.1,0.1c0,0-0.1,0-0.2,0c-0.1,0-0.2,0-0.3,0
			c-0.1,0-0.2,0-0.2,0c-0.1,0-0.1,0-0.2,0s-0.1,0-0.1-0.1c0,0,0-0.1,0-0.1v-2.4h-0.6c-0.3,0-0.5,0-0.6,0.1c-0.1,0-0.3,0.1-0.4,0.2
			s-0.2,0.2-0.3,0.4s-0.2,0.3-0.3,0.6l-0.5,1.1c0,0.1,0,0.1-0.1,0.1s-0.1,0.1-0.1,0.1c0,0-0.1,0-0.2,0c-0.1,0-0.2,0-0.3,0
			c-0.1,0-0.1,0-0.2,0c-0.1,0-0.1,0-0.2,0c0,0-0.1,0-0.1,0c0,0,0-0.1,0-0.1c0,0,0-0.1,0-0.1c0-0.1,0.1-0.2,0.1-0.3l0.4-1.1
			c0.1-0.3,0.3-0.5,0.4-0.7c0.2-0.2,0.4-0.3,0.6-0.4c-0.4-0.1-0.7-0.2-1-0.5c-0.2-0.2-0.4-0.6-0.4-1c0-0.3,0.1-0.5,0.2-0.7
			c0.1-0.2,0.3-0.4,0.5-0.6c0.2-0.2,0.5-0.3,0.8-0.3c0.3-0.1,0.7-0.1,1.1-0.1c0.1,0,0.2,0,0.3,0c0.1,0,0.3,0,0.4,0
			c0.1,0,0.3,0,0.4,0c0.1,0,0.2,0,0.3,0c0.1,0,0.2,0.1,0.3,0.1c0.1,0.1,0.1,0.2,0.1,0.3V166.9z M201.2,161.9c-0.1,0-0.3,0-0.5,0
			c-0.2,0-0.3,0-0.4,0c-0.3,0-0.5,0-0.7,0.1c-0.2,0-0.3,0.1-0.5,0.2s-0.2,0.2-0.2,0.3c0,0.1-0.1,0.3-0.1,0.4c0,0.1,0,0.3,0.1,0.4
			c0.1,0.1,0.1,0.2,0.3,0.3c0.1,0.1,0.3,0.1,0.4,0.2c0.2,0,0.4,0.1,0.7,0.1h0.8L201.2,161.9L201.2,161.9z"/>
	</g>
	<g class="st11">
		<path class="st12" d="M145.4,229c0,0.4-0.1,0.7-0.2,1c-0.1,0.3-0.3,0.5-0.6,0.8c-0.2,0.2-0.5,0.4-0.9,0.5
			c-0.4,0.1-0.7,0.2-1.2,0.2c-0.3,0-0.5,0-0.8-0.1c-0.2,0-0.4-0.1-0.6-0.2c-0.2-0.1-0.3-0.1-0.5-0.2c-0.1-0.1-0.2-0.1-0.2-0.1
			c0,0-0.1-0.1-0.1-0.1c0,0,0-0.1,0-0.1c0,0,0-0.1,0-0.2c0-0.1,0-0.1,0-0.2c0-0.1,0-0.3,0-0.3c0-0.1,0.1-0.1,0.1-0.1
			c0,0,0.1,0,0.2,0.1s0.3,0.1,0.4,0.2c0.2,0.1,0.4,0.1,0.6,0.2s0.5,0.1,0.8,0.1c0.3,0,0.5,0,0.7-0.1s0.4-0.2,0.5-0.3
			c0.1-0.1,0.3-0.3,0.3-0.5c0.1-0.2,0.1-0.4,0.1-0.6c0-0.2,0-0.4-0.1-0.6c-0.1-0.2-0.2-0.3-0.4-0.5c-0.2-0.1-0.4-0.2-0.7-0.3
			c-0.3-0.1-0.6-0.1-0.9-0.1h-0.8c0,0-0.1,0-0.1,0c0,0-0.1,0-0.1-0.1c0,0,0-0.1-0.1-0.1c0-0.1,0-0.1,0-0.2c0-0.1,0-0.1,0-0.2
			c0-0.1,0-0.1,0.1-0.1c0,0,0-0.1,0.1-0.1c0,0,0.1,0,0.1,0h0.7c0.3,0,0.5,0,0.7-0.1c0.2-0.1,0.4-0.2,0.6-0.3s0.3-0.3,0.3-0.5
			c0.1-0.2,0.1-0.4,0.1-0.6c0-0.2,0-0.3-0.1-0.5c-0.1-0.2-0.1-0.3-0.2-0.4c-0.1-0.1-0.2-0.2-0.4-0.3c-0.2-0.1-0.4-0.1-0.6-0.1
			c-0.2,0-0.5,0-0.7,0.1c-0.2,0.1-0.4,0.1-0.5,0.2c-0.2,0.1-0.3,0.2-0.4,0.2c-0.1,0.1-0.2,0.1-0.2,0.1c0,0-0.1,0-0.1,0
			c0,0,0,0-0.1-0.1c0,0,0-0.1,0-0.1c0-0.1,0-0.1,0-0.2c0-0.1,0-0.1,0-0.2c0,0,0-0.1,0-0.1c0,0,0-0.1,0-0.1c0,0,0-0.1,0.1-0.1
			c0,0,0.1-0.1,0.2-0.2c0.1-0.1,0.3-0.1,0.4-0.2s0.4-0.1,0.6-0.2c0.2,0,0.5-0.1,0.7-0.1c0.4,0,0.7,0,1,0.1c0.3,0.1,0.5,0.2,0.7,0.4
			c0.2,0.2,0.3,0.4,0.4,0.6c0.1,0.2,0.1,0.5,0.1,0.8c0,0.3,0,0.5-0.1,0.7c-0.1,0.2-0.2,0.4-0.3,0.6c-0.1,0.2-0.3,0.3-0.5,0.4
			c-0.2,0.1-0.4,0.2-0.6,0.2v0c0.3,0,0.5,0.1,0.8,0.2c0.2,0.1,0.4,0.2,0.6,0.4c0.2,0.2,0.3,0.4,0.4,0.6
			C145.4,228.5,145.4,228.8,145.4,229z"/>
		<path class="st12" d="M149.7,228.2c0,0.2,0,0.3-0.1,0.3c0,0.1-0.1,0.1-0.2,0.1h-2.6c-0.1,0-0.1,0-0.2-0.1c0-0.1-0.1-0.2-0.1-0.3
			c0-0.2,0-0.3,0.1-0.3c0-0.1,0.1-0.1,0.2-0.1h2.6c0,0,0.1,0,0.1,0c0,0,0.1,0,0.1,0.1c0,0,0,0.1,0,0.1
			C149.7,228,149.7,228.1,149.7,228.2z"/>
		<path class="st12" d="M155.3,231.2c0,0,0,0.1,0,0.1c0,0-0.1,0-0.1,0.1c-0.1,0-0.1,0-0.3,0c-0.1,0-0.2,0-0.3,0s-0.1,0-0.1-0.1
			c0,0,0-0.1,0-0.1v-0.6c-0.2,0.3-0.5,0.5-0.8,0.6c-0.3,0.1-0.6,0.2-1,0.2c-0.3,0-0.6,0-0.8-0.1c-0.2-0.1-0.4-0.2-0.6-0.3
			c-0.2-0.1-0.3-0.3-0.4-0.5c-0.1-0.2-0.1-0.5-0.1-0.7c0-0.3,0.1-0.6,0.2-0.8c0.1-0.2,0.3-0.4,0.6-0.6c0.2-0.2,0.5-0.3,0.9-0.3
			c0.3-0.1,0.7-0.1,1.2-0.1h0.8v-0.4c0-0.2,0-0.4-0.1-0.6c0-0.2-0.1-0.3-0.2-0.4c-0.1-0.1-0.2-0.2-0.4-0.2c-0.2-0.1-0.4-0.1-0.6-0.1
			c-0.3,0-0.5,0-0.7,0.1c-0.2,0.1-0.4,0.1-0.5,0.2c-0.2,0.1-0.3,0.1-0.4,0.2c-0.1,0.1-0.2,0.1-0.2,0.1c0,0-0.1,0-0.1,0
			c0,0,0,0-0.1-0.1c0,0,0-0.1,0-0.1c0-0.1,0-0.1,0-0.2c0-0.1,0-0.2,0-0.2c0-0.1,0.1-0.1,0.1-0.2s0.2-0.1,0.3-0.2
			c0.1-0.1,0.3-0.1,0.5-0.2c0.2-0.1,0.4-0.1,0.6-0.1s0.4-0.1,0.6-0.1c0.4,0,0.7,0,1,0.1c0.3,0.1,0.5,0.2,0.7,0.4
			c0.2,0.2,0.3,0.4,0.4,0.7c0.1,0.3,0.1,0.6,0.1,0.9L155.3,231.2L155.3,231.2z M154.3,228.6h-0.9c-0.3,0-0.5,0-0.7,0.1
			c-0.2,0-0.4,0.1-0.5,0.2c-0.1,0.1-0.2,0.2-0.3,0.3s-0.1,0.3-0.1,0.5c0,0.3,0.1,0.5,0.3,0.7c0.2,0.2,0.4,0.3,0.8,0.3
			c0.3,0,0.5-0.1,0.7-0.2c0.2-0.1,0.5-0.3,0.7-0.6L154.3,228.6L154.3,228.6z"/>
		<path class="st12" d="M161.3,231.2C161.3,231.2,161.3,231.2,161.3,231.2c0,0.1-0.1,0.1-0.1,0.1c0,0-0.1,0-0.2,0
			c-0.1,0-0.2,0-0.3,0c-0.1,0-0.2,0-0.2,0c-0.1,0-0.1,0-0.2,0c0,0-0.1,0-0.1-0.1c0,0,0-0.1,0-0.1v-2.4h-0.6c-0.3,0-0.5,0-0.6,0.1
			c-0.1,0-0.3,0.1-0.4,0.2c-0.1,0.1-0.2,0.2-0.3,0.4s-0.2,0.3-0.3,0.6l-0.5,1.1c0,0.1,0,0.1-0.1,0.1c0,0-0.1,0.1-0.1,0.1
			c0,0-0.1,0-0.2,0c-0.1,0-0.2,0-0.3,0c-0.1,0-0.1,0-0.2,0c-0.1,0-0.1,0-0.2,0c0,0-0.1,0-0.1,0c0,0,0-0.1,0-0.1c0,0,0-0.1,0-0.1
			c0-0.1,0.1-0.2,0.1-0.3l0.4-1.1c0.1-0.3,0.3-0.5,0.4-0.7c0.2-0.2,0.4-0.3,0.6-0.4c-0.4-0.1-0.7-0.2-1-0.5c-0.2-0.2-0.4-0.6-0.4-1
			c0-0.3,0.1-0.5,0.2-0.7c0.1-0.2,0.3-0.4,0.5-0.6c0.2-0.2,0.5-0.3,0.8-0.3c0.3-0.1,0.7-0.1,1.1-0.1c0.1,0,0.2,0,0.3,0
			c0.1,0,0.3,0,0.4,0c0.1,0,0.3,0,0.4,0c0.1,0,0.2,0,0.3,0c0.1,0,0.2,0.1,0.3,0.1c0.1,0.1,0.1,0.2,0.1,0.3L161.3,231.2L161.3,231.2z
			 M160.3,226.2c-0.1,0-0.3,0-0.5,0c-0.2,0-0.3,0-0.4,0c-0.3,0-0.5,0-0.7,0.1c-0.2,0-0.3,0.1-0.5,0.2c-0.1,0.1-0.2,0.2-0.2,0.3
			c0,0.1-0.1,0.3-0.1,0.4c0,0.1,0,0.3,0.1,0.4s0.1,0.2,0.3,0.3c0.1,0.1,0.3,0.1,0.4,0.2c0.2,0,0.4,0.1,0.7,0.1h0.8V226.2z"/>
		<path class="st12" d="M170.1,230.3c0,0.1,0,0.1,0,0.2c0,0.1,0,0.1,0,0.1c0,0,0,0.1,0,0.1c0,0,0,0.1-0.1,0.1
			c-0.1,0.1-0.1,0.1-0.3,0.2c-0.1,0.1-0.3,0.1-0.4,0.2c-0.2,0.1-0.3,0.1-0.5,0.1c-0.2,0-0.4,0.1-0.6,0.1c-0.4,0-0.8-0.1-1.1-0.2
			c-0.3-0.1-0.6-0.3-0.8-0.6c-0.2-0.3-0.4-0.6-0.5-0.9c-0.1-0.4-0.2-0.8-0.2-1.3c0-0.6,0.1-1,0.2-1.4c0.1-0.4,0.3-0.7,0.6-1
			c0.2-0.3,0.5-0.4,0.8-0.6c0.3-0.1,0.7-0.2,1-0.2c0.2,0,0.4,0,0.5,0c0.2,0,0.3,0.1,0.5,0.1s0.3,0.1,0.4,0.2
			c0.1,0.1,0.2,0.1,0.2,0.2c0.1,0,0.1,0.1,0.1,0.1c0,0,0,0.1,0,0.1c0,0,0,0.1,0,0.1s0,0.1,0,0.2c0,0.2,0,0.3-0.1,0.3
			c0,0.1-0.1,0.1-0.1,0.1c-0.1,0-0.1,0-0.2-0.1c-0.1-0.1-0.2-0.1-0.3-0.2c-0.1-0.1-0.3-0.2-0.5-0.2c-0.2-0.1-0.4-0.1-0.6-0.1
			c-0.5,0-0.9,0.2-1.1,0.6c-0.3,0.4-0.4,0.9-0.4,1.7c0,0.4,0,0.7,0.1,0.9c0.1,0.3,0.2,0.5,0.3,0.7c0.1,0.2,0.3,0.3,0.5,0.4
			c0.2,0.1,0.4,0.1,0.7,0.1c0.2,0,0.4,0,0.6-0.1c0.2-0.1,0.3-0.2,0.5-0.2c0.1-0.1,0.2-0.2,0.3-0.2c0.1-0.1,0.2-0.1,0.2-0.1
			c0,0,0.1,0,0.1,0c0,0,0,0,0.1,0.1c0,0,0,0.1,0,0.1C170.1,230.1,170.1,230.2,170.1,230.3z"/>
		<path class="st12" d="M176.2,228.1c0,0.2,0,0.3-0.1,0.3c-0.1,0.1-0.2,0.1-0.3,0.1h-3.7c0,0.3,0,0.6,0.1,0.8
			c0.1,0.2,0.2,0.5,0.3,0.6c0.1,0.2,0.3,0.3,0.6,0.4c0.2,0.1,0.5,0.1,0.9,0.1c0.3,0,0.5,0,0.7-0.1c0.2,0,0.4-0.1,0.5-0.1
			c0.2-0.1,0.3-0.1,0.4-0.1c0.1,0,0.2-0.1,0.2-0.1c0,0,0.1,0,0.1,0c0,0,0,0,0.1,0.1c0,0,0,0.1,0,0.1c0,0.1,0,0.1,0,0.2
			c0,0.1,0,0.1,0,0.1s0,0.1,0,0.1c0,0,0,0.1,0,0.1c0,0,0,0-0.1,0.1c0,0-0.1,0.1-0.2,0.1c-0.1,0.1-0.3,0.1-0.4,0.2
			c-0.2,0-0.4,0.1-0.6,0.1c-0.2,0-0.5,0.1-0.7,0.1c-0.5,0-0.9-0.1-1.2-0.2c-0.3-0.1-0.6-0.3-0.9-0.6c-0.2-0.3-0.4-0.6-0.5-1
			c-0.1-0.4-0.2-0.8-0.2-1.3c0-0.5,0.1-0.9,0.2-1.3c0.1-0.4,0.3-0.7,0.5-1c0.2-0.3,0.5-0.5,0.8-0.6c0.3-0.1,0.7-0.2,1.1-0.2
			c0.4,0,0.8,0.1,1.1,0.2c0.3,0.1,0.6,0.3,0.8,0.6c0.2,0.2,0.3,0.5,0.4,0.8c0.1,0.3,0.1,0.7,0.1,1L176.2,228.1L176.2,228.1z
			 M175.2,227.8c0-0.5-0.1-1-0.4-1.3c-0.3-0.3-0.6-0.5-1.1-0.5c-0.3,0-0.5,0-0.7,0.1c-0.2,0.1-0.4,0.2-0.5,0.4
			c-0.1,0.2-0.2,0.3-0.3,0.5c-0.1,0.2-0.1,0.4-0.1,0.7H175.2z"/>
		<path class="st12" d="M182.9,228.3c0,0.5-0.1,0.9-0.2,1.3c-0.1,0.4-0.3,0.7-0.5,1c-0.2,0.3-0.5,0.5-0.8,0.6
			c-0.3,0.1-0.6,0.2-1,0.2c-0.2,0-0.3,0-0.5,0c-0.1,0-0.3-0.1-0.4-0.2c-0.1-0.1-0.3-0.2-0.4-0.3c-0.1-0.1-0.3-0.2-0.4-0.4v2.8
			c0,0,0,0.1,0,0.1c0,0,0,0-0.1,0.1c0,0-0.1,0-0.2,0c-0.1,0-0.2,0-0.3,0c-0.1,0-0.2,0-0.2,0c-0.1,0-0.1,0-0.2,0c0,0-0.1,0-0.1-0.1
			c0,0,0-0.1,0-0.1v-7.8c0,0,0-0.1,0-0.1c0,0,0,0,0.1-0.1c0,0,0.1,0,0.1,0c0.1,0,0.1,0,0.2,0c0.1,0,0.2,0,0.2,0s0.1,0,0.1,0
			c0,0,0.1,0,0.1,0.1c0,0,0,0.1,0,0.1v0.8c0.2-0.2,0.3-0.3,0.5-0.5c0.2-0.1,0.3-0.2,0.5-0.3c0.2-0.1,0.3-0.1,0.5-0.2
			c0.2,0,0.3-0.1,0.5-0.1c0.4,0,0.8,0.1,1,0.2c0.3,0.2,0.5,0.4,0.7,0.6s0.3,0.6,0.4,1C182.9,227.5,182.9,227.9,182.9,228.3z
			 M181.9,228.4c0-0.3,0-0.6-0.1-0.8c0-0.3-0.1-0.5-0.2-0.7c-0.1-0.2-0.2-0.4-0.4-0.5c-0.2-0.1-0.4-0.2-0.7-0.2
			c-0.1,0-0.3,0-0.4,0.1c-0.1,0-0.3,0.1-0.4,0.2c-0.1,0.1-0.3,0.2-0.4,0.3c-0.1,0.1-0.3,0.3-0.5,0.5v2.2c0.3,0.3,0.6,0.6,0.8,0.8
			c0.3,0.2,0.5,0.3,0.8,0.3c0.3,0,0.5-0.1,0.7-0.2c0.2-0.1,0.3-0.3,0.5-0.5c0.1-0.2,0.2-0.4,0.3-0.7
			C181.8,228.9,181.9,228.6,181.9,228.4z"/>
		<path class="st12" d="M189.1,229.5c0,0.3-0.1,0.6-0.2,0.8c-0.1,0.2-0.3,0.4-0.5,0.6c-0.2,0.2-0.5,0.3-0.8,0.4s-0.7,0.1-1.1,0.1
			c-0.1,0-0.3,0-0.4,0c-0.1,0-0.3,0-0.4,0c-0.1,0-0.2,0-0.4,0c-0.1,0-0.2,0-0.4,0c-0.2,0-0.3-0.1-0.4-0.2s-0.1-0.2-0.1-0.4v-4.8
			c0-0.2,0-0.3,0.1-0.4s0.2-0.1,0.4-0.2c0.1,0,0.2,0,0.3,0c0.1,0,0.2,0,0.4,0c0.1,0,0.3,0,0.4,0c0.1,0,0.3,0,0.4,0
			c0.4,0,0.8,0,1,0.1c0.3,0.1,0.5,0.2,0.7,0.3c0.2,0.1,0.3,0.3,0.4,0.5c0.1,0.2,0.1,0.4,0.1,0.6c0,0.3-0.1,0.6-0.3,0.8
			c-0.2,0.2-0.4,0.4-0.7,0.5c0.4,0.1,0.7,0.3,0.9,0.5C189,228.9,189.1,229.2,189.1,229.5z M187.8,226.9c0-0.1,0-0.3-0.1-0.4
			c0-0.1-0.1-0.2-0.2-0.3c-0.1-0.1-0.3-0.1-0.4-0.2c-0.2,0-0.4-0.1-0.7-0.1c-0.2,0-0.4,0-0.5,0c-0.2,0-0.3,0-0.4,0v1.7h1
			c0.4,0,0.8-0.1,1-0.2C187.7,227.5,187.8,227.2,187.8,226.9z M188,229.6c0-0.2,0-0.3-0.1-0.4c-0.1-0.1-0.1-0.2-0.3-0.3
			c-0.1-0.1-0.3-0.1-0.5-0.2c-0.2,0-0.4-0.1-0.7-0.1h-1v2c0.1,0,0.2,0,0.2,0c0.1,0,0.2,0,0.3,0c0.1,0,0.2,0,0.3,0c0.1,0,0.2,0,0.2,0
			c0.3,0,0.5,0,0.7-0.1c0.2,0,0.3-0.1,0.5-0.2s0.2-0.2,0.3-0.3C188,229.9,188,229.7,188,229.6z"/>
		<path class="st12" d="M195.3,228.1c0,0.2,0,0.3-0.1,0.3c-0.1,0.1-0.2,0.1-0.3,0.1h-3.7c0,0.3,0,0.6,0.1,0.8
			c0.1,0.2,0.2,0.5,0.3,0.6c0.1,0.2,0.3,0.3,0.6,0.4s0.5,0.1,0.9,0.1c0.3,0,0.5,0,0.7-0.1c0.2,0,0.4-0.1,0.5-0.1s0.3-0.1,0.4-0.1
			c0.1,0,0.2-0.1,0.2-0.1c0,0,0.1,0,0.1,0s0,0,0.1,0.1c0,0,0,0.1,0,0.1s0,0.1,0,0.2c0,0.1,0,0.1,0,0.1s0,0.1,0,0.1s0,0.1,0,0.1
			c0,0,0,0-0.1,0.1c0,0-0.1,0.1-0.2,0.1c-0.1,0.1-0.3,0.1-0.4,0.2c-0.2,0-0.4,0.1-0.6,0.1c-0.2,0-0.5,0.1-0.7,0.1
			c-0.5,0-0.9-0.1-1.2-0.2c-0.3-0.1-0.6-0.3-0.9-0.6c-0.2-0.3-0.4-0.6-0.5-1c-0.1-0.4-0.2-0.8-0.2-1.3c0-0.5,0.1-0.9,0.2-1.3
			c0.1-0.4,0.3-0.7,0.5-1s0.5-0.5,0.8-0.6c0.3-0.1,0.7-0.2,1.1-0.2c0.4,0,0.8,0.1,1.1,0.2c0.3,0.1,0.6,0.3,0.8,0.6
			c0.2,0.2,0.3,0.5,0.4,0.8s0.1,0.7,0.1,1L195.3,228.1L195.3,228.1z M194.3,227.8c0-0.5-0.1-1-0.4-1.3c-0.3-0.3-0.6-0.5-1.1-0.5
			c-0.3,0-0.5,0-0.7,0.1c-0.2,0.1-0.4,0.2-0.5,0.4c-0.1,0.2-0.2,0.3-0.3,0.5c-0.1,0.2-0.1,0.4-0.1,0.7H194.3z"/>
		<path class="st12" d="M202,228.3c0,0.5-0.1,0.9-0.2,1.3c-0.1,0.4-0.3,0.7-0.5,1c-0.2,0.3-0.5,0.5-0.8,0.6c-0.3,0.1-0.6,0.2-1,0.2
			c-0.2,0-0.3,0-0.5,0c-0.1,0-0.3-0.1-0.4-0.2c-0.1-0.1-0.3-0.2-0.4-0.3c-0.1-0.1-0.3-0.2-0.4-0.4v2.8c0,0,0,0.1,0,0.1
			c0,0,0,0-0.1,0.1s-0.1,0-0.2,0c-0.1,0-0.2,0-0.3,0c-0.1,0-0.2,0-0.2,0c-0.1,0-0.1,0-0.2,0c0,0-0.1,0-0.1-0.1c0,0,0-0.1,0-0.1v-7.8
			c0,0,0-0.1,0-0.1c0,0,0,0,0.1-0.1c0,0,0.1,0,0.1,0s0.1,0,0.2,0c0.1,0,0.2,0,0.2,0s0.1,0,0.1,0s0.1,0,0.1,0.1s0,0.1,0,0.1v0.8
			c0.2-0.2,0.3-0.3,0.5-0.5c0.2-0.1,0.3-0.2,0.5-0.3s0.3-0.1,0.5-0.2c0.2,0,0.3-0.1,0.5-0.1c0.4,0,0.8,0.1,1,0.2
			c0.3,0.2,0.5,0.4,0.7,0.6s0.3,0.6,0.4,1C202,227.5,202,227.9,202,228.3z M201,228.4c0-0.3,0-0.6-0.1-0.8c0-0.3-0.1-0.5-0.2-0.7
			c-0.1-0.2-0.2-0.4-0.4-0.5c-0.2-0.1-0.4-0.2-0.7-0.2c-0.1,0-0.3,0-0.4,0.1c-0.1,0-0.3,0.1-0.4,0.2c-0.1,0.1-0.3,0.2-0.4,0.3
			s-0.3,0.3-0.5,0.5v2.2c0.3,0.3,0.6,0.6,0.8,0.8c0.3,0.2,0.5,0.3,0.8,0.3c0.3,0,0.5-0.1,0.7-0.2c0.2-0.1,0.3-0.3,0.5-0.5
			c0.1-0.2,0.2-0.4,0.3-0.7C201,228.9,201,228.6,201,228.4z"/>
		<path class="st12" d="M208.5,231.2C208.5,231.2,208.5,231.2,208.5,231.2c0,0.1-0.1,0.1-0.1,0.1s-0.1,0-0.2,0c-0.1,0-0.1,0-0.2,0
			c-0.1,0-0.2,0-0.3,0c-0.1,0-0.1,0-0.2,0c0,0-0.1,0-0.1-0.1s0-0.1,0-0.1v-2.5h-2.9v2.5c0,0,0,0.1,0,0.1s0,0-0.1,0.1
			c0,0-0.1,0-0.2,0c-0.1,0-0.2,0-0.3,0c-0.1,0-0.2,0-0.2,0c-0.1,0-0.1,0-0.2,0c0,0-0.1,0-0.1-0.1c0,0,0-0.1,0-0.1v-5.6
			c0,0,0-0.1,0-0.1c0,0,0,0,0.1-0.1c0,0,0.1,0,0.2,0c0.1,0,0.1,0,0.2,0c0.1,0,0.2,0,0.3,0c0.1,0,0.1,0,0.2,0s0.1,0,0.1,0.1
			c0,0,0,0.1,0,0.1v2.3h2.9v-2.3c0,0,0-0.1,0-0.1s0,0,0.1-0.1s0.1,0,0.2,0c0.1,0,0.2,0,0.3,0c0.1,0,0.2,0,0.2,0c0.1,0,0.1,0,0.2,0
			c0,0,0.1,0,0.1,0.1c0,0,0,0.1,0,0.1V231.2z"/>
		<path class="st12" d="M214.6,231.2c0,0,0,0.1,0,0.1c0,0-0.1,0-0.1,0.1c-0.1,0-0.1,0-0.3,0c-0.1,0-0.2,0-0.3,0s-0.1,0-0.1-0.1
			c0,0,0-0.1,0-0.1v-0.6c-0.2,0.3-0.5,0.5-0.8,0.6c-0.3,0.1-0.6,0.2-1,0.2c-0.3,0-0.6,0-0.8-0.1c-0.2-0.1-0.4-0.2-0.6-0.3
			c-0.2-0.1-0.3-0.3-0.4-0.5c-0.1-0.2-0.1-0.5-0.1-0.7c0-0.3,0.1-0.6,0.2-0.8c0.1-0.2,0.3-0.4,0.6-0.6c0.2-0.2,0.5-0.3,0.9-0.3
			c0.3-0.1,0.7-0.1,1.2-0.1h0.8v-0.4c0-0.2,0-0.4-0.1-0.6c0-0.2-0.1-0.3-0.2-0.4c-0.1-0.1-0.2-0.2-0.4-0.2c-0.2-0.1-0.4-0.1-0.6-0.1
			c-0.3,0-0.5,0-0.7,0.1c-0.2,0.1-0.4,0.1-0.5,0.2c-0.2,0.1-0.3,0.1-0.4,0.2c-0.1,0.1-0.2,0.1-0.2,0.1c0,0-0.1,0-0.1,0
			c0,0,0,0-0.1-0.1c0,0,0-0.1,0-0.1s0-0.1,0-0.2c0-0.1,0-0.2,0-0.2c0-0.1,0-0.1,0.1-0.2s0.2-0.1,0.3-0.2s0.3-0.1,0.5-0.2
			c0.2-0.1,0.4-0.1,0.6-0.1c0.2,0,0.4-0.1,0.6-0.1c0.4,0,0.7,0,1,0.1c0.3,0.1,0.5,0.2,0.7,0.4c0.2,0.2,0.3,0.4,0.4,0.7
			c0.1,0.3,0.1,0.6,0.1,0.9L214.6,231.2L214.6,231.2z M213.6,228.6h-0.9c-0.3,0-0.5,0-0.7,0.1s-0.4,0.1-0.5,0.2
			c-0.1,0.1-0.2,0.2-0.3,0.3s-0.1,0.3-0.1,0.5c0,0.3,0.1,0.5,0.3,0.7c0.2,0.2,0.4,0.3,0.8,0.3c0.3,0,0.5-0.1,0.7-0.2
			s0.5-0.3,0.7-0.6L213.6,228.6L213.6,228.6z"/>
		<path class="st12" d="M220.6,231.2C220.6,231.2,220.6,231.2,220.6,231.2c0,0.1-0.1,0.1-0.1,0.1c0,0-0.1,0-0.2,0
			c-0.1,0-0.2,0-0.3,0c-0.1,0-0.2,0-0.2,0c-0.1,0-0.1,0-0.2,0c0,0-0.1,0-0.1-0.1c0,0,0-0.1,0-0.1v-2.4H219c-0.3,0-0.5,0-0.6,0.1
			c-0.1,0-0.3,0.1-0.4,0.2s-0.2,0.2-0.3,0.4s-0.2,0.3-0.3,0.6l-0.5,1.1c0,0.1,0,0.1-0.1,0.1c0,0-0.1,0.1-0.1,0.1c0,0-0.1,0-0.2,0
			c-0.1,0-0.2,0-0.3,0c-0.1,0-0.1,0-0.2,0c-0.1,0-0.1,0-0.2,0c0,0-0.1,0-0.1,0c0,0,0-0.1,0-0.1c0,0,0-0.1,0-0.1
			c0-0.1,0.1-0.2,0.1-0.3l0.4-1.1c0.1-0.3,0.3-0.5,0.4-0.7c0.2-0.2,0.4-0.3,0.6-0.4c-0.4-0.1-0.7-0.2-1-0.5c-0.2-0.2-0.4-0.6-0.4-1
			c0-0.3,0.1-0.5,0.2-0.7c0.1-0.2,0.3-0.4,0.5-0.6c0.2-0.2,0.5-0.3,0.8-0.3c0.3-0.1,0.7-0.1,1.1-0.1c0.1,0,0.2,0,0.3,0
			c0.1,0,0.3,0,0.4,0c0.1,0,0.3,0,0.4,0c0.1,0,0.2,0,0.3,0c0.1,0,0.2,0.1,0.3,0.1c0.1,0.1,0.1,0.2,0.1,0.3V231.2z M219.6,226.2
			c-0.1,0-0.3,0-0.5,0c-0.2,0-0.3,0-0.4,0c-0.3,0-0.5,0-0.7,0.1c-0.2,0-0.3,0.1-0.5,0.2s-0.2,0.2-0.2,0.3c0,0.1-0.1,0.3-0.1,0.4
			c0,0.1,0,0.3,0.1,0.4s0.1,0.2,0.3,0.3c0.1,0.1,0.3,0.1,0.4,0.2c0.2,0,0.4,0.1,0.7,0.1h0.8V226.2z"/>
	</g>
	<g class="st11">
		<path class="st12" d="M331.8,235.8c0,0.4-0.1,0.8-0.2,1.1c-0.1,0.3-0.4,0.6-0.6,0.8c-0.3,0.2-0.6,0.4-0.9,0.5
			c-0.4,0.1-0.8,0.2-1.2,0.2c-0.2,0-0.5,0-0.7-0.1s-0.4-0.1-0.6-0.1c-0.2-0.1-0.3-0.1-0.4-0.2s-0.2-0.1-0.2-0.1c0,0-0.1-0.1-0.1-0.1
			c0,0,0-0.1,0-0.1c0,0,0-0.1,0-0.1c0-0.1,0-0.1,0-0.2c0-0.1,0-0.1,0-0.2c0-0.1,0-0.1,0-0.1c0,0,0-0.1,0.1-0.1c0,0,0,0,0.1,0
			c0,0,0.1,0,0.2,0.1c0.1,0.1,0.2,0.1,0.4,0.2c0.1,0.1,0.3,0.1,0.5,0.2c0.2,0.1,0.5,0.1,0.8,0.1c0.3,0,0.5,0,0.8-0.1
			c0.2-0.1,0.4-0.2,0.6-0.3c0.2-0.1,0.3-0.3,0.4-0.5c0.1-0.2,0.1-0.5,0.1-0.8c0-0.3,0-0.5-0.1-0.7c-0.1-0.2-0.2-0.4-0.4-0.5
			c-0.2-0.1-0.4-0.2-0.6-0.3c-0.3-0.1-0.6-0.1-0.9-0.1c-0.3,0-0.5,0-0.7,0c-0.2,0-0.4,0-0.5,0c-0.1,0-0.2,0-0.2-0.1
			s-0.1-0.2-0.1-0.3v-3.3c0-0.1,0-0.2,0.1-0.3c0.1-0.1,0.2-0.1,0.3-0.1h3.6c0,0,0.1,0,0.1,0c0,0,0.1,0,0.1,0.1s0,0.1,0,0.1
			c0,0.1,0,0.1,0,0.2c0,0.1,0,0.3-0.1,0.3c0,0.1-0.1,0.1-0.2,0.1h-2.9v2.3c0.1,0,0.3,0,0.4,0c0.1,0,0.3,0,0.5,0
			c0.4,0,0.8,0.1,1.2,0.2c0.3,0.1,0.6,0.3,0.8,0.5c0.2,0.2,0.4,0.4,0.5,0.7C331.7,235.1,331.8,235.5,331.8,235.8z"/>
		<path class="st12" d="M336,235.3c0,0.2,0,0.3-0.1,0.3c0,0.1-0.1,0.1-0.2,0.1h-2.6c-0.1,0-0.1,0-0.2-0.1c0-0.1-0.1-0.2-0.1-0.3
			c0-0.2,0-0.3,0.1-0.3c0-0.1,0.1-0.1,0.2-0.1h2.6c0,0,0.1,0,0.1,0c0,0,0,0,0.1,0.1c0,0,0,0.1,0,0.1C336,235.1,336,235.2,336,235.3z
			"/>
		<path class="st12" d="M341.6,238.2c0,0,0,0.1,0,0.1c0,0-0.1,0-0.1,0.1c-0.1,0-0.1,0-0.3,0c-0.1,0-0.2,0-0.3,0s-0.1,0-0.1-0.1
			c0,0,0-0.1,0-0.1v-0.6c-0.2,0.3-0.5,0.5-0.8,0.6c-0.3,0.1-0.6,0.2-1,0.2c-0.3,0-0.6,0-0.8-0.1c-0.2-0.1-0.4-0.2-0.6-0.3
			c-0.2-0.1-0.3-0.3-0.4-0.5c-0.1-0.2-0.1-0.5-0.1-0.7c0-0.3,0.1-0.6,0.2-0.8c0.1-0.2,0.3-0.4,0.6-0.6c0.2-0.2,0.5-0.3,0.9-0.3
			c0.3-0.1,0.7-0.1,1.2-0.1h0.8v-0.4c0-0.2,0-0.4-0.1-0.6c0-0.2-0.1-0.3-0.2-0.4c-0.1-0.1-0.2-0.2-0.4-0.2c-0.2-0.1-0.4-0.1-0.6-0.1
			c-0.3,0-0.5,0-0.7,0.1c-0.2,0.1-0.4,0.1-0.5,0.2c-0.2,0.1-0.3,0.1-0.4,0.2s-0.2,0.1-0.2,0.1c0,0-0.1,0-0.1,0c0,0,0,0-0.1-0.1
			c0,0,0-0.1,0-0.1c0-0.1,0-0.1,0-0.2c0-0.1,0-0.2,0-0.2c0-0.1,0-0.1,0.1-0.2c0.1-0.1,0.2-0.1,0.3-0.2s0.3-0.1,0.5-0.2
			c0.2-0.1,0.4-0.1,0.6-0.1c0.2,0,0.4-0.1,0.6-0.1c0.4,0,0.7,0,1,0.1c0.3,0.1,0.5,0.2,0.7,0.4c0.2,0.2,0.3,0.4,0.4,0.7
			c0.1,0.3,0.1,0.6,0.1,0.9L341.6,238.2L341.6,238.2z M340.5,235.7h-0.9c-0.3,0-0.5,0-0.7,0.1s-0.4,0.1-0.5,0.2
			c-0.1,0.1-0.2,0.2-0.3,0.3c-0.1,0.1-0.1,0.3-0.1,0.5c0,0.3,0.1,0.5,0.3,0.7c0.2,0.2,0.4,0.3,0.8,0.3c0.3,0,0.5-0.1,0.7-0.2
			c0.2-0.1,0.5-0.3,0.7-0.6L340.5,235.7L340.5,235.7z"/>
		<path class="st12" d="M347.6,238.2C347.6,238.3,347.6,238.3,347.6,238.2c0,0.1-0.1,0.1-0.1,0.1c0,0-0.1,0-0.2,0
			c-0.1,0-0.2,0-0.3,0c-0.1,0-0.2,0-0.2,0c-0.1,0-0.1,0-0.2,0c0,0-0.1,0-0.1-0.1c0,0,0-0.1,0-0.1v-2.4H346c-0.3,0-0.5,0-0.6,0.1
			c-0.1,0-0.3,0.1-0.4,0.2c-0.1,0.1-0.2,0.2-0.3,0.4c-0.1,0.2-0.2,0.3-0.3,0.6l-0.5,1.1c0,0.1,0,0.1-0.1,0.1c0,0-0.1,0.1-0.1,0.1
			c0,0-0.1,0-0.2,0c-0.1,0-0.2,0-0.3,0c-0.1,0-0.1,0-0.2,0c-0.1,0-0.1,0-0.2,0c0,0-0.1,0-0.1,0s0-0.1,0-0.1c0,0,0-0.1,0-0.1
			c0-0.1,0.1-0.2,0.1-0.3l0.4-1.1c0.1-0.3,0.3-0.5,0.4-0.7c0.2-0.2,0.4-0.3,0.6-0.4c-0.4-0.1-0.7-0.2-1-0.5c-0.2-0.2-0.4-0.6-0.4-1
			c0-0.3,0.1-0.5,0.2-0.7c0.1-0.2,0.3-0.4,0.5-0.6c0.2-0.2,0.5-0.3,0.8-0.3c0.3-0.1,0.7-0.1,1.1-0.1c0.1,0,0.2,0,0.3,0
			c0.1,0,0.3,0,0.4,0c0.1,0,0.3,0,0.4,0c0.1,0,0.2,0,0.3,0c0.1,0,0.2,0.1,0.3,0.1s0.1,0.2,0.1,0.3V238.2z M346.6,233.2
			c-0.1,0-0.3,0-0.5,0c-0.2,0-0.3,0-0.4,0c-0.3,0-0.5,0-0.7,0.1s-0.3,0.1-0.5,0.2c-0.1,0.1-0.2,0.2-0.2,0.3s-0.1,0.3-0.1,0.4
			c0,0.1,0,0.3,0.1,0.4s0.1,0.2,0.3,0.3c0.1,0.1,0.3,0.1,0.4,0.2c0.2,0,0.4,0.1,0.7,0.1h0.8L346.6,233.2L346.6,233.2z"/>
		<path class="st12" d="M356.4,237.4c0,0.1,0,0.1,0,0.2c0,0.1,0,0.1,0,0.1c0,0,0,0.1,0,0.1c0,0,0,0.1-0.1,0.1s-0.1,0.1-0.3,0.2
			c-0.1,0.1-0.3,0.1-0.4,0.2c-0.2,0.1-0.3,0.1-0.5,0.1c-0.2,0-0.4,0.1-0.6,0.1c-0.4,0-0.8-0.1-1.1-0.2c-0.3-0.1-0.6-0.3-0.8-0.6
			c-0.2-0.3-0.4-0.6-0.5-0.9c-0.1-0.4-0.2-0.8-0.2-1.3c0-0.6,0.1-1,0.2-1.4c0.1-0.4,0.3-0.7,0.6-1c0.2-0.3,0.5-0.4,0.8-0.6
			c0.3-0.1,0.7-0.2,1-0.2c0.2,0,0.4,0,0.5,0c0.2,0,0.3,0.1,0.5,0.1c0.1,0.1,0.3,0.1,0.4,0.2c0.1,0.1,0.2,0.1,0.2,0.2
			s0.1,0.1,0.1,0.1c0,0,0,0.1,0,0.1c0,0,0,0.1,0,0.1s0,0.1,0,0.2c0,0.2,0,0.3-0.1,0.3c0,0.1-0.1,0.1-0.1,0.1c-0.1,0-0.1,0-0.2-0.1
			c-0.1-0.1-0.2-0.1-0.3-0.2c-0.1-0.1-0.3-0.2-0.5-0.2c-0.2-0.1-0.4-0.1-0.6-0.1c-0.5,0-0.9,0.2-1.1,0.6c-0.3,0.4-0.4,0.9-0.4,1.7
			c0,0.4,0,0.7,0.1,0.9c0.1,0.3,0.2,0.5,0.3,0.7c0.1,0.2,0.3,0.3,0.5,0.4c0.2,0.1,0.4,0.1,0.7,0.1c0.2,0,0.4,0,0.6-0.1
			c0.2-0.1,0.3-0.2,0.5-0.2c0.1-0.1,0.2-0.2,0.3-0.2c0.1-0.1,0.2-0.1,0.2-0.1c0,0,0.1,0,0.1,0c0,0,0,0,0.1,0.1c0,0,0,0.1,0,0.1
			C356.4,237.2,356.4,237.3,356.4,237.4z"/>
		<path class="st12" d="M362.5,235.2c0,0.2,0,0.3-0.1,0.3c-0.1,0.1-0.2,0.1-0.3,0.1h-3.7c0,0.3,0,0.6,0.1,0.8
			c0.1,0.2,0.2,0.5,0.3,0.6c0.1,0.2,0.3,0.3,0.6,0.4c0.2,0.1,0.5,0.1,0.9,0.1c0.3,0,0.5,0,0.7-0.1c0.2,0,0.4-0.1,0.5-0.1
			c0.2-0.1,0.3-0.1,0.4-0.1c0.1,0,0.2-0.1,0.2-0.1c0,0,0.1,0,0.1,0c0,0,0,0,0.1,0.1c0,0,0,0.1,0,0.1c0,0.1,0,0.1,0,0.2
			c0,0.1,0,0.1,0,0.1c0,0,0,0.1,0,0.1c0,0,0,0.1,0,0.1c0,0,0,0-0.1,0.1c0,0-0.1,0.1-0.2,0.1c-0.1,0.1-0.3,0.1-0.4,0.2
			c-0.2,0-0.4,0.1-0.6,0.1c-0.2,0-0.5,0.1-0.7,0.1c-0.5,0-0.9-0.1-1.2-0.2c-0.3-0.1-0.6-0.3-0.9-0.6c-0.2-0.3-0.4-0.6-0.5-1
			c-0.1-0.4-0.2-0.8-0.2-1.3c0-0.5,0.1-0.9,0.2-1.3c0.1-0.4,0.3-0.7,0.5-1c0.2-0.3,0.5-0.5,0.8-0.6c0.3-0.1,0.7-0.2,1.1-0.2
			c0.4,0,0.8,0.1,1.1,0.2c0.3,0.1,0.6,0.3,0.8,0.6c0.2,0.2,0.3,0.5,0.4,0.8s0.1,0.7,0.1,1L362.5,235.2L362.5,235.2z M361.5,234.9
			c0-0.5-0.1-1-0.4-1.3c-0.3-0.3-0.6-0.5-1.1-0.5c-0.3,0-0.5,0-0.7,0.1c-0.2,0.1-0.4,0.2-0.5,0.4c-0.1,0.2-0.2,0.3-0.3,0.5
			c-0.1,0.2-0.1,0.4-0.1,0.7L361.5,234.9L361.5,234.9z"/>
		<path class="st12" d="M369.2,235.4c0,0.5-0.1,0.9-0.2,1.3c-0.1,0.4-0.3,0.7-0.5,1c-0.2,0.3-0.5,0.5-0.8,0.6
			c-0.3,0.1-0.6,0.2-1,0.2c-0.2,0-0.3,0-0.5,0s-0.3-0.1-0.4-0.2c-0.1-0.1-0.3-0.2-0.4-0.3c-0.1-0.1-0.3-0.2-0.4-0.4v2.8
			c0,0,0,0.1,0,0.1c0,0,0,0-0.1,0.1c0,0-0.1,0-0.2,0c-0.1,0-0.2,0-0.3,0c-0.1,0-0.2,0-0.2,0c-0.1,0-0.1,0-0.2,0c0,0-0.1,0-0.1-0.1
			c0,0,0-0.1,0-0.1v-7.8c0,0,0-0.1,0-0.1c0,0,0,0,0.1-0.1c0,0,0.1,0,0.1,0c0.1,0,0.1,0,0.2,0c0.1,0,0.2,0,0.2,0c0.1,0,0.1,0,0.1,0
			c0,0,0.1,0,0.1,0.1c0,0,0,0.1,0,0.1v0.8c0.2-0.2,0.3-0.3,0.5-0.5c0.2-0.1,0.3-0.2,0.5-0.3c0.2-0.1,0.3-0.1,0.5-0.2
			c0.2,0,0.3-0.1,0.5-0.1c0.4,0,0.8,0.1,1,0.2c0.3,0.2,0.5,0.4,0.7,0.6c0.2,0.3,0.3,0.6,0.4,1C369.2,234.6,369.2,234.9,369.2,235.4z
			 M368.2,235.5c0-0.3,0-0.6-0.1-0.8c0-0.3-0.1-0.5-0.2-0.7s-0.2-0.4-0.4-0.5c-0.2-0.1-0.4-0.2-0.7-0.2c-0.1,0-0.3,0-0.4,0.1
			c-0.1,0-0.3,0.1-0.4,0.2c-0.1,0.1-0.3,0.2-0.4,0.3c-0.1,0.1-0.3,0.3-0.5,0.5v2.2c0.3,0.3,0.6,0.6,0.8,0.8c0.3,0.2,0.5,0.3,0.8,0.3
			c0.3,0,0.5-0.1,0.7-0.2c0.2-0.1,0.3-0.3,0.5-0.5c0.1-0.2,0.2-0.4,0.3-0.7C368.1,236,368.2,235.7,368.2,235.5z"/>
		<path class="st12" d="M375.4,236.6c0,0.3-0.1,0.6-0.2,0.8c-0.1,0.2-0.3,0.4-0.5,0.6c-0.2,0.2-0.5,0.3-0.8,0.4
			c-0.3,0.1-0.7,0.1-1.1,0.1c-0.1,0-0.3,0-0.4,0c-0.1,0-0.3,0-0.4,0c-0.1,0-0.2,0-0.4,0c-0.1,0-0.2,0-0.4,0c-0.2,0-0.3-0.1-0.4-0.2
			c-0.1-0.1-0.1-0.2-0.1-0.4V233c0-0.2,0-0.3,0.1-0.4c0.1-0.1,0.2-0.1,0.4-0.2c0.1,0,0.2,0,0.3,0c0.1,0,0.2,0,0.4,0
			c0.1,0,0.3,0,0.4,0c0.1,0,0.3,0,0.4,0c0.4,0,0.8,0,1,0.1c0.3,0.1,0.5,0.2,0.7,0.3c0.2,0.1,0.3,0.3,0.4,0.5
			c0.1,0.2,0.1,0.4,0.1,0.6c0,0.3-0.1,0.6-0.3,0.8c-0.2,0.2-0.4,0.4-0.7,0.5c0.4,0.1,0.7,0.3,0.9,0.5
			C375.3,235.9,375.4,236.3,375.4,236.6z M374.1,234c0-0.1,0-0.3-0.1-0.4c0-0.1-0.1-0.2-0.2-0.3c-0.1-0.1-0.3-0.1-0.4-0.2
			c-0.2,0-0.4-0.1-0.7-0.1c-0.2,0-0.4,0-0.5,0c-0.2,0-0.3,0-0.4,0v1.7h1c0.4,0,0.8-0.1,1-0.2C374,234.6,374.1,234.3,374.1,234z
			 M374.3,236.6c0-0.2,0-0.3-0.1-0.4c-0.1-0.1-0.1-0.2-0.3-0.3c-0.1-0.1-0.3-0.1-0.5-0.2c-0.2,0-0.4-0.1-0.7-0.1h-1v2
			c0.1,0,0.2,0,0.2,0c0.1,0,0.2,0,0.3,0c0.1,0,0.2,0,0.3,0c0.1,0,0.2,0,0.2,0c0.3,0,0.5,0,0.7-0.1s0.3-0.1,0.5-0.2
			c0.1-0.1,0.2-0.2,0.3-0.3C374.3,237,374.3,236.8,374.3,236.6z"/>
		<path class="st12" d="M381.6,235.2c0,0.2,0,0.3-0.1,0.3c-0.1,0.1-0.2,0.1-0.3,0.1h-3.7c0,0.3,0,0.6,0.1,0.8
			c0.1,0.2,0.2,0.5,0.3,0.6c0.1,0.2,0.3,0.3,0.6,0.4c0.2,0.1,0.5,0.1,0.9,0.1c0.3,0,0.5,0,0.7-0.1c0.2,0,0.4-0.1,0.5-0.1
			c0.2-0.1,0.3-0.1,0.4-0.1c0.1,0,0.2-0.1,0.2-0.1c0,0,0.1,0,0.1,0c0,0,0,0,0.1,0.1c0,0,0,0.1,0,0.1c0,0.1,0,0.1,0,0.2
			c0,0.1,0,0.1,0,0.1c0,0,0,0.1,0,0.1c0,0,0,0.1,0,0.1c0,0,0,0-0.1,0.1c0,0-0.1,0.1-0.2,0.1c-0.1,0.1-0.3,0.1-0.4,0.2
			c-0.2,0-0.4,0.1-0.6,0.1c-0.2,0-0.5,0.1-0.7,0.1c-0.5,0-0.9-0.1-1.2-0.2c-0.3-0.1-0.6-0.3-0.9-0.6c-0.2-0.3-0.4-0.6-0.5-1
			c-0.1-0.4-0.2-0.8-0.2-1.3c0-0.5,0.1-0.9,0.2-1.3c0.1-0.4,0.3-0.7,0.5-1c0.2-0.3,0.5-0.5,0.8-0.6c0.3-0.1,0.7-0.2,1.1-0.2
			c0.4,0,0.8,0.1,1.1,0.2c0.3,0.1,0.6,0.3,0.8,0.6c0.2,0.2,0.3,0.5,0.4,0.8c0.1,0.3,0.1,0.7,0.1,1L381.6,235.2L381.6,235.2z
			 M380.6,234.9c0-0.5-0.1-1-0.4-1.3c-0.3-0.3-0.6-0.5-1.1-0.5c-0.3,0-0.5,0-0.7,0.1c-0.2,0.1-0.4,0.2-0.5,0.4
			c-0.1,0.2-0.2,0.3-0.3,0.5c-0.1,0.2-0.1,0.4-0.1,0.7L380.6,234.9L380.6,234.9z"/>
		<path class="st12" d="M388.3,235.4c0,0.5-0.1,0.9-0.2,1.3c-0.1,0.4-0.3,0.7-0.5,1c-0.2,0.3-0.5,0.5-0.8,0.6
			c-0.3,0.1-0.6,0.2-1,0.2c-0.2,0-0.3,0-0.5,0c-0.1,0-0.3-0.1-0.4-0.2c-0.1-0.1-0.3-0.2-0.4-0.3c-0.1-0.1-0.3-0.2-0.4-0.4v2.8
			c0,0,0,0.1,0,0.1c0,0,0,0-0.1,0.1c0,0-0.1,0-0.2,0c-0.1,0-0.2,0-0.3,0c-0.1,0-0.2,0-0.2,0c-0.1,0-0.1,0-0.2,0c0,0-0.1,0-0.1-0.1
			c0,0,0-0.1,0-0.1v-7.8c0,0,0-0.1,0-0.1c0,0,0,0,0.1-0.1c0,0,0.1,0,0.1,0c0.1,0,0.1,0,0.2,0c0.1,0,0.2,0,0.2,0c0.1,0,0.1,0,0.1,0
			c0,0,0.1,0,0.1,0.1c0,0,0,0.1,0,0.1v0.8c0.2-0.2,0.3-0.3,0.5-0.5c0.2-0.1,0.3-0.2,0.5-0.3c0.2-0.1,0.3-0.1,0.5-0.2
			c0.2,0,0.3-0.1,0.5-0.1c0.4,0,0.8,0.1,1,0.2c0.3,0.2,0.5,0.4,0.7,0.6c0.2,0.3,0.3,0.6,0.4,1C388.3,234.6,388.3,234.9,388.3,235.4z
			 M387.3,235.5c0-0.3,0-0.6-0.1-0.8c0-0.3-0.1-0.5-0.2-0.7c-0.1-0.2-0.2-0.4-0.4-0.5c-0.2-0.1-0.4-0.2-0.7-0.2
			c-0.1,0-0.3,0-0.4,0.1c-0.1,0-0.3,0.1-0.4,0.2c-0.1,0.1-0.3,0.2-0.4,0.3c-0.1,0.1-0.3,0.3-0.5,0.5v2.2c0.3,0.3,0.6,0.6,0.8,0.8
			c0.3,0.2,0.5,0.3,0.8,0.3c0.3,0,0.5-0.1,0.7-0.2c0.2-0.1,0.3-0.3,0.5-0.5c0.1-0.2,0.2-0.4,0.3-0.7
			C387.2,236,387.3,235.7,387.3,235.5z"/>
		<path class="st12" d="M394.8,238.2C394.8,238.3,394.8,238.3,394.8,238.2c0,0.1-0.1,0.1-0.1,0.1c0,0-0.1,0-0.2,0
			c-0.1,0-0.1,0-0.2,0c-0.1,0-0.2,0-0.3,0c-0.1,0-0.1,0-0.2,0c0,0-0.1,0-0.1-0.1c0,0,0-0.1,0-0.1v-2.5h-2.9v2.5c0,0,0,0.1,0,0.1
			c0,0,0,0-0.1,0.1c0,0-0.1,0-0.2,0c-0.1,0-0.2,0-0.3,0c-0.1,0-0.2,0-0.2,0c-0.1,0-0.1,0-0.2,0c0,0-0.1,0-0.1-0.1c0,0,0-0.1,0-0.1
			v-5.6c0,0,0-0.1,0-0.1c0,0,0,0,0.1-0.1c0,0,0.1,0,0.2,0c0.1,0,0.1,0,0.2,0c0.1,0,0.2,0,0.3,0c0.1,0,0.1,0,0.2,0c0,0,0.1,0,0.1,0.1
			c0,0,0,0.1,0,0.1v2.3h2.9v-2.3c0,0,0-0.1,0-0.1s0,0,0.1-0.1s0.1,0,0.2,0s0.2,0,0.3,0c0.1,0,0.2,0,0.2,0c0.1,0,0.1,0,0.2,0
			c0,0,0.1,0,0.1,0.1c0,0,0,0.1,0,0.1V238.2z"/>
		<path class="st12" d="M400.9,238.2c0,0,0,0.1,0,0.1c0,0-0.1,0-0.1,0.1c-0.1,0-0.1,0-0.3,0c-0.1,0-0.2,0-0.3,0s-0.1,0-0.1-0.1
			c0,0,0-0.1,0-0.1v-0.6c-0.2,0.3-0.5,0.5-0.8,0.6c-0.3,0.1-0.6,0.2-1,0.2c-0.3,0-0.6,0-0.8-0.1c-0.2-0.1-0.4-0.2-0.6-0.3
			c-0.2-0.1-0.3-0.3-0.4-0.5c-0.1-0.2-0.1-0.5-0.1-0.7c0-0.3,0.1-0.6,0.2-0.8s0.3-0.4,0.6-0.6c0.2-0.2,0.5-0.3,0.9-0.3
			c0.3-0.1,0.7-0.1,1.2-0.1h0.8v-0.4c0-0.2,0-0.4-0.1-0.6c0-0.2-0.1-0.3-0.2-0.4c-0.1-0.1-0.2-0.2-0.4-0.2c-0.2-0.1-0.4-0.1-0.6-0.1
			c-0.3,0-0.5,0-0.7,0.1c-0.2,0.1-0.4,0.1-0.5,0.2c-0.2,0.1-0.3,0.1-0.4,0.2s-0.2,0.1-0.2,0.1c0,0-0.1,0-0.1,0c0,0,0,0-0.1-0.1
			c0,0,0-0.1,0-0.1c0-0.1,0-0.1,0-0.2c0-0.1,0-0.2,0-0.2c0-0.1,0-0.1,0.1-0.2c0.1-0.1,0.2-0.1,0.3-0.2s0.3-0.1,0.5-0.2
			c0.2-0.1,0.4-0.1,0.6-0.1c0.2,0,0.4-0.1,0.6-0.1c0.4,0,0.7,0,1,0.1c0.3,0.1,0.5,0.2,0.7,0.4c0.2,0.2,0.3,0.4,0.4,0.7
			c0.1,0.3,0.1,0.6,0.1,0.9L400.9,238.2L400.9,238.2z M399.9,235.7H399c-0.3,0-0.5,0-0.7,0.1s-0.4,0.1-0.5,0.2
			c-0.1,0.1-0.2,0.2-0.3,0.3s-0.1,0.3-0.1,0.5c0,0.3,0.1,0.5,0.3,0.7c0.2,0.2,0.4,0.3,0.8,0.3c0.3,0,0.5-0.1,0.7-0.2
			c0.2-0.1,0.5-0.3,0.7-0.6L399.9,235.7L399.9,235.7z"/>
		<path class="st12" d="M406.9,238.2C406.9,238.3,406.9,238.3,406.9,238.2c0,0.1-0.1,0.1-0.1,0.1c0,0-0.1,0-0.2,0
			c-0.1,0-0.2,0-0.3,0c-0.1,0-0.2,0-0.2,0c-0.1,0-0.1,0-0.2,0c0,0-0.1,0-0.1-0.1c0,0,0-0.1,0-0.1v-2.4h-0.6c-0.3,0-0.5,0-0.6,0.1
			c-0.1,0-0.3,0.1-0.4,0.2c-0.1,0.1-0.2,0.2-0.3,0.4c-0.1,0.2-0.2,0.3-0.3,0.6l-0.5,1.1c0,0.1,0,0.1-0.1,0.1c0,0-0.1,0.1-0.1,0.1
			c0,0-0.1,0-0.2,0c-0.1,0-0.2,0-0.3,0c-0.1,0-0.1,0-0.2,0c-0.1,0-0.1,0-0.2,0c0,0-0.1,0-0.1,0s0-0.1,0-0.1c0,0,0-0.1,0-0.1
			c0-0.1,0.1-0.2,0.1-0.3l0.4-1.1c0.1-0.3,0.3-0.5,0.4-0.7c0.2-0.2,0.4-0.3,0.6-0.4c-0.4-0.1-0.7-0.2-1-0.5c-0.2-0.2-0.4-0.6-0.4-1
			c0-0.3,0.1-0.5,0.2-0.7c0.1-0.2,0.3-0.4,0.5-0.6c0.2-0.2,0.5-0.3,0.8-0.3c0.3-0.1,0.7-0.1,1.1-0.1c0.1,0,0.2,0,0.3,0
			c0.1,0,0.3,0,0.4,0c0.1,0,0.3,0,0.4,0c0.1,0,0.2,0,0.3,0c0.1,0,0.2,0.1,0.3,0.1s0.1,0.2,0.1,0.3L406.9,238.2L406.9,238.2z
			 M405.9,233.2c-0.1,0-0.3,0-0.5,0c-0.2,0-0.3,0-0.4,0c-0.3,0-0.5,0-0.7,0.1s-0.3,0.1-0.5,0.2c-0.1,0.1-0.2,0.2-0.2,0.3
			s-0.1,0.3-0.1,0.4c0,0.1,0,0.3,0.1,0.4s0.1,0.2,0.3,0.3c0.1,0.1,0.3,0.1,0.4,0.2c0.2,0,0.4,0.1,0.7,0.1h0.8L405.9,233.2
			L405.9,233.2z"/>
	</g>
	<g class="st11">
		<path class="st12" d="M32.6,255.4c0,0.1,0,0.2-0.1,0.3c0,0.1-0.1,0.1-0.2,0.1h-0.9v1.7c0,0,0,0.1,0,0.1s0,0-0.1,0.1s-0.1,0-0.2,0
			c-0.1,0-0.2,0-0.3,0c-0.1,0-0.2,0-0.3,0c-0.1,0-0.1,0-0.2,0c0,0-0.1,0-0.1-0.1c0,0,0-0.1,0-0.1v-1.7h-3.3c0,0-0.1,0-0.1,0
			c0,0-0.1,0-0.1-0.1c0,0,0-0.1-0.1-0.1c0-0.1,0-0.1,0-0.2c0-0.1,0-0.1,0-0.2s0-0.1,0-0.2s0-0.1,0-0.1c0,0,0-0.1,0.1-0.2l2.9-4.9
			c0,0,0.1-0.1,0.1-0.1c0,0,0.1,0,0.2-0.1c0.1,0,0.1,0,0.2,0c0.1,0,0.2,0,0.3,0c0.1,0,0.3,0,0.4,0c0.1,0,0.2,0,0.3,0s0.1,0,0.1,0.1
			c0,0,0.1,0.1,0.1,0.1v5.1h0.9c0.1,0,0.1,0,0.2,0.1C32.6,255.1,32.6,255.2,32.6,255.4z M30.4,250.5L30.4,250.5l-2.6,4.4h2.6
			L30.4,250.5L30.4,250.5z"/>
		<path class="st12" d="M36.4,254.5c0,0.2,0,0.3-0.1,0.3s-0.1,0.1-0.2,0.1h-2.6c-0.1,0-0.1,0-0.2-0.1c0-0.1-0.1-0.2-0.1-0.3
			c0-0.2,0-0.3,0.1-0.3c0-0.1,0.1-0.1,0.2-0.1h2.6c0,0,0.1,0,0.1,0c0,0,0.1,0,0.1,0.1c0,0,0,0.1,0,0.1
			C36.4,254.4,36.4,254.4,36.4,254.5z"/>
		<path class="st12" d="M42,257.5c0,0,0,0.1,0,0.1c0,0-0.1,0-0.1,0.1s-0.1,0-0.3,0c-0.1,0-0.2,0-0.3,0s-0.1,0-0.1-0.1s0-0.1,0-0.1
			V257c-0.2,0.3-0.5,0.5-0.8,0.6c-0.3,0.1-0.6,0.2-1,0.2c-0.3,0-0.6,0-0.8-0.1c-0.2-0.1-0.4-0.2-0.6-0.3c-0.2-0.1-0.3-0.3-0.4-0.5
			c-0.1-0.2-0.1-0.5-0.1-0.7c0-0.3,0.1-0.6,0.2-0.8s0.3-0.4,0.6-0.6c0.2-0.2,0.5-0.3,0.9-0.3c0.3-0.1,0.7-0.1,1.2-0.1H41v-0.4
			c0-0.2,0-0.4-0.1-0.6c0-0.2-0.1-0.3-0.2-0.4c-0.1-0.1-0.2-0.2-0.4-0.2c-0.2-0.1-0.4-0.1-0.6-0.1c-0.3,0-0.5,0-0.7,0.1
			c-0.2,0.1-0.4,0.1-0.5,0.2c-0.2,0.1-0.3,0.1-0.4,0.2c-0.1,0.1-0.2,0.1-0.2,0.1c0,0-0.1,0-0.1,0c0,0,0,0-0.1-0.1c0,0,0-0.1,0-0.1
			s0-0.1,0-0.2c0-0.1,0-0.2,0-0.2c0-0.1,0.1-0.1,0.1-0.2s0.2-0.1,0.3-0.2s0.3-0.1,0.5-0.2s0.4-0.1,0.6-0.1c0.2,0,0.4-0.1,0.6-0.1
			c0.4,0,0.7,0,1,0.1c0.3,0.1,0.5,0.2,0.7,0.4c0.2,0.2,0.3,0.4,0.4,0.7c0.1,0.3,0.1,0.6,0.1,0.9L42,257.5L42,257.5z M41,255h-0.9
			c-0.3,0-0.5,0-0.7,0.1s-0.4,0.1-0.5,0.2c-0.1,0.1-0.2,0.2-0.3,0.3s-0.1,0.3-0.1,0.5c0,0.3,0.1,0.5,0.3,0.7
			c0.2,0.2,0.4,0.3,0.8,0.3c0.3,0,0.5-0.1,0.7-0.2s0.5-0.3,0.7-0.6L41,255L41,255z"/>
		<path class="st12" d="M48,257.5C48,257.5,48,257.6,48,257.5c0,0.1-0.1,0.1-0.1,0.1c0,0-0.1,0-0.2,0c-0.1,0-0.2,0-0.3,0
			c-0.1,0-0.2,0-0.2,0c-0.1,0-0.1,0-0.2,0c0,0-0.1,0-0.1-0.1c0,0,0-0.1,0-0.1v-2.4h-0.6c-0.3,0-0.5,0-0.6,0.1
			c-0.1,0-0.3,0.1-0.4,0.2s-0.2,0.2-0.3,0.4c-0.1,0.2-0.2,0.3-0.3,0.6l-0.5,1.1c0,0.1,0,0.1-0.1,0.1c0,0-0.1,0.1-0.1,0.1
			c0,0-0.1,0-0.2,0c-0.1,0-0.2,0-0.3,0c-0.1,0-0.1,0-0.2,0c-0.1,0-0.1,0-0.2,0c0,0-0.1,0-0.1,0s0-0.1,0-0.1c0,0,0-0.1,0-0.1
			c0-0.1,0.1-0.2,0.1-0.3l0.4-1.1c0.1-0.3,0.3-0.5,0.4-0.7c0.2-0.2,0.4-0.3,0.6-0.4c-0.4-0.1-0.7-0.2-1-0.5c-0.2-0.2-0.4-0.6-0.4-1
			c0-0.3,0.1-0.5,0.2-0.7c0.1-0.2,0.3-0.4,0.5-0.6c0.2-0.2,0.5-0.3,0.8-0.3c0.3-0.1,0.7-0.1,1.1-0.1c0.1,0,0.2,0,0.3,0
			c0.1,0,0.3,0,0.4,0s0.3,0,0.4,0c0.1,0,0.2,0,0.3,0c0.1,0,0.2,0.1,0.3,0.1c0.1,0.1,0.1,0.2,0.1,0.3L48,257.5L48,257.5z M47,252.5
			c-0.2,0-0.3,0-0.5,0c-0.2,0-0.3,0-0.4,0c-0.3,0-0.5,0-0.7,0.1c-0.2,0-0.3,0.1-0.5,0.2c-0.1,0.1-0.2,0.2-0.2,0.3
			c0,0.1-0.1,0.3-0.1,0.4c0,0.1,0,0.3,0.1,0.4s0.1,0.2,0.3,0.3c0.1,0.1,0.3,0.1,0.4,0.2c0.2,0,0.4,0.1,0.7,0.1H47L47,252.5L47,252.5
			z"/>
		<path class="st12" d="M56.8,256.7c0,0.1,0,0.1,0,0.2c0,0.1,0,0.1,0,0.1c0,0,0,0.1,0,0.1c0,0,0,0.1-0.1,0.1
			c-0.1,0.1-0.1,0.1-0.3,0.2c-0.1,0.1-0.3,0.1-0.4,0.2c-0.2,0.1-0.3,0.1-0.5,0.1c-0.2,0-0.4,0.1-0.6,0.1c-0.4,0-0.8-0.1-1.1-0.2
			c-0.3-0.1-0.6-0.3-0.8-0.6c-0.2-0.3-0.4-0.6-0.5-0.9c-0.1-0.4-0.2-0.8-0.2-1.3c0-0.6,0.1-1,0.2-1.4s0.3-0.7,0.6-1
			c0.2-0.3,0.5-0.4,0.8-0.6c0.3-0.1,0.7-0.2,1-0.2c0.2,0,0.4,0,0.5,0c0.2,0,0.3,0.1,0.5,0.1c0.1,0.1,0.3,0.1,0.4,0.2
			c0.1,0.1,0.2,0.1,0.2,0.2c0.1,0,0.1,0.1,0.1,0.1c0,0,0,0.1,0,0.1c0,0,0,0.1,0,0.1s0,0.1,0,0.2c0,0.2,0,0.3-0.1,0.3
			c0,0.1-0.1,0.1-0.1,0.1c-0.1,0-0.1,0-0.2-0.1c-0.1-0.1-0.2-0.1-0.3-0.2c-0.1-0.1-0.3-0.2-0.4-0.2c-0.2-0.1-0.4-0.1-0.6-0.1
			c-0.5,0-0.9,0.2-1.1,0.6c-0.3,0.4-0.4,0.9-0.4,1.7c0,0.4,0,0.7,0.1,0.9c0.1,0.3,0.2,0.5,0.3,0.7c0.1,0.2,0.3,0.3,0.5,0.4
			c0.2,0.1,0.4,0.1,0.7,0.1c0.2,0,0.4,0,0.6-0.1c0.2-0.1,0.3-0.2,0.5-0.2s0.2-0.2,0.3-0.2c0.1-0.1,0.2-0.1,0.2-0.1c0,0,0.1,0,0.1,0
			c0,0,0,0,0.1,0.1s0,0.1,0,0.1C56.8,256.5,56.8,256.6,56.8,256.7z"/>
		<path class="st12" d="M63,254.5c0,0.2,0,0.3-0.1,0.3c-0.1,0.1-0.2,0.1-0.3,0.1h-3.7c0,0.3,0,0.6,0.1,0.8c0.1,0.2,0.2,0.5,0.3,0.6
			c0.1,0.2,0.3,0.3,0.6,0.4c0.2,0.1,0.5,0.1,0.9,0.1c0.3,0,0.5,0,0.7-0.1c0.2,0,0.4-0.1,0.5-0.1s0.3-0.1,0.4-0.1
			c0.1,0,0.2-0.1,0.2-0.1c0,0,0.1,0,0.1,0c0,0,0,0,0.1,0.1c0,0,0,0.1,0,0.1s0,0.1,0,0.2c0,0.1,0,0.1,0,0.1s0,0.1,0,0.1s0,0.1,0,0.1
			c0,0,0,0-0.1,0.1c0,0-0.1,0.1-0.2,0.1s-0.3,0.1-0.4,0.2s-0.4,0.1-0.6,0.1c-0.2,0-0.5,0.1-0.7,0.1c-0.5,0-0.9-0.1-1.2-0.2
			c-0.3-0.1-0.6-0.3-0.9-0.6c-0.2-0.3-0.4-0.6-0.5-1c-0.1-0.4-0.2-0.8-0.2-1.3c0-0.5,0.1-0.9,0.2-1.3c0.1-0.4,0.3-0.7,0.5-1
			c0.2-0.3,0.5-0.5,0.8-0.6c0.3-0.1,0.7-0.2,1.1-0.2c0.4,0,0.8,0.1,1.1,0.2c0.3,0.1,0.6,0.3,0.8,0.6c0.2,0.2,0.3,0.5,0.4,0.8
			s0.1,0.7,0.1,1L63,254.5L63,254.5z M61.9,254.2c0-0.5-0.1-1-0.4-1.3s-0.6-0.5-1.1-0.5c-0.3,0-0.5,0-0.7,0.1
			c-0.2,0.1-0.4,0.2-0.5,0.4c-0.1,0.2-0.2,0.3-0.3,0.5c-0.1,0.2-0.1,0.4-0.1,0.7H61.9z"/>
		<path class="st12" d="M69.7,254.6c0,0.5-0.1,0.9-0.2,1.3c-0.1,0.4-0.3,0.7-0.5,1c-0.2,0.3-0.5,0.5-0.8,0.6s-0.6,0.2-1,0.2
			c-0.2,0-0.3,0-0.5,0c-0.1,0-0.3-0.1-0.4-0.2c-0.1-0.1-0.3-0.2-0.4-0.3c-0.1-0.1-0.3-0.2-0.4-0.4v2.8c0,0,0,0.1,0,0.1
			c0,0,0,0-0.1,0.1c0,0-0.1,0-0.2,0c-0.1,0-0.2,0-0.3,0c-0.1,0-0.2,0-0.2,0c-0.1,0-0.1,0-0.2,0c0,0-0.1,0-0.1-0.1s0-0.1,0-0.1v-7.8
			c0,0,0-0.1,0-0.1c0,0,0,0,0.1-0.1c0,0,0.1,0,0.1,0s0.1,0,0.2,0c0.1,0,0.2,0,0.2,0s0.1,0,0.1,0c0,0,0.1,0,0.1,0.1s0,0.1,0,0.1v0.8
			c0.2-0.2,0.3-0.3,0.5-0.5c0.2-0.1,0.3-0.2,0.5-0.3c0.2-0.1,0.3-0.1,0.5-0.2c0.2,0,0.3-0.1,0.5-0.1c0.4,0,0.8,0.1,1,0.2
			c0.3,0.2,0.5,0.4,0.7,0.6c0.2,0.3,0.3,0.6,0.4,1C69.6,253.8,69.7,254.2,69.7,254.6z M68.6,254.7c0-0.3,0-0.6-0.1-0.8
			c0-0.3-0.1-0.5-0.2-0.7s-0.2-0.4-0.4-0.5c-0.2-0.1-0.4-0.2-0.7-0.2c-0.1,0-0.3,0-0.4,0.1c-0.1,0-0.3,0.1-0.4,0.2
			c-0.1,0.1-0.3,0.2-0.4,0.3c-0.1,0.1-0.3,0.3-0.5,0.5v2.2c0.3,0.3,0.6,0.6,0.8,0.8c0.3,0.2,0.5,0.3,0.8,0.3c0.3,0,0.5-0.1,0.7-0.2
			c0.2-0.1,0.3-0.3,0.4-0.5c0.1-0.2,0.2-0.4,0.3-0.7C68.6,255.3,68.6,255,68.6,254.7z"/>
		<path class="st12" d="M75.8,255.9c0,0.3-0.1,0.6-0.2,0.8c-0.1,0.2-0.3,0.4-0.5,0.6c-0.2,0.2-0.5,0.3-0.8,0.4
			c-0.3,0.1-0.7,0.1-1.1,0.1c-0.1,0-0.3,0-0.4,0c-0.1,0-0.3,0-0.4,0c-0.1,0-0.2,0-0.4,0c-0.1,0-0.2,0-0.4,0c-0.2,0-0.3-0.1-0.4-0.2
			c-0.1-0.1-0.1-0.2-0.1-0.4v-4.8c0-0.2,0-0.3,0.1-0.4c0.1-0.1,0.2-0.1,0.4-0.2c0.1,0,0.2,0,0.3,0c0.1,0,0.2,0,0.4,0
			c0.1,0,0.3,0,0.4,0c0.1,0,0.3,0,0.4,0c0.4,0,0.8,0,1,0.1c0.3,0.1,0.5,0.2,0.7,0.3c0.2,0.1,0.3,0.3,0.4,0.5s0.1,0.4,0.1,0.6
			c0,0.3-0.1,0.6-0.3,0.8c-0.2,0.2-0.4,0.4-0.7,0.5c0.4,0.1,0.7,0.3,0.9,0.5C75.7,255.2,75.8,255.5,75.8,255.9z M74.6,253.3
			c0-0.1,0-0.3-0.1-0.4c-0.1-0.1-0.1-0.2-0.2-0.3c-0.1-0.1-0.3-0.1-0.4-0.2c-0.2,0-0.4-0.1-0.7-0.1c-0.2,0-0.4,0-0.5,0
			c-0.2,0-0.3,0-0.4,0v1.7h1c0.4,0,0.8-0.1,1-0.2C74.5,253.8,74.6,253.6,74.6,253.3z M74.8,255.9c0-0.2,0-0.3-0.1-0.4
			s-0.1-0.2-0.3-0.3c-0.1-0.1-0.3-0.1-0.5-0.2c-0.2,0-0.4-0.1-0.7-0.1h-1v2c0.1,0,0.2,0,0.2,0c0.1,0,0.2,0,0.3,0s0.2,0,0.3,0
			c0.1,0,0.2,0,0.2,0c0.3,0,0.5,0,0.7-0.1c0.2,0,0.3-0.1,0.5-0.2s0.2-0.2,0.3-0.3C74.7,256.2,74.8,256.1,74.8,255.9z"/>
		<path class="st12" d="M82.1,254.5c0,0.2,0,0.3-0.1,0.3c-0.1,0.1-0.2,0.1-0.3,0.1H78c0,0.3,0,0.6,0.1,0.8c0.1,0.2,0.2,0.5,0.3,0.6
			c0.1,0.2,0.3,0.3,0.6,0.4c0.2,0.1,0.5,0.1,0.9,0.1c0.3,0,0.5,0,0.7-0.1c0.2,0,0.4-0.1,0.5-0.1s0.3-0.1,0.4-0.1
			c0.1,0,0.2-0.1,0.2-0.1c0,0,0.1,0,0.1,0c0,0,0,0,0.1,0.1c0,0,0,0.1,0,0.1s0,0.1,0,0.2c0,0.1,0,0.1,0,0.1s0,0.1,0,0.1s0,0.1,0,0.1
			c0,0,0,0-0.1,0.1c0,0-0.1,0.1-0.2,0.1s-0.3,0.1-0.4,0.2s-0.4,0.1-0.6,0.1c-0.2,0-0.5,0.1-0.7,0.1c-0.5,0-0.9-0.1-1.2-0.2
			c-0.3-0.1-0.6-0.3-0.9-0.6c-0.2-0.3-0.4-0.6-0.5-1c-0.1-0.4-0.2-0.8-0.2-1.3c0-0.5,0.1-0.9,0.2-1.3c0.1-0.4,0.3-0.7,0.5-1
			c0.2-0.3,0.5-0.5,0.8-0.6c0.3-0.1,0.7-0.2,1.1-0.2c0.4,0,0.8,0.1,1.1,0.2c0.3,0.1,0.6,0.3,0.8,0.6c0.2,0.2,0.3,0.5,0.4,0.8
			s0.1,0.7,0.1,1L82.1,254.5L82.1,254.5z M81,254.2c0-0.5-0.1-1-0.4-1.3c-0.3-0.3-0.6-0.5-1.1-0.5c-0.3,0-0.5,0-0.7,0.1
			c-0.2,0.1-0.4,0.2-0.5,0.4c-0.1,0.2-0.2,0.3-0.3,0.5s-0.1,0.4-0.1,0.7H81z"/>
		<path class="st12" d="M88.8,254.6c0,0.5-0.1,0.9-0.2,1.3c-0.1,0.4-0.3,0.7-0.5,1c-0.2,0.3-0.5,0.5-0.8,0.6s-0.6,0.2-1,0.2
			c-0.2,0-0.3,0-0.5,0c-0.1,0-0.3-0.1-0.4-0.2c-0.1-0.1-0.3-0.2-0.4-0.3c-0.1-0.1-0.3-0.2-0.4-0.4v2.8c0,0,0,0.1,0,0.1
			c0,0,0,0-0.1,0.1c0,0-0.1,0-0.2,0c-0.1,0-0.2,0-0.3,0c-0.1,0-0.2,0-0.2,0c-0.1,0-0.1,0-0.2,0c0,0-0.1,0-0.1-0.1s0-0.1,0-0.1v-7.8
			c0,0,0-0.1,0-0.1c0,0,0,0,0.1-0.1c0,0,0.1,0,0.1,0s0.1,0,0.2,0c0.1,0,0.2,0,0.2,0s0.1,0,0.1,0c0,0,0.1,0,0.1,0.1s0,0.1,0,0.1v0.8
			c0.2-0.2,0.3-0.3,0.5-0.5c0.2-0.1,0.3-0.2,0.5-0.3c0.2-0.1,0.3-0.1,0.5-0.2c0.2,0,0.3-0.1,0.5-0.1c0.4,0,0.8,0.1,1,0.2
			c0.3,0.2,0.5,0.4,0.7,0.6c0.2,0.3,0.3,0.6,0.4,1C88.7,253.8,88.8,254.2,88.8,254.6z M87.7,254.7c0-0.3,0-0.6-0.1-0.8
			c0-0.3-0.1-0.5-0.2-0.7s-0.2-0.4-0.4-0.5c-0.2-0.1-0.4-0.2-0.7-0.2c-0.1,0-0.3,0-0.4,0.1c-0.1,0-0.3,0.1-0.4,0.2
			c-0.1,0.1-0.3,0.2-0.4,0.3c-0.1,0.1-0.3,0.3-0.5,0.5v2.2c0.3,0.3,0.6,0.6,0.8,0.8c0.3,0.2,0.5,0.3,0.8,0.3c0.3,0,0.5-0.1,0.7-0.2
			c0.2-0.1,0.3-0.3,0.4-0.5c0.1-0.2,0.2-0.4,0.3-0.7C87.7,255.3,87.7,255,87.7,254.7z"/>
		<path class="st12" d="M95.2,257.5C95.2,257.5,95.2,257.6,95.2,257.5c0,0.1-0.1,0.1-0.1,0.1c0,0-0.1,0-0.2,0c-0.1,0-0.1,0-0.2,0
			c-0.1,0-0.2,0-0.3,0c-0.1,0-0.1,0-0.2,0c0,0-0.1,0-0.1-0.1c0,0,0-0.1,0-0.1v-2.5h-2.9v2.5c0,0,0,0.1,0,0.1s0,0-0.1,0.1
			c0,0-0.1,0-0.2,0c-0.1,0-0.2,0-0.3,0c-0.1,0-0.2,0-0.2,0c-0.1,0-0.1,0-0.2,0c0,0-0.1,0-0.1-0.1c0,0,0-0.1,0-0.1v-5.6
			c0,0,0-0.1,0-0.1c0,0,0,0,0.1-0.1c0,0,0.1,0,0.2,0c0.1,0,0.1,0,0.2,0c0.1,0,0.2,0,0.3,0c0.1,0,0.1,0,0.2,0c0,0,0.1,0,0.1,0.1
			c0,0,0,0.1,0,0.1v2.3h2.9v-2.3c0,0,0-0.1,0-0.1c0,0,0,0,0.1-0.1c0,0,0.1,0,0.2,0c0.1,0,0.2,0,0.3,0c0.1,0,0.2,0,0.2,0s0.1,0,0.2,0
			c0,0,0.1,0,0.1,0.1c0,0,0,0.1,0,0.1V257.5z"/>
		<path class="st12" d="M101.3,257.5c0,0,0,0.1,0,0.1c0,0-0.1,0-0.1,0.1s-0.1,0-0.3,0c-0.1,0-0.2,0-0.3,0s-0.1,0-0.1-0.1
			s0-0.1,0-0.1V257c-0.2,0.3-0.5,0.5-0.8,0.6c-0.3,0.1-0.6,0.2-1,0.2c-0.3,0-0.6,0-0.8-0.1c-0.2-0.1-0.4-0.2-0.6-0.3
			c-0.2-0.1-0.3-0.3-0.4-0.5c-0.1-0.2-0.1-0.5-0.1-0.7c0-0.3,0.1-0.6,0.2-0.8s0.3-0.4,0.6-0.6c0.2-0.2,0.5-0.3,0.9-0.3
			c0.3-0.1,0.7-0.1,1.2-0.1h0.8v-0.4c0-0.2,0-0.4-0.1-0.6c0-0.2-0.1-0.3-0.2-0.4c-0.1-0.1-0.2-0.2-0.4-0.2c-0.2-0.1-0.4-0.1-0.6-0.1
			c-0.3,0-0.5,0-0.7,0.1c-0.2,0.1-0.4,0.1-0.5,0.2c-0.2,0.1-0.3,0.1-0.4,0.2s-0.2,0.1-0.2,0.1c0,0-0.1,0-0.1,0s0,0-0.1-0.1
			c0,0,0-0.1,0-0.1c0-0.1,0-0.1,0-0.2c0-0.1,0-0.2,0-0.2c0-0.1,0.1-0.1,0.1-0.2s0.2-0.1,0.3-0.2c0.1-0.1,0.3-0.1,0.5-0.2
			s0.4-0.1,0.6-0.1c0.2,0,0.4-0.1,0.6-0.1c0.4,0,0.7,0,1,0.1c0.3,0.1,0.5,0.2,0.7,0.4c0.2,0.2,0.3,0.4,0.4,0.7
			c0.1,0.3,0.1,0.6,0.1,0.9L101.3,257.5L101.3,257.5z M100.3,255h-0.9c-0.3,0-0.5,0-0.7,0.1c-0.2,0-0.4,0.1-0.5,0.2
			c-0.1,0.1-0.2,0.2-0.3,0.3s-0.1,0.3-0.1,0.5c0,0.3,0.1,0.5,0.3,0.7c0.2,0.2,0.4,0.3,0.8,0.3c0.3,0,0.5-0.1,0.7-0.2
			s0.5-0.3,0.7-0.6L100.3,255L100.3,255z"/>
		<path class="st12" d="M107.4,257.5C107.4,257.5,107.4,257.6,107.4,257.5c0,0.1-0.1,0.1-0.1,0.1c0,0-0.1,0-0.2,0
			c-0.1,0-0.2,0-0.3,0c-0.1,0-0.2,0-0.2,0c-0.1,0-0.1,0-0.2,0c0,0-0.1,0-0.1-0.1c0,0,0-0.1,0-0.1v-2.4h-0.6c-0.3,0-0.5,0-0.6,0.1
			c-0.1,0-0.3,0.1-0.4,0.2s-0.2,0.2-0.3,0.4s-0.2,0.3-0.3,0.6l-0.5,1.1c0,0.1,0,0.1-0.1,0.1c0,0-0.1,0.1-0.1,0.1c0,0-0.1,0-0.2,0
			c-0.1,0-0.2,0-0.3,0c-0.1,0-0.1,0-0.2,0c-0.1,0-0.1,0-0.2,0c0,0-0.1,0-0.1,0s0-0.1,0-0.1c0,0,0-0.1,0-0.1c0-0.1,0.1-0.2,0.1-0.3
			l0.4-1.1c0.1-0.3,0.3-0.5,0.4-0.7c0.2-0.2,0.4-0.3,0.6-0.4c-0.4-0.1-0.7-0.2-1-0.5c-0.2-0.2-0.4-0.6-0.4-1c0-0.3,0.1-0.5,0.2-0.7
			c0.1-0.2,0.3-0.4,0.5-0.6c0.2-0.2,0.5-0.3,0.8-0.3c0.3-0.1,0.7-0.1,1.1-0.1c0.1,0,0.2,0,0.3,0c0.1,0,0.3,0,0.4,0s0.3,0,0.4,0
			c0.1,0,0.2,0,0.3,0c0.1,0,0.2,0.1,0.3,0.1s0.1,0.2,0.1,0.3L107.4,257.5L107.4,257.5z M106.3,252.5c-0.1,0-0.3,0-0.5,0
			c-0.2,0-0.3,0-0.4,0c-0.3,0-0.5,0-0.7,0.1c-0.2,0-0.3,0.1-0.5,0.2s-0.2,0.2-0.2,0.3c0,0.1-0.1,0.3-0.1,0.4c0,0.1,0,0.3,0.1,0.4
			s0.1,0.2,0.3,0.3c0.1,0.1,0.3,0.1,0.4,0.2c0.2,0,0.4,0.1,0.7,0.1h0.8L106.3,252.5L106.3,252.5z"/>
	</g>
	<g>
		<path class="st12" d="M335.2,146C335.2,146,335.2,146.1,335.2,146c0,0.1-0.1,0.1-0.1,0.1s-0.1,0-0.2,0s-0.1,0-0.2,0
			c-0.1,0-0.2,0-0.3,0s-0.1,0-0.2,0s-0.1,0-0.1-0.1s0-0.1,0-0.1l-0.7-1.9c-0.1-0.3-0.2-0.5-0.3-0.6s-0.2-0.3-0.4-0.4
			s-0.3-0.2-0.5-0.3s-0.4-0.1-0.6-0.1h-0.4v3.3c0,0,0,0.1,0,0.1s0,0-0.1,0.1s-0.1,0-0.2,0s-0.1,0-0.2,0c-0.1,0-0.2,0-0.2,0
			s-0.1,0-0.2,0s-0.1,0-0.1-0.1s0-0.1,0-0.1v-7.3c0,0,0-0.1,0-0.1s0,0,0.1-0.1s0.1,0,0.2,0s0.1,0,0.2,0c0.1,0,0.2,0,0.2,0
			s0.1,0,0.2,0s0.1,0,0.1,0.1s0,0,0,0.1v3.1h0.4c0.2,0,0.4,0,0.6-0.1s0.3-0.1,0.5-0.3s0.3-0.3,0.4-0.4s0.2-0.4,0.3-0.6l0.6-1.7
			c0,0,0-0.1,0-0.1s0-0.1,0.1-0.1s0.1,0,0.2,0s0.2,0,0.3,0c0.1,0,0.2,0,0.2,0s0.1,0,0.1,0s0.1,0,0.1,0.1s0,0.1,0,0.1
			c0,0,0,0.1,0,0.1s0,0.1-0.1,0.2l-0.6,1.6c-0.1,0.2-0.2,0.4-0.3,0.6s-0.2,0.3-0.3,0.4s-0.2,0.2-0.4,0.3s-0.3,0.1-0.4,0.2v0
			c0.2,0.1,0.3,0.1,0.5,0.2s0.3,0.2,0.4,0.3s0.2,0.3,0.3,0.5s0.2,0.4,0.3,0.7l0.7,1.8c0,0.1,0.1,0.2,0.1,0.2S335.2,146,335.2,146z"
			/>
		<path class="st12" d="M341.3,143.3c0,0.4-0.1,0.8-0.2,1.2s-0.3,0.7-0.5,0.9s-0.5,0.5-0.8,0.6s-0.7,0.2-1.2,0.2
			c-0.4,0-0.8-0.1-1.1-0.2s-0.6-0.3-0.8-0.6s-0.4-0.5-0.5-0.9s-0.2-0.8-0.2-1.2c0-0.4,0.1-0.8,0.2-1.2s0.3-0.7,0.5-0.9
			s0.5-0.5,0.8-0.6s0.7-0.2,1.2-0.2c0.4,0,0.8,0.1,1.1,0.2s0.6,0.3,0.8,0.6s0.4,0.5,0.5,0.9S341.3,142.9,341.3,143.3z M340.3,143.4
			c0-0.3,0-0.6-0.1-0.8c-0.1-0.3-0.1-0.5-0.3-0.7s-0.3-0.3-0.5-0.5s-0.5-0.2-0.8-0.2c-0.3,0-0.5,0.1-0.7,0.2s-0.4,0.2-0.5,0.4
			c-0.1,0.2-0.2,0.4-0.3,0.7c-0.1,0.3-0.1,0.5-0.1,0.8c0,0.3,0,0.6,0.1,0.8c0.1,0.3,0.1,0.5,0.3,0.7s0.3,0.3,0.5,0.5
			s0.5,0.2,0.8,0.2c0.3,0,0.5-0.1,0.7-0.2s0.4-0.2,0.5-0.4c0.1-0.2,0.2-0.4,0.3-0.7S340.3,143.7,340.3,143.4z"/>
		<path class="st12" d="M349.4,146c0,0.1,0,0.1-0.1,0.2s-0.2,0.1-0.4,0.1c-0.1,0-0.2,0-0.2,0s-0.1,0-0.1,0s-0.1,0-0.1,0s0,0,0-0.1
			l-0.4-3.1c0-0.1,0-0.2,0-0.4s0-0.3,0-0.4s0-0.3,0-0.4s0-0.3,0-0.4l0-0.1c0,0.1-0.1,0.2-0.1,0.4s-0.1,0.3-0.1,0.4s-0.1,0.3-0.1,0.4
			s-0.1,0.3-0.1,0.4l-1.1,3.1c0,0,0,0.1-0.1,0.1s-0.1,0.1-0.1,0.1s-0.1,0-0.1,0s-0.1,0-0.2,0s-0.1,0-0.2,0s-0.1,0-0.1,0
			s-0.1,0-0.1-0.1s0-0.1-0.1-0.1l-1.1-3.1c0-0.1-0.1-0.2-0.1-0.4s-0.1-0.3-0.1-0.4s-0.1-0.3-0.1-0.4s-0.1-0.3-0.1-0.4l0,0.1
			c0,0.1,0,0.2,0,0.4s0,0.3,0,0.4s0,0.3,0,0.4s0,0.2,0,0.4l-0.4,3c0,0,0,0.1,0,0.1s0,0.1-0.1,0.1s-0.1,0-0.2,0s-0.1,0-0.2,0
			c-0.1,0-0.2,0-0.2,0s-0.1,0-0.1,0s0,0-0.1-0.1s0-0.1,0-0.1l0.6-5c0-0.1,0.1-0.2,0.1-0.3s0.2-0.1,0.3-0.1h0.5c0.1,0,0.2,0,0.3,0
			s0.1,0,0.2,0.1s0.1,0.1,0.1,0.2s0.1,0.2,0.1,0.3l0.8,2.2c0,0.1,0.1,0.3,0.1,0.4s0.1,0.3,0.1,0.4s0.1,0.3,0.1,0.4s0.1,0.3,0.1,0.4
			h0c0-0.1,0.1-0.2,0.1-0.4s0.1-0.3,0.1-0.4s0.1-0.3,0.1-0.4s0.1-0.3,0.1-0.4l0.8-2.2c0-0.1,0.1-0.2,0.1-0.3s0.1-0.1,0.1-0.2
			s0.1-0.1,0.2-0.1s0.2,0,0.3,0h0.5c0.1,0,0.2,0,0.3,0.1s0.1,0.2,0.1,0.3L349.4,146z"/>
		<path class="st12" d="M357.5,146c0,0.1,0,0.1-0.1,0.2s-0.2,0.1-0.4,0.1c-0.1,0-0.2,0-0.2,0s-0.1,0-0.1,0s-0.1,0-0.1,0s0,0,0-0.1
			l-0.4-3.1c0-0.1,0-0.2,0-0.4s0-0.3,0-0.4s0-0.3,0-0.4s0-0.3,0-0.4l0-0.1c0,0.1-0.1,0.2-0.1,0.4s-0.1,0.3-0.1,0.4s-0.1,0.3-0.1,0.4
			s-0.1,0.3-0.1,0.4l-1.1,3.1c0,0,0,0.1-0.1,0.1s-0.1,0.1-0.1,0.1s-0.1,0-0.1,0s-0.1,0-0.2,0s-0.1,0-0.2,0s-0.1,0-0.1,0
			s-0.1,0-0.1-0.1s0-0.1-0.1-0.1l-1.1-3.1c0-0.1-0.1-0.2-0.1-0.4s-0.1-0.3-0.1-0.4s-0.1-0.3-0.1-0.4s-0.1-0.3-0.1-0.4l0,0.1
			c0,0.1,0,0.2,0,0.4s0,0.3,0,0.4s0,0.3,0,0.4s0,0.2,0,0.4l-0.4,3c0,0,0,0.1,0,0.1s0,0.1-0.1,0.1s-0.1,0-0.2,0s-0.1,0-0.2,0
			c-0.1,0-0.2,0-0.2,0s-0.1,0-0.1,0s0,0-0.1-0.1s0-0.1,0-0.1l0.6-5c0-0.1,0.1-0.2,0.1-0.3s0.2-0.1,0.3-0.1h0.5c0.1,0,0.2,0,0.3,0
			s0.1,0,0.2,0.1s0.1,0.1,0.1,0.2s0.1,0.2,0.1,0.3l0.8,2.2c0,0.1,0.1,0.3,0.1,0.4s0.1,0.3,0.1,0.4s0.1,0.3,0.1,0.4s0.1,0.3,0.1,0.4
			h0c0-0.1,0.1-0.2,0.1-0.4s0.1-0.3,0.1-0.4s0.1-0.3,0.1-0.4s0.1-0.3,0.1-0.4l0.8-2.2c0-0.1,0.1-0.2,0.1-0.3s0.1-0.1,0.1-0.2
			s0.1-0.1,0.2-0.1s0.2,0,0.3,0h0.5c0.1,0,0.2,0,0.3,0.1s0.1,0.2,0.1,0.3L357.5,146z"/>
		<path class="st12" d="M363.5,143.2c0,0.2,0,0.3-0.1,0.3c-0.1,0.1-0.2,0.1-0.3,0.1h-3.5c0,0.3,0,0.6,0.1,0.8
			c0.1,0.2,0.2,0.4,0.3,0.6c0.1,0.2,0.3,0.3,0.5,0.4c0.2,0.1,0.5,0.1,0.8,0.1c0.3,0,0.5,0,0.7-0.1s0.4-0.1,0.5-0.1
			c0.1-0.1,0.3-0.1,0.4-0.1c0.1,0,0.2-0.1,0.2-0.1c0,0,0.1,0,0.1,0c0,0,0,0,0,0.1s0,0.1,0,0.1s0,0.1,0,0.2c0,0.1,0,0.1,0,0.1
			s0,0.1,0,0.1s0,0.1,0,0.1s0,0-0.1,0.1s-0.1,0.1-0.2,0.1s-0.2,0.1-0.4,0.1s-0.4,0.1-0.6,0.1s-0.5,0.1-0.7,0.1
			c-0.4,0-0.8-0.1-1.1-0.2s-0.6-0.3-0.8-0.5s-0.4-0.5-0.5-0.9s-0.2-0.8-0.2-1.3c0-0.5,0.1-0.9,0.2-1.2s0.3-0.7,0.5-0.9
			s0.5-0.4,0.8-0.6s0.7-0.2,1-0.2c0.4,0,0.8,0.1,1.1,0.2s0.5,0.3,0.7,0.5s0.3,0.5,0.4,0.8s0.1,0.6,0.1,1L363.5,143.2L363.5,143.2z
			 M362.5,142.9c0-0.5-0.1-0.9-0.3-1.2c-0.2-0.3-0.6-0.4-1.1-0.4c-0.2,0-0.5,0-0.6,0.1s-0.3,0.2-0.5,0.4c-0.1,0.1-0.2,0.3-0.3,0.5
			c-0.1,0.2-0.1,0.4-0.1,0.6L362.5,142.9L362.5,142.9z"/>
		<path class="st12" d="M369.8,143.3c0,0.5,0,0.9-0.1,1.2s-0.2,0.7-0.4,0.9s-0.4,0.5-0.7,0.6s-0.6,0.2-1,0.2c-0.2,0-0.3,0-0.4,0
			s-0.3-0.1-0.4-0.1s-0.3-0.2-0.4-0.3s-0.3-0.2-0.4-0.4v2.6c0,0,0,0.1,0,0.1s0,0-0.1,0.1s-0.1,0-0.1,0s-0.1,0-0.2,0
			c-0.1,0-0.2,0-0.2,0s-0.1,0-0.1,0s-0.1,0-0.1-0.1s0-0.1,0-0.1v-7.4c0,0,0-0.1,0-0.1s0,0,0.1-0.1s0.1,0,0.1,0s0.1,0,0.2,0
			c0.1,0,0.1,0,0.2,0s0.1,0,0.1,0s0.1,0,0.1,0.1s0,0,0,0.1v0.7c0.2-0.2,0.3-0.3,0.5-0.4s0.3-0.2,0.4-0.3s0.3-0.1,0.5-0.2
			s0.3-0.1,0.5-0.1c0.4,0,0.7,0.1,1,0.2s0.5,0.4,0.7,0.6s0.3,0.6,0.4,0.9S369.8,142.9,369.8,143.3z M368.8,143.4
			c0-0.3,0-0.5-0.1-0.8c0-0.3-0.1-0.5-0.2-0.7c-0.1-0.2-0.2-0.4-0.4-0.5s-0.4-0.2-0.6-0.2c-0.1,0-0.3,0-0.4,0.1
			c-0.1,0-0.2,0.1-0.4,0.2s-0.3,0.2-0.4,0.3s-0.3,0.3-0.4,0.5v2.1c0.3,0.3,0.5,0.6,0.8,0.7c0.2,0.2,0.5,0.3,0.8,0.3
			c0.2,0,0.5-0.1,0.6-0.2s0.3-0.3,0.4-0.5s0.2-0.4,0.2-0.7C368.8,143.9,368.8,143.7,368.8,143.4z"/>
		<path class="st12" d="M375.1,146C375.1,146.1,375.1,146.1,375.1,146c0,0.1-0.1,0.1-0.1,0.1s-0.1,0-0.1,0s-0.1,0-0.2,0
			s-0.2,0-0.2,0s-0.1,0-0.2,0s-0.1,0-0.1-0.1s0,0,0-0.1v-2.1c-0.2,0.1-0.5,0.2-0.7,0.2s-0.5,0.1-0.8,0.1c-0.4,0-0.7,0-0.9-0.1
			s-0.4-0.2-0.6-0.4s-0.2-0.4-0.3-0.6s-0.1-0.5-0.1-0.9v-1.5c0,0,0-0.1,0-0.1s0,0,0.1-0.1s0.1,0,0.1,0s0.1,0,0.2,0
			c0.1,0,0.2,0,0.2,0s0.1,0,0.1,0s0.1,0,0.1,0.1s0,0,0,0.1v1.3c0,0.3,0,0.6,0.1,0.7s0.1,0.3,0.2,0.4s0.2,0.2,0.3,0.2
			s0.3,0.1,0.5,0.1c0.2,0,0.5,0,0.7-0.1s0.4-0.1,0.7-0.3v-2.3c0,0,0-0.1,0-0.1s0,0,0.1-0.1s0.1,0,0.2,0s0.1,0,0.2,0s0.2,0,0.2,0
			s0.1,0,0.1,0s0.1,0,0.1,0.1s0,0,0,0.1L375.1,146L375.1,146z"/>
		<path class="st12" d="M381.4,143.2c0,0.2,0,0.3-0.1,0.3c-0.1,0.1-0.2,0.1-0.3,0.1h-3.5c0,0.3,0,0.6,0.1,0.8
			c0.1,0.2,0.2,0.4,0.3,0.6c0.1,0.2,0.3,0.3,0.5,0.4c0.2,0.1,0.5,0.1,0.8,0.1c0.3,0,0.5,0,0.7-0.1s0.4-0.1,0.5-0.1
			c0.1-0.1,0.3-0.1,0.4-0.1c0.1,0,0.2-0.1,0.2-0.1c0,0,0.1,0,0.1,0c0,0,0,0,0,0.1s0,0.1,0,0.1s0,0.1,0,0.2c0,0.1,0,0.1,0,0.1
			s0,0.1,0,0.1s0,0.1,0,0.1s0,0-0.1,0.1s-0.1,0.1-0.2,0.1s-0.2,0.1-0.4,0.1s-0.4,0.1-0.6,0.1s-0.5,0.1-0.7,0.1
			c-0.4,0-0.8-0.1-1.1-0.2s-0.6-0.3-0.8-0.5s-0.4-0.5-0.5-0.9s-0.2-0.8-0.2-1.3c0-0.5,0.1-0.9,0.2-1.2s0.3-0.7,0.5-0.9
			s0.5-0.4,0.8-0.6s0.7-0.2,1-0.2c0.4,0,0.8,0.1,1.1,0.2s0.5,0.3,0.7,0.5s0.3,0.5,0.4,0.8s0.1,0.6,0.1,1L381.4,143.2L381.4,143.2z
			 M380.4,142.9c0-0.5-0.1-0.9-0.3-1.2c-0.2-0.3-0.6-0.4-1.1-0.4c-0.2,0-0.5,0-0.6,0.1s-0.3,0.2-0.5,0.4c-0.1,0.1-0.2,0.3-0.3,0.5
			c-0.1,0.2-0.1,0.4-0.1,0.6L380.4,142.9L380.4,142.9z"/>
		<path class="st12" d="M386.6,145.2c0,0.1,0,0.1,0,0.2s0,0.1,0,0.1s0,0.1,0,0.1s0,0.1-0.1,0.1s-0.1,0.1-0.2,0.2s-0.2,0.1-0.4,0.2
			s-0.3,0.1-0.5,0.1s-0.4,0.1-0.5,0.1c-0.4,0-0.7-0.1-1-0.2s-0.5-0.3-0.7-0.5s-0.3-0.5-0.5-0.9s-0.2-0.8-0.2-1.2
			c0-0.5,0.1-1,0.2-1.3s0.3-0.7,0.5-0.9s0.5-0.4,0.8-0.5s0.6-0.2,1-0.2c0.2,0,0.3,0,0.5,0s0.3,0.1,0.4,0.1s0.3,0.1,0.4,0.2
			s0.2,0.1,0.2,0.2s0.1,0.1,0.1,0.1s0,0.1,0,0.1s0,0.1,0,0.1s0,0.1,0,0.2c0,0.2,0,0.3-0.1,0.3s-0.1,0.1-0.1,0.1
			c-0.1,0-0.1,0-0.2-0.1s-0.2-0.1-0.3-0.2s-0.3-0.1-0.4-0.2s-0.4-0.1-0.6-0.1c-0.5,0-0.8,0.2-1.1,0.5s-0.4,0.9-0.4,1.6
			c0,0.3,0,0.6,0.1,0.9s0.2,0.5,0.3,0.6s0.3,0.3,0.5,0.4s0.4,0.1,0.6,0.1c0.2,0,0.4,0,0.6-0.1s0.3-0.1,0.4-0.2s0.2-0.2,0.3-0.2
			s0.1-0.1,0.2-0.1c0,0,0.1,0,0.1,0s0,0,0,0.1s0,0.1,0,0.1S386.6,145.1,386.6,145.2z"/>
		<path class="st12" d="M392.2,146.1C392.2,146.1,392.2,146.1,392.2,146.1c0,0.1-0.1,0.1-0.1,0.1s-0.1,0-0.1,0s-0.1,0-0.2,0
			c-0.1,0-0.2,0-0.3,0s-0.1,0-0.2,0s-0.1,0-0.1-0.1s0,0,0-0.1l-0.6-1.4c-0.1-0.2-0.1-0.3-0.2-0.5s-0.2-0.2-0.3-0.3s-0.2-0.1-0.4-0.2
			s-0.3-0.1-0.5-0.1h-0.4v2.4c0,0,0,0,0,0.1s0,0-0.1,0s-0.1,0-0.2,0s-0.1,0-0.2,0s-0.2,0-0.2,0s-0.1,0-0.2,0s-0.1,0-0.1,0s0,0,0-0.1
			v-5.4c0,0,0,0,0-0.1s0,0,0.1,0s0.1,0,0.2,0s0.1,0,0.2,0s0.2,0,0.2,0s0.1,0,0.2,0s0.1,0,0.1,0s0,0,0,0.1v2.2h0.4c0.1,0,0.3,0,0.4,0
			s0.2-0.1,0.3-0.2s0.2-0.2,0.3-0.3s0.2-0.3,0.2-0.4l0.5-1.2c0,0,0-0.1,0-0.1s0,0,0.1-0.1s0.1,0,0.2,0s0.1,0,0.3,0
			c0.1,0,0.2,0,0.2,0s0.1,0,0.1,0s0.1,0,0.1,0s0,0,0,0.1c0,0,0,0.1,0,0.1s0,0.1,0,0.1l-0.5,1.2c-0.1,0.2-0.2,0.4-0.3,0.5
			s-0.2,0.2-0.3,0.3s-0.2,0.2-0.3,0.2s-0.2,0.1-0.3,0.1v0c0.1,0,0.3,0.1,0.4,0.2s0.2,0.1,0.3,0.2s0.2,0.2,0.3,0.3s0.2,0.3,0.2,0.5
			l0.6,1.3c0,0,0,0.1,0,0.1S392.2,145.9,392.2,146.1C392.2,146,392.2,146,392.2,146.1C392.2,146,392.2,146.1,392.2,146.1z"/>
		<path class="st12" d="M398.2,146C398.2,146.1,398.2,146.1,398.2,146c0,0.1-0.1,0.1-0.1,0.1s-0.1,0-0.1,0s-0.1,0-0.2,0
			s-0.2,0-0.2,0s-0.1,0-0.2,0s-0.1,0-0.1-0.1s0,0,0-0.1v-3c0-0.2,0-0.3,0-0.5s0-0.3,0-0.5c-0.1,0.2-0.2,0.3-0.3,0.5
			s-0.2,0.3-0.3,0.4l-2.2,3.1c0,0-0.1,0.1-0.1,0.1s0,0-0.1,0.1s-0.1,0-0.1,0s-0.1,0-0.2,0c-0.1,0-0.2,0-0.2,0s-0.1,0-0.1,0
			s-0.1,0-0.1-0.1s0,0,0-0.1v-5.3c0,0,0-0.1,0-0.1s0,0,0.1-0.1s0.1,0,0.1,0s0.1,0,0.2,0c0.2,0,0.3,0,0.4,0s0.1,0.1,0.1,0.1v3.1
			c0,0.2,0,0.3,0,0.5s0,0.3,0,0.4c0.1-0.1,0.2-0.3,0.3-0.4s0.2-0.3,0.3-0.4l2.3-3.1c0,0,0-0.1,0.1-0.1s0.1,0,0.1-0.1s0.1,0,0.1,0
			s0.1,0,0.2,0s0.2,0,0.2,0s0.1,0,0.1,0s0.1,0,0.1,0.1s0,0.1,0,0.1L398.2,146L398.2,146z"/>
		<path class="st12" d="M404.7,146C404.7,146.1,404.7,146.1,404.7,146c0,0.1-0.1,0.1-0.1,0.1s-0.1,0-0.1,0s-0.1,0-0.2,0
			s-0.2,0-0.2,0s-0.1,0-0.2,0s-0.1,0-0.1-0.1s0,0,0-0.1v-3c0-0.2,0-0.3,0-0.5s0-0.3,0-0.5c-0.1,0.2-0.2,0.3-0.3,0.5
			s-0.2,0.3-0.3,0.4l-2.2,3.1c0,0-0.1,0.1-0.1,0.1s0,0-0.1,0.1s-0.1,0-0.1,0s-0.1,0-0.2,0c-0.1,0-0.2,0-0.2,0s-0.1,0-0.1,0
			s-0.1,0-0.1-0.1s0,0,0-0.1v-5.3c0,0,0-0.1,0-0.1s0,0,0.1-0.1s0.1,0,0.1,0s0.1,0,0.2,0c0.2,0,0.3,0,0.4,0s0.1,0.1,0.1,0.1v3.1
			c0,0.2,0,0.3,0,0.5s0,0.3,0,0.4c0.1-0.1,0.2-0.3,0.3-0.4s0.2-0.3,0.3-0.4l2.3-3.1c0,0,0-0.1,0.1-0.1s0.1,0,0.1-0.1s0.1,0,0.1,0
			s0.1,0,0.2,0s0.2,0,0.2,0s0.1,0,0.1,0s0.1,0,0.1,0.1s0,0.1,0,0.1L404.7,146L404.7,146z M404.2,138.3c0,0.2,0,0.4-0.1,0.6
			s-0.2,0.4-0.3,0.5s-0.3,0.3-0.6,0.3s-0.5,0.1-0.8,0.1c-0.3,0-0.6,0-0.8-0.1s-0.4-0.2-0.6-0.3s-0.3-0.3-0.3-0.5s-0.1-0.4-0.1-0.7
			c0,0,0-0.1,0-0.1s0,0,0.1-0.1s0.1,0,0.1,0s0.1,0,0.2,0c0.1,0,0.2,0,0.2,0s0.1,0,0.1,0s0,0,0.1,0.1s0,0.1,0,0.1
			c0,0.1,0,0.2,0.1,0.3s0.1,0.2,0.2,0.3s0.2,0.1,0.3,0.2s0.2,0.1,0.4,0.1c0.1,0,0.3,0,0.4-0.1s0.2-0.1,0.3-0.2s0.1-0.2,0.2-0.3
			s0.1-0.2,0.1-0.4c0,0,0-0.1,0-0.1s0-0.1,0.1-0.1s0.1,0,0.1,0s0.1,0,0.2,0c0.1,0,0.2,0,0.2,0s0.1,0,0.1,0S404.1,138.1,404.2,138.3
			C404.2,138.2,404.2,138.2,404.2,138.3z"/>
		<path class="st12" d="M414.1,143.3c0,0.4-0.1,0.8-0.2,1.2s-0.3,0.7-0.5,0.9s-0.5,0.5-0.8,0.6s-0.7,0.2-1.2,0.2
			c-0.4,0-0.8-0.1-1.1-0.2s-0.6-0.3-0.8-0.6s-0.4-0.5-0.5-0.9s-0.2-0.8-0.2-1.2c0-0.4,0.1-0.8,0.2-1.2s0.3-0.7,0.5-0.9
			s0.5-0.5,0.8-0.6s0.7-0.2,1.2-0.2c0.4,0,0.8,0.1,1.1,0.2s0.6,0.3,0.8,0.6s0.4,0.5,0.5,0.9S414.1,142.9,414.1,143.3z M413.1,143.4
			c0-0.3,0-0.6-0.1-0.8c-0.1-0.3-0.1-0.5-0.3-0.7s-0.3-0.3-0.5-0.5s-0.5-0.2-0.8-0.2c-0.3,0-0.5,0.1-0.7,0.2s-0.4,0.2-0.5,0.4
			c-0.1,0.2-0.2,0.4-0.3,0.7c-0.1,0.3-0.1,0.5-0.1,0.8c0,0.3,0,0.6,0.1,0.8c0.1,0.3,0.1,0.5,0.3,0.7s0.3,0.3,0.5,0.5
			s0.5,0.2,0.8,0.2c0.3,0,0.5-0.1,0.7-0.2s0.4-0.2,0.5-0.4c0.1-0.2,0.2-0.4,0.3-0.7S413.1,143.7,413.1,143.4z"/>
		<path class="st12" d="M419.1,141c0,0.1,0,0.1,0,0.2s0,0.1,0,0.1s0,0.1-0.1,0.1s-0.1,0-0.1,0h-1.6v4.5c0,0,0,0.1,0,0.1s0,0-0.1,0.1
			s-0.1,0-0.1,0s-0.1,0-0.2,0c-0.1,0-0.2,0-0.2,0s-0.1,0-0.1,0s-0.1,0-0.1-0.1s0,0,0-0.1v-4.5h-1.6c0,0-0.1,0-0.1,0s0,0-0.1-0.1
			s0-0.1,0-0.1s0-0.1,0-0.2c0-0.1,0-0.1,0-0.2s0-0.1,0-0.1s0-0.1,0.1-0.1s0.1,0,0.1,0h4.1c0,0,0.1,0,0.1,0s0,0,0.1,0.1s0,0.1,0,0.1
			S419.1,141,419.1,141z"/>
		<path class="st12" d="M419.6,147.9C419.6,148,419.6,148,419.6,147.9c0,0.1-0.1,0.1-0.1,0.1s-0.1,0-0.1,0s-0.1,0-0.2,0
			c-0.1,0-0.1,0-0.2,0s-0.1,0-0.1,0s-0.1,0-0.1,0s0,0,0-0.1v-2.3c0-0.1,0-0.2,0-0.2s0.1,0,0.2,0h0.4c0.1-0.2,0.3-0.4,0.4-0.6
			s0.2-0.5,0.3-0.9s0.2-0.8,0.3-1.2s0.2-1.1,0.2-1.7c0-0.1,0-0.1,0-0.1s0-0.1,0.1-0.1s0.1,0,0.1-0.1s0.1,0,0.1,0h2.9
			c0.1,0,0.2,0,0.2,0.1s0.1,0.1,0.1,0.3v4.4h0.7c0.1,0,0.1,0,0.2,0s0.1,0.1,0.1,0.2v2.3c0,0,0,0,0,0.1s0,0-0.1,0s-0.1,0-0.1,0
			s-0.1,0-0.2,0c-0.1,0-0.1,0-0.2,0s-0.1,0-0.1,0s-0.1,0-0.1,0s0,0,0-0.1v-1.8h-4.8L419.6,147.9L419.6,147.9z M423.2,141.4h-1.7
			c-0.1,0.6-0.2,1.2-0.3,1.6s-0.2,0.8-0.3,1.1s-0.2,0.5-0.3,0.7s-0.2,0.4-0.3,0.5h2.9V141.4z"/>
		<path class="st12" d="M430.6,143.2c0,0.2,0,0.3-0.1,0.3c-0.1,0.1-0.2,0.1-0.3,0.1h-3.5c0,0.3,0,0.6,0.1,0.8
			c0.1,0.2,0.2,0.4,0.3,0.6c0.1,0.2,0.3,0.3,0.5,0.4c0.2,0.1,0.5,0.1,0.8,0.1c0.3,0,0.5,0,0.7-0.1s0.4-0.1,0.5-0.1
			c0.1-0.1,0.3-0.1,0.4-0.1c0.1,0,0.2-0.1,0.2-0.1c0,0,0.1,0,0.1,0c0,0,0,0,0,0.1s0,0.1,0,0.1s0,0.1,0,0.2c0,0.1,0,0.1,0,0.1
			s0,0.1,0,0.1s0,0.1,0,0.1s0,0-0.1,0.1s-0.1,0.1-0.2,0.1s-0.2,0.1-0.4,0.1s-0.4,0.1-0.6,0.1s-0.5,0.1-0.7,0.1
			c-0.4,0-0.8-0.1-1.1-0.2s-0.6-0.3-0.8-0.5s-0.4-0.5-0.5-0.9s-0.2-0.8-0.2-1.3c0-0.5,0.1-0.9,0.2-1.2s0.3-0.7,0.5-0.9
			s0.5-0.4,0.8-0.6s0.7-0.2,1-0.2c0.4,0,0.8,0.1,1.1,0.2s0.5,0.3,0.7,0.5s0.3,0.5,0.4,0.8s0.1,0.6,0.1,1L430.6,143.2L430.6,143.2z
			 M429.6,142.9c0-0.5-0.1-0.9-0.3-1.2c-0.2-0.3-0.6-0.4-1.1-0.4c-0.2,0-0.5,0-0.6,0.1s-0.3,0.2-0.5,0.4c-0.1,0.1-0.2,0.3-0.3,0.5
			c-0.1,0.2-0.1,0.4-0.1,0.6L429.6,142.9L429.6,142.9z"/>
		<path class="st12" d="M436.2,146C436.2,146.1,436.2,146.1,436.2,146c0,0.1-0.1,0.1-0.1,0.1s-0.1,0-0.1,0s-0.1,0-0.2,0
			c-0.1,0-0.2,0-0.2,0s-0.1,0-0.1,0s-0.1,0-0.1-0.1s0,0,0-0.1v-4.6h-1.5c-0.1,0.6-0.1,1.2-0.2,1.7s-0.2,0.9-0.3,1.3
			s-0.2,0.7-0.4,0.9s-0.3,0.4-0.4,0.6s-0.3,0.3-0.5,0.3s-0.4,0.1-0.6,0.1c0,0-0.1,0-0.1,0s0,0-0.1-0.1s0-0.1,0-0.1s0-0.1,0-0.2
			c0-0.1,0-0.2,0-0.2s0-0.1,0-0.1s0-0.1,0.1-0.1s0,0,0.1,0c0.1,0,0.3,0,0.4-0.1s0.2-0.2,0.3-0.3s0.2-0.3,0.3-0.5s0.2-0.5,0.2-0.8
			s0.1-0.7,0.2-1.2s0.1-0.9,0.2-1.5c0-0.1,0-0.2,0.1-0.3s0.1-0.1,0.2-0.1h2.7c0.1,0,0.2,0,0.2,0.1s0.1,0.1,0.1,0.3L436.2,146
			L436.2,146z"/>
	</g>
	<g class="st11">
		<path class="st12" d="M261.4,92.4c0,0.1,0,0.3-0.1,0.4c0,0.1-0.1,0.2-0.1,0.3c-0.1,0.1-0.1,0.2-0.2,0.2c-0.1,0.1-0.2,0.1-0.3,0.2
			c-0.1,0-0.2,0.1-0.4,0.1c-0.1,0-0.3,0-0.4,0h-1.2c-0.1,0-0.1,0-0.1-0.1c0,0-0.1-0.1-0.1-0.2v-4c0-0.1,0-0.2,0.1-0.2
			c0,0,0.1-0.1,0.1-0.1h1c0.3,0,0.5,0,0.7,0.1c0.2,0.1,0.3,0.1,0.4,0.2c0.1,0.1,0.2,0.2,0.3,0.4c0.1,0.1,0.1,0.3,0.1,0.5
			c0,0.1,0,0.2,0,0.3s-0.1,0.2-0.1,0.3c0,0.1-0.1,0.2-0.2,0.2c-0.1,0.1-0.2,0.1-0.3,0.2c0.1,0,0.2,0.1,0.3,0.1
			c0.1,0.1,0.2,0.1,0.3,0.2c0.1,0.1,0.1,0.2,0.2,0.3C261.4,92.1,261.4,92.3,261.4,92.4z M260.5,90.4c0-0.1,0-0.2,0-0.3
			c0-0.1-0.1-0.2-0.1-0.2s-0.1-0.1-0.3-0.1c-0.1,0-0.2,0-0.4,0H259v1.4h0.7c0.2,0,0.3,0,0.4-0.1c0.1,0,0.2-0.1,0.2-0.2
			c0.1-0.1,0.1-0.1,0.1-0.2C260.5,90.6,260.5,90.5,260.5,90.4z M260.8,92.5c0-0.1,0-0.3-0.1-0.4c0-0.1-0.1-0.2-0.2-0.3
			c-0.1-0.1-0.2-0.1-0.3-0.2c-0.1,0-0.3-0.1-0.5-0.1H259v1.6h0.9c0.1,0,0.3,0,0.4,0c0.1,0,0.2-0.1,0.3-0.1c0.1-0.1,0.1-0.1,0.2-0.2
			C260.7,92.7,260.8,92.6,260.8,92.5z"/>
		<path class="st12" d="M264.9,93.6C264.9,93.6,264.9,93.6,264.9,93.6C264.9,93.7,264.9,93.7,264.9,93.6c-0.1,0.1-0.1,0.1-0.1,0.1
			c0,0-0.1,0-0.1,0c-0.1,0-0.1,0-0.1,0c0,0-0.1,0-0.1,0c0,0,0,0,0,0s0,0,0,0v-1.4h-1.6v1.4c0,0,0,0,0,0s0,0,0,0c0,0,0,0-0.1,0
			c0,0-0.1,0-0.1,0c-0.1,0-0.1,0-0.1,0c0,0-0.1,0-0.1,0c0,0,0,0,0,0c0,0,0,0,0,0v-3.1c0,0,0,0,0,0c0,0,0,0,0,0c0,0,0.1,0,0.1,0
			c0,0,0.1,0,0.1,0c0.1,0,0.1,0,0.1,0c0,0,0.1,0,0.1,0c0,0,0,0,0,0s0,0,0,0v1.3h1.6v-1.3c0,0,0,0,0,0s0,0,0,0c0,0,0,0,0.1,0
			c0,0,0.1,0,0.1,0c0.1,0,0.1,0,0.1,0c0,0,0.1,0,0.1,0c0,0,0,0,0,0c0,0,0,0,0,0V93.6z"/>
		<path class="st12" d="M268.8,93.6C268.8,93.6,268.8,93.6,268.8,93.6C268.7,93.7,268.7,93.7,268.8,93.6c-0.1,0.1-0.1,0.1-0.1,0.1
			c0,0-0.1,0-0.1,0c-0.1,0-0.1,0-0.1,0c0,0-0.1,0-0.1,0c0,0,0,0,0,0c0,0,0,0,0,0v-1.8c0-0.1,0-0.2,0-0.3c0-0.1,0-0.2,0-0.3
			c-0.1,0.1-0.1,0.2-0.2,0.3c-0.1,0.1-0.1,0.2-0.2,0.3l-1.3,1.8c0,0,0,0,0,0c0,0,0,0,0,0c0,0,0,0-0.1,0c0,0-0.1,0-0.1,0
			c-0.1,0-0.1,0-0.1,0c0,0-0.1,0-0.1,0c0,0,0,0,0,0c0,0,0,0,0,0v-3.1c0,0,0,0,0,0c0,0,0,0,0,0c0,0,0.1,0,0.1,0c0,0,0.1,0,0.1,0
			c0.1,0,0.2,0,0.2,0c0,0,0.1,0,0.1,0.1v1.8c0,0.1,0,0.2,0,0.3c0,0.1,0,0.2,0,0.3c0.1-0.1,0.1-0.2,0.2-0.3c0.1-0.1,0.1-0.2,0.2-0.2
			l1.3-1.8c0,0,0,0,0,0c0,0,0,0,0.1,0s0,0,0.1,0c0,0,0.1,0,0.1,0c0,0,0.1,0,0.1,0c0,0,0.1,0,0.1,0c0,0,0,0,0,0c0,0,0,0,0,0
			L268.8,93.6L268.8,93.6z"/>
		<path class="st12" d="M272,92.8c0,0.2,0,0.3-0.1,0.4c-0.1,0.1-0.2,0.2-0.3,0.3c-0.1,0.1-0.3,0.2-0.4,0.2s-0.4,0.1-0.6,0.1
			c-0.1,0-0.2,0-0.3,0s-0.2,0-0.3-0.1c-0.1,0-0.2-0.1-0.2-0.1c-0.1,0-0.1-0.1-0.1-0.1c0,0,0,0-0.1-0.1c0,0,0,0,0-0.1c0,0,0,0,0-0.1
			c0,0,0-0.1,0-0.1c0,0,0-0.1,0-0.1c0,0,0,0,0-0.1c0,0,0,0,0,0c0,0,0,0,0,0c0,0,0.1,0,0.1,0c0,0,0.1,0.1,0.2,0.1
			c0.1,0,0.2,0.1,0.3,0.1s0.2,0,0.4,0c0.1,0,0.2,0,0.3,0c0.1,0,0.2-0.1,0.2-0.1c0.1,0,0.1-0.1,0.1-0.2c0-0.1,0.1-0.2,0.1-0.2
			c0-0.1,0-0.2-0.1-0.2c0-0.1-0.1-0.1-0.2-0.2c-0.1,0-0.2-0.1-0.3-0.1c-0.1,0-0.3,0-0.4,0h-0.3c0,0,0,0-0.1,0c0,0,0,0,0,0
			c0,0,0,0,0-0.1c0,0,0-0.1,0-0.1c0,0,0-0.1,0-0.1c0,0,0,0,0-0.1c0,0,0,0,0,0c0,0,0,0,0.1,0h0.3c0.1,0,0.3,0,0.4,0
			c0.1,0,0.2-0.1,0.3-0.1c0.1,0,0.1-0.1,0.2-0.2c0-0.1,0-0.1,0-0.2c0-0.1,0-0.1,0-0.2c0-0.1-0.1-0.1-0.1-0.1c-0.1,0-0.1-0.1-0.2-0.1
			s-0.2,0-0.3,0c-0.1,0-0.3,0-0.4,0s-0.2,0.1-0.3,0.1c-0.1,0-0.1,0.1-0.2,0.1c-0.1,0-0.1,0-0.1,0c0,0,0,0,0,0c0,0,0,0,0,0
			c0,0,0,0,0-0.1c0,0,0-0.1,0-0.1c0-0.1,0-0.1,0-0.2c0,0,0-0.1,0.1-0.1s0.1-0.1,0.1-0.1c0.1,0,0.1-0.1,0.2-0.1
			c0.1,0,0.2-0.1,0.3-0.1c0.1,0,0.2,0,0.3,0c0.2,0,0.3,0,0.5,0.1c0.1,0,0.3,0.1,0.4,0.2c0.1,0.1,0.2,0.2,0.2,0.3
			c0.1,0.1,0.1,0.2,0.1,0.4c0,0.1,0,0.2,0,0.2c0,0.1-0.1,0.1-0.1,0.2s-0.1,0.1-0.2,0.2c-0.1,0.1-0.2,0.1-0.3,0.1l0,0
			c0.1,0,0.2,0,0.3,0.1c0.1,0,0.2,0.1,0.2,0.2c0.1,0.1,0.1,0.1,0.2,0.2C271.9,92.5,272,92.6,272,92.8z"/>
	</g>
</g>
<g id="Камеры">
	<g>
		<path class="st13" d="M288.6,220.4h-4c-1,0-1.8-0.6-1.8-1.3v-2.8c0-0.7,0.8-1.3,1.8-1.3h4c1,0,1.8,0.6,1.8,1.3v2.8
			C290.4,219.8,289.6,220.4,288.6,220.4z"/>
		<path class="st14" d="M292.3,217.6l3-2.9c0.1-0.1,0.4,0,0.4,0.2v5.8c0,0.2-0.2,0.3-0.4,0.2l-3-2.9
			C292.2,217.8,292.2,217.6,292.3,217.6z"/>
	</g>
	<g>
		<path class="st13" d="M371.7,274.8v4c0,1-0.6,1.8-1.3,1.8h-2.8c-0.7,0-1.3-0.8-1.3-1.8v-4c0-1,0.6-1.8,1.3-1.8h2.8
			C371.2,272.9,371.7,273.8,371.7,274.8z"/>
		<path class="st14" d="M368.9,271.1l-2.9-3c-0.1-0.1,0-0.4,0.2-0.4h5.8c0.2,0,0.3,0.2,0.2,0.4l-2.9,3
			C369.1,271.2,369,271.2,368.9,271.1z"/>
	</g>
	<g>
		<path class="st13" d="M414.4,274.8v4c0,1-0.6,1.8-1.3,1.8h-2.8c-0.7,0-1.3-0.8-1.3-1.8v-4c0-1,0.6-1.8,1.3-1.8h2.8
			C413.8,272.9,414.4,273.8,414.4,274.8z"/>
		<path class="st14" d="M411.5,271.1l-2.9-3c-0.1-0.1,0-0.4,0.2-0.4h5.8c0.2,0,0.3,0.2,0.2,0.4l-2.9,3
			C411.8,271.2,411.6,271.2,411.5,271.1z"/>
	</g>
	<g>
		<path class="st13" d="M445.7,274.8v4c0,1-0.6,1.8-1.3,1.8h-2.8c-0.7,0-1.3-0.8-1.3-1.8v-4c0-1,0.6-1.8,1.3-1.8h2.8
			C445.1,272.9,445.7,273.8,445.7,274.8z"/>
		<path class="st14" d="M442.9,271.1l-2.9-3c-0.1-0.1,0-0.4,0.2-0.4h5.8c0.2,0,0.3,0.2,0.2,0.4l-2.9,3
			C443.1,271.2,442.9,271.2,442.9,271.1z"/>
	</g>
	<g>
		<path class="st13" d="M440.9,215.1h4c1,0,1.8,0.6,1.8,1.3v2.8c0,0.7-0.8,1.3-1.8,1.3h-4c-1,0-1.8-0.6-1.8-1.3v-2.8
			C439.1,215.6,439.9,215.1,440.9,215.1z"/>
		<path class="st14" d="M437.3,217.9l-3,2.9c-0.1,0.1-0.4,0-0.4-0.2v-5.8c0-0.2,0.2-0.3,0.4-0.2l3,2.9
			C437.3,217.6,437.3,217.8,437.3,217.9z"/>
	</g>
	<g>
		<path class="st13" d="M273.5,195.5l1.6,1.5c0.4,0.4,0.5,0.9,0.3,1.2l-1,1.2c-0.3,0.3-0.8,0.2-1.2-0.2l-1.6-1.5
			c-0.4-0.4-0.5-0.9-0.3-1.2l1-1.2C272.6,195.1,273.1,195.2,273.5,195.5z"/>
		<path class="st14" d="M270.4,194.8l-2.3,0.1c-0.1,0-0.2-0.1-0.1-0.2l2.2-2.4c0.1-0.1,0.2,0,0.2,0.1l0.1,2.3
			C270.5,194.8,270.5,194.8,270.4,194.8z"/>
	</g>
	<g>
		<path class="st13" d="M273.7,147.7l1.8-1.3c0.5-0.3,1-0.4,1.2-0.1l0.9,1.2c0.2,0.3,0.1,0.8-0.4,1.2l-1.8,1.3
			c-0.5,0.3-1,0.4-1.2,0.1l-0.9-1.2C273,148.5,273.2,148,273.7,147.7z"/>
		<path class="st14" d="M272.4,150.6l-0.3,2.3c0,0.1-0.2,0.1-0.2,0.1l-1.9-2.6c-0.1-0.1,0-0.2,0.1-0.2l2.3,0.3
			C272.3,150.5,272.4,150.5,272.4,150.6z"/>
	</g>
	<g>
		<path class="st13" d="M262.5,49v-2.2c0-0.6,0.3-1,0.7-1h1.6c0.4,0,0.7,0.5,0.7,1V49c0,0.6-0.3,1-0.7,1h-1.6
			C262.9,50,262.5,49.6,262.5,49z"/>
		<path class="st14" d="M264.1,51.8l1.6,1.6c0.1,0.1,0,0.2-0.1,0.2h-3.2c-0.1,0-0.2-0.1-0.1-0.2l1.6-1.6
			C264,51.7,264.1,51.7,264.1,51.8z"/>
	</g>
	<g>
		<path class="st13" d="M194.2,60.1l-1.8-1.2c-0.5-0.3-0.7-0.8-0.5-1.1l0.9-1.3c0.2-0.3,0.8-0.3,1.2,0l1.8,1.2
			c0.5,0.3,0.7,0.8,0.5,1.1l-0.9,1.3C195.2,60.4,194.6,60.4,194.2,60.1z"/>
		<path class="st14" d="M197.4,60.4l2.3-0.4c0.1,0,0.2,0.1,0.1,0.2l-1.8,2.7c-0.1,0.1-0.2,0.1-0.2,0l-0.5-2.3
			C197.2,60.5,197.3,60.4,197.4,60.4z"/>
	</g>
	<g>
		<path class="st13" d="M172.9,74.9l1.7,1.4c0.4,0.4,0.6,0.9,0.4,1.2l-1,1.2c-0.2,0.3-0.8,0.3-1.2-0.1l-1.7-1.4
			c-0.4-0.4-0.6-0.9-0.4-1.2l1-1.2C172,74.5,172.5,74.5,172.9,74.9z"/>
		<path class="st14" d="M169.8,74.3l-2.3,0.2c-0.1,0-0.2-0.1-0.1-0.2l2-2.5c0.1-0.1,0.2,0,0.2,0.1l0.3,2.3
			C169.9,74.3,169.9,74.3,169.8,74.3z"/>
	</g>
	<g>
		<path class="st13" d="M127.4,238v4c0,1-0.6,1.8-1.3,1.8h-2.8c-0.7,0-1.3-0.8-1.3-1.8v-4c0-1,0.6-1.8,1.3-1.8h2.8
			C126.8,236.2,127.4,237,127.4,238z"/>
		<path class="st14" d="M124.6,234.3l-2.9-3c-0.1-0.1,0-0.4,0.2-0.4h5.8c0.2,0,0.3,0.2,0.2,0.4l-2.9,3
			C124.8,234.4,124.7,234.4,124.6,234.3z"/>
	</g>
	<g>
		<path class="st13" d="M234.4,273.9v4c0,1-0.6,1.8-1.3,1.8h-2.8c-0.7,0-1.3-0.8-1.3-1.8v-4c0-1,0.6-1.8,1.3-1.8h2.8
			C233.8,272.1,234.4,272.9,234.4,273.9z"/>
		<path class="st14" d="M231.5,270.2l-2.9-3c-0.1-0.1,0-0.4,0.2-0.4h5.8c0.2,0,0.3,0.2,0.2,0.4l-2.9,3
			C231.8,270.3,231.6,270.3,231.5,270.2z"/>
	</g>
	<g>
		<path class="st13" d="M237.8,185.5l3-2.7c0.8-0.7,1.7-0.8,2.2-0.3l1.9,2.1c0.5,0.5,0.2,1.5-0.5,2.2l-3,2.7
			c-0.8,0.7-1.7,0.8-2.2,0.3l-1.9-2.1C236.9,187.2,237.1,186.2,237.8,185.5z"/>
		<path class="st14" d="M237,190.1l-0.2,4.1c0,0.2-0.3,0.3-0.4,0.1l-3.9-4.3c-0.1-0.1,0-0.4,0.2-0.4l4.1,0.2
			C236.9,189.9,237,190,237,190.1z"/>
	</g>
	<g>
		<path class="st13" d="M29.4,177.6v-4c0-1,0.6-1.8,1.3-1.8h2.8c0.7,0,1.3,0.8,1.3,1.8v4c0,1-0.6,1.8-1.3,1.8h-2.8
			C30,179.5,29.4,178.6,29.4,177.6z"/>
		<path class="st14" d="M32.2,181.3l2.9,3c0.1,0.1,0,0.4-0.2,0.4h-5.8c-0.2,0-0.3-0.2-0.2-0.4l2.9-3C32,181.2,32.2,181.2,32.2,181.3
			z"/>
	</g>
	<g>
		<path class="st13" d="M64.4,177.6v-4c0-1,0.6-1.8,1.3-1.8h2.8c0.7,0,1.3,0.8,1.3,1.8v4c0,1-0.6,1.8-1.3,1.8h-2.8
			C65,179.5,64.4,178.6,64.4,177.6z"/>
		<path class="st14" d="M67.2,181.3l2.9,3c0.1,0.1,0,0.4-0.2,0.4h-5.8c-0.2,0-0.3-0.2-0.2-0.4l2.9-3C67,181.2,67.2,181.2,67.2,181.3
			z"/>
	</g>
	<g>
		<path class="st13" d="M97.3,177.6v-4c0-1,0.6-1.8,1.3-1.8h2.8c0.7,0,1.3,0.8,1.3,1.8v4c0,1-0.6,1.8-1.3,1.8h-2.8
			C97.9,179.5,97.3,178.6,97.3,177.6z"/>
		<path class="st14" d="M100.1,181.3l2.9,3c0.1,0.1,0,0.4-0.2,0.4h-5.8c-0.2,0-0.3-0.2-0.2-0.4l2.9-3
			C99.9,181.2,100.1,181.2,100.1,181.3z"/>
	</g>
	<g>
		<path class="st13" d="M64.2,276.5l-2.7,3c-0.7,0.8-1.7,1-2.2,0.5l-2.1-1.9c-0.5-0.5-0.4-1.5,0.3-2.2l2.7-3c0.7-0.8,1.7-1,2.2-0.5
			l2.1,1.9C65.1,274.8,64.9,275.8,64.2,276.5z"/>
		<path class="st14" d="M64.6,271.9l-0.2-4.1c0-0.2,0.2-0.3,0.4-0.2l4.3,3.9c0.1,0.1,0.1,0.4-0.1,0.4l-4.1,0.2
			C64.7,272.1,64.6,272,64.6,271.9z"/>
	</g>
	<g>
		<path class="st13" d="M121.6,251.3h4c1,0,1.8,0.6,1.8,1.3v2.8c0,0.7-0.8,1.3-1.8,1.3h-4c-1,0-1.8-0.6-1.8-1.3v-2.8
			C119.7,251.9,120.5,251.3,121.6,251.3z"/>
		<path class="st14" d="M117.9,254.1l-3,2.9c-0.1,0.1-0.4,0-0.4-0.2v-5.8c0-0.2,0.2-0.3,0.4-0.2l3,2.9
			C118,253.9,118,254,117.9,254.1z"/>
	</g>
	<g>
		<path class="st13" d="M209.1,147.5h4c1,0,1.8,0.6,1.8,1.3v2.8c0,0.7-0.8,1.3-1.8,1.3h-4c-1,0-1.8-0.6-1.8-1.3v-2.8
			C207.2,148.1,208.1,147.5,209.1,147.5z"/>
		<path class="st14" d="M205.4,150.4l-3,2.9c-0.1,0.1-0.4,0-0.4-0.2v-5.8c0-0.2,0.2-0.3,0.4-0.2l3,2.9
			C205.5,150.1,205.5,150.3,205.4,150.4z"/>
	</g>
	<g>
		<path class="st13" d="M119.5,93.5v-4c0-1,0.6-1.8,1.3-1.8h2.8c0.7,0,1.3,0.8,1.3,1.8v4c0,1-0.6,1.8-1.3,1.8h-2.8
			C120.1,95.4,119.5,94.6,119.5,93.5z"/>
		<path class="st14" d="M122.4,97.2l2.9,3c0.1,0.1,0,0.4-0.2,0.4h-5.8c-0.2,0-0.3-0.2-0.2-0.4l2.9-3
			C122.1,97.1,122.3,97.1,122.4,97.2z"/>
	</g>
	<g>
		<path class="st13" d="M172.5,93.5v-4c0-1,0.6-1.8,1.3-1.8h2.8c0.7,0,1.3,0.8,1.3,1.8v4c0,1-0.6,1.8-1.3,1.8h-2.8
			C173,95.4,172.5,94.6,172.5,93.5z"/>
		<path class="st14" d="M175.3,97.2l2.9,3c0.1,0.1,0,0.4-0.2,0.4h-5.8c-0.2,0-0.3-0.2-0.2-0.4l2.9-3
			C175.1,97.1,175.2,97.1,175.3,97.2z"/>
	</g>
</g>
</svg>
