<?xml version="1.0" encoding="utf-8"?>
<!-- Generator: Adobe Illustrator 21.1.0, SVG Export Plug-In . SVG Version: 6.00 Build 0)  -->
<svg version="1.1" id="Слой_1" xmlns="http://www.w3.org/2000/svg" xmlns:xlink="http://www.w3.org/1999/xlink" x="0px" y="0px"
	 viewBox="0 0 498.2 324.8" style="enable-background:new 0 0 498.2 324.8;" xml:space="preserve">
<g id="Контур">
	<g>
		<polygon style="fill:#E3E2EA;" points="23.5,21.5 23.5,66.2 44.2,66.2 44.2,304.4 472.5,304.4 472.5,21.5 		"/>
		<path style="fill:#666666;" d="M473.5,305.4H43.2V67.2H22.5V20.5h451V305.4z M45.2,303.4h426.3V22.5h-447v42.7h20.7V303.4z"/>
	</g>
	<g>
		<rect style="fill:#E6E6E5;" width="498.2" height="324.8"/>
		<path style="fill:#B3B3B3;" d="M499.2,325.8H-1V-1h500.2V325.8z M1,323.8h496.2V1H1V323.8z"/>
	</g>
</g>
<g id="Main">
	<path style="fill:#FFFFFF;stroke:#666666;stroke-width:2;stroke-miterlimit:10;" d="M472.5,142.5"/>
	<path style="fill:#666666;" d="M302,305.5h-31.7v-80.8H302V305.5z M272.3,303.5H300v-76.8h-27.7V303.5z"/>
	<g>
		<rect x="210.6" y="102.6" style="fill:#A3A3A3;" width="90.4" height="61.1"/>
		<path style="fill:#666666;" d="M302,164.7h-92.4v-63.1H302V164.7z M211.6,162.7H300v-59.1h-88.4V162.7z"/>
	</g>
	<g>
		<rect x="23.5" y="21.5" style="fill:#B3B3B3;" width="20.7" height="44.7"/>
		<path style="fill:#666666;" d="M45.2,67.2H22.5V20.5h22.7V67.2z M24.5,65.2h18.7V22.5H24.5V65.2z"/>
	</g>
	<g>
		<rect x="44.2" y="21.5" style="fill:#B3B3B3;" width="27.4" height="44.7"/>
		<path style="fill:#666666;" d="M72.6,67.2H43.2V20.5h29.4V67.2z M45.2,65.2h25.4V22.5H45.2V65.2z"/>
	</g>
	<g>
		<rect x="259.8" y="128" style="fill:#FFFFFF;" width="7.2" height="10.4"/>
		<path style="fill:#666666;" d="M267.3,138.6h-7.7v-10.9h7.7V138.6z M260,138.1h6.7v-9.9H260V138.1z"/>
	</g>
	<g>
		<rect x="252.7" y="128" style="fill:#FFFFFF;" width="7.2" height="10.4"/>
		<path style="fill:#666666;" d="M260.2,138.6h-7.7v-10.9h7.7V138.6z M253,138.1h6.7v-9.9H253V138.1z"/>
	</g>
	<g>
		<rect x="245.5" y="128" style="fill:#FFFFFF;" width="7.2" height="10.4"/>
		<path style="fill:#666666;" d="M253,138.6h-7.7v-10.9h7.7V138.6z M245.8,138.1h6.7v-9.9h-6.7V138.1z"/>
	</g>
	<g>
		<rect x="238.1" y="128" style="fill:#FFFFFF;" width="7.2" height="10.4"/>
		<path style="fill:#666666;" d="M245.5,138.6h-7.7v-10.9h7.7V138.6z M238.4,138.1h6.7v-9.9h-6.7V138.1z"/>
	</g>
	<g>
		<rect x="230.9" y="128" style="fill:#FFFFFF;" width="7.2" height="10.4"/>
		<path style="fill:#666666;" d="M238.4,138.6h-7.7v-10.9h7.7V138.6z M231.1,138.1h6.7v-9.9h-6.7V138.1z"/>
	</g>
	<g>
		<rect x="267.1" y="106.7" style="fill:#FFFFFF;" width="7.2" height="10.4"/>
		<path style="fill:#666666;" d="M274.5,117.4h-7.7v-10.9h7.7V117.4z M267.3,116.9h6.7V107h-6.7V116.9z"/>
	</g>
	<g>
		<rect x="259.8" y="106.7" style="fill:#FFFFFF;" width="7.2" height="10.4"/>
		<path style="fill:#666666;" d="M267.3,117.4h-7.7v-10.9h7.7V117.4z M260,116.9h6.7V107H260V116.9z"/>
	</g>
	<g>
		<rect x="252.7" y="106.7" style="fill:#FFFFFF;" width="7.2" height="10.4"/>
		<path style="fill:#666666;" d="M260.2,117.4h-7.7v-10.9h7.7V117.4z M253,116.9h6.7V107H253V116.9z"/>
	</g>
	<g>
		<rect x="245.5" y="106.7" style="fill:#FFFFFF;" width="7.2" height="10.4"/>
		<path style="fill:#666666;" d="M253,117.4h-7.7v-10.9h7.7V117.4z M245.8,116.9h6.7V107h-6.7V116.9z"/>
	</g>
	<g>
		<rect x="238.1" y="106.7" style="fill:#FFFFFF;" width="7.2" height="10.4"/>
		<path style="fill:#666666;" d="M245.5,117.4h-7.7v-10.9h7.7V117.4z M238.4,116.9h6.7V107h-6.7V116.9z"/>
	</g>
	<g>
		<rect x="222.6" y="111.2" style="fill:#666666;" width="50.6" height="0.6"/>
		<path style="fill:#666666;" d="M273.3,111.9h-50.8v-0.8h50.8V111.9z M222.7,111.7h50.4v-0.4h-50.4L222.7,111.7L222.7,111.7z"/>
	</g>
	<g>
		<rect x="223.2" y="132.8" style="fill:#666666;" width="40.2" height="0.6"/>
		<path style="fill:#666666;" d="M263.5,133.5h-40.4v-0.8h40.4V133.5z M223.3,133.3h40v-0.4h-40L223.3,133.3L223.3,133.3z"/>
	</g>
	<g>
		<rect x="222.6" y="111.2" style="fill:#666666;" width="0.6" height="22.3"/>
		<path style="fill:#666666;" d="M223.3,133.6h-0.8v-22.5h0.8V133.6z M222.7,133.4h0.4v-22.1h-0.4V133.4z"/>
	</g>
	<g>
		<polygon style="fill:#666666;" points="263.5,133.1 265.8,133.1 263.5,131.9 		"/>
		<path style="fill:#666666;" d="M266.2,133.2h-2.8v-1.5L266.2,133.2z M263.6,133h1.8l-1.8-0.9V133z"/>
	</g>
	<g>
		<polygon style="fill:#666666;" points="263.5,133.3 265.8,133.3 263.5,134.5 		"/>
		<path style="fill:#666666;" d="M263.4,134.7v-1.5h2.8L263.4,134.7z M263.6,133.4v0.9l1.8-0.9H263.6z"/>
	</g>
	<g>
		<rect x="226.3" y="117" style="fill:#FFFFFF;" width="53.8" height="11"/>
		<path style="fill:#666666;" d="M280.3,128.3H226v-11.5h54.3V128.3z M226.5,127.8h53.3v-10.5h-53.3L226.5,127.8L226.5,127.8z"/>
	</g>
	<g>
		<rect x="228.2" y="118.5" style="fill:#FFFFFF;" width="49.8" height="7.8"/>
		<path style="fill:#666666;" d="M278.3,126.5H228v-8.3h50.3V126.5z M228.5,126h49.3v-7.3h-49.3L228.5,126L228.5,126z"/>
	</g>
	<g>
		<polygon style="fill:#B3B3B3;" points="327.3,131 381.2,131 381.2,140.7 472.5,140.7 472.5,76.7 327.3,76.7 		"/>
		<path style="fill:#666666;" d="M473.5,141.7h-93.3V132h-53.9V75.7h147.2V141.7z M382.2,139.7h89.3v-62H328.3V130h53.9L382.2,139.7
			L382.2,139.7z"/>
	</g>
	<g>
		<polygon style="fill:#B3B3B3;" points="71.6,21.5 193,21.5 193,70.2 203.1,78.9 210.6,78.9 210.6,61.7 318.3,61.7 327.3,68.6 
			327.3,190.8 301,190.8 301,225.6 271.3,225.6 271.3,198.9 241.7,198.9 241.7,163.1 301,163.1 301,102.6 132.4,102.6 132.4,66.2 
			71.6,66.2 		"/>
		<path style="fill:#666666;" d="M302,226.6h-31.7v-26.7h-29.6v-37.8H300v-58.5H131.4V67.2H70.6V20.5H194v49.2l9.5,8.2h6.1V60.7h109
			l9.7,7.4v123.7H302V226.6z M272.3,224.6H300v-34.8h26.3V69.1l-8.3-6.4H211.6v17.2h-8.9L192,70.7V22.5H72.6v42.7h60.8v36.4H302
			v62.5h-59.3v33.8h29.6V224.6z"/>
	</g>
	<g>
		<rect x="210.6" y="142.1" style="fill:#A3A3A3;" width="90.4" height="21.6"/>
		<path style="fill:#666666;" d="M302,164.7h-92.4v-23.6H302V164.7z M211.6,162.7H300v-19.6h-88.4V162.7z"/>
	</g>
	<g>
		<rect id="door_15_" x="153.6" y="278.6" style="fill:#FFFFFF;" width="4" height="15.2"/>
		<path style="fill:#666666;" d="M158.1,294.3h-5v-16.2h5V294.3z M154.1,293.3h3v-14.2h-3V293.3z"/>
	</g>
	<path style="fill:none;stroke:#666666;stroke-width:2;stroke-miterlimit:10;" d="M327.3,78.3"/>
	<g>
		<polygon style="fill:#B3B3B3;" points="472.5,76.7 472.5,21.5 193,21.5 193,71.3 203.1,80 210.6,80 210.6,62.9 318.3,62.9 
			327.3,70.5 327.3,76.7 		"/>
		<path style="fill:#666666;" d="M211.6,81h-8.9L192,71.8V20.5h281.5v57.2H326.3V71l-8.4-7.1H211.6V81z M203.5,79h6.1V61.9h109.1
			l9.6,8.1v5.7h143.2V22.5H194v48.3L203.5,79z"/>
	</g>
	<g>
		<rect x="271.3" y="225.6" style="fill:#B3B3B3;" width="29.7" height="78.9"/>
		<path style="fill:#666666;" d="M302,305.5h-31.7v-80.9H302V305.5z M272.3,303.5H300v-76.9h-27.7V303.5z"/>
	</g>
	<g id="Rooms">
		<g id="Room-1">
			<rect id="bg_2_" x="44.2" y="66.2" style="fill:#D9D9D9;" width="88.2" height="121.6"/>
			<path style="fill:#666666;" d="M133.4,188.8H43.2V65.2h90.2V188.8z M45.2,186.8h86.2V67.2H45.2V186.8z"/>
		</g>
		<g id="Room-2">
			<polygon id="bg_1_" style="fill:#D9D9D9;" points="241.7,199.2 241.7,163.3 210.6,163.3 210.6,102.6 132.4,102.6 132.4,199.2 			
				"/>
			<path style="fill:#666666;" d="M242.7,200.2H131.4v-98.6h80.2v60.7h31.1V200.2z M133.4,198.2h107.3v-33.9h-31.1v-60.7h-76.2
				V198.2z"/>
		</g>
		<g id="Room-3">
			<polygon id="bg_5_" style="fill:#D9D9D9;" points="271.3,304.4 153.6,304.4 153.6,268 132.4,268 132.4,199.2 271.3,199.2 			"/>
			<path style="fill:#666666;" d="M272.3,305.4H152.6V269h-21.2v-70.8h140.9V305.4z M154.6,303.4h115.7V200.2H133.4V267h21.2
				L154.6,303.4L154.6,303.4z"/>
		</g>
		<g id="Room-4">
			<polygon id="bg_4_" style="fill:#D9D9D9;" points="153.6,304.4 153.6,268 132.4,268 132.4,187.9 44.2,187.9 44.2,304.4 			"/>
			<path style="fill:#666666;" d="M154.6,305.4H43.2V186.9h90.2V267h21.2L154.6,305.4L154.6,305.4z M45.2,303.4h107.4V269h-21.2
				v-80.1H45.2V303.4z"/>
		</g>
		<g id="Room-5">
			<rect id="bg" x="301" y="191.2" style="fill:#D9D9D9;" width="171.5" height="113.3"/>
			<path style="fill:#666666;" d="M473.5,305.5H300V190.2h173.5V305.5z M302,303.5h169.5V192.2H302V303.5z"/>
		</g>
		<g id="Room-6">
			<polygon id="bg_3_" style="fill:#D9D9D9;" points="472.5,191.2 472.5,140.7 381.2,140.7 381.2,131.3 327.3,131.3 327.3,191.2 			
				"/>
			<path style="fill:#666666;" d="M473.5,192.2H326.3v-61.9h55.9v9.4h91.3V192.2z M328.3,190.2h143.2v-48.5h-91.3v-9.4h-51.9
				L328.3,190.2L328.3,190.2z"/>
		</g>
	</g>
	<g id="ACS">
		<g id="ACS-13">
			<rect id="bg_18_" x="44.2" y="38" style="fill:#FFFFFF;" width="4" height="15.2"/>
			<path style="fill:#666666;" d="M48.7,53.7h-5V37.5h5V53.7z M44.7,52.7h3V38.5h-3V52.7z"/>
		</g>
		<g id="ACS-12">
			<rect id="bg_17_" x="71.6" y="38" style="fill:#FFFFFF;" width="4" height="15.2"/>
			<path style="fill:#666666;" d="M76.1,53.7h-5V37.5h5V53.7z M72.1,52.7h3V38.5h-3V52.7z"/>
		</g>
		<g id="ACS-11">
			<rect id="bg_16_" x="132.4" y="81.7" style="fill:#FFFFFF;" width="4" height="15.2"/>
			<path style="fill:#666666;" d="M136.9,97.4h-5V81.2h5V97.4z M132.9,96.4h3V82.2h-3V96.4z"/>
		</g>
		<g id="ACS-10">
			<rect id="bg_15_" x="188.9" y="26.7" style="fill:#FFFFFF;" width="4" height="15.2"/>
			<path style="fill:#666666;" d="M193.4,42.4h-5V26.2h5V42.4z M189.4,41.4h3V27.2h-3V41.4z"/>
		</g>
		<g id="ACS-9">
			<rect id="bg_14_" x="299.4" y="62.9" style="fill:#FFFFFF;" width="15.2" height="4"/>
			<path style="fill:#666666;" d="M315.1,67.4h-16.2v-5h16.2V67.4z M299.9,66.4h14.2v-3h-14.2V66.4z"/>
		</g>
		<g id="ACS-8">
			<rect id="bg_13_" x="323.3" y="83.8" style="fill:#FFFFFF;" width="4" height="15.2"/>
			<path style="fill:#666666;" d="M327.8,99.5h-5V83.3h5V99.5z M323.8,98.5h3V84.3h-3V98.5z"/>
		</g>
		<g id="ACS-7">
			<rect id="bg_12_" x="241.7" y="171.1" style="fill:#FFFFFF;" width="4" height="15.2"/>
			<path style="fill:#666666;" d="M246.2,186.8h-5v-16.2h5V186.8z M242.2,185.8h3v-14.2h-3V185.8z"/>
		</g>
		<g id="ACS-6">
			<rect id="bg_11_" x="323.3" y="169.4" style="fill:#FFFFFF;" width="4" height="15.2"/>
			<path style="fill:#666666;" d="M327.8,185.1h-5v-16.2h5V185.1z M323.8,184.1h3v-14.2h-3V184.1z"/>
		</g>
		<g id="ACS-5">
			<rect id="bg_10_" x="278.5" y="221.7" style="fill:#FFFFFF;" width="15.2" height="4"/>
			<path style="fill:#666666;" d="M294.2,226.2H278v-5h16.2V226.2z M279,225.2h14.2v-3H279V225.2z"/>
		</g>
		<g id="ACS-4">
			<rect id="bg_9_" x="297" y="197.6" style="fill:#FFFFFF;" width="4" height="15.2"/>
			<path style="fill:#666666;" d="M301.5,213.3h-5v-16.2h5V213.3z M297.5,212.3h3v-14.2h-3V212.3z"/>
		</g>
		<g id="ACS-3">
			<rect id="bg_8_" x="249.2" y="195.1" style="fill:#FFFFFF;" width="15.2" height="4"/>
			<path style="fill:#666666;" d="M264.9,199.6h-16.2v-5h16.2V199.6z M249.7,198.6h14.2v-3h-14.2V198.6z"/>
		</g>
		<g id="ACS-2">
			<rect id="bg_7_" x="245.1" y="163.7" style="fill:#FFFFFF;" width="15.2" height="4"/>
			<path style="fill:#666666;" d="M260.8,168.2h-16.2v-5h16.2V168.2z M245.6,167.2h14.2v-3h-14.2L245.6,167.2L245.6,167.2z"/>
		</g>
		<g id="ACS-1">
			<rect id="bg_6_" x="280.1" y="102.6" style="fill:#FFFFFF;" width="15.2" height="4"/>
			<path style="fill:#666666;" d="M295.8,107.1h-16.2v-5h16.2V107.1z M280.6,106.1h14.2v-3h-14.2V106.1z"/>
		</g>
	</g>
	<g id="Cameras">
		<g id="Camera-5">
			<g>
				<path style="fill:#333333;" d="M296,216l1.6,1.5c0.4,0.4,0.5,0.9,0.3,1.2l-1,1.2c-0.3,0.3-0.8,0.2-1.2-0.2l-1.6-1.5
					c-0.4-0.4-0.5-0.9-0.3-1.2l1-1.2C295,215.6,295.6,215.7,296,216z"/>
				<path style="fill:#333333;" d="M296.5,221.6c-0.6,0-1.3-0.3-1.8-0.8l-1.6-1.5c-0.9-0.9-1.1-2.2-0.5-3.1l0.1-0.1l1.1-1.3
					c0.9-0.9,2.3-0.6,3.2,0.1l0.1,0.1l1.6,1.5c0.9,0.9,1.1,2.2,0.5,3.1l-0.1,0.1L298,221C297.5,221.4,297,221.6,296.5,221.6z"/>
			</g>
			<path style="fill:#FFFFFF;" d="M292.9,215.3l-2.3,0.1c-0.1,0-0.2-0.1-0.1-0.2l2.2-2.4c0.1-0.1,0.2,0,0.2,0.1l0.1,2.3
				C293,215.3,293,215.3,292.9,215.3z"/>
		</g>
		<g id="Camera-4">
			<g>
				<path style="fill:#333333;" d="M296.1,168.2l1.8-1.3c0.5-0.3,1-0.4,1.2-0.1l0.9,1.2c0.2,0.3,0.1,0.8-0.4,1.2l-1.8,1.3
					c-0.5,0.3-1,0.4-1.2,0.1l-0.9-1.2C295.5,169,295.7,168.5,296.1,168.2z"/>
				<path style="fill:#333333;" d="M297,172.3c-0.7,0-1.3-0.4-1.6-0.8l-1-1.4c-0.5-1-0.2-2.3,0.8-3.1l0,0l1.9-1.4
					c1.5-0.9,2.7-0.5,3.2,0.4l0.9,1.1c0.7,1.1,0.4,2.4-0.7,3.3l-2,1.4C298,172.1,297.5,172.3,297,172.3z M297.7,169.6L297.7,169.6
					C297.8,169.7,297.8,169.6,297.7,169.6z M297.9,167.7C297.9,167.7,297.9,167.8,297.9,167.7L297.9,167.7z"/>
			</g>
			<path style="fill:#FFFFFF;" d="M294.8,171.1l-0.3,2.3c0,0.1-0.2,0.1-0.2,0.1l-1.9-2.6c-0.1-0.1,0-0.2,0.1-0.2L294.8,171.1
				C294.8,171,294.9,171,294.8,171.1z"/>
		</g>
		<g id="Camera-3">
			<g>
				<path style="fill:#333333;" d="M285,69.5v-2.2c0-0.6,0.3-1,0.7-1h1.6c0.4,0,0.7,0.5,0.7,1v2.2c0,0.6-0.3,1-0.7,1h-1.6
					C285.3,70.5,285,70.1,285,69.5z"/>
				<path style="fill:#333333;" d="M287.3,72h-1.6c-1.3,0-2.2-1.1-2.2-2.5v-2.2c0-1.4,0.9-2.5,2.2-2.5h1.6c1.2,0,2.2,1.1,2.2,2.5
					v2.2C289.5,70.9,288.6,72,287.3,72z"/>
			</g>
			<path style="fill:#FFFFFF;" d="M286.6,72.3l1.6,1.6c0.1,0.1,0,0.2-0.1,0.2h-3.2c-0.1,0-0.2-0.1-0.1-0.2l1.6-1.6
				C286.5,72.2,286.5,72.2,286.6,72.3z"/>
		</g>
		<g id="Camera-2">
			<g>
				<path style="fill:#333333;" d="M216.6,80.6l-1.8-1.2c-0.5-0.3-0.7-0.8-0.5-1.1l0.9-1.3c0.2-0.3,0.8-0.3,1.2,0l1.8,1.2
					c0.5,0.3,0.7,0.8,0.5,1.1l-0.9,1.3C217.7,80.9,217.1,80.9,216.6,80.6z"/>
				<path style="fill:#333333;" d="M217.4,82.3c-0.5,0-1-0.1-1.5-0.4h-0.1l-1.8-1.2c-0.6-0.3-1-1-1.2-1.6c-0.1-0.6,0-1.1,0.3-1.6
					l0.9-1.3c0.3-0.4,0.8-0.7,1.3-0.8c0.7-0.1,1.4,0.1,2,0.5L219,77c0.6,0.3,1,1,1.2,1.6c0.1,0.6,0,1.1-0.3,1.6l-0.8,1.2
					c-0.2,0.4-0.6,0.7-1,0.8C217.9,82.3,217.6,82.3,217.4,82.3z M215.6,78.2L215.6,78.2L215.6,78.2z M216.4,77.8L216.4,77.8
					C216.4,77.9,216.4,77.8,216.4,77.8z"/>
			</g>
			<path style="fill:#FFFFFF;" d="M219.8,80.9l2.3-0.4c0.1,0,0.2,0.1,0.1,0.2l-1.8,2.7c-0.1,0.1-0.2,0.1-0.2,0l-0.5-2.3
				C219.7,81,219.8,80.9,219.8,80.9z"/>
		</g>
		<g id="Camera-1">
			<g>
				<path style="fill:#333333;" d="M195.4,95.4l1.7,1.4c0.4,0.4,0.6,0.9,0.4,1.2l-1,1.2c-0.2,0.3-0.8,0.3-1.2-0.1l-1.7-1.4
					c-0.4-0.4-0.6-0.9-0.4-1.2l1-1.2C194.4,95,195,95,195.4,95.4z"/>
				<path style="fill:#333333;" d="M196,100.9c-0.6,0-1.2-0.3-1.7-0.7l-1.8-1.5c-1-1-1.2-2.2-0.6-3.1l0.1-0.1l1-1.2
					c0.3-0.4,0.8-0.7,1.4-0.8c0.7-0.1,1.4,0.2,1.9,0.7l1.8,1.5c1,1,1.2,2.2,0.6,3.1l-0.1,0.1l-1,1.2c-0.3,0.4-0.8,0.7-1.4,0.8
					C196.2,100.9,196.1,100.9,196,100.9z"/>
			</g>
			<path style="fill:#FFFFFF;" d="M192.3,94.8L190,95c-0.1,0-0.2-0.1-0.1-0.2l2-2.5c0.1-0.1,0.2,0,0.2,0.1L192.3,94.8
				C192.4,94.8,192.3,94.8,192.3,94.8z"/>
		</g>
	</g>
</g>
<g id="Подписи">
	<g style="enable-background:new    ;">
		<path style="fill:#666666;" d="M79.4,130.4c0,0.7-0.1,1.2-0.2,1.8c-0.2,0.5-0.4,1-0.7,1.3c-0.3,0.4-0.7,0.6-1.1,0.8
			c-0.5,0.2-1,0.3-1.6,0.3s-1.1-0.1-1.6-0.3c-0.4-0.2-0.8-0.4-1.1-0.8s-0.5-0.8-0.6-1.3s-0.2-1.1-0.2-1.8c0-0.6,0.1-1.2,0.2-1.7
			s0.4-1,0.7-1.3c0.3-0.4,0.7-0.6,1.1-0.8c0.5-0.2,1-0.3,1.6-0.3s1.1,0.1,1.5,0.3c0.4,0.2,0.8,0.4,1.1,0.8c0.3,0.3,0.5,0.8,0.7,1.3
			C79.3,129.1,79.4,129.7,79.4,130.4z M78.2,130.4c0-0.5,0-0.9-0.1-1.3c-0.1-0.4-0.2-0.7-0.4-1c-0.2-0.3-0.4-0.5-0.8-0.7
			c-0.3-0.2-0.7-0.2-1.2-0.2s-0.9,0.1-1.2,0.3c-0.3,0.2-0.6,0.4-0.8,0.7c-0.2,0.3-0.3,0.6-0.4,1s-0.1,0.8-0.1,1.2
			c0,0.5,0,0.9,0.1,1.3c0.1,0.4,0.2,0.7,0.4,1c0.2,0.3,0.4,0.5,0.7,0.7c0.3,0.2,0.7,0.2,1.2,0.2s0.9-0.1,1.2-0.3
			c0.3-0.2,0.6-0.4,0.8-0.7c0.2-0.3,0.3-0.6,0.4-1C78.2,131.3,78.2,130.9,78.2,130.4z"/>
		<path style="fill:#666666;" d="M87.4,131.5c0,0.4-0.1,0.8-0.2,1.2s-0.3,0.7-0.6,1c-0.3,0.3-0.6,0.5-0.9,0.7
			c-0.4,0.2-0.8,0.3-1.3,0.3v1.9v0.1c0,0,0,0-0.1,0.1c0,0-0.1,0-0.2,0s-0.1,0-0.2,0s-0.2,0-0.2,0c-0.1,0-0.1,0-0.2,0
			c0,0-0.1,0-0.1-0.1v-0.1v-1.9c-0.5,0-0.9-0.1-1.3-0.3c-0.4-0.1-0.7-0.3-0.9-0.6c-0.2-0.3-0.4-0.6-0.6-0.9
			c-0.1-0.4-0.2-0.8-0.2-1.2s0.1-0.8,0.2-1.2s0.3-0.7,0.6-1c0.3-0.3,0.6-0.5,0.9-0.7c0.4-0.2,0.8-0.3,1.3-0.3v-2.4V126
			c0,0,0,0,0.1-0.1c0,0,0.1,0,0.2,0s0.1,0,0.2,0s0.2,0,0.2,0c0.1,0,0.1,0,0.2,0c0,0,0.1,0,0.1,0.1v0.1v2.4c0.5,0,0.9,0.1,1.3,0.3
			c0.4,0.1,0.7,0.4,0.9,0.6c0.2,0.3,0.4,0.6,0.6,0.9C87.4,130.6,87.4,131,87.4,131.5z M83.4,129.3c-0.6,0-1.1,0.2-1.4,0.6
			c-0.3,0.4-0.5,0.9-0.5,1.6c0,0.3,0,0.6,0.1,0.9c0.1,0.3,0.2,0.5,0.3,0.7c0.2,0.2,0.3,0.3,0.6,0.5c0.2,0.1,0.5,0.2,0.9,0.2V129.3
			L83.4,129.3z M86.4,131.5c0-0.7-0.1-1.2-0.4-1.6c-0.3-0.4-0.8-0.6-1.5-0.7v4.4c0.6,0,1.1-0.2,1.4-0.6
			C86.2,132.8,86.4,132.2,86.4,131.5z"/>
		<path style="fill:#666666;" d="M93.9,134.3C93.9,134.4,93.8,134.4,93.9,134.3c0,0.1-0.1,0.1-0.1,0.1s-0.1,0-0.2,0s-0.1,0-0.2,0
			s-0.2,0-0.2,0c-0.1,0-0.1,0-0.2,0s-0.1,0-0.1-0.1v-0.1V131c0-0.2,0-0.3,0-0.5s0-0.3,0-0.5c-0.1,0.2-0.2,0.3-0.3,0.5
			s-0.2,0.3-0.3,0.5l-2.4,3.2l-0.1,0.1c0,0-0.1,0-0.1,0.1s-0.1,0-0.1,0s-0.1,0-0.2,0s-0.2,0-0.2,0c-0.1,0-0.1,0-0.1,0
			s-0.1,0-0.1-0.1v-0.1v-5.6v-0.1c0,0,0,0,0.1-0.1c0,0,0.1,0,0.2,0s0.1,0,0.2,0c0.2,0,0.3,0,0.4,0s0.1,0.1,0.1,0.1v3.2
			c0,0.2,0,0.3,0,0.5s0,0.3,0,0.5c0.1-0.2,0.2-0.3,0.3-0.5s0.2-0.3,0.3-0.4l2.4-3.3l0.1-0.1c0,0,0.1,0,0.1-0.1h0.1
			c0.1,0,0.1,0,0.2,0s0.2,0,0.2,0c0.1,0,0.1,0,0.1,0s0.1,0,0.1,0.1v0.1L93.9,134.3L93.9,134.3z"/>
		<path style="fill:#666666;" d="M99.8,133.5c0,0.1,0,0.1,0,0.2s0,0.1,0,0.1v0.1c0,0,0,0.1-0.1,0.1c-0.1,0.1-0.1,0.1-0.3,0.2
			c-0.1,0.1-0.3,0.1-0.4,0.2c-0.2,0.1-0.3,0.1-0.5,0.1s-0.4,0.1-0.6,0.1c-0.4,0-0.8-0.1-1.1-0.2c-0.3-0.1-0.6-0.3-0.8-0.6
			c-0.2-0.3-0.4-0.6-0.5-0.9c-0.1-0.4-0.2-0.8-0.2-1.3c0-0.6,0.1-1,0.2-1.4s0.3-0.7,0.6-1c0.2-0.3,0.5-0.4,0.8-0.6
			c0.3-0.1,0.7-0.2,1-0.2c0.2,0,0.4,0,0.5,0c0.2,0,0.3,0.1,0.5,0.1c0.1,0.1,0.3,0.1,0.4,0.2c0.1,0.1,0.2,0.1,0.2,0.2
			c0.1,0,0.1,0.1,0.1,0.1v0.1v0.1c0,0,0,0.1,0,0.2c0,0.2,0,0.3-0.1,0.3c0,0.1-0.1,0.1-0.1,0.1c-0.1,0-0.1,0-0.2-0.1
			s-0.2-0.1-0.3-0.2c-0.1-0.1-0.3-0.2-0.4-0.2c-0.2-0.1-0.4-0.1-0.6-0.1c-0.5,0-0.9,0.2-1.1,0.6c-0.3,0.4-0.4,0.9-0.4,1.6
			c0,0.4,0,0.7,0.1,0.9c0.1,0.3,0.2,0.5,0.3,0.7c0.1,0.2,0.3,0.3,0.5,0.4c0.2,0.1,0.4,0.1,0.7,0.1c0.2,0,0.4,0,0.6-0.1
			s0.3-0.2,0.5-0.2c0.1-0.1,0.2-0.2,0.3-0.2c0.1-0.1,0.2-0.1,0.2-0.1h0.1c0,0,0,0,0.1,0.1s0,0.1,0,0.1
			C99.8,133.3,99.8,133.4,99.8,133.5z"/>
	</g>
	<g style="enable-background:new    ;">
		<path style="fill:#666666;" d="M149.6,187.1c0,0.1,0,0.1,0,0.2c0,0.1,0,0.1,0,0.1s0,0.1-0.1,0.1h-0.1H145c-0.1,0-0.1,0-0.2,0
			c0,0-0.1,0-0.1-0.1l-0.1-0.1c0-0.1,0-0.1,0-0.2c0-0.1,0-0.2,0-0.2c0-0.1,0-0.1,0-0.2c0,0,0-0.1,0.1-0.1c0,0,0.1-0.1,0.1-0.2
			l1.6-1.7c0.4-0.4,0.7-0.7,0.9-1s0.4-0.6,0.5-0.8s0.2-0.5,0.2-0.7s0.1-0.4,0.1-0.6c0-0.2,0-0.3-0.1-0.5s-0.1-0.3-0.3-0.4
			c-0.1-0.1-0.3-0.2-0.4-0.3s-0.4-0.1-0.6-0.1c-0.3,0-0.5,0-0.7,0.1s-0.4,0.1-0.5,0.2c-0.2,0.1-0.3,0.2-0.4,0.2
			c-0.1,0.1-0.2,0.1-0.2,0.1h-0.1c0,0,0,0-0.1-0.1s0-0.1,0-0.1c0-0.1,0-0.1,0-0.2c0-0.1,0-0.1,0-0.2v-0.1v-0.1l0.1-0.1
			c0.1,0,0.1-0.1,0.3-0.2c0.1-0.1,0.3-0.1,0.5-0.2c0.2-0.1,0.4-0.1,0.6-0.2c0.2,0,0.5-0.1,0.7-0.1c0.4,0,0.7,0.1,1,0.2
			c0.3,0.1,0.5,0.3,0.7,0.5s0.3,0.4,0.4,0.7c0.1,0.3,0.1,0.5,0.1,0.8s0,0.5-0.1,0.8c0,0.3-0.1,0.5-0.3,0.8c-0.1,0.3-0.4,0.6-0.6,1
			s-0.6,0.8-1.1,1.3l-1.3,1.3h3.5h0.1c0,0,0.1,0,0.1,0.1c0,0,0,0.1,0.1,0.1C149.6,187,149.6,187,149.6,187.1z"/>
		<path style="fill:#666666;" d="M153.8,184.4c0,0.2,0,0.3-0.1,0.3c0,0.1-0.1,0.1-0.2,0.1h-2.6c-0.1,0-0.1,0-0.2-0.1
			c0-0.1-0.1-0.2-0.1-0.3c0-0.2,0-0.3,0.1-0.3c0-0.1,0.1-0.1,0.2-0.1h2.6h0.1c0,0,0.1,0,0.1,0.1v0.1
			C153.7,184.3,153.8,184.3,153.8,184.4z"/>
		<path style="fill:#666666;" d="M159.3,187.4v0.1c0,0-0.1,0-0.1,0.1s-0.1,0-0.3,0c-0.1,0-0.2,0-0.3,0s-0.1,0-0.1-0.1s0-0.1,0-0.1
			v-0.6c-0.2,0.3-0.5,0.5-0.8,0.6s-0.6,0.2-1,0.2c-0.3,0-0.6,0-0.8-0.1s-0.4-0.2-0.6-0.3c-0.2-0.1-0.3-0.3-0.4-0.5
			c-0.1-0.2-0.1-0.5-0.1-0.7c0-0.3,0.1-0.6,0.2-0.8s0.3-0.4,0.6-0.6c0.2-0.2,0.5-0.3,0.9-0.3c0.3-0.1,0.7-0.1,1.2-0.1h0.8v-0.4
			c0-0.2,0-0.4-0.1-0.6c0-0.2-0.1-0.3-0.2-0.4c-0.1-0.1-0.2-0.2-0.4-0.2s-0.4-0.1-0.6-0.1c-0.3,0-0.5,0-0.7,0.1s-0.4,0.1-0.5,0.2
			c-0.2,0.1-0.3,0.1-0.4,0.2c-0.1,0.1-0.2,0.1-0.2,0.1h-0.1c0,0,0,0-0.1-0.1v-0.1c0,0,0-0.1,0-0.2c0-0.1,0-0.2,0-0.2
			c0-0.1,0.1-0.1,0.1-0.2c0.1-0.1,0.2-0.1,0.3-0.2c0.1-0.1,0.3-0.1,0.5-0.2c0.2-0.1,0.4-0.1,0.6-0.1s0.4-0.1,0.6-0.1
			c0.4,0,0.7,0,1,0.1s0.5,0.2,0.7,0.4s0.3,0.4,0.4,0.7c0.1,0.3,0.1,0.6,0.1,0.9L159.3,187.4L159.3,187.4z M158.3,184.8h-0.9
			c-0.3,0-0.5,0-0.7,0.1c-0.2,0-0.4,0.1-0.5,0.2c-0.1,0.1-0.2,0.2-0.3,0.3s-0.1,0.3-0.1,0.5c0,0.3,0.1,0.5,0.3,0.7s0.4,0.3,0.8,0.3
			c0.3,0,0.5-0.1,0.7-0.2s0.5-0.3,0.7-0.6V184.8z"/>
		<path style="fill:#666666;" d="M165.4,187.4C165.4,187.4,165.4,187.5,165.4,187.4c0,0.1-0.1,0.1-0.1,0.1s-0.1,0-0.2,0
			c-0.1,0-0.2,0-0.3,0s-0.2,0-0.2,0c-0.1,0-0.1,0-0.2,0c0,0-0.1,0-0.1-0.1v-0.1V185h-0.6c-0.3,0-0.5,0-0.6,0.1
			c-0.1,0-0.3,0.1-0.4,0.2s-0.2,0.2-0.3,0.4s-0.2,0.3-0.3,0.6l-0.5,1.1c0,0.1,0,0.1-0.1,0.1l-0.1,0.1c0,0-0.1,0-0.2,0
			c-0.1,0-0.2,0-0.3,0s-0.1,0-0.2,0c-0.1,0-0.1,0-0.2,0h-0.1v-0.1v-0.1c0-0.1,0.1-0.2,0.1-0.3l0.4-1.1c0.1-0.3,0.3-0.5,0.4-0.7
			c0.2-0.2,0.4-0.3,0.6-0.4c-0.4-0.1-0.7-0.2-1-0.5c-0.2-0.2-0.4-0.6-0.4-1c0-0.3,0.1-0.5,0.2-0.7c0.1-0.2,0.3-0.4,0.5-0.6
			c0.2-0.2,0.5-0.3,0.8-0.3c0.3-0.1,0.7-0.1,1.1-0.1c0.1,0,0.2,0,0.3,0s0.3,0,0.4,0s0.3,0,0.4,0c0.1,0,0.2,0,0.3,0s0.2,0.1,0.3,0.1
			c0.1,0.1,0.1,0.2,0.1,0.3L165.4,187.4L165.4,187.4z M164.3,182.4c-0.1,0-0.3,0-0.5,0s-0.3,0-0.4,0c-0.3,0-0.5,0-0.7,0.1
			c-0.2,0-0.3,0.1-0.5,0.2s-0.2,0.2-0.2,0.3s-0.1,0.3-0.1,0.4c0,0.1,0,0.3,0.1,0.4c0.1,0.1,0.1,0.2,0.3,0.3c0.1,0.1,0.3,0.1,0.4,0.2
			c0.2,0,0.4,0.1,0.7,0.1h0.8L164.3,182.4L164.3,182.4z"/>
		<path style="fill:#666666;" d="M174.2,186.5c0,0.1,0,0.1,0,0.2c0,0.1,0,0.1,0,0.1v0.1c0,0,0,0.1-0.1,0.1c-0.1,0.1-0.1,0.1-0.3,0.2
			c-0.1,0.1-0.3,0.1-0.4,0.2c-0.2,0.1-0.3,0.1-0.5,0.1s-0.4,0.1-0.6,0.1c-0.4,0-0.8-0.1-1.1-0.2c-0.3-0.1-0.6-0.3-0.8-0.6
			s-0.4-0.6-0.5-0.9c-0.1-0.4-0.2-0.8-0.2-1.3c0-0.6,0.1-1,0.2-1.4c0.1-0.4,0.3-0.7,0.6-1c0.2-0.3,0.5-0.4,0.8-0.6
			c0.3-0.1,0.7-0.2,1-0.2c0.2,0,0.4,0,0.5,0c0.2,0,0.3,0.1,0.5,0.1c0.1,0.1,0.3,0.1,0.4,0.2c0.1,0.1,0.2,0.1,0.2,0.2
			c0.1,0,0.1,0.1,0.1,0.1v0.1v0.1c0,0,0,0.1,0,0.2c0,0.2,0,0.3-0.1,0.3s-0.1,0.1-0.1,0.1c-0.1,0-0.1,0-0.2-0.1
			c-0.1-0.1-0.2-0.1-0.3-0.2c-0.1-0.1-0.3-0.2-0.4-0.2s-0.4-0.1-0.6-0.1c-0.5,0-0.9,0.2-1.1,0.6c-0.3,0.4-0.4,0.9-0.4,1.6
			c0,0.4,0,0.7,0.1,0.9c0.1,0.3,0.2,0.5,0.3,0.7s0.3,0.3,0.5,0.4c0.2,0.1,0.4,0.1,0.7,0.1c0.2,0,0.4,0,0.6-0.1
			c0.2-0.1,0.3-0.2,0.5-0.2c0.1-0.1,0.2-0.2,0.3-0.2c0.1-0.1,0.2-0.1,0.2-0.1h0.1c0,0,0,0,0.1,0.1s0,0.1,0,0.2
			C174.2,186.4,174.2,186.5,174.2,186.5z"/>
		<path style="fill:#666666;" d="M180.3,184.4c0,0.2,0,0.3-0.1,0.3s-0.2,0.1-0.3,0.1h-3.7c0,0.3,0,0.6,0.1,0.8s0.2,0.5,0.3,0.6
			c0.1,0.2,0.3,0.3,0.6,0.4c0.2,0.1,0.5,0.1,0.9,0.1c0.3,0,0.5,0,0.7-0.1c0.2,0,0.4-0.1,0.5-0.1s0.3-0.1,0.4-0.1
			c0.1,0,0.2-0.1,0.2-0.1h0.1c0,0,0,0,0.1,0.1v0.1c0,0,0,0.1,0,0.2c0,0.1,0,0.1,0,0.1v0.1v0.1c0,0,0,0-0.1,0.1c0,0-0.1,0.1-0.2,0.1
			s-0.3,0.1-0.4,0.2s-0.4,0.1-0.6,0.1c-0.2,0-0.5,0.1-0.7,0.1c-0.5,0-0.9-0.1-1.2-0.2c-0.3-0.1-0.6-0.3-0.9-0.6
			c-0.2-0.3-0.4-0.6-0.5-1s-0.2-0.8-0.2-1.3s0.1-0.9,0.2-1.3c0.1-0.4,0.3-0.7,0.5-1s0.5-0.5,0.8-0.6s0.7-0.2,1.1-0.2
			c0.4,0,0.8,0.1,1.1,0.2c0.3,0.1,0.6,0.3,0.8,0.6c0.2,0.2,0.3,0.5,0.4,0.8c0.1,0.3,0.1,0.7,0.1,1L180.3,184.4L180.3,184.4z
			 M179.3,184.1c0-0.5-0.1-1-0.4-1.3c-0.3-0.3-0.6-0.5-1.1-0.5c-0.3,0-0.5,0-0.7,0.1s-0.4,0.2-0.5,0.4s-0.2,0.3-0.3,0.5
			s-0.1,0.4-0.1,0.7L179.3,184.1L179.3,184.1z"/>
		<path style="fill:#666666;" d="M187,184.5c0,0.5-0.1,0.9-0.2,1.3c-0.1,0.4-0.3,0.7-0.5,1s-0.5,0.5-0.8,0.6s-0.6,0.2-1,0.2
			c-0.2,0-0.3,0-0.5,0c-0.1,0-0.3-0.1-0.4-0.2c-0.1-0.1-0.3-0.2-0.4-0.3c-0.1-0.1-0.3-0.2-0.4-0.4v2.8v0.1c0,0,0,0-0.1,0.1
			c0,0-0.1,0-0.2,0c-0.1,0-0.2,0-0.3,0s-0.2,0-0.2,0c-0.1,0-0.1,0-0.2,0c0,0-0.1,0-0.1-0.1v-0.1v-7.8v-0.1c0,0,0,0,0.1-0.1h0.1
			c0.1,0,0.1,0,0.2,0c0.1,0,0.2,0,0.2,0c0.1,0,0.1,0,0.1,0s0.1,0,0.1,0.1v0.1v0.8c0.2-0.2,0.3-0.3,0.5-0.5c0.2-0.1,0.3-0.2,0.5-0.3
			s0.3-0.1,0.5-0.2c0.2,0,0.3-0.1,0.5-0.1c0.4,0,0.8,0.1,1,0.2c0.3,0.2,0.5,0.4,0.7,0.6c0.2,0.3,0.3,0.6,0.4,1
			C187,183.7,187,184.1,187,184.5z M185.9,184.6c0-0.3,0-0.6-0.1-0.8c0-0.3-0.1-0.5-0.2-0.7s-0.2-0.4-0.4-0.5s-0.4-0.2-0.7-0.2
			c-0.1,0-0.3,0-0.4,0.1c-0.1,0-0.3,0.1-0.4,0.2c-0.1,0.1-0.3,0.2-0.4,0.3c-0.1,0.1-0.3,0.3-0.5,0.5v2.2c0.3,0.3,0.6,0.6,0.8,0.8
			c0.3,0.2,0.5,0.3,0.8,0.3s0.5-0.1,0.7-0.2c0.2-0.1,0.3-0.3,0.4-0.5c0.1-0.2,0.2-0.4,0.3-0.7C185.9,185.1,185.9,184.9,185.9,184.6z
			"/>
		<path style="fill:#666666;" d="M193.1,185.8c0,0.3-0.1,0.6-0.2,0.8c-0.1,0.2-0.3,0.4-0.5,0.6c-0.2,0.2-0.5,0.3-0.8,0.4
			c-0.3,0.1-0.7,0.1-1.1,0.1c-0.1,0-0.3,0-0.4,0c-0.1,0-0.3,0-0.4,0c-0.1,0-0.2,0-0.4,0c-0.1,0-0.2,0-0.4,0s-0.3-0.1-0.4-0.2
			c-0.1-0.1-0.1-0.2-0.1-0.4v-4.8c0-0.2,0-0.3,0.1-0.4c0.1-0.1,0.2-0.1,0.4-0.2c0.1,0,0.2,0,0.3,0s0.2,0,0.4,0c0.1,0,0.3,0,0.4,0
			c0.1,0,0.3,0,0.4,0c0.4,0,0.8,0,1,0.1c0.3,0.1,0.5,0.2,0.7,0.3s0.3,0.3,0.4,0.5s0.1,0.4,0.1,0.6c0,0.3-0.1,0.6-0.3,0.8
			s-0.4,0.4-0.7,0.5c0.4,0.1,0.7,0.3,0.9,0.5C193,185.1,193.1,185.4,193.1,185.8z M191.9,183.2c0-0.1,0-0.3-0.1-0.4
			c-0.1-0.1-0.1-0.2-0.2-0.3c-0.1-0.1-0.3-0.1-0.4-0.2s-0.4-0.1-0.7-0.1c-0.2,0-0.4,0-0.5,0c-0.2,0-0.3,0-0.4,0v1.7h1
			c0.4,0,0.8-0.1,1-0.2C191.8,183.7,191.9,183.5,191.9,183.2z M192.1,185.8c0-0.2,0-0.3-0.1-0.4s-0.1-0.2-0.3-0.3
			c-0.1-0.1-0.3-0.1-0.5-0.2c-0.2,0-0.4-0.1-0.7-0.1h-1v2c0.1,0,0.2,0,0.2,0c0.1,0,0.2,0,0.3,0s0.2,0,0.3,0s0.2,0,0.2,0
			c0.3,0,0.5,0,0.7-0.1c0.2,0,0.3-0.1,0.5-0.2s0.2-0.2,0.3-0.3C192.1,186.1,192.1,186,192.1,185.8z"/>
		<path style="fill:#666666;" d="M199.4,184.4c0,0.2,0,0.3-0.1,0.3c-0.1,0.1-0.2,0.1-0.3,0.1h-3.7c0,0.3,0,0.6,0.1,0.8
			s0.2,0.5,0.3,0.6c0.1,0.2,0.3,0.3,0.6,0.4c0.2,0.1,0.5,0.1,0.9,0.1c0.3,0,0.5,0,0.7-0.1c0.2,0,0.4-0.1,0.5-0.1s0.3-0.1,0.4-0.1
			c0.1,0,0.2-0.1,0.2-0.1h0.1c0,0,0,0,0.1,0.1v0.1c0,0,0,0.1,0,0.2c0,0.1,0,0.1,0,0.1v0.1v0.1c0,0,0,0-0.1,0.1c0,0-0.1,0.1-0.2,0.1
			s-0.3,0.1-0.4,0.2s-0.4,0.1-0.6,0.1c-0.2,0-0.5,0.1-0.7,0.1c-0.5,0-0.9-0.1-1.2-0.2c-0.3-0.1-0.6-0.3-0.9-0.6
			c-0.2-0.3-0.4-0.6-0.5-1s-0.2-0.8-0.2-1.3s0.1-0.9,0.2-1.3c0.1-0.4,0.3-0.7,0.5-1s0.5-0.5,0.8-0.6s0.7-0.2,1.1-0.2
			c0.4,0,0.8,0.1,1.1,0.2c0.3,0.1,0.6,0.3,0.8,0.6c0.2,0.2,0.3,0.5,0.4,0.8c0.1,0.3,0.1,0.7,0.1,1L199.4,184.4L199.4,184.4z
			 M198.4,184.1c0-0.5-0.1-1-0.4-1.3c-0.3-0.3-0.6-0.5-1.1-0.5c-0.3,0-0.5,0-0.7,0.1s-0.4,0.2-0.5,0.4s-0.2,0.3-0.3,0.5
			s-0.1,0.4-0.1,0.7L198.4,184.1L198.4,184.1z"/>
		<path style="fill:#666666;" d="M206.1,184.5c0,0.5-0.1,0.9-0.2,1.3c-0.1,0.4-0.3,0.7-0.5,1s-0.5,0.5-0.8,0.6s-0.6,0.2-1,0.2
			c-0.2,0-0.3,0-0.5,0c-0.1,0-0.3-0.1-0.4-0.2c-0.1-0.1-0.3-0.2-0.4-0.3c-0.1-0.1-0.3-0.2-0.4-0.4v2.8v0.1c0,0,0,0-0.1,0.1
			c0,0-0.1,0-0.2,0c-0.1,0-0.2,0-0.3,0s-0.2,0-0.2,0c-0.1,0-0.1,0-0.2,0c0,0-0.1,0-0.1-0.1v-0.1v-7.8v-0.1c0,0,0,0,0.1-0.1h0.1
			c0.1,0,0.1,0,0.2,0c0.1,0,0.2,0,0.2,0c0.1,0,0.1,0,0.1,0s0.1,0,0.1,0.1v0.1v0.8c0.2-0.2,0.3-0.3,0.5-0.5c0.2-0.1,0.3-0.2,0.5-0.3
			s0.3-0.1,0.5-0.2c0.2,0,0.3-0.1,0.5-0.1c0.4,0,0.8,0.1,1,0.2c0.3,0.2,0.5,0.4,0.7,0.6c0.2,0.3,0.3,0.6,0.4,1
			C206.1,183.7,206.1,184.1,206.1,184.5z M205.1,184.6c0-0.3,0-0.6-0.1-0.8c0-0.3-0.1-0.5-0.2-0.7c-0.1-0.2-0.2-0.4-0.4-0.5
			s-0.4-0.2-0.7-0.2c-0.1,0-0.3,0-0.4,0.1c-0.1,0-0.3,0.1-0.4,0.2c-0.1,0.1-0.3,0.2-0.4,0.3c-0.1,0.1-0.3,0.3-0.5,0.5v2.2
			c0.3,0.3,0.6,0.6,0.8,0.8c0.3,0.2,0.5,0.3,0.8,0.3s0.5-0.1,0.7-0.2c0.2-0.1,0.3-0.3,0.5-0.5c0.1-0.2,0.2-0.4,0.3-0.7
			C205,185.1,205.1,184.9,205.1,184.6z"/>
		<path style="fill:#666666;" d="M212.6,187.4C212.6,187.4,212.6,187.5,212.6,187.4c0,0.1-0.1,0.1-0.1,0.1s-0.1,0-0.2,0
			c-0.1,0-0.1,0-0.2,0c-0.1,0-0.2,0-0.3,0s-0.1,0-0.2,0c0,0-0.1,0-0.1-0.1v-0.1v-2.5h-2.9v2.5v0.1c0,0,0,0-0.1,0.1s-0.1,0-0.2,0
			c-0.1,0-0.2,0-0.3,0s-0.2,0-0.2,0c-0.1,0-0.1,0-0.2,0c0,0-0.1,0-0.1-0.1v-0.1v-5.6v-0.1c0,0,0,0,0.1-0.1c0,0,0.1,0,0.2,0
			c0.1,0,0.1,0,0.2,0c0.1,0,0.2,0,0.3,0s0.1,0,0.2,0c0,0,0.1,0,0.1,0.1s0,0.1,0,0.1v2.3h2.9v-2.3v-0.1c0,0,0,0,0.1-0.1
			c0,0,0.1,0,0.2,0c0.1,0,0.2,0,0.3,0s0.2,0,0.2,0c0.1,0,0.1,0,0.2,0c0,0,0.1,0,0.1,0.1s0,0.1,0,0.1V187.4z"/>
		<path style="fill:#666666;" d="M218.7,187.4v0.1c0,0-0.1,0-0.1,0.1c-0.1,0-0.1,0-0.3,0c-0.1,0-0.2,0-0.3,0s-0.1,0-0.1-0.1v-0.1
			v-0.6c-0.2,0.3-0.5,0.5-0.8,0.6s-0.6,0.2-1,0.2c-0.3,0-0.6,0-0.8-0.1s-0.4-0.2-0.6-0.3c-0.2-0.1-0.3-0.3-0.4-0.5
			c-0.1-0.2-0.1-0.5-0.1-0.7c0-0.3,0.1-0.6,0.2-0.8s0.3-0.4,0.6-0.6c0.2-0.2,0.5-0.3,0.9-0.3c0.3-0.1,0.7-0.1,1.2-0.1h0.8v-0.4
			c0-0.2,0-0.4-0.1-0.6c0-0.2-0.1-0.3-0.2-0.4c-0.1-0.1-0.2-0.2-0.4-0.2s-0.4-0.1-0.6-0.1c-0.3,0-0.5,0-0.7,0.1s-0.4,0.1-0.5,0.2
			c-0.2,0.1-0.3,0.1-0.4,0.2c-0.1,0.1-0.2,0.1-0.2,0.1h-0.1c0,0,0,0-0.1-0.1v-0.1c0,0,0-0.1,0-0.2c0-0.1,0-0.2,0-0.2
			c0-0.1,0-0.1,0.1-0.2c0.1-0.1,0.2-0.1,0.3-0.2c0.1-0.1,0.3-0.1,0.5-0.2c0.2-0.1,0.4-0.1,0.6-0.1c0.2,0,0.4-0.1,0.6-0.1
			c0.4,0,0.7,0,1,0.1s0.5,0.2,0.7,0.4s0.3,0.4,0.4,0.7c0.1,0.3,0.1,0.6,0.1,0.9L218.7,187.4L218.7,187.4z M217.7,184.8h-0.9
			c-0.3,0-0.5,0-0.7,0.1c-0.2,0-0.4,0.1-0.5,0.2c-0.1,0.1-0.2,0.2-0.3,0.3s-0.1,0.3-0.1,0.5c0,0.3,0.1,0.5,0.3,0.7s0.4,0.3,0.8,0.3
			c0.3,0,0.5-0.1,0.7-0.2s0.5-0.3,0.7-0.6V184.8L217.7,184.8z"/>
		<path style="fill:#666666;" d="M224.7,187.4C224.7,187.4,224.7,187.5,224.7,187.4c0,0.1-0.1,0.1-0.1,0.1s-0.1,0-0.2,0
			c-0.1,0-0.2,0-0.3,0s-0.2,0-0.2,0c-0.1,0-0.1,0-0.2,0s-0.1,0-0.1-0.1v-0.1V185H223c-0.3,0-0.5,0-0.6,0.1c-0.1,0-0.3,0.1-0.4,0.2
			s-0.2,0.2-0.3,0.4s-0.2,0.3-0.3,0.6l-0.5,1.1c0,0.1,0,0.1-0.1,0.1s-0.1,0.1-0.1,0.1s-0.1,0-0.2,0c-0.1,0-0.2,0-0.3,0s-0.1,0-0.2,0
			c-0.1,0-0.1,0-0.2,0h-0.1v-0.1v-0.1c0-0.1,0.1-0.2,0.1-0.3l0.4-1.1c0.1-0.3,0.3-0.5,0.4-0.7c0.2-0.2,0.4-0.3,0.6-0.4
			c-0.4-0.1-0.7-0.2-1-0.5c-0.2-0.2-0.4-0.6-0.4-1c0-0.3,0.1-0.5,0.2-0.7s0.3-0.4,0.5-0.6c0.2-0.2,0.5-0.3,0.8-0.3
			c0.3-0.1,0.7-0.1,1.1-0.1c0.1,0,0.2,0,0.3,0s0.3,0,0.4,0c0.1,0,0.3,0,0.4,0c0.1,0,0.2,0,0.3,0s0.2,0.1,0.3,0.1
			c0.1,0.1,0.1,0.2,0.1,0.3v5.3L224.7,187.4L224.7,187.4z M223.7,182.4c-0.1,0-0.3,0-0.5,0s-0.3,0-0.4,0c-0.3,0-0.5,0-0.7,0.1
			c-0.2,0-0.3,0.1-0.5,0.2s-0.2,0.2-0.2,0.3s-0.1,0.3-0.1,0.4c0,0.1,0,0.3,0.1,0.4c0.1,0.1,0.1,0.2,0.3,0.3c0.1,0.1,0.3,0.1,0.4,0.2
			c0.2,0,0.4,0.1,0.7,0.1h0.8L223.7,182.4L223.7,182.4z"/>
	</g>
	<g style="enable-background:new    ;">
		<path style="fill:#666666;" d="M167.9,249.5c0,0.4-0.1,0.7-0.2,1c-0.1,0.3-0.3,0.5-0.6,0.8c-0.2,0.2-0.5,0.4-0.9,0.5
			s-0.7,0.2-1.2,0.2c-0.3,0-0.5,0-0.8-0.1c-0.2,0-0.4-0.1-0.6-0.2c-0.2-0.1-0.3-0.1-0.5-0.2c-0.1-0.1-0.2-0.1-0.2-0.1l-0.1-0.1v-0.1
			c0,0,0-0.1,0-0.2c0-0.1,0-0.1,0-0.2c0-0.1,0-0.3,0-0.3c0-0.1,0.1-0.1,0.1-0.1s0.1,0,0.2,0.1s0.3,0.1,0.4,0.2
			c0.2,0.1,0.4,0.1,0.6,0.2s0.5,0.1,0.8,0.1s0.5,0,0.7-0.1s0.4-0.2,0.5-0.3s0.3-0.3,0.3-0.5c0.1-0.2,0.1-0.4,0.1-0.6
			c0-0.2,0-0.4-0.1-0.6s-0.2-0.3-0.4-0.5c-0.2-0.1-0.4-0.2-0.7-0.3s-0.6-0.1-0.9-0.1H164h-0.1c0,0-0.1,0-0.1-0.1c0,0,0-0.1-0.1-0.1
			c0-0.1,0-0.1,0-0.2c0-0.1,0-0.1,0-0.2c0-0.1,0-0.1,0.1-0.1c0,0,0-0.1,0.1-0.1h0.1h0.7c0.3,0,0.5,0,0.7-0.1s0.4-0.2,0.6-0.3
			s0.3-0.3,0.3-0.5c0.1-0.2,0.1-0.4,0.1-0.6c0-0.2,0-0.3-0.1-0.5s-0.1-0.3-0.2-0.4c-0.1-0.1-0.2-0.2-0.4-0.3s-0.4-0.1-0.6-0.1
			c-0.2,0-0.5,0-0.7,0.1s-0.4,0.1-0.5,0.2c-0.2,0.1-0.3,0.2-0.4,0.2c-0.1,0.1-0.2,0.1-0.2,0.1h-0.1c0,0,0,0-0.1-0.1s0-0.1,0-0.1
			c0-0.1,0-0.1,0-0.2c0-0.1,0-0.1,0-0.2v-0.1v-0.1c0,0,0-0.1,0.1-0.1c0,0,0.1-0.1,0.2-0.2c0.1-0.1,0.3-0.1,0.4-0.2s0.4-0.1,0.6-0.2
			c0.2,0,0.5-0.1,0.7-0.1c0.4,0,0.7,0,1,0.1s0.5,0.2,0.7,0.4s0.3,0.4,0.4,0.6c0.1,0.2,0.1,0.5,0.1,0.8s0,0.5-0.1,0.7
			s-0.2,0.4-0.3,0.6c-0.1,0.2-0.3,0.3-0.5,0.4c-0.2,0.1-0.4,0.2-0.6,0.2l0,0c0.3,0,0.5,0.1,0.8,0.2c0.2,0.1,0.4,0.2,0.6,0.4
			c0.2,0.2,0.3,0.4,0.4,0.6C167.9,249,167.9,249.3,167.9,249.5z"/>
		<path style="fill:#666666;" d="M172.2,248.7c0,0.2,0,0.3-0.1,0.3s-0.1,0.1-0.2,0.1h-2.6c-0.1,0-0.1,0-0.2-0.1
			c0-0.1-0.1-0.2-0.1-0.3c0-0.2,0-0.3,0.1-0.3c0-0.1,0.1-0.1,0.2-0.1h2.6h0.1c0,0,0.1,0,0.1,0.1v0.1
			C172.1,248.5,172.2,248.6,172.2,248.7z"/>
		<path style="fill:#666666;" d="M177.7,251.7v0.1c0,0-0.1,0-0.1,0.1s-0.1,0-0.3,0c-0.1,0-0.2,0-0.3,0s-0.1,0-0.1-0.1s0-0.1,0-0.1
			v-0.6c-0.2,0.3-0.5,0.5-0.8,0.6s-0.6,0.2-1,0.2c-0.3,0-0.6,0-0.8-0.1s-0.4-0.2-0.6-0.3c-0.2-0.1-0.3-0.3-0.4-0.5
			c-0.1-0.2-0.1-0.5-0.1-0.7c0-0.3,0.1-0.6,0.2-0.8c0.1-0.2,0.3-0.4,0.6-0.6c0.2-0.2,0.5-0.3,0.9-0.3c0.3-0.1,0.7-0.1,1.2-0.1h0.8
			v-0.4c0-0.2,0-0.4-0.1-0.6c0-0.2-0.1-0.3-0.2-0.4c-0.1-0.1-0.2-0.2-0.4-0.2c-0.2-0.1-0.4-0.1-0.6-0.1c-0.3,0-0.5,0-0.7,0.1
			s-0.4,0.1-0.5,0.2c-0.2,0.1-0.3,0.1-0.4,0.2c-0.1,0.1-0.2,0.1-0.2,0.1h-0.1c0,0,0,0-0.1-0.1v-0.1c0-0.1,0-0.1,0-0.2
			c0-0.1,0-0.2,0-0.2c0-0.1,0.1-0.1,0.1-0.2s0.2-0.1,0.3-0.2c0.1-0.1,0.3-0.1,0.5-0.2s0.4-0.1,0.6-0.1c0.2,0,0.4-0.1,0.6-0.1
			c0.4,0,0.7,0,1,0.1s0.5,0.2,0.7,0.4s0.3,0.4,0.4,0.7c0.1,0.3,0.1,0.6,0.1,0.9L177.7,251.7L177.7,251.7z M176.7,249.1h-0.9
			c-0.3,0-0.5,0-0.7,0.1c-0.2,0-0.4,0.1-0.5,0.2c-0.1,0.1-0.2,0.2-0.3,0.3s-0.1,0.3-0.1,0.5c0,0.3,0.1,0.5,0.3,0.7s0.4,0.3,0.8,0.3
			c0.3,0,0.5-0.1,0.7-0.2s0.5-0.3,0.7-0.6V249.1L176.7,249.1z"/>
		<path style="fill:#666666;" d="M183.8,251.7L183.8,251.7c0,0.1-0.1,0.1-0.1,0.1s-0.1,0-0.2,0c-0.1,0-0.2,0-0.3,0s-0.2,0-0.2,0
			c-0.1,0-0.1,0-0.2,0s-0.1,0-0.1-0.1v-0.1v-2.4h-0.6c-0.3,0-0.5,0-0.6,0.1c-0.1,0-0.3,0.1-0.4,0.2s-0.2,0.2-0.3,0.4
			s-0.2,0.3-0.3,0.6l-0.5,1.1c0,0.1,0,0.1-0.1,0.1s-0.1,0.1-0.1,0.1s-0.1,0-0.2,0c-0.1,0-0.2,0-0.3,0s-0.1,0-0.2,0
			c-0.1,0-0.1,0-0.2,0h-0.1v-0.1v-0.1c0-0.1,0.1-0.2,0.1-0.3l0.4-1.1c0.1-0.3,0.3-0.5,0.4-0.7c0.2-0.2,0.4-0.3,0.6-0.4
			c-0.4-0.1-0.7-0.2-1-0.5c-0.2-0.2-0.4-0.6-0.4-1c0-0.3,0.1-0.5,0.2-0.7c0.1-0.2,0.3-0.4,0.5-0.6c0.2-0.2,0.5-0.3,0.8-0.3
			c0.3-0.1,0.7-0.1,1.1-0.1c0.1,0,0.2,0,0.3,0s0.3,0,0.4,0c0.1,0,0.3,0,0.4,0c0.1,0,0.2,0,0.3,0s0.2,0.1,0.3,0.1s0.1,0.2,0.1,0.3
			L183.8,251.7L183.8,251.7z M182.7,246.7c-0.1,0-0.3,0-0.5,0s-0.3,0-0.4,0c-0.3,0-0.5,0-0.7,0.1c-0.2,0-0.3,0.1-0.5,0.2
			s-0.2,0.2-0.2,0.3s-0.1,0.3-0.1,0.4c0,0.1,0,0.3,0.1,0.4s0.1,0.2,0.3,0.3c0.1,0.1,0.3,0.1,0.4,0.2c0.2,0,0.4,0.1,0.7,0.1h0.8
			L182.7,246.7L182.7,246.7z"/>
		<path style="fill:#666666;" d="M192.6,250.8c0,0.1,0,0.1,0,0.2c0,0.1,0,0.1,0,0.1v0.1c0,0,0,0.1-0.1,0.1c-0.1,0.1-0.1,0.1-0.3,0.2
			c-0.1,0.1-0.3,0.1-0.4,0.2c-0.2,0.1-0.3,0.1-0.5,0.1s-0.4,0.1-0.6,0.1c-0.4,0-0.8-0.1-1.1-0.2c-0.3-0.1-0.6-0.3-0.8-0.6
			s-0.4-0.6-0.5-0.9c-0.1-0.4-0.2-0.8-0.2-1.3c0-0.6,0.1-1,0.2-1.4s0.3-0.7,0.6-1c0.2-0.3,0.5-0.4,0.8-0.6c0.3-0.1,0.7-0.2,1-0.2
			c0.2,0,0.4,0,0.5,0c0.2,0,0.3,0.1,0.5,0.1c0.1,0.1,0.3,0.1,0.4,0.2c0.1,0.1,0.2,0.1,0.2,0.2s0.1,0.1,0.1,0.1v0.1v0.1
			c0,0,0,0.1,0,0.2c0,0.2,0,0.3-0.1,0.3c0,0.1-0.1,0.1-0.1,0.1c-0.1,0-0.1,0-0.2-0.1c-0.1-0.1-0.2-0.1-0.3-0.2
			c-0.1-0.1-0.3-0.2-0.4-0.2c-0.2-0.1-0.4-0.1-0.6-0.1c-0.5,0-0.9,0.2-1.1,0.6c-0.3,0.4-0.4,0.9-0.4,1.7c0,0.4,0,0.7,0.1,0.9
			c0.1,0.3,0.2,0.5,0.3,0.7s0.3,0.3,0.5,0.4c0.2,0.1,0.4,0.1,0.7,0.1c0.2,0,0.4,0,0.6-0.1c0.2-0.1,0.3-0.2,0.5-0.2
			c0.1-0.1,0.2-0.2,0.3-0.2c0.1-0.1,0.2-0.1,0.2-0.1h0.1c0,0,0,0,0.1,0.1s0,0.1,0,0.1C192.6,250.6,192.6,250.7,192.6,250.8z"/>
		<path style="fill:#666666;" d="M198.7,248.6c0,0.2,0,0.3-0.1,0.3c-0.1,0.1-0.2,0.1-0.3,0.1h-3.7c0,0.3,0,0.6,0.1,0.8
			s0.2,0.5,0.3,0.6c0.1,0.2,0.3,0.3,0.6,0.4c0.2,0.1,0.5,0.1,0.9,0.1c0.3,0,0.5,0,0.7-0.1c0.2,0,0.4-0.1,0.5-0.1s0.3-0.1,0.4-0.1
			c0.1,0,0.2-0.1,0.2-0.1h0.1c0,0,0,0,0.1,0.1v0.1c0,0,0,0.1,0,0.2c0,0.1,0,0.1,0,0.1v0.1v0.1c0,0,0,0-0.1,0.1c0,0-0.1,0.1-0.2,0.1
			c-0.1,0.1-0.3,0.1-0.4,0.2c-0.2,0-0.4,0.1-0.6,0.1c-0.2,0-0.5,0.1-0.7,0.1c-0.5,0-0.9-0.1-1.2-0.2c-0.3-0.1-0.6-0.3-0.9-0.6
			c-0.2-0.3-0.4-0.6-0.5-1s-0.2-0.8-0.2-1.3s0.1-0.9,0.2-1.3c0.1-0.4,0.3-0.7,0.5-1s0.5-0.5,0.8-0.6s0.7-0.2,1.1-0.2
			c0.4,0,0.8,0.1,1.1,0.2c0.3,0.1,0.6,0.3,0.8,0.6c0.2,0.2,0.3,0.5,0.4,0.8s0.1,0.7,0.1,1L198.7,248.6L198.7,248.6z M197.7,248.3
			c0-0.5-0.1-1-0.4-1.3c-0.3-0.3-0.6-0.5-1.1-0.5c-0.3,0-0.5,0-0.7,0.1s-0.4,0.2-0.5,0.4s-0.2,0.3-0.3,0.5s-0.1,0.4-0.1,0.7h3.1
			V248.3z"/>
		<path style="fill:#666666;" d="M205.4,248.8c0,0.5-0.1,0.9-0.2,1.3c-0.1,0.4-0.3,0.7-0.5,1s-0.5,0.5-0.8,0.6s-0.6,0.2-1,0.2
			c-0.2,0-0.3,0-0.5,0c-0.1,0-0.3-0.1-0.4-0.2c-0.1-0.1-0.3-0.2-0.4-0.3c-0.1-0.1-0.3-0.2-0.4-0.4v2.8v0.1c0,0,0,0-0.1,0.1
			s-0.1,0-0.2,0c-0.1,0-0.2,0-0.3,0s-0.2,0-0.2,0c-0.1,0-0.1,0-0.2,0c0,0-0.1,0-0.1-0.1s0-0.1,0-0.1V246v-0.1c0,0,0,0,0.1-0.1h0.1
			c0,0,0.1,0,0.2,0c0.1,0,0.2,0,0.2,0h0.1c0,0,0.1,0,0.1,0.1s0,0.1,0,0.1v0.8c0.2-0.2,0.3-0.3,0.5-0.5c0.2-0.1,0.3-0.2,0.5-0.3
			s0.3-0.1,0.5-0.2c0.2,0,0.3-0.1,0.5-0.1c0.4,0,0.8,0.1,1,0.2c0.3,0.2,0.5,0.4,0.7,0.6s0.3,0.6,0.4,1
			C205.4,248,205.4,248.4,205.4,248.8z M204.3,248.9c0-0.3,0-0.6-0.1-0.8c0-0.3-0.1-0.5-0.2-0.7c-0.1-0.2-0.2-0.4-0.4-0.5
			s-0.4-0.2-0.7-0.2c-0.1,0-0.3,0-0.4,0.1c-0.1,0-0.3,0.1-0.4,0.2c-0.1,0.1-0.3,0.2-0.4,0.3c-0.1,0.1-0.3,0.3-0.5,0.5v2.2
			c0.3,0.3,0.6,0.6,0.8,0.8c0.3,0.2,0.5,0.3,0.8,0.3s0.5-0.1,0.7-0.2c0.2-0.1,0.3-0.3,0.5-0.5c0.1-0.2,0.2-0.4,0.3-0.7
			C204.3,249.4,204.3,249.1,204.3,248.9z"/>
		<path style="fill:#666666;" d="M211.5,250c0,0.3-0.1,0.6-0.2,0.8c-0.1,0.2-0.3,0.4-0.5,0.6c-0.2,0.2-0.5,0.3-0.8,0.4
			s-0.7,0.1-1.1,0.1c-0.1,0-0.3,0-0.4,0c-0.1,0-0.3,0-0.4,0c-0.1,0-0.2,0-0.4,0c-0.1,0-0.2,0-0.4,0s-0.3-0.1-0.4-0.2
			s-0.1-0.2-0.1-0.4v-4.8c0-0.2,0-0.3,0.1-0.4s0.2-0.1,0.4-0.2c0.1,0,0.2,0,0.3,0s0.2,0,0.4,0c0.1,0,0.3,0,0.4,0c0.1,0,0.3,0,0.4,0
			c0.4,0,0.8,0,1,0.1c0.3,0.1,0.5,0.2,0.7,0.3s0.3,0.3,0.4,0.5c0.1,0.2,0.1,0.4,0.1,0.6c0,0.3-0.1,0.6-0.3,0.8s-0.4,0.4-0.7,0.5
			c0.4,0.1,0.7,0.3,0.9,0.5C211.4,249.4,211.5,249.7,211.5,250z M210.3,247.4c0-0.1,0-0.3-0.1-0.4c0-0.1-0.1-0.2-0.2-0.3
			c-0.1-0.1-0.3-0.1-0.4-0.2c-0.2,0-0.4-0.1-0.7-0.1c-0.2,0-0.4,0-0.5,0c-0.2,0-0.3,0-0.4,0v1.7h1c0.4,0,0.8-0.1,1-0.2
			C210.2,248,210.3,247.7,210.3,247.4z M210.5,250.1c0-0.2,0-0.3-0.1-0.4s-0.1-0.2-0.3-0.3c-0.1-0.1-0.3-0.1-0.5-0.2
			c-0.2,0-0.4-0.1-0.7-0.1h-1v2c0.1,0,0.2,0,0.2,0c0.1,0,0.2,0,0.3,0s0.2,0,0.3,0s0.2,0,0.2,0c0.3,0,0.5,0,0.7-0.1
			c0.2,0,0.3-0.1,0.5-0.2s0.2-0.2,0.3-0.3S210.5,250.2,210.5,250.1z"/>
		<path style="fill:#666666;" d="M217.8,248.6c0,0.2,0,0.3-0.1,0.3c-0.1,0.1-0.2,0.1-0.3,0.1h-3.7c0,0.3,0,0.6,0.1,0.8
			s0.2,0.5,0.3,0.6c0.1,0.2,0.3,0.3,0.6,0.4s0.5,0.1,0.9,0.1c0.3,0,0.5,0,0.7-0.1c0.2,0,0.4-0.1,0.5-0.1s0.3-0.1,0.4-0.1
			c0.1,0,0.2-0.1,0.2-0.1h0.1c0,0,0,0,0.1,0.1v0.1c0,0,0,0.1,0,0.2c0,0.1,0,0.1,0,0.1v0.1v0.1c0,0,0,0-0.1,0.1c0,0-0.1,0.1-0.2,0.1
			c-0.1,0.1-0.3,0.1-0.4,0.2c-0.2,0-0.4,0.1-0.6,0.1c-0.2,0-0.5,0.1-0.7,0.1c-0.5,0-0.9-0.1-1.2-0.2c-0.3-0.1-0.6-0.3-0.9-0.6
			c-0.2-0.3-0.4-0.6-0.5-1s-0.2-0.8-0.2-1.3s0.1-0.9,0.2-1.3s0.3-0.7,0.5-1s0.5-0.5,0.8-0.6s0.7-0.2,1.1-0.2c0.4,0,0.8,0.1,1.1,0.2
			c0.3,0.1,0.6,0.3,0.8,0.6c0.2,0.2,0.3,0.5,0.4,0.8s0.1,0.7,0.1,1L217.8,248.6L217.8,248.6z M216.8,248.3c0-0.5-0.1-1-0.4-1.3
			c-0.3-0.3-0.6-0.5-1.1-0.5c-0.3,0-0.5,0-0.7,0.1s-0.4,0.2-0.5,0.4s-0.2,0.3-0.3,0.5s-0.1,0.4-0.1,0.7h3.1V248.3z"/>
		<path style="fill:#666666;" d="M224.5,248.8c0,0.5-0.1,0.9-0.2,1.3c-0.1,0.4-0.3,0.7-0.5,1s-0.5,0.5-0.8,0.6s-0.6,0.2-1,0.2
			c-0.2,0-0.3,0-0.5,0c-0.1,0-0.3-0.1-0.4-0.2c-0.1-0.1-0.3-0.2-0.4-0.3c-0.1-0.1-0.3-0.2-0.4-0.4v2.8v0.1c0,0,0,0-0.1,0.1
			s-0.1,0-0.2,0c-0.1,0-0.2,0-0.3,0s-0.2,0-0.2,0c-0.1,0-0.1,0-0.2,0c0,0-0.1,0-0.1-0.1v-0.1V246v-0.1c0,0,0,0,0.1-0.1h0.1
			c0,0,0.1,0,0.2,0c0.1,0,0.2,0,0.2,0h0.1c0,0,0.1,0,0.1,0.1s0,0.1,0,0.1v0.8c0.2-0.2,0.3-0.3,0.5-0.5c0.2-0.1,0.3-0.2,0.5-0.3
			s0.3-0.1,0.5-0.2c0.2,0,0.3-0.1,0.5-0.1c0.4,0,0.8,0.1,1,0.2c0.3,0.2,0.5,0.4,0.7,0.6s0.3,0.6,0.4,1
			C224.5,248,224.5,248.4,224.5,248.8z M223.5,248.9c0-0.3,0-0.6-0.1-0.8c0-0.3-0.1-0.5-0.2-0.7c-0.1-0.2-0.2-0.4-0.4-0.5
			s-0.4-0.2-0.7-0.2c-0.1,0-0.3,0-0.4,0.1c-0.1,0-0.3,0.1-0.4,0.2c-0.1,0.1-0.3,0.2-0.4,0.3s-0.3,0.3-0.5,0.5v2.2
			c0.3,0.3,0.6,0.6,0.8,0.8c0.3,0.2,0.5,0.3,0.8,0.3s0.5-0.1,0.7-0.2c0.2-0.1,0.3-0.3,0.5-0.5c0.1-0.2,0.2-0.4,0.3-0.7
			C223.4,249.4,223.5,249.1,223.5,248.9z"/>
		<path style="fill:#666666;" d="M231,251.7L231,251.7c0,0.1-0.1,0.1-0.1,0.1s-0.1,0-0.2,0c-0.1,0-0.1,0-0.2,0c-0.1,0-0.2,0-0.3,0
			s-0.1,0-0.2,0c0,0-0.1,0-0.1-0.1s0-0.1,0-0.1v-2.5H227v2.5v0.1c0,0,0,0-0.1,0.1c0,0-0.1,0-0.2,0c-0.1,0-0.2,0-0.3,0s-0.2,0-0.2,0
			c-0.1,0-0.1,0-0.2,0c0,0-0.1,0-0.1-0.1v-0.1V246v-0.1c0,0,0,0,0.1-0.1c0,0,0.1,0,0.2,0c0.1,0,0.1,0,0.2,0c0.1,0,0.2,0,0.3,0
			s0.1,0,0.2,0s0.1,0,0.1,0.1v0.1v2.3h2.9V246v-0.1c0,0,0,0,0.1-0.1s0.1,0,0.2,0c0.1,0,0.2,0,0.3,0s0.2,0,0.2,0c0.1,0,0.1,0,0.2,0
			c0,0,0.1,0,0.1,0.1v0.1V251.7z"/>
		<path style="fill:#666666;" d="M237.1,251.7v0.1c0,0-0.1,0-0.1,0.1c-0.1,0-0.1,0-0.3,0c-0.1,0-0.2,0-0.3,0s-0.1,0-0.1-0.1v-0.1
			v-0.6c-0.2,0.3-0.5,0.5-0.8,0.6s-0.6,0.2-1,0.2c-0.3,0-0.6,0-0.8-0.1s-0.4-0.2-0.6-0.3c-0.2-0.1-0.3-0.3-0.4-0.5
			c-0.1-0.2-0.1-0.5-0.1-0.7c0-0.3,0.1-0.6,0.2-0.8c0.1-0.2,0.3-0.4,0.6-0.6c0.2-0.2,0.5-0.3,0.9-0.3c0.3-0.1,0.7-0.1,1.2-0.1h0.8
			v-0.4c0-0.2,0-0.4-0.1-0.6c0-0.2-0.1-0.3-0.2-0.4c-0.1-0.1-0.2-0.2-0.4-0.2c-0.2-0.1-0.4-0.1-0.6-0.1c-0.3,0-0.5,0-0.7,0.1
			s-0.4,0.1-0.5,0.2c-0.2,0.1-0.3,0.1-0.4,0.2c-0.1,0.1-0.2,0.1-0.2,0.1h-0.1c0,0,0,0-0.1-0.1v-0.1c0,0,0-0.1,0-0.2
			c0-0.1,0-0.2,0-0.2c0-0.1,0-0.1,0.1-0.2s0.2-0.1,0.3-0.2s0.3-0.1,0.5-0.2c0.2-0.1,0.4-0.1,0.6-0.1c0.2,0,0.4-0.1,0.6-0.1
			c0.4,0,0.7,0,1,0.1s0.5,0.2,0.7,0.4s0.3,0.4,0.4,0.7c0.1,0.3,0.1,0.6,0.1,0.9L237.1,251.7L237.1,251.7z M236.1,249.1h-0.9
			c-0.3,0-0.5,0-0.7,0.1s-0.4,0.1-0.5,0.2c-0.1,0.1-0.2,0.2-0.3,0.3s-0.1,0.3-0.1,0.5c0,0.3,0.1,0.5,0.3,0.7s0.4,0.3,0.8,0.3
			c0.3,0,0.5-0.1,0.7-0.2c0.2-0.1,0.5-0.3,0.7-0.6V249.1L236.1,249.1z"/>
		<path style="fill:#666666;" d="M243.1,251.7L243.1,251.7c0,0.1-0.1,0.1-0.1,0.1s-0.1,0-0.2,0c-0.1,0-0.2,0-0.3,0s-0.2,0-0.2,0
			c-0.1,0-0.1,0-0.2,0s-0.1,0-0.1-0.1v-0.1v-2.4h-0.6c-0.3,0-0.5,0-0.6,0.1c-0.1,0-0.3,0.1-0.4,0.2s-0.2,0.2-0.3,0.4
			s-0.2,0.3-0.3,0.6l-0.5,1.1c0,0.1,0,0.1-0.1,0.1s-0.1,0.1-0.1,0.1s-0.1,0-0.2,0c-0.1,0-0.2,0-0.3,0s-0.1,0-0.2,0
			c-0.1,0-0.1,0-0.2,0h-0.1v-0.1v-0.1c0-0.1,0.1-0.2,0.1-0.3l0.4-1.1c0.1-0.3,0.3-0.5,0.4-0.7c0.2-0.2,0.4-0.3,0.6-0.4
			c-0.4-0.1-0.7-0.2-1-0.5c-0.2-0.2-0.4-0.6-0.4-1c0-0.3,0.1-0.5,0.2-0.7s0.3-0.4,0.5-0.6c0.2-0.2,0.5-0.3,0.8-0.3
			c0.3-0.1,0.7-0.1,1.1-0.1c0.1,0,0.2,0,0.3,0s0.3,0,0.4,0c0.1,0,0.3,0,0.4,0c0.1,0,0.2,0,0.3,0s0.2,0.1,0.3,0.1
			c0.1,0.1,0.1,0.2,0.1,0.3v5.4H243.1z M242.1,246.7c-0.1,0-0.3,0-0.5,0s-0.3,0-0.4,0c-0.3,0-0.5,0-0.7,0.1c-0.2,0-0.3,0.1-0.5,0.2
			s-0.2,0.2-0.2,0.3s-0.1,0.3-0.1,0.4c0,0.1,0,0.3,0.1,0.4s0.1,0.2,0.3,0.3c0.1,0.1,0.3,0.1,0.4,0.2c0.2,0,0.4,0.1,0.7,0.1h0.8
			L242.1,246.7L242.1,246.7z"/>
	</g>
	<g style="enable-background:new    ;">
		<path style="fill:#666666;" d="M354.2,256.3c0,0.4-0.1,0.8-0.2,1.1c-0.1,0.3-0.3,0.6-0.6,0.8c-0.3,0.2-0.6,0.4-0.9,0.5
			c-0.4,0.1-0.8,0.2-1.2,0.2c-0.2,0-0.5,0-0.7-0.1s-0.4-0.1-0.6-0.1c-0.2-0.1-0.3-0.1-0.4-0.2s-0.2-0.1-0.2-0.1l-0.1-0.1v-0.1v-0.1
			c0-0.1,0-0.1,0-0.2s0-0.1,0-0.2s0-0.1,0-0.1s0-0.1,0.1-0.1c0,0,0,0,0.1,0c0,0,0.1,0,0.2,0.1s0.2,0.1,0.4,0.2
			c0.1,0.1,0.3,0.1,0.5,0.2s0.5,0.1,0.8,0.1s0.5,0,0.8-0.1c0.2-0.1,0.4-0.2,0.6-0.3c0.2-0.1,0.3-0.3,0.4-0.5s0.1-0.5,0.1-0.8
			s0-0.5-0.1-0.7s-0.2-0.4-0.4-0.5c-0.2-0.1-0.4-0.2-0.6-0.3c-0.3-0.1-0.6-0.1-0.9-0.1s-0.5,0-0.7,0s-0.4,0-0.5,0s-0.2,0-0.2-0.1
			s-0.1-0.2-0.1-0.3v-3.3c0-0.1,0-0.2,0.1-0.3s0.2-0.1,0.3-0.1h3.6h0.1c0,0,0.1,0,0.1,0.1v0.1c0,0.1,0,0.1,0,0.2
			c0,0.1,0,0.3-0.1,0.3c0,0.1-0.1,0.1-0.2,0.1h-2.9v2.3c0.1,0,0.3,0,0.4,0s0.3,0,0.5,0c0.4,0,0.8,0.1,1.2,0.2
			c0.3,0.1,0.6,0.3,0.8,0.5c0.2,0.2,0.4,0.4,0.5,0.7C354.2,255.6,354.2,256,354.2,256.3z"/>
		<path style="fill:#666666;" d="M358.4,255.8c0,0.2,0,0.3-0.1,0.3c0,0.1-0.1,0.1-0.2,0.1h-2.6c-0.1,0-0.1,0-0.2-0.1
			c0-0.1-0.1-0.2-0.1-0.3c0-0.2,0-0.3,0.1-0.3c0-0.1,0.1-0.1,0.2-0.1h2.6h0.1c0,0,0,0,0.1,0.1v0.1
			C358.4,255.6,358.4,255.7,358.4,255.8z"/>
		<path style="fill:#666666;" d="M364,258.7v0.1c0,0-0.1,0-0.1,0.1c-0.1,0-0.1,0-0.3,0c-0.1,0-0.2,0-0.3,0c-0.1,0-0.1,0-0.1-0.1
			v-0.1v-0.6c-0.2,0.3-0.5,0.5-0.8,0.6s-0.6,0.2-1,0.2c-0.3,0-0.6,0-0.8-0.1c-0.2-0.1-0.4-0.2-0.6-0.3c-0.2-0.1-0.3-0.3-0.4-0.5
			s-0.1-0.5-0.1-0.7c0-0.3,0.1-0.6,0.2-0.8s0.3-0.4,0.6-0.6c0.2-0.2,0.5-0.3,0.9-0.3c0.3-0.1,0.7-0.1,1.2-0.1h0.8V255
			c0-0.2,0-0.4-0.1-0.6c0-0.2-0.1-0.3-0.2-0.4c-0.1-0.1-0.2-0.2-0.4-0.2c-0.2-0.1-0.4-0.1-0.6-0.1c-0.3,0-0.5,0-0.7,0.1
			s-0.4,0.1-0.5,0.2c-0.2,0.1-0.3,0.1-0.4,0.2s-0.2,0.1-0.2,0.1H360c0,0,0,0-0.1-0.1v-0.1c0-0.1,0-0.1,0-0.2c0-0.1,0-0.2,0-0.2
			c0-0.1,0-0.1,0.1-0.2c0.1-0.1,0.2-0.1,0.3-0.2c0.1-0.1,0.3-0.1,0.5-0.2c0.2-0.1,0.4-0.1,0.6-0.1s0.4-0.1,0.6-0.1
			c0.4,0,0.7,0,1,0.1s0.5,0.2,0.7,0.4s0.3,0.4,0.4,0.7s0.1,0.6,0.1,0.9L364,258.7L364,258.7z M363,256.2h-0.9c-0.3,0-0.5,0-0.7,0.1
			c-0.2,0-0.4,0.1-0.5,0.2s-0.2,0.2-0.3,0.3c-0.1,0.1-0.1,0.3-0.1,0.5c0,0.3,0.1,0.5,0.3,0.7c0.2,0.2,0.4,0.3,0.8,0.3
			c0.3,0,0.5-0.1,0.7-0.2s0.5-0.3,0.7-0.6V256.2L363,256.2z"/>
		<path style="fill:#666666;" d="M370.1,258.7C370.1,258.8,370,258.8,370.1,258.7c0,0.1-0.1,0.1-0.1,0.1s-0.1,0-0.2,0s-0.2,0-0.3,0
			c-0.1,0-0.2,0-0.2,0c-0.1,0-0.1,0-0.2,0c0,0-0.1,0-0.1-0.1v-0.1v-2.4h-0.6c-0.3,0-0.5,0-0.6,0.1c-0.1,0-0.3,0.1-0.4,0.2
			s-0.2,0.2-0.3,0.4c-0.1,0.2-0.2,0.3-0.3,0.6l-0.5,1.1c0,0.1,0,0.1-0.1,0.1l-0.1,0.1c0,0-0.1,0-0.2,0s-0.2,0-0.3,0
			c-0.1,0-0.1,0-0.2,0s-0.1,0-0.2,0h-0.1v-0.1v-0.1c0-0.1,0.1-0.2,0.1-0.3l0.4-1.1c0.1-0.3,0.3-0.5,0.4-0.7c0.2-0.2,0.4-0.3,0.6-0.4
			c-0.4-0.1-0.7-0.2-1-0.5c-0.2-0.2-0.4-0.6-0.4-1c0-0.3,0.1-0.5,0.2-0.7s0.3-0.4,0.5-0.6c0.2-0.2,0.5-0.3,0.8-0.3
			c0.3-0.1,0.7-0.1,1.1-0.1c0.1,0,0.2,0,0.3,0c0.1,0,0.3,0,0.4,0s0.3,0,0.4,0s0.2,0,0.3,0c0.1,0,0.2,0.1,0.3,0.1
			c0.1,0.1,0.1,0.2,0.1,0.3v5.4L370.1,258.7L370.1,258.7z M369,253.7c-0.1,0-0.3,0-0.5,0s-0.3,0-0.4,0c-0.3,0-0.5,0-0.7,0.1
			s-0.3,0.1-0.5,0.2c-0.1,0.1-0.2,0.2-0.2,0.3s-0.1,0.3-0.1,0.4c0,0.1,0,0.3,0.1,0.4c0.1,0.1,0.1,0.2,0.3,0.3
			c0.1,0.1,0.3,0.1,0.4,0.2c0.2,0,0.4,0.1,0.7,0.1h0.8L369,253.7L369,253.7z"/>
		<path style="fill:#666666;" d="M378.9,257.9c0,0.1,0,0.1,0,0.2s0,0.1,0,0.1v0.1c0,0,0,0.1-0.1,0.1s-0.1,0.1-0.3,0.2
			c-0.1,0.1-0.3,0.1-0.4,0.2c-0.2,0.1-0.3,0.1-0.5,0.1s-0.4,0.1-0.6,0.1c-0.4,0-0.8-0.1-1.1-0.2c-0.3-0.1-0.6-0.3-0.8-0.6
			c-0.2-0.3-0.4-0.6-0.5-0.9c-0.1-0.4-0.2-0.8-0.2-1.3c0-0.6,0.1-1,0.2-1.4s0.3-0.7,0.6-1c0.2-0.3,0.5-0.4,0.8-0.6
			c0.3-0.1,0.7-0.2,1-0.2c0.2,0,0.4,0,0.5,0c0.2,0,0.3,0.1,0.5,0.1s0.3,0.1,0.4,0.2c0.1,0.1,0.2,0.1,0.2,0.2c0,0.1,0.1,0.1,0.1,0.1
			v0.1v0.1c0,0,0,0.1,0,0.2c0,0.2,0,0.3-0.1,0.3c0,0.1-0.1,0.1-0.1,0.1c-0.1,0-0.1,0-0.2-0.1s-0.2-0.1-0.3-0.2
			c-0.1-0.1-0.3-0.2-0.5-0.2c-0.2-0.1-0.4-0.1-0.6-0.1c-0.5,0-0.9,0.2-1.1,0.6c-0.3,0.4-0.4,0.9-0.4,1.7c0,0.4,0,0.7,0.1,0.9
			c0.1,0.3,0.2,0.5,0.3,0.7c0.1,0.2,0.3,0.3,0.5,0.4s0.4,0.1,0.7,0.1c0.2,0,0.4,0,0.6-0.1s0.3-0.2,0.5-0.2c0.1-0.1,0.2-0.2,0.3-0.2
			s0.2-0.1,0.2-0.1h0.1c0,0,0,0,0.1,0.1v0.1C378.9,257.7,378.9,257.8,378.9,257.9z"/>
		<path style="fill:#666666;" d="M385,255.7c0,0.2,0,0.3-0.1,0.3c-0.1,0.1-0.2,0.1-0.3,0.1h-3.7c0,0.3,0,0.6,0.1,0.8
			c0.1,0.2,0.2,0.5,0.3,0.6c0.1,0.2,0.3,0.3,0.6,0.4c0.2,0.1,0.5,0.1,0.9,0.1c0.3,0,0.5,0,0.7-0.1c0.2,0,0.4-0.1,0.5-0.1
			c0.2-0.1,0.3-0.1,0.4-0.1s0.2-0.1,0.2-0.1h0.1c0,0,0,0,0.1,0.1v0.1c0,0.1,0,0.1,0,0.2s0,0.1,0,0.1v0.1v0.1c0,0,0,0-0.1,0.1
			c0,0-0.1,0.1-0.2,0.1c-0.1,0.1-0.3,0.1-0.4,0.2c-0.2,0-0.4,0.1-0.6,0.1s-0.5,0.1-0.7,0.1c-0.5,0-0.9-0.1-1.2-0.2
			c-0.3-0.1-0.6-0.3-0.9-0.6c-0.2-0.3-0.4-0.6-0.5-1s-0.2-0.8-0.2-1.3c0-0.5,0.1-0.9,0.2-1.3c0.1-0.4,0.3-0.7,0.5-1s0.5-0.5,0.8-0.6
			s0.7-0.2,1.1-0.2s0.8,0.1,1.1,0.2c0.3,0.1,0.6,0.3,0.8,0.6c0.2,0.2,0.3,0.5,0.4,0.8s0.1,0.7,0.1,1L385,255.7L385,255.7z
			 M384,255.4c0-0.5-0.1-1-0.4-1.3s-0.6-0.5-1.1-0.5c-0.3,0-0.5,0-0.7,0.1s-0.4,0.2-0.5,0.4s-0.2,0.3-0.3,0.5s-0.1,0.4-0.1,0.7
			L384,255.4L384,255.4z"/>
		<path style="fill:#666666;" d="M391.7,255.9c0,0.5-0.1,0.9-0.2,1.3s-0.3,0.7-0.5,1s-0.5,0.5-0.8,0.6s-0.6,0.2-1,0.2
			c-0.2,0-0.3,0-0.5,0s-0.3-0.1-0.4-0.2s-0.3-0.2-0.4-0.3c-0.1-0.1-0.3-0.2-0.4-0.4v2.8v0.1c0,0,0,0-0.1,0.1c0,0-0.1,0-0.2,0
			s-0.2,0-0.3,0c-0.1,0-0.2,0-0.2,0c-0.1,0-0.1,0-0.2,0c0,0-0.1,0-0.1-0.1v-0.1v-7.8V253c0,0,0,0,0.1-0.1s0.1,0,0.1,0
			c0.1,0,0.1,0,0.2,0s0.2,0,0.2,0c0.1,0,0.1,0,0.1,0s0.1,0,0.1,0.1v0.1v0.8c0.2-0.2,0.3-0.3,0.5-0.5c0.2-0.1,0.3-0.2,0.5-0.3
			s0.3-0.1,0.5-0.2c0.2,0,0.3-0.1,0.5-0.1c0.4,0,0.8,0.1,1,0.2c0.3,0.2,0.5,0.4,0.7,0.6c0.2,0.3,0.3,0.6,0.4,1
			C391.7,255.1,391.7,255.4,391.7,255.9z M390.6,256c0-0.3,0-0.6-0.1-0.8c0-0.3-0.1-0.5-0.2-0.7s-0.2-0.4-0.4-0.5
			c-0.2-0.1-0.4-0.2-0.7-0.2c-0.1,0-0.3,0-0.4,0.1c-0.1,0-0.3,0.1-0.4,0.2c-0.1,0.1-0.3,0.2-0.4,0.3s-0.3,0.3-0.5,0.5v2.2
			c0.3,0.3,0.6,0.6,0.8,0.8c0.3,0.2,0.5,0.3,0.8,0.3s0.5-0.1,0.7-0.2s0.3-0.3,0.5-0.5c0.1-0.2,0.2-0.4,0.3-0.7
			C390.6,256.5,390.6,256.2,390.6,256z"/>
		<path style="fill:#666666;" d="M397.8,257.1c0,0.3-0.1,0.6-0.2,0.8c-0.1,0.2-0.3,0.4-0.5,0.6s-0.5,0.3-0.8,0.4s-0.7,0.1-1.1,0.1
			c-0.1,0-0.3,0-0.4,0s-0.3,0-0.4,0s-0.2,0-0.4,0c-0.1,0-0.2,0-0.4,0c-0.2,0-0.3-0.1-0.4-0.2s-0.1-0.2-0.1-0.4v-4.8
			c0-0.2,0-0.3,0.1-0.4c0.1-0.1,0.2-0.1,0.4-0.2c0.1,0,0.2,0,0.3,0c0.1,0,0.2,0,0.4,0c0.1,0,0.3,0,0.4,0s0.3,0,0.4,0
			c0.4,0,0.8,0,1,0.1c0.3,0.1,0.5,0.2,0.7,0.3s0.3,0.3,0.4,0.5s0.1,0.4,0.1,0.6c0,0.3-0.1,0.6-0.3,0.8c-0.2,0.2-0.4,0.4-0.7,0.5
			c0.4,0.1,0.7,0.3,0.9,0.5C397.7,256.4,397.8,256.8,397.8,257.1z M396.6,254.5c0-0.1,0-0.3-0.1-0.4c0-0.1-0.1-0.2-0.2-0.3
			s-0.3-0.1-0.4-0.2c-0.2,0-0.4-0.1-0.7-0.1c-0.2,0-0.4,0-0.5,0c-0.2,0-0.3,0-0.4,0v1.7h1c0.4,0,0.8-0.1,1-0.2
			C396.5,255.1,396.6,254.8,396.6,254.5z M396.8,257.1c0-0.2,0-0.3-0.1-0.4s-0.1-0.2-0.3-0.3c-0.1-0.1-0.3-0.1-0.5-0.2
			c-0.2,0-0.4-0.1-0.7-0.1h-1v2c0.1,0,0.2,0,0.2,0c0.1,0,0.2,0,0.3,0c0.1,0,0.2,0,0.3,0c0.1,0,0.2,0,0.2,0c0.3,0,0.5,0,0.7-0.1
			s0.3-0.1,0.5-0.2c0.1-0.1,0.2-0.2,0.3-0.3C396.7,257.5,396.8,257.3,396.8,257.1z"/>
		<path style="fill:#666666;" d="M404.1,255.7c0,0.2,0,0.3-0.1,0.3c-0.1,0.1-0.2,0.1-0.3,0.1H400c0,0.3,0,0.6,0.1,0.8
			c0.1,0.2,0.2,0.5,0.3,0.6c0.1,0.2,0.3,0.3,0.6,0.4c0.2,0.1,0.5,0.1,0.9,0.1c0.3,0,0.5,0,0.7-0.1c0.2,0,0.4-0.1,0.5-0.1
			c0.2-0.1,0.3-0.1,0.4-0.1s0.2-0.1,0.2-0.1h0.1c0,0,0,0,0.1,0.1v0.1c0,0.1,0,0.1,0,0.2s0,0.1,0,0.1v0.1v0.1c0,0,0,0-0.1,0.1
			c0,0-0.1,0.1-0.2,0.1c-0.1,0.1-0.3,0.1-0.4,0.2c-0.2,0-0.4,0.1-0.6,0.1s-0.5,0.1-0.7,0.1c-0.5,0-0.9-0.1-1.2-0.2
			c-0.3-0.1-0.6-0.3-0.9-0.6c-0.2-0.3-0.4-0.6-0.5-1s-0.2-0.8-0.2-1.3c0-0.5,0.1-0.9,0.2-1.3c0.1-0.4,0.3-0.7,0.5-1s0.5-0.5,0.8-0.6
			s0.7-0.2,1.1-0.2s0.8,0.1,1.1,0.2c0.3,0.1,0.6,0.3,0.8,0.6c0.2,0.2,0.3,0.5,0.4,0.8s0.1,0.7,0.1,1L404.1,255.7L404.1,255.7z
			 M403.1,255.4c0-0.5-0.1-1-0.4-1.3s-0.6-0.5-1.1-0.5c-0.3,0-0.5,0-0.7,0.1s-0.4,0.2-0.5,0.4s-0.2,0.3-0.3,0.5
			c-0.1,0.2-0.1,0.4-0.1,0.7L403.1,255.4L403.1,255.4z"/>
		<path style="fill:#666666;" d="M410.8,255.9c0,0.5-0.1,0.9-0.2,1.3s-0.3,0.7-0.5,1s-0.5,0.5-0.8,0.6s-0.6,0.2-1,0.2
			c-0.2,0-0.3,0-0.5,0c-0.1,0-0.3-0.1-0.4-0.2s-0.3-0.2-0.4-0.3c-0.1-0.1-0.3-0.2-0.4-0.4v2.8v0.1c0,0,0,0-0.1,0.1c0,0-0.1,0-0.2,0
			s-0.2,0-0.3,0c-0.1,0-0.2,0-0.2,0c-0.1,0-0.1,0-0.2,0c0,0-0.1,0-0.1-0.1v-0.1v-7.8V253c0,0,0,0,0.1-0.1h0.1c0.1,0,0.1,0,0.2,0
			s0.2,0,0.2,0c0.1,0,0.1,0,0.1,0s0.1,0,0.1,0.1v0.1v0.8c0.2-0.2,0.3-0.3,0.5-0.5c0.2-0.1,0.3-0.2,0.5-0.3s0.3-0.1,0.5-0.2
			c0.2,0,0.3-0.1,0.5-0.1c0.4,0,0.8,0.1,1,0.2c0.3,0.2,0.5,0.4,0.7,0.6c0.2,0.3,0.3,0.6,0.4,1C410.8,255.1,410.8,255.4,410.8,255.9z
			 M409.7,256c0-0.3,0-0.6-0.1-0.8c0-0.3-0.1-0.5-0.2-0.7s-0.2-0.4-0.4-0.5c-0.2-0.1-0.4-0.2-0.7-0.2c-0.1,0-0.3,0-0.4,0.1
			c-0.1,0-0.3,0.1-0.4,0.2c-0.1,0.1-0.3,0.2-0.4,0.3s-0.3,0.3-0.5,0.5v2.2c0.3,0.3,0.6,0.6,0.8,0.8c0.3,0.2,0.5,0.3,0.8,0.3
			s0.5-0.1,0.7-0.2s0.3-0.3,0.5-0.5c0.1-0.2,0.2-0.4,0.3-0.7C409.7,256.5,409.7,256.2,409.7,256z"/>
		<path style="fill:#666666;" d="M417.3,258.7C417.3,258.8,417.2,258.8,417.3,258.7c0,0.1-0.1,0.1-0.1,0.1s-0.1,0-0.2,0
			s-0.1,0-0.2,0s-0.2,0-0.3,0c-0.1,0-0.1,0-0.2,0c0,0-0.1,0-0.1-0.1v-0.1v-2.5h-2.9v2.5v0.1c0,0,0,0-0.1,0.1c0,0-0.1,0-0.2,0
			s-0.2,0-0.3,0c-0.1,0-0.2,0-0.2,0c-0.1,0-0.1,0-0.2,0c0,0-0.1,0-0.1-0.1v-0.1V253v-0.1c0,0,0,0,0.1-0.1c0,0,0.1,0,0.2,0
			s0.1,0,0.2,0s0.2,0,0.3,0c0.1,0,0.1,0,0.2,0c0,0,0.1,0,0.1,0.1v0.1v2.3h2.9V253v-0.1c0,0,0,0,0.1-0.1s0.1,0,0.2,0s0.2,0,0.3,0
			c0.1,0,0.2,0,0.2,0c0.1,0,0.1,0,0.2,0c0,0,0.1,0,0.1,0.1v0.1V258.7z"/>
		<path style="fill:#666666;" d="M423.4,258.7v0.1c0,0-0.1,0-0.1,0.1c-0.1,0-0.1,0-0.3,0c-0.1,0-0.2,0-0.3,0c-0.1,0-0.1,0-0.1-0.1
			v-0.1v-0.6c-0.2,0.3-0.5,0.5-0.8,0.6s-0.6,0.2-1,0.2c-0.3,0-0.6,0-0.8-0.1c-0.2-0.1-0.4-0.2-0.6-0.3c-0.2-0.1-0.3-0.3-0.4-0.5
			s-0.1-0.5-0.1-0.7c0-0.3,0.1-0.6,0.2-0.8s0.3-0.4,0.6-0.6c0.2-0.2,0.5-0.3,0.9-0.3c0.3-0.1,0.7-0.1,1.2-0.1h0.8V255
			c0-0.2,0-0.4-0.1-0.6c0-0.2-0.1-0.3-0.2-0.4c-0.1-0.1-0.2-0.2-0.4-0.2c-0.2-0.1-0.4-0.1-0.6-0.1c-0.3,0-0.5,0-0.7,0.1
			s-0.4,0.1-0.5,0.2c-0.2,0.1-0.3,0.1-0.4,0.2s-0.2,0.1-0.2,0.1h-0.1c0,0,0,0-0.1-0.1v-0.1c0-0.1,0-0.1,0-0.2c0-0.1,0-0.2,0-0.2
			c0-0.1,0-0.1,0.1-0.2c0.1-0.1,0.2-0.1,0.3-0.2c0.1-0.1,0.3-0.1,0.5-0.2c0.2-0.1,0.4-0.1,0.6-0.1s0.4-0.1,0.6-0.1
			c0.4,0,0.7,0,1,0.1s0.5,0.2,0.7,0.4s0.3,0.4,0.4,0.7s0.1,0.6,0.1,0.9L423.4,258.7L423.4,258.7z M422.4,256.2h-0.9
			c-0.3,0-0.5,0-0.7,0.1c-0.2,0-0.4,0.1-0.5,0.2s-0.2,0.2-0.3,0.3c-0.1,0.1-0.1,0.3-0.1,0.5c0,0.3,0.1,0.5,0.3,0.7
			c0.2,0.2,0.4,0.3,0.8,0.3c0.3,0,0.5-0.1,0.7-0.2s0.5-0.3,0.7-0.6V256.2L422.4,256.2z"/>
		<path style="fill:#666666;" d="M429.4,258.7C429.4,258.8,429.4,258.8,429.4,258.7c0,0.1-0.1,0.1-0.1,0.1s-0.1,0-0.2,0
			s-0.2,0-0.3,0c-0.1,0-0.2,0-0.2,0c-0.1,0-0.1,0-0.2,0c0,0-0.1,0-0.1-0.1v-0.1v-2.4h-0.6c-0.3,0-0.5,0-0.6,0.1
			c-0.1,0-0.3,0.1-0.4,0.2s-0.2,0.2-0.3,0.4c-0.1,0.2-0.2,0.3-0.3,0.6l-0.5,1.1c0,0.1,0,0.1-0.1,0.1l-0.1,0.1c0,0-0.1,0-0.2,0
			s-0.2,0-0.3,0c-0.1,0-0.1,0-0.2,0s-0.1,0-0.2,0h-0.1v-0.1v-0.1c0-0.1,0.1-0.2,0.1-0.3l0.4-1.1c0.1-0.3,0.3-0.5,0.4-0.7
			c0.2-0.2,0.4-0.3,0.6-0.4c-0.4-0.1-0.7-0.2-1-0.5c-0.2-0.2-0.4-0.6-0.4-1c0-0.3,0.1-0.5,0.2-0.7s0.3-0.4,0.5-0.6
			c0.2-0.2,0.5-0.3,0.8-0.3c0.3-0.1,0.7-0.1,1.1-0.1c0.1,0,0.2,0,0.3,0c0.1,0,0.3,0,0.4,0s0.3,0,0.4,0s0.2,0,0.3,0
			c0.1,0,0.2,0.1,0.3,0.1c0.1,0.1,0.1,0.2,0.1,0.3L429.4,258.7L429.4,258.7z M428.4,253.7c-0.1,0-0.3,0-0.5,0s-0.3,0-0.4,0
			c-0.3,0-0.5,0-0.7,0.1s-0.3,0.1-0.5,0.2c-0.1,0.1-0.2,0.2-0.2,0.3s-0.1,0.3-0.1,0.4c0,0.1,0,0.3,0.1,0.4c0.1,0.1,0.1,0.2,0.3,0.3
			c0.1,0.1,0.3,0.1,0.4,0.2c0.2,0,0.4,0.1,0.7,0.1h0.8L428.4,253.7L428.4,253.7z"/>
	</g>
	<g style="enable-background:new    ;">
		<path style="fill:#666666;" d="M55.1,275.9c0,0.1,0,0.2-0.1,0.3c0,0.1-0.1,0.1-0.2,0.1h-0.9v1.7v0.1c0,0,0,0-0.1,0.1
			c0,0-0.1,0-0.2,0c-0.1,0-0.2,0-0.3,0s-0.2,0-0.3,0s-0.1,0-0.2,0c0,0-0.1,0-0.1-0.1s0-0.1,0-0.1v-1.7h-3.3h-0.1c0,0-0.1,0-0.1-0.1
			c0,0,0-0.1-0.1-0.1c0-0.1,0-0.1,0-0.2s0-0.1,0-0.2s0-0.1,0-0.2s0-0.1,0-0.1s0-0.1,0.1-0.2l2.9-4.9l0.1-0.1c0,0,0.1,0,0.2-0.1
			c0.1,0,0.1,0,0.2,0c0.1,0,0.2,0,0.3,0s0.3,0,0.4,0c0.1,0,0.2,0,0.3,0s0.1,0,0.1,0.1l0.1,0.1v5.1h0.9c0.1,0,0.1,0,0.2,0.1
			C55,275.6,55.1,275.7,55.1,275.9z M52.8,271L52.8,271l-2.6,4.4h2.6V271z"/>
		<path style="fill:#666666;" d="M58.9,275c0,0.2,0,0.3-0.1,0.3s-0.1,0.1-0.2,0.1H56c-0.1,0-0.1,0-0.2-0.1c0-0.1-0.1-0.2-0.1-0.3
			c0-0.2,0-0.3,0.1-0.3c0-0.1,0.1-0.1,0.2-0.1h2.6h0.1c0,0,0.1,0,0.1,0.1v0.1C58.9,274.9,58.9,274.9,58.9,275z"/>
		<path style="fill:#666666;" d="M64.5,278v0.1c0,0-0.1,0-0.1,0.1s-0.1,0-0.3,0c-0.1,0-0.2,0-0.3,0s-0.1,0-0.1-0.1s0-0.1,0-0.1v-0.6
			c-0.2,0.3-0.5,0.5-0.8,0.6s-0.6,0.2-1,0.2c-0.3,0-0.6,0-0.8-0.1s-0.4-0.2-0.6-0.3c-0.2-0.1-0.3-0.3-0.4-0.5
			c-0.1-0.2-0.1-0.5-0.1-0.7c0-0.3,0.1-0.6,0.2-0.8s0.3-0.4,0.6-0.6c0.2-0.2,0.5-0.3,0.9-0.3c0.3-0.1,0.7-0.1,1.2-0.1h0.8v-0.4
			c0-0.2,0-0.4-0.1-0.6c0-0.2-0.1-0.3-0.2-0.4c-0.1-0.1-0.2-0.2-0.4-0.2c-0.2-0.1-0.4-0.1-0.6-0.1c-0.3,0-0.5,0-0.7,0.1
			s-0.4,0.1-0.5,0.2c-0.2,0.1-0.3,0.1-0.4,0.2c-0.1,0.1-0.2,0.1-0.2,0.1h-0.1c0,0,0,0-0.1-0.1v-0.1c0,0,0-0.1,0-0.2s0-0.2,0-0.2
			c0-0.1,0.1-0.1,0.1-0.2s0.2-0.1,0.3-0.2s0.3-0.1,0.5-0.2s0.4-0.1,0.6-0.1c0.2,0,0.4-0.1,0.6-0.1c0.4,0,0.7,0,1,0.1
			s0.5,0.2,0.7,0.4c0.2,0.2,0.3,0.4,0.4,0.7c0.1,0.3,0.1,0.6,0.1,0.9L64.5,278L64.5,278z M63.5,275.5h-0.9c-0.3,0-0.5,0-0.7,0.1
			s-0.4,0.1-0.5,0.2s-0.2,0.2-0.3,0.3s-0.1,0.3-0.1,0.5c0,0.3,0.1,0.5,0.3,0.7s0.4,0.3,0.8,0.3c0.3,0,0.5-0.1,0.7-0.2
			s0.5-0.3,0.7-0.6V275.5L63.5,275.5z"/>
		<path style="fill:#666666;" d="M70.5,278C70.5,278,70.5,278.1,70.5,278c0,0.1-0.1,0.1-0.1,0.1s-0.1,0-0.2,0s-0.2,0-0.3,0
			c-0.1,0-0.2,0-0.2,0c-0.1,0-0.1,0-0.2,0c0,0-0.1,0-0.1-0.1v-0.1v-2.4h-0.6c-0.3,0-0.5,0-0.6,0.1c-0.1,0-0.3,0.1-0.4,0.2
			s-0.2,0.2-0.3,0.4c-0.1,0.2-0.2,0.3-0.3,0.6l-0.5,1.1c0,0.1,0,0.1-0.1,0.1l-0.1,0.1c0,0-0.1,0-0.2,0s-0.2,0-0.3,0
			c-0.1,0-0.1,0-0.2,0s-0.1,0-0.2,0h-0.1V278v-0.1c0-0.1,0.1-0.2,0.1-0.3l0.4-1.1c0.1-0.3,0.3-0.5,0.4-0.7c0.2-0.2,0.4-0.3,0.6-0.4
			c-0.4-0.1-0.7-0.2-1-0.5c-0.2-0.2-0.4-0.6-0.4-1c0-0.3,0.1-0.5,0.2-0.7s0.3-0.4,0.5-0.6s0.5-0.3,0.8-0.3c0.3-0.1,0.7-0.1,1.1-0.1
			c0.1,0,0.2,0,0.3,0c0.1,0,0.3,0,0.4,0s0.3,0,0.4,0s0.2,0,0.3,0c0.1,0,0.2,0.1,0.3,0.1s0.1,0.2,0.1,0.3L70.5,278L70.5,278z
			 M69.5,273c-0.1,0-0.3,0-0.5,0s-0.3,0-0.4,0c-0.3,0-0.5,0-0.7,0.1c-0.2,0-0.3,0.1-0.5,0.2c-0.1,0.1-0.2,0.2-0.2,0.3
			c0,0.1-0.1,0.3-0.1,0.4s0,0.3,0.1,0.4s0.1,0.2,0.3,0.3c0.1,0.1,0.3,0.1,0.4,0.2c0.2,0,0.4,0.1,0.7,0.1h0.8L69.5,273L69.5,273z"/>
		<path style="fill:#666666;" d="M79.3,277.2c0,0.1,0,0.1,0,0.2s0,0.1,0,0.1v0.1c0,0,0,0.1-0.1,0.1c-0.1,0.1-0.1,0.1-0.3,0.2
			c-0.1,0.1-0.3,0.1-0.4,0.2c-0.2,0.1-0.3,0.1-0.5,0.1s-0.4,0.1-0.6,0.1c-0.4,0-0.8-0.1-1.1-0.2c-0.3-0.1-0.6-0.3-0.8-0.6
			c-0.2-0.3-0.4-0.6-0.5-0.9c-0.1-0.4-0.2-0.8-0.2-1.3c0-0.6,0.1-1,0.2-1.4s0.3-0.7,0.6-1c0.2-0.3,0.5-0.4,0.8-0.6
			c0.3-0.1,0.7-0.2,1-0.2c0.2,0,0.4,0,0.5,0c0.2,0,0.3,0.1,0.5,0.1c0.1,0.1,0.3,0.1,0.4,0.2s0.2,0.1,0.2,0.2c0.1,0,0.1,0.1,0.1,0.1
			v0.1v0.1c0,0,0,0.1,0,0.2c0,0.2,0,0.3-0.1,0.3c0,0.1-0.1,0.1-0.1,0.1c-0.1,0-0.1,0-0.2-0.1s-0.2-0.1-0.3-0.2
			c-0.1-0.1-0.3-0.2-0.4-0.2c-0.2-0.1-0.4-0.1-0.6-0.1c-0.5,0-0.9,0.2-1.1,0.6c-0.3,0.4-0.4,0.9-0.4,1.7c0,0.4,0,0.7,0.1,0.9
			c0.1,0.3,0.2,0.5,0.3,0.7c0.1,0.2,0.3,0.3,0.5,0.4s0.4,0.1,0.7,0.1c0.2,0,0.4,0,0.6-0.1s0.3-0.2,0.5-0.2s0.2-0.2,0.3-0.2
			c0.1-0.1,0.2-0.1,0.2-0.1h0.1c0,0,0,0,0.1,0.1s0,0.1,0,0.1C79.3,277,79.3,277.1,79.3,277.2z"/>
		<path style="fill:#666666;" d="M85.4,275c0,0.2,0,0.3-0.1,0.3c-0.1,0.1-0.2,0.1-0.3,0.1h-3.7c0,0.3,0,0.6,0.1,0.8
			c0.1,0.2,0.2,0.5,0.3,0.6c0.1,0.2,0.3,0.3,0.6,0.4c0.2,0.1,0.5,0.1,0.9,0.1c0.3,0,0.5,0,0.7-0.1c0.2,0,0.4-0.1,0.5-0.1
			s0.3-0.1,0.4-0.1s0.2-0.1,0.2-0.1h0.1c0,0,0,0,0.1,0.1v0.1c0,0,0,0.1,0,0.2s0,0.1,0,0.1v0.1v0.1c0,0,0,0-0.1,0.1
			c0,0-0.1,0.1-0.2,0.1s-0.3,0.1-0.4,0.2s-0.4,0.1-0.6,0.1s-0.5,0.1-0.7,0.1c-0.5,0-0.9-0.1-1.2-0.2c-0.3-0.1-0.6-0.3-0.9-0.6
			c-0.2-0.3-0.4-0.6-0.5-1s-0.2-0.8-0.2-1.3s0.1-0.9,0.2-1.3s0.3-0.7,0.5-1s0.5-0.5,0.8-0.6s0.7-0.2,1.1-0.2s0.8,0.1,1.1,0.2
			c0.3,0.1,0.6,0.3,0.8,0.6c0.2,0.2,0.3,0.5,0.4,0.8s0.1,0.7,0.1,1L85.4,275L85.4,275z M84.4,274.7c0-0.5-0.1-1-0.4-1.3
			s-0.6-0.5-1.1-0.5c-0.3,0-0.5,0-0.7,0.1s-0.4,0.2-0.5,0.4c-0.1,0.2-0.2,0.3-0.3,0.5c-0.1,0.2-0.1,0.4-0.1,0.7L84.4,274.7
			L84.4,274.7z"/>
		<path style="fill:#666666;" d="M92.1,275.1c0,0.5-0.1,0.9-0.2,1.3s-0.3,0.7-0.5,1s-0.5,0.5-0.8,0.6s-0.6,0.2-1,0.2
			c-0.2,0-0.3,0-0.5,0c-0.1,0-0.3-0.1-0.4-0.2s-0.3-0.2-0.4-0.3c-0.1-0.1-0.3-0.2-0.4-0.4v2.8v0.1c0,0,0,0-0.1,0.1c0,0-0.1,0-0.2,0
			s-0.2,0-0.3,0c-0.1,0-0.2,0-0.2,0c-0.1,0-0.1,0-0.2,0c0,0-0.1,0-0.1-0.1s0-0.1,0-0.1v-7.8v-0.1c0,0,0,0,0.1-0.1H87
			c0,0,0.1,0,0.2,0s0.2,0,0.2,0h0.1c0,0,0.1,0,0.1,0.1s0,0.1,0,0.1v0.8c0.2-0.2,0.3-0.3,0.5-0.5c0.2-0.1,0.3-0.2,0.5-0.3
			c0.2-0.1,0.3-0.1,0.5-0.2c0.2,0,0.3-0.1,0.5-0.1c0.4,0,0.8,0.1,1,0.2c0.3,0.2,0.5,0.4,0.7,0.6c0.2,0.3,0.3,0.6,0.4,1
			C92.1,274.3,92.1,274.7,92.1,275.1z M91.1,275.2c0-0.3,0-0.6-0.1-0.8c0-0.3-0.1-0.5-0.2-0.7s-0.2-0.4-0.4-0.5
			c-0.2-0.1-0.4-0.2-0.7-0.2c-0.1,0-0.3,0-0.4,0.1c-0.1,0-0.3,0.1-0.4,0.2s-0.3,0.2-0.4,0.3c-0.1,0.1-0.3,0.3-0.5,0.5v2.2
			c0.3,0.3,0.6,0.6,0.8,0.8c0.3,0.2,0.5,0.3,0.8,0.3s0.5-0.1,0.7-0.2s0.3-0.3,0.4-0.5s0.2-0.4,0.3-0.7
			C91.1,275.8,91.1,275.5,91.1,275.2z"/>
		<path style="fill:#666666;" d="M98.3,276.4c0,0.3-0.1,0.6-0.2,0.8c-0.1,0.2-0.3,0.4-0.5,0.6s-0.5,0.3-0.8,0.4s-0.7,0.1-1.1,0.1
			c-0.1,0-0.3,0-0.4,0s-0.3,0-0.4,0s-0.2,0-0.4,0s-0.2,0-0.4,0c-0.2,0-0.3-0.1-0.4-0.2s-0.1-0.2-0.1-0.4v-4.8c0-0.2,0-0.3,0.1-0.4
			s0.2-0.1,0.4-0.2c0.1,0,0.2,0,0.3,0c0.1,0,0.2,0,0.4,0c0.1,0,0.3,0,0.4,0s0.3,0,0.4,0c0.4,0,0.8,0,1,0.1c0.3,0.1,0.5,0.2,0.7,0.3
			c0.2,0.1,0.3,0.3,0.4,0.5s0.1,0.4,0.1,0.6c0,0.3-0.1,0.6-0.3,0.8c-0.2,0.2-0.4,0.4-0.7,0.5c0.4,0.1,0.7,0.3,0.9,0.5
			C98.2,275.7,98.3,276,98.3,276.4z M97,273.8c0-0.1,0-0.3-0.1-0.4s-0.1-0.2-0.2-0.3c-0.1-0.1-0.3-0.1-0.4-0.2
			c-0.2,0-0.4-0.1-0.7-0.1c-0.2,0-0.4,0-0.5,0c-0.2,0-0.3,0-0.4,0v1.7h1c0.4,0,0.8-0.1,1-0.2C96.9,274.3,97,274.1,97,273.8z
			 M97.2,276.4c0-0.2,0-0.3-0.1-0.4s-0.1-0.2-0.3-0.3c-0.1-0.1-0.3-0.1-0.5-0.2c-0.2,0-0.4-0.1-0.7-0.1h-1v2c0.1,0,0.2,0,0.2,0
			c0.1,0,0.2,0,0.3,0s0.2,0,0.3,0c0.1,0,0.2,0,0.2,0c0.3,0,0.5,0,0.7-0.1c0.2,0,0.3-0.1,0.5-0.2s0.2-0.2,0.3-0.3
			C97.2,276.7,97.2,276.6,97.2,276.4z"/>
		<path style="fill:#666666;" d="M104.6,275c0,0.2,0,0.3-0.1,0.3c-0.1,0.1-0.2,0.1-0.3,0.1h-3.7c0,0.3,0,0.6,0.1,0.8
			c0.1,0.2,0.2,0.5,0.3,0.6c0.1,0.2,0.3,0.3,0.6,0.4c0.2,0.1,0.5,0.1,0.9,0.1c0.3,0,0.5,0,0.7-0.1c0.2,0,0.4-0.1,0.5-0.1
			s0.3-0.1,0.4-0.1s0.2-0.1,0.2-0.1h0.1c0,0,0,0,0.1,0.1v0.1c0,0,0,0.1,0,0.2s0,0.1,0,0.1v0.1v0.1c0,0,0,0-0.1,0.1
			c0,0-0.1,0.1-0.2,0.1s-0.3,0.1-0.4,0.2s-0.4,0.1-0.6,0.1s-0.5,0.1-0.7,0.1c-0.5,0-0.9-0.1-1.2-0.2c-0.3-0.1-0.6-0.3-0.9-0.6
			c-0.2-0.3-0.4-0.6-0.5-1s-0.2-0.8-0.2-1.3s0.1-0.9,0.2-1.3s0.3-0.7,0.5-1s0.5-0.5,0.8-0.6s0.7-0.2,1.1-0.2s0.8,0.1,1.1,0.2
			c0.3,0.1,0.6,0.3,0.8,0.6c0.2,0.2,0.3,0.5,0.4,0.8s0.1,0.7,0.1,1L104.6,275L104.6,275z M103.5,274.7c0-0.5-0.1-1-0.4-1.3
			s-0.6-0.5-1.1-0.5c-0.3,0-0.5,0-0.7,0.1s-0.4,0.2-0.5,0.4c-0.1,0.2-0.2,0.3-0.3,0.5s-0.1,0.4-0.1,0.7L103.5,274.7L103.5,274.7z"/>
		<path style="fill:#666666;" d="M111.3,275.1c0,0.5-0.1,0.9-0.2,1.3s-0.3,0.7-0.5,1s-0.5,0.5-0.8,0.6s-0.6,0.2-1,0.2
			c-0.2,0-0.3,0-0.5,0c-0.1,0-0.3-0.1-0.4-0.2s-0.3-0.2-0.4-0.3c-0.1-0.1-0.3-0.2-0.4-0.4v2.8v0.1c0,0,0,0-0.1,0.1c0,0-0.1,0-0.2,0
			s-0.2,0-0.3,0c-0.1,0-0.2,0-0.2,0c-0.1,0-0.1,0-0.2,0c0,0-0.1,0-0.1-0.1s0-0.1,0-0.1v-7.8v-0.1c0,0,0,0,0.1-0.1h0.1
			c0,0,0.1,0,0.2,0s0.2,0,0.2,0h0.1c0,0,0.1,0,0.1,0.1s0,0.1,0,0.1v0.8c0.2-0.2,0.3-0.3,0.5-0.5c0.2-0.1,0.3-0.2,0.5-0.3
			c0.2-0.1,0.3-0.1,0.5-0.2c0.2,0,0.3-0.1,0.5-0.1c0.4,0,0.8,0.1,1,0.2c0.3,0.2,0.5,0.4,0.7,0.6c0.2,0.3,0.3,0.6,0.4,1
			C111.2,274.3,111.3,274.7,111.3,275.1z M110.2,275.2c0-0.3,0-0.6-0.1-0.8c0-0.3-0.1-0.5-0.2-0.7s-0.2-0.4-0.4-0.5
			c-0.2-0.1-0.4-0.2-0.7-0.2c-0.1,0-0.3,0-0.4,0.1c-0.1,0-0.3,0.1-0.4,0.2s-0.3,0.2-0.4,0.3c-0.1,0.1-0.3,0.3-0.5,0.5v2.2
			c0.3,0.3,0.6,0.6,0.8,0.8c0.3,0.2,0.5,0.3,0.8,0.3s0.5-0.1,0.7-0.2s0.3-0.3,0.4-0.5s0.2-0.4,0.3-0.7
			C110.2,275.8,110.2,275.5,110.2,275.2z"/>
		<path style="fill:#666666;" d="M117.7,278C117.7,278,117.7,278.1,117.7,278c0,0.1-0.1,0.1-0.1,0.1s-0.1,0-0.2,0s-0.1,0-0.2,0
			s-0.2,0-0.3,0c-0.1,0-0.1,0-0.2,0c0,0-0.1,0-0.1-0.1s0-0.1,0-0.1v-2.5h-2.9v2.5v0.1c0,0,0,0-0.1,0.1c0,0-0.1,0-0.2,0s-0.2,0-0.3,0
			c-0.1,0-0.2,0-0.2,0c-0.1,0-0.1,0-0.2,0c0,0-0.1,0-0.1-0.1s0-0.1,0-0.1v-5.6v-0.1c0,0,0,0,0.1-0.1c0,0,0.1,0,0.2,0s0.1,0,0.2,0
			s0.2,0,0.3,0c0.1,0,0.1,0,0.2,0c0,0,0.1,0,0.1,0.1v0.1v2.3h2.9v-2.3v-0.1c0,0,0,0,0.1-0.1c0,0,0.1,0,0.2,0s0.2,0,0.3,0
			c0.1,0,0.2,0,0.2,0s0.1,0,0.2,0c0,0,0.1,0,0.1,0.1v0.1V278z"/>
		<path style="fill:#666666;" d="M123.8,278v0.1c0,0-0.1,0-0.1,0.1s-0.1,0-0.3,0c-0.1,0-0.2,0-0.3,0s-0.1,0-0.1-0.1s0-0.1,0-0.1
			v-0.6c-0.2,0.3-0.5,0.5-0.8,0.6s-0.6,0.2-1,0.2c-0.3,0-0.6,0-0.8-0.1c-0.2-0.1-0.4-0.2-0.6-0.3c-0.2-0.1-0.3-0.3-0.4-0.5
			s-0.1-0.5-0.1-0.7c0-0.3,0.1-0.6,0.2-0.8s0.3-0.4,0.6-0.6c0.2-0.2,0.5-0.3,0.9-0.3c0.3-0.1,0.7-0.1,1.2-0.1h0.8v-0.4
			c0-0.2,0-0.4-0.1-0.6c0-0.2-0.1-0.3-0.2-0.4s-0.2-0.2-0.4-0.2c-0.2-0.1-0.4-0.1-0.6-0.1c-0.3,0-0.5,0-0.7,0.1s-0.4,0.1-0.5,0.2
			c-0.2,0.1-0.3,0.1-0.4,0.2s-0.2,0.1-0.2,0.1h-0.1c0,0,0,0-0.1-0.1v-0.1c0-0.1,0-0.1,0-0.2s0-0.2,0-0.2c0-0.1,0.1-0.1,0.1-0.2
			s0.2-0.1,0.3-0.2c0.1-0.1,0.3-0.1,0.5-0.2s0.4-0.1,0.6-0.1s0.4-0.1,0.6-0.1c0.4,0,0.7,0,1,0.1s0.5,0.2,0.7,0.4
			c0.2,0.2,0.3,0.4,0.4,0.7c0.1,0.3,0.1,0.6,0.1,0.9L123.8,278L123.8,278z M122.8,275.5h-0.9c-0.3,0-0.5,0-0.7,0.1
			c-0.2,0-0.4,0.1-0.5,0.2s-0.2,0.2-0.3,0.3s-0.1,0.3-0.1,0.5c0,0.3,0.1,0.5,0.3,0.7c0.2,0.2,0.4,0.3,0.8,0.3c0.3,0,0.5-0.1,0.7-0.2
			s0.5-0.3,0.7-0.6V275.5L122.8,275.5z"/>
		<path style="fill:#666666;" d="M129.8,278C129.8,278,129.8,278.1,129.8,278c0,0.1-0.1,0.1-0.1,0.1s-0.1,0-0.2,0
			c-0.1,0-0.2,0-0.3,0s-0.2,0-0.2,0c-0.1,0-0.1,0-0.2,0c0,0-0.1,0-0.1-0.1v-0.1v-2.4h-0.6c-0.3,0-0.5,0-0.6,0.1
			c-0.1,0-0.3,0.1-0.4,0.2s-0.2,0.2-0.3,0.4s-0.2,0.3-0.3,0.6l-0.5,1.1c0,0.1,0,0.1-0.1,0.1l-0.1,0.1c0,0-0.1,0-0.2,0s-0.2,0-0.3,0
			c-0.1,0-0.1,0-0.2,0s-0.1,0-0.2,0h-0.1V278v-0.1c0-0.1,0.1-0.2,0.1-0.3l0.4-1.1c0.1-0.3,0.3-0.5,0.4-0.7c0.2-0.2,0.4-0.3,0.6-0.4
			c-0.4-0.1-0.7-0.2-1-0.5c-0.2-0.2-0.4-0.6-0.4-1c0-0.3,0.1-0.5,0.2-0.7s0.3-0.4,0.5-0.6s0.5-0.3,0.8-0.3c0.3-0.1,0.7-0.1,1.1-0.1
			c0.1,0,0.2,0,0.3,0c0.1,0,0.3,0,0.4,0s0.3,0,0.4,0c0.1,0,0.2,0,0.3,0s0.2,0.1,0.3,0.1s0.1,0.2,0.1,0.3L129.8,278L129.8,278z
			 M128.8,273c-0.1,0-0.3,0-0.5,0s-0.3,0-0.4,0c-0.3,0-0.5,0-0.7,0.1c-0.2,0-0.3,0.1-0.5,0.2s-0.2,0.2-0.2,0.3
			c0,0.1-0.1,0.3-0.1,0.4s0,0.3,0.1,0.4s0.1,0.2,0.3,0.3c0.1,0.1,0.3,0.1,0.4,0.2c0.2,0,0.4,0.1,0.7,0.1h0.8L128.8,273L128.8,273z"
			/>
	</g>
	<g>
		<path style="fill:#666666;" d="M357.7,166.5C357.7,166.5,357.7,166.6,357.7,166.5c0,0.1-0.1,0.1-0.1,0.1s-0.1,0-0.2,0
			s-0.1,0-0.2,0s-0.2,0-0.3,0s-0.1,0-0.2,0s-0.1,0-0.1-0.1v-0.1l-0.7-1.9c-0.1-0.3-0.2-0.5-0.3-0.6s-0.2-0.3-0.4-0.4
			c-0.1-0.1-0.3-0.2-0.5-0.3s-0.4-0.1-0.6-0.1h-0.4v3.3v0.1c0,0,0,0-0.1,0.1s-0.1,0-0.2,0s-0.1,0-0.2,0s-0.2,0-0.2,0s-0.1,0-0.2,0
			s-0.1,0-0.1-0.1s0-0.1,0-0.1v-7.3V159c0,0,0,0,0.1-0.1s0.1,0,0.2,0s0.1,0,0.2,0s0.2,0,0.2,0s0.1,0,0.2,0s0.1,0,0.1,0.1s0,0,0,0.1
			v3.1h0.4c0.2,0,0.4,0,0.6-0.1s0.3-0.1,0.5-0.3s0.3-0.3,0.4-0.4c0.1-0.2,0.2-0.4,0.3-0.6l0.6-1.7V159c0,0,0-0.1,0.1-0.1
			s0.1,0,0.2,0s0.2,0,0.3,0c0.1,0,0.2,0,0.2,0h0.1c0,0,0.1,0,0.1,0.1s0,0.1,0,0.1v0.1c0,0.1,0,0.1-0.1,0.2l-0.6,1.6
			c-0.1,0.2-0.2,0.4-0.3,0.6c-0.1,0.2-0.2,0.3-0.3,0.4c-0.1,0.1-0.2,0.2-0.4,0.3s-0.3,0.1-0.4,0.2l0,0c0.2,0.1,0.3,0.1,0.5,0.2
			s0.3,0.2,0.4,0.3s0.2,0.3,0.3,0.5c0.1,0.2,0.2,0.4,0.3,0.7l0.7,1.8c0,0.1,0.1,0.2,0.1,0.2V166.5z"/>
		<path style="fill:#666666;" d="M363.8,163.8c0,0.4-0.1,0.8-0.2,1.2s-0.3,0.7-0.5,0.9s-0.5,0.5-0.8,0.6s-0.7,0.2-1.2,0.2
			c-0.4,0-0.8-0.1-1.1-0.2c-0.3-0.1-0.6-0.3-0.8-0.6c-0.2-0.2-0.4-0.5-0.5-0.9s-0.2-0.8-0.2-1.2s0.1-0.8,0.2-1.2s0.3-0.7,0.5-0.9
			c0.2-0.3,0.5-0.5,0.8-0.6s0.7-0.2,1.2-0.2c0.4,0,0.8,0.1,1.1,0.2c0.3,0.1,0.6,0.3,0.8,0.6c0.2,0.2,0.4,0.5,0.5,0.9
			S363.8,163.4,363.8,163.8z M362.8,163.9c0-0.3,0-0.6-0.1-0.8c-0.1-0.3-0.1-0.5-0.3-0.7s-0.3-0.3-0.5-0.5c-0.2-0.1-0.5-0.2-0.8-0.2
			s-0.5,0.1-0.7,0.2c-0.2,0.1-0.4,0.2-0.5,0.4s-0.2,0.4-0.3,0.7c-0.1,0.3-0.1,0.5-0.1,0.8s0,0.6,0.1,0.8c0.1,0.3,0.1,0.5,0.3,0.7
			c0.1,0.2,0.3,0.3,0.5,0.5c0.2,0.1,0.5,0.2,0.8,0.2s0.5-0.1,0.7-0.2c0.2-0.1,0.4-0.2,0.5-0.4s0.2-0.4,0.3-0.7
			C362.8,164.5,362.8,164.2,362.8,163.9z"/>
		<path style="fill:#666666;" d="M371.9,166.5c0,0.1,0,0.1-0.1,0.2c-0.1,0-0.2,0.1-0.4,0.1c-0.1,0-0.2,0-0.2,0c-0.1,0-0.1,0-0.1,0
			H371c0,0,0,0,0-0.1l-0.4-3.1c0-0.1,0-0.2,0-0.4c0-0.1,0-0.3,0-0.4c0-0.1,0-0.3,0-0.4s0-0.3,0-0.4v-0.1c0,0.1-0.1,0.2-0.1,0.4
			s-0.1,0.3-0.1,0.4c0,0.1-0.1,0.3-0.1,0.4c0,0.1-0.1,0.3-0.1,0.4l-1.1,3.1c0,0,0,0.1-0.1,0.1l-0.1,0.1h-0.1c-0.1,0-0.1,0-0.2,0
			s-0.2,0-0.2,0h-0.1c0,0-0.1,0-0.1-0.1c0,0,0-0.1-0.1-0.1l-1.1-3.1c0-0.1-0.1-0.2-0.1-0.4c0-0.1-0.1-0.3-0.1-0.4
			c0-0.1-0.1-0.3-0.1-0.4s-0.1-0.3-0.1-0.4v0.1c0,0.1,0,0.2,0,0.4c0,0.1,0,0.3,0,0.4c0,0.1,0,0.3,0,0.4s0,0.2,0,0.4l-0.4,3v0.1
			c0,0,0,0.1-0.1,0.1s-0.1,0-0.2,0s-0.1,0-0.2,0s-0.2,0-0.2,0c-0.1,0-0.1,0-0.1,0s0,0-0.1-0.1s0-0.1,0-0.1l0.6-5
			c0-0.1,0.1-0.2,0.1-0.3c0.1-0.1,0.2-0.1,0.3-0.1h0.5c0.1,0,0.2,0,0.3,0s0.1,0,0.2,0.1c0.1,0,0.1,0.1,0.1,0.2
			c0,0.1,0.1,0.2,0.1,0.3l0.8,2.2c0,0.1,0.1,0.3,0.1,0.4s0.1,0.3,0.1,0.4c0,0.1,0.1,0.3,0.1,0.4c0,0.1,0.1,0.3,0.1,0.4l0,0
			c0-0.1,0.1-0.2,0.1-0.4s0.1-0.3,0.1-0.4c0-0.1,0.1-0.3,0.1-0.4s0.1-0.3,0.1-0.4l0.8-2.2c0-0.1,0.1-0.2,0.1-0.3s0.1-0.1,0.1-0.2
			s0.1-0.1,0.2-0.1s0.2,0,0.3,0h0.5c0.1,0,0.2,0,0.3,0.1c0.1,0.1,0.1,0.2,0.1,0.3L371.9,166.5z"/>
		<path style="fill:#666666;" d="M380,166.5c0,0.1,0,0.1-0.1,0.2c-0.1,0-0.2,0.1-0.4,0.1c-0.1,0-0.2,0-0.2,0c-0.1,0-0.1,0-0.1,0
			h-0.1c0,0,0,0,0-0.1l-0.4-3.1c0-0.1,0-0.2,0-0.4c0-0.1,0-0.3,0-0.4c0-0.1,0-0.3,0-0.4s0-0.3,0-0.4v-0.1c0,0.1-0.1,0.2-0.1,0.4
			s-0.1,0.3-0.1,0.4c0,0.1-0.1,0.3-0.1,0.4c0,0.1-0.1,0.3-0.1,0.4l-1.1,3.1c0,0,0,0.1-0.1,0.1l-0.1,0.1h-0.1c-0.1,0-0.1,0-0.2,0
			s-0.1,0-0.2,0s-0.1,0-0.1,0s-0.1,0-0.1-0.1c0,0,0-0.1-0.1-0.1l-1.1-3.1c0-0.1-0.1-0.2-0.1-0.4c0-0.1-0.1-0.3-0.1-0.4
			c0-0.1-0.1-0.3-0.1-0.4s-0.1-0.3-0.1-0.4v0.1c0,0.1,0,0.2,0,0.4c0,0.1,0,0.3,0,0.4c0,0.1,0,0.3,0,0.4s0,0.2,0,0.4l-0.4,3v0.1
			c0,0,0,0.1-0.1,0.1s-0.1,0-0.2,0s-0.1,0-0.2,0s-0.2,0-0.2,0c-0.1,0-0.1,0-0.1,0s0,0-0.1-0.1s0-0.1,0-0.1l0.6-5
			c0-0.1,0.1-0.2,0.1-0.3c0.1-0.1,0.2-0.1,0.3-0.1h0.5c0.1,0,0.2,0,0.3,0s0.1,0,0.2,0.1c0.1,0,0.1,0.1,0.1,0.2
			c0,0.1,0.1,0.2,0.1,0.3l0.8,2.2c0,0.1,0.1,0.3,0.1,0.4s0.1,0.3,0.1,0.4c0,0.1,0.1,0.3,0.1,0.4c0,0.1,0.1,0.3,0.1,0.4l0,0
			c0-0.1,0.1-0.2,0.1-0.4s0.1-0.3,0.1-0.4c0-0.1,0.1-0.3,0.1-0.4s0.1-0.3,0.1-0.4l0.8-2.2c0-0.1,0.1-0.2,0.1-0.3s0.1-0.1,0.1-0.2
			s0.1-0.1,0.2-0.1s0.2,0,0.3,0h0.5c0.1,0,0.2,0,0.3,0.1c0.1,0.1,0.1,0.2,0.1,0.3L380,166.5z"/>
		<path style="fill:#666666;" d="M386,163.7c0,0.2,0,0.3-0.1,0.3c-0.1,0.1-0.2,0.1-0.3,0.1h-3.5c0,0.3,0,0.6,0.1,0.8
			s0.2,0.4,0.3,0.6c0.1,0.2,0.3,0.3,0.5,0.4c0.2,0.1,0.5,0.1,0.8,0.1s0.5,0,0.7-0.1s0.4-0.1,0.5-0.1c0.1-0.1,0.3-0.1,0.4-0.1
			s0.2-0.1,0.2-0.1h0.1c0,0,0,0,0,0.1v0.1c0,0,0,0.1,0,0.2c0,0.1,0,0.1,0,0.1v0.1v0.1c0,0,0,0-0.1,0.1c0,0-0.1,0.1-0.2,0.1
			s-0.2,0.1-0.4,0.1c-0.2,0-0.4,0.1-0.6,0.1s-0.5,0.1-0.7,0.1c-0.4,0-0.8-0.1-1.1-0.2s-0.6-0.3-0.8-0.5s-0.4-0.5-0.5-0.9
			s-0.2-0.8-0.2-1.3s0.1-0.9,0.2-1.2s0.3-0.7,0.5-0.9c0.2-0.3,0.5-0.4,0.8-0.6s0.7-0.2,1-0.2c0.4,0,0.8,0.1,1.1,0.2s0.5,0.3,0.7,0.5
			s0.3,0.5,0.4,0.8s0.1,0.6,0.1,1L386,163.7L386,163.7z M385,163.4c0-0.5-0.1-0.9-0.3-1.2c-0.2-0.3-0.6-0.4-1.1-0.4
			c-0.2,0-0.5,0-0.6,0.1c-0.2,0.1-0.3,0.2-0.5,0.4c-0.1,0.1-0.2,0.3-0.3,0.5c-0.1,0.2-0.1,0.4-0.1,0.6L385,163.4L385,163.4z"/>
		<path style="fill:#666666;" d="M392.3,163.8c0,0.5,0,0.9-0.1,1.2s-0.2,0.7-0.4,0.9s-0.4,0.5-0.7,0.6s-0.6,0.2-1,0.2
			c-0.2,0-0.3,0-0.4,0s-0.3-0.1-0.4-0.1s-0.3-0.2-0.4-0.3s-0.3-0.2-0.4-0.4v2.6v0.1c0,0,0,0-0.1,0.1h-0.1c-0.1,0-0.1,0-0.2,0
			s-0.2,0-0.2,0h-0.1c0,0-0.1,0-0.1-0.1s0-0.1,0-0.1v-7.4V161c0,0,0,0,0.1-0.1h0.1c0.1,0,0.1,0,0.2,0s0.1,0,0.2,0s0.1,0,0.1,0
			s0.1,0,0.1,0.1s0,0,0,0.1v0.7c0.2-0.2,0.3-0.3,0.5-0.4c0.1-0.1,0.3-0.2,0.4-0.3c0.2-0.1,0.3-0.1,0.5-0.2s0.3-0.1,0.5-0.1
			c0.4,0,0.7,0.1,1,0.2c0.3,0.1,0.5,0.4,0.7,0.6s0.3,0.6,0.4,0.9S392.3,163.4,392.3,163.8z M391.3,163.9c0-0.3,0-0.5-0.1-0.8
			c0-0.3-0.1-0.5-0.2-0.7s-0.2-0.4-0.4-0.5s-0.4-0.2-0.6-0.2c-0.1,0-0.3,0-0.4,0.1c-0.1,0-0.2,0.1-0.4,0.2c-0.1,0.1-0.3,0.2-0.4,0.3
			s-0.3,0.3-0.4,0.5v2.1c0.3,0.3,0.5,0.6,0.8,0.7c0.2,0.2,0.5,0.3,0.8,0.3c0.2,0,0.5-0.1,0.6-0.2s0.3-0.3,0.4-0.5s0.2-0.4,0.2-0.7
			C391.3,164.4,391.3,164.2,391.3,163.9z"/>
		<path style="fill:#666666;" d="M397.6,166.5C397.6,166.6,397.6,166.6,397.6,166.5c0,0.1-0.1,0.1-0.1,0.1h-0.1c-0.1,0-0.1,0-0.2,0
			s-0.2,0-0.2,0c-0.1,0-0.1,0-0.2,0c0,0-0.1,0-0.1-0.1s0,0,0-0.1v-2.1c-0.2,0.1-0.5,0.2-0.7,0.2c-0.2,0.1-0.5,0.1-0.8,0.1
			c-0.4,0-0.7,0-0.9-0.1s-0.4-0.2-0.6-0.4s-0.2-0.4-0.3-0.6c-0.1-0.2-0.1-0.5-0.1-0.9v-1.5V161c0,0,0,0,0.1-0.1s0.1,0,0.1,0
			s0.1,0,0.2,0s0.2,0,0.2,0c0.1,0,0.1,0,0.1,0s0.1,0,0.1,0.1c0,0,0,0,0,0.1v1.3c0,0.3,0,0.6,0.1,0.7s0.1,0.3,0.2,0.4
			c0.1,0.1,0.2,0.2,0.3,0.2s0.3,0.1,0.5,0.1s0.5,0,0.7-0.1s0.4-0.1,0.7-0.3v-2.3V161c0,0,0,0,0.1-0.1s0.1,0,0.2,0s0.1,0,0.2,0
			s0.2,0,0.2,0h0.1c0,0,0.1,0,0.1,0.1c0,0,0,0,0,0.1L397.6,166.5L397.6,166.5z"/>
		<path style="fill:#666666;" d="M403.9,163.7c0,0.2,0,0.3-0.1,0.3c-0.1,0.1-0.2,0.1-0.3,0.1H400c0,0.3,0,0.6,0.1,0.8
			s0.2,0.4,0.3,0.6c0.1,0.2,0.3,0.3,0.5,0.4c0.2,0.1,0.5,0.1,0.8,0.1s0.5,0,0.7-0.1s0.4-0.1,0.5-0.1c0.1-0.1,0.3-0.1,0.4-0.1
			s0.2-0.1,0.2-0.1h0.1c0,0,0,0,0,0.1v0.1c0,0,0,0.1,0,0.2c0,0.1,0,0.1,0,0.1v0.1v0.1c0,0,0,0-0.1,0.1c0,0-0.1,0.1-0.2,0.1
			s-0.2,0.1-0.4,0.1c-0.2,0-0.4,0.1-0.6,0.1s-0.5,0.1-0.7,0.1c-0.4,0-0.8-0.1-1.1-0.2s-0.6-0.3-0.8-0.5s-0.4-0.5-0.5-0.9
			s-0.2-0.8-0.2-1.3s0.1-0.9,0.2-1.2s0.3-0.7,0.5-0.9c0.2-0.3,0.5-0.4,0.8-0.6s0.7-0.2,1-0.2c0.4,0,0.8,0.1,1.1,0.2s0.5,0.3,0.7,0.5
			s0.3,0.5,0.4,0.8s0.1,0.6,0.1,1L403.9,163.7L403.9,163.7z M402.9,163.4c0-0.5-0.1-0.9-0.3-1.2c-0.2-0.3-0.6-0.4-1.1-0.4
			c-0.2,0-0.5,0-0.6,0.1c-0.2,0.1-0.3,0.2-0.5,0.4c-0.1,0.1-0.2,0.3-0.3,0.5c-0.1,0.2-0.1,0.4-0.1,0.6L402.9,163.4L402.9,163.4z"/>
		<path style="fill:#666666;" d="M409.1,165.7c0,0.1,0,0.1,0,0.2v0.1v0.1c0,0,0,0.1-0.1,0.1c0,0-0.1,0.1-0.2,0.2s-0.2,0.1-0.4,0.2
			c-0.1,0.1-0.3,0.1-0.5,0.1s-0.4,0.1-0.5,0.1c-0.4,0-0.7-0.1-1-0.2c-0.3-0.1-0.5-0.3-0.7-0.5s-0.3-0.5-0.5-0.9
			c-0.1-0.4-0.2-0.8-0.2-1.2c0-0.5,0.1-1,0.2-1.3s0.3-0.7,0.5-0.9s0.5-0.4,0.8-0.5s0.6-0.2,1-0.2c0.2,0,0.3,0,0.5,0s0.3,0.1,0.4,0.1
			c0.1,0.1,0.3,0.1,0.4,0.2c0.1,0.1,0.2,0.1,0.2,0.2l0.1,0.1v0.1v0.1c0,0,0,0.1,0,0.2c0,0.2,0,0.3-0.1,0.3c0,0.1-0.1,0.1-0.1,0.1
			c-0.1,0-0.1,0-0.2-0.1s-0.2-0.1-0.3-0.2s-0.3-0.1-0.4-0.2c-0.2-0.1-0.4-0.1-0.6-0.1c-0.5,0-0.8,0.2-1.1,0.5s-0.4,0.9-0.4,1.6
			c0,0.3,0,0.6,0.1,0.9c0.1,0.3,0.2,0.5,0.3,0.6s0.3,0.3,0.5,0.4c0.2,0.1,0.4,0.1,0.6,0.1s0.4,0,0.6-0.1s0.3-0.1,0.4-0.2
			s0.2-0.2,0.3-0.2c0.1-0.1,0.1-0.1,0.2-0.1h0.1c0,0,0,0,0,0.1s0,0.1,0,0.1S409.1,165.6,409.1,165.7z"/>
		<path style="fill:#666666;" d="M414.7,166.6L414.7,166.6c0,0.1-0.1,0.1-0.1,0.1h-0.1c0,0-0.1,0-0.2,0s-0.2,0-0.3,0
			c-0.1,0-0.1,0-0.2,0c0,0-0.1,0-0.1-0.1c0,0,0,0,0-0.1l-0.6-1.4c-0.1-0.2-0.1-0.3-0.2-0.5s-0.2-0.2-0.3-0.3
			c-0.1-0.1-0.2-0.1-0.4-0.2c-0.1,0-0.3-0.1-0.5-0.1h-0.4v2.4c0,0,0,0,0,0.1s0,0-0.1,0s-0.1,0-0.2,0s-0.1,0-0.2,0s-0.2,0-0.2,0
			c-0.1,0-0.1,0-0.2,0s-0.1,0-0.1,0s0,0,0-0.1V161c0,0,0,0,0-0.1c0,0,0,0,0.1,0s0.1,0,0.2,0s0.1,0,0.2,0s0.2,0,0.2,0
			c0.1,0,0.1,0,0.2,0s0.1,0,0.1,0s0,0,0,0.1v2.2h0.4c0.1,0,0.3,0,0.4,0s0.2-0.1,0.3-0.2c0.1-0.1,0.2-0.2,0.3-0.3s0.2-0.3,0.2-0.4
			l0.5-1.2V161c0,0,0,0,0.1-0.1s0.1,0,0.2,0s0.1,0,0.3,0c0.1,0,0.2,0,0.2,0h0.1h0.1c0,0,0,0,0,0.1v0.1v0.1l-0.5,1.2
			c-0.1,0.2-0.2,0.4-0.3,0.5c-0.1,0.1-0.2,0.2-0.3,0.3s-0.2,0.2-0.3,0.2c-0.1,0-0.2,0.1-0.3,0.1l0,0c0.1,0,0.3,0.1,0.4,0.2
			s0.2,0.1,0.3,0.2s0.2,0.2,0.3,0.3c0.1,0.1,0.2,0.3,0.2,0.5l0.6,1.3v0.1C414.5,166.1,414.7,166.4,414.7,166.6
			C414.7,166.5,414.7,166.5,414.7,166.6C414.7,166.5,414.7,166.6,414.7,166.6z"/>
		<path style="fill:#666666;" d="M420.7,166.5C420.7,166.6,420.7,166.6,420.7,166.5c0,0.1-0.1,0.1-0.1,0.1h-0.1c-0.1,0-0.1,0-0.2,0
			s-0.2,0-0.2,0s-0.1,0-0.2,0s-0.1,0-0.1-0.1s0,0,0-0.1v-3c0-0.2,0-0.3,0-0.5s0-0.3,0-0.5c-0.1,0.2-0.2,0.3-0.3,0.5
			c-0.1,0.2-0.2,0.3-0.3,0.4l-2.2,3.1l-0.1,0.1c0,0,0,0-0.1,0.1h-0.1c-0.1,0-0.1,0-0.2,0s-0.2,0-0.2,0h-0.1c0,0-0.1,0-0.1-0.1
			s0,0,0-0.1v-5.3V161c0,0,0,0,0.1-0.1s0.1,0,0.1,0c0.1,0,0.1,0,0.2,0c0.2,0,0.3,0,0.4,0s0.1,0.1,0.1,0.1v3.1c0,0.2,0,0.3,0,0.5
			s0,0.3,0,0.4c0.1-0.1,0.2-0.3,0.3-0.4s0.2-0.3,0.3-0.4l2.3-3.1c0,0,0-0.1,0.1-0.1c0,0,0.1,0,0.1-0.1s0.1,0,0.1,0
			c0.1,0,0.1,0,0.2,0s0.2,0,0.2,0h0.1c0,0,0.1,0,0.1,0.1s0,0.1,0,0.1L420.7,166.5L420.7,166.5z"/>
		<path style="fill:#666666;" d="M427.2,166.5C427.2,166.6,427.1,166.6,427.2,166.5c0,0.1-0.1,0.1-0.1,0.1H427c-0.1,0-0.1,0-0.2,0
			s-0.2,0-0.2,0s-0.1,0-0.2,0s-0.1,0-0.1-0.1s0,0,0-0.1v-3c0-0.2,0-0.3,0-0.5s0-0.3,0-0.5c-0.1,0.2-0.2,0.3-0.3,0.5
			c-0.1,0.2-0.2,0.3-0.3,0.4l-2.2,3.1l-0.1,0.1c0,0,0,0-0.1,0.1h-0.1c-0.1,0-0.1,0-0.2,0s-0.2,0-0.2,0h-0.1c0,0-0.1,0-0.1-0.1
			s0,0,0-0.1v-5.3V161c0,0,0,0,0.1-0.1s0.1,0,0.1,0c0.1,0,0.1,0,0.2,0c0.2,0,0.3,0,0.4,0s0.1,0.1,0.1,0.1v3.1c0,0.2,0,0.3,0,0.5
			s0,0.3,0,0.4c0.1-0.1,0.2-0.3,0.3-0.4s0.2-0.3,0.3-0.4l2.3-3.1c0,0,0-0.1,0.1-0.1c0,0,0.1,0,0.1-0.1s0.1,0,0.1,0
			c0.1,0,0.1,0,0.2,0s0.2,0,0.2,0h0.1c0,0,0.1,0,0.1,0.1s0,0.1,0,0.1L427.2,166.5L427.2,166.5z M426.6,158.8c0,0.2,0,0.4-0.1,0.6
			s-0.2,0.4-0.3,0.5c-0.1,0.1-0.3,0.3-0.6,0.3c-0.2,0.1-0.5,0.1-0.8,0.1s-0.6,0-0.8-0.1s-0.4-0.2-0.6-0.3s-0.3-0.3-0.3-0.5
			s-0.1-0.4-0.1-0.7v-0.1c0,0,0,0,0.1-0.1s0.1,0,0.1,0s0.1,0,0.2,0s0.2,0,0.2,0h0.1c0,0,0,0,0.1,0.1v0.1c0,0.1,0,0.2,0.1,0.3
			s0.1,0.2,0.2,0.3s0.2,0.1,0.3,0.2c0.1,0,0.2,0.1,0.4,0.1c0.1,0,0.3,0,0.4-0.1s0.2-0.1,0.3-0.2s0.1-0.2,0.2-0.3s0.1-0.2,0.1-0.4
			v-0.1c0,0,0-0.1,0.1-0.1h0.1c0,0,0.1,0,0.2,0s0.2,0,0.2,0h0.1C426.5,158.4,426.6,158.6,426.6,158.8
			C426.6,158.7,426.6,158.7,426.6,158.8z"/>
		<path style="fill:#666666;" d="M436.6,163.8c0,0.4-0.1,0.8-0.2,1.2s-0.3,0.7-0.5,0.9s-0.5,0.5-0.8,0.6s-0.7,0.2-1.2,0.2
			c-0.4,0-0.8-0.1-1.1-0.2c-0.3-0.1-0.6-0.3-0.8-0.6c-0.2-0.2-0.4-0.5-0.5-0.9s-0.2-0.8-0.2-1.2s0.1-0.8,0.2-1.2s0.3-0.7,0.5-0.9
			c0.2-0.3,0.5-0.5,0.8-0.6s0.7-0.2,1.2-0.2c0.4,0,0.8,0.1,1.1,0.2c0.3,0.1,0.6,0.3,0.8,0.6c0.2,0.2,0.4,0.5,0.5,0.9
			S436.6,163.4,436.6,163.8z M435.6,163.9c0-0.3,0-0.6-0.1-0.8c-0.1-0.3-0.1-0.5-0.3-0.7s-0.3-0.3-0.5-0.5c-0.2-0.1-0.5-0.2-0.8-0.2
			s-0.5,0.1-0.7,0.2c-0.2,0.1-0.4,0.2-0.5,0.4s-0.2,0.4-0.3,0.7c-0.1,0.3-0.1,0.5-0.1,0.8s0,0.6,0.1,0.8c0.1,0.3,0.1,0.5,0.3,0.7
			c0.1,0.2,0.3,0.3,0.5,0.5c0.2,0.1,0.5,0.2,0.8,0.2s0.5-0.1,0.7-0.2c0.2-0.1,0.4-0.2,0.5-0.4s0.2-0.4,0.3-0.7
			C435.5,164.5,435.6,164.2,435.6,163.9z"/>
		<path style="fill:#666666;" d="M441.6,161.5c0,0.1,0,0.1,0,0.2s0,0.1,0,0.1s0,0.1-0.1,0.1h-0.1h-1.6v4.5v0.1c0,0,0,0-0.1,0.1h-0.1
			c-0.1,0-0.1,0-0.2,0s-0.2,0-0.2,0h-0.1c0,0-0.1,0-0.1-0.1s0,0,0-0.1V162h-1.6h-0.1c0,0,0,0-0.1-0.1v-0.1c0-0.1,0-0.1,0-0.2
			c0-0.1,0-0.1,0-0.2s0-0.1,0-0.1s0-0.1,0.1-0.1h0.1h4.1h0.1c0,0,0,0,0.1,0.1v0.1C441.6,161.4,441.6,161.5,441.6,161.5z"/>
		<path style="fill:#666666;" d="M442,168.4C442,168.5,442,168.5,442,168.4c0,0.1-0.1,0.1-0.1,0.1h-0.1c-0.1,0-0.1,0-0.2,0
			s-0.1,0-0.2,0s-0.1,0-0.1,0h-0.1c0,0,0,0,0-0.1v-2.3c0-0.1,0-0.2,0-0.2s0.1,0,0.2,0h0.4c0.1-0.2,0.3-0.4,0.4-0.6s0.2-0.5,0.3-0.9
			c0.1-0.3,0.2-0.8,0.3-1.2c0.1-0.5,0.2-1.1,0.2-1.7c0-0.1,0-0.1,0-0.1s0-0.1,0.1-0.1s0.1,0,0.1-0.1h0.1h2.9c0.1,0,0.2,0,0.2,0.1
			c0.1,0.1,0.1,0.1,0.1,0.3v4.4h0.7c0.1,0,0.1,0,0.2,0c0,0,0.1,0.1,0.1,0.2v2.3c0,0,0,0,0,0.1c0,0,0,0-0.1,0h-0.1c0,0-0.1,0-0.2,0
			s-0.1,0-0.2,0s-0.1,0-0.1,0h-0.1c0,0,0,0,0-0.1v-1.8H442V168.4L442,168.4z M445.7,161.9H444c-0.1,0.6-0.2,1.2-0.3,1.6
			s-0.2,0.8-0.3,1.1s-0.2,0.5-0.3,0.7c-0.1,0.2-0.2,0.4-0.3,0.5h2.9L445.7,161.9L445.7,161.9z"/>
		<path style="fill:#666666;" d="M453.1,163.7c0,0.2,0,0.3-0.1,0.3c-0.1,0.1-0.2,0.1-0.3,0.1h-3.5c0,0.3,0,0.6,0.1,0.8
			s0.2,0.4,0.3,0.6c0.1,0.2,0.3,0.3,0.5,0.4c0.2,0.1,0.5,0.1,0.8,0.1s0.5,0,0.7-0.1s0.4-0.1,0.5-0.1c0.1-0.1,0.3-0.1,0.4-0.1
			s0.2-0.1,0.2-0.1h0.1c0,0,0,0,0,0.1v0.1c0,0,0,0.1,0,0.2c0,0.1,0,0.1,0,0.1v0.1v0.1c0,0,0,0-0.1,0.1c0,0-0.1,0.1-0.2,0.1
			s-0.2,0.1-0.4,0.1c-0.2,0-0.4,0.1-0.6,0.1s-0.5,0.1-0.7,0.1c-0.4,0-0.8-0.1-1.1-0.2s-0.6-0.3-0.8-0.5s-0.4-0.5-0.5-0.9
			s-0.2-0.8-0.2-1.3s0.1-0.9,0.2-1.2s0.3-0.7,0.5-0.9c0.2-0.3,0.5-0.4,0.8-0.6s0.7-0.2,1-0.2c0.4,0,0.8,0.1,1.1,0.2s0.5,0.3,0.7,0.5
			s0.3,0.5,0.4,0.8s0.1,0.6,0.1,1L453.1,163.7L453.1,163.7z M452.1,163.4c0-0.5-0.1-0.9-0.3-1.2c-0.2-0.3-0.6-0.4-1.1-0.4
			c-0.2,0-0.5,0-0.6,0.1c-0.2,0.1-0.3,0.2-0.5,0.4c-0.1,0.1-0.2,0.3-0.3,0.5c-0.1,0.2-0.1,0.4-0.1,0.6L452.1,163.4L452.1,163.4z"/>
		<path style="fill:#666666;" d="M458.7,166.5C458.7,166.6,458.7,166.6,458.7,166.5c0,0.1-0.1,0.1-0.1,0.1h-0.1c-0.1,0-0.1,0-0.2,0
			s-0.2,0-0.2,0c-0.1,0-0.1,0-0.1,0s-0.1,0-0.1-0.1c0,0,0,0,0-0.1v-4.6h-1.5c-0.1,0.6-0.1,1.2-0.2,1.7s-0.2,0.9-0.3,1.3
			c-0.1,0.4-0.2,0.7-0.4,0.9c-0.1,0.2-0.3,0.4-0.4,0.6s-0.3,0.3-0.5,0.3c-0.2,0.1-0.4,0.1-0.6,0.1h-0.1c0,0,0,0-0.1-0.1v-0.1
			c0,0,0-0.1,0-0.2c0-0.1,0-0.2,0-0.2c0-0.1,0-0.1,0-0.1s0-0.1,0.1-0.1c0,0,0,0,0.1,0s0.3,0,0.4-0.1s0.2-0.2,0.3-0.3
			s0.2-0.3,0.3-0.5c0.1-0.2,0.2-0.5,0.2-0.8c0.1-0.3,0.1-0.7,0.2-1.2c0.1-0.4,0.1-0.9,0.2-1.5c0-0.1,0-0.2,0.1-0.3
			c0-0.1,0.1-0.1,0.2-0.1h2.7c0.1,0,0.2,0,0.2,0.1c0.1,0.1,0.1,0.1,0.1,0.3L458.7,166.5L458.7,166.5z"/>
	</g>
	<g style="enable-background:new    ;">
		<path style="fill:#666666;" d="M283.8,112.9c0,0.1,0,0.3-0.1,0.4c0,0.1-0.1,0.2-0.1,0.3c-0.1,0.1-0.1,0.2-0.2,0.2
			c-0.1,0.1-0.2,0.1-0.3,0.2c-0.1,0-0.2,0.1-0.4,0.1c-0.1,0-0.3,0-0.4,0h-1.2c-0.1,0-0.1,0-0.1-0.1c0,0-0.1-0.1-0.1-0.2v-4
			c0-0.1,0-0.2,0.1-0.2l0.1-0.1h1c0.3,0,0.5,0,0.7,0.1s0.3,0.1,0.4,0.2s0.2,0.2,0.3,0.4c0.1,0.1,0.1,0.3,0.1,0.5c0,0.1,0,0.2,0,0.3
			c0,0.1-0.1,0.2-0.1,0.3c0,0.1-0.1,0.2-0.2,0.2c-0.1,0.1-0.2,0.1-0.3,0.2c0.1,0,0.2,0.1,0.3,0.1c0.1,0.1,0.2,0.1,0.3,0.2
			c0.1,0.1,0.1,0.2,0.2,0.3C283.8,112.6,283.8,112.8,283.8,112.9z M283,110.9c0-0.1,0-0.2,0-0.3c0-0.1-0.1-0.2-0.1-0.2
			c-0.1-0.1-0.1-0.1-0.3-0.1c-0.1,0-0.2,0-0.4,0h-0.6v1.4h0.7c0.2,0,0.3,0,0.4-0.1c0.1,0,0.2-0.1,0.2-0.2c0.1-0.1,0.1-0.1,0.1-0.2
			C282.9,111.1,283,111,283,110.9z M283.2,113c0-0.1,0-0.3-0.1-0.4c0-0.1-0.1-0.2-0.2-0.3c-0.1-0.1-0.2-0.1-0.3-0.2
			c-0.1,0-0.3-0.1-0.5-0.1h-0.7v1.6h0.9c0.1,0,0.3,0,0.4,0s0.2-0.1,0.3-0.1c0.1-0.1,0.1-0.1,0.2-0.2
			C283.2,113.2,283.2,113.1,283.2,113z"/>
		<path style="fill:#666666;" d="M287.4,114.1L287.4,114.1C287.4,114.2,287.4,114.2,287.4,114.1c-0.1,0.1-0.1,0.1-0.1,0.1h-0.1
			c-0.1,0-0.1,0-0.1,0H287l0,0l0,0v-1.4h-1.6v1.4l0,0l0,0c0,0,0,0-0.1,0h-0.1c-0.1,0-0.1,0-0.1,0H285l0,0l0,0V111l0,0l0,0h0.1h0.1
			c0.1,0,0.1,0,0.1,0h0.1l0,0l0,0v1.3h1.6V111l0,0l0,0c0,0,0,0,0.1,0h0.1c0.1,0,0.1,0,0.1,0h0.1l0,0l0,0L287.4,114.1L287.4,114.1z"
			/>
		<path style="fill:#666666;" d="M291.2,114.1L291.2,114.1C291.2,114.2,291.2,114.2,291.2,114.1c-0.1,0.1-0.1,0.1-0.1,0.1H291
			c-0.1,0-0.1,0-0.1,0h-0.1l0,0l0,0v-1.8c0-0.1,0-0.2,0-0.3c0-0.1,0-0.2,0-0.3c-0.1,0.1-0.1,0.2-0.2,0.3c-0.1,0.1-0.1,0.2-0.2,0.3
			l-1.3,1.8l0,0l0,0c0,0,0,0-0.1,0h-0.1c-0.1,0-0.1,0-0.1,0h-0.1l0,0l0,0V111l0,0l0,0h0.1h0.1c0.1,0,0.2,0,0.2,0s0.1,0,0.1,0.1v1.8
			c0,0.1,0,0.2,0,0.3c0,0.1,0,0.2,0,0.3c0.1-0.1,0.1-0.2,0.2-0.3c0.1-0.1,0.1-0.2,0.2-0.2l1.3-1.8l0,0c0,0,0,0,0.1,0c0,0,0,0,0.1,0
			h0.1h0.1h0.1l0,0l0,0L291.2,114.1L291.2,114.1z"/>
		<path style="fill:#666666;" d="M294.4,113.3c0,0.2,0,0.3-0.1,0.4s-0.2,0.2-0.3,0.3c-0.1,0.1-0.3,0.2-0.4,0.2
			c-0.2,0-0.4,0.1-0.6,0.1c-0.1,0-0.2,0-0.3,0c-0.1,0-0.2,0-0.3-0.1c-0.1,0-0.2-0.1-0.2-0.1c-0.1,0-0.1-0.1-0.1-0.1s0,0-0.1-0.1
			c0,0,0,0,0-0.1c0,0,0,0,0-0.1v-0.1v-0.1c0,0,0,0,0-0.1l0,0l0,0h0.1c0,0,0.1,0.1,0.2,0.1s0.2,0.1,0.3,0.1c0.1,0,0.2,0,0.4,0
			c0.1,0,0.2,0,0.3,0c0.1,0,0.2-0.1,0.2-0.1c0.1,0,0.1-0.1,0.2-0.2c0-0.1,0.1-0.2,0.1-0.2c0-0.1,0-0.2-0.1-0.2
			c0-0.1-0.1-0.1-0.2-0.2c-0.1,0-0.2-0.1-0.3-0.1c-0.1,0-0.3,0-0.4,0h-0.3c0,0,0,0-0.1,0l0,0c0,0,0,0,0-0.1v-0.1v-0.1c0,0,0,0,0-0.1
			l0,0c0,0,0,0,0.1,0h0.3c0.1,0,0.3,0,0.4,0s0.2-0.1,0.3-0.1c0.1,0,0.1-0.1,0.2-0.2c0-0.1,0-0.1,0-0.2s0-0.1,0-0.2s-0.1-0.1-0.1-0.1
			c-0.1,0-0.1-0.1-0.2-0.1s-0.2,0-0.3,0c-0.1,0-0.3,0-0.4,0s-0.2,0.1-0.3,0.1c-0.1,0-0.1,0.1-0.2,0.1s-0.1,0-0.1,0l0,0l0,0
			c0,0,0,0,0-0.1v-0.1c0-0.1,0-0.1,0-0.2c0,0,0-0.1,0.1-0.1s0.1-0.1,0.1-0.1c0.1,0,0.1-0.1,0.2-0.1s0.2-0.1,0.3-0.1
			c0.1,0,0.2,0,0.3,0c0.2,0,0.3,0,0.5,0.1c0.1,0,0.3,0.1,0.4,0.2s0.2,0.2,0.2,0.3s0.1,0.2,0.1,0.4c0,0.1,0,0.2,0,0.2
			c0,0.1-0.1,0.1-0.1,0.2c-0.1,0.1-0.1,0.1-0.2,0.2s-0.2,0.1-0.3,0.1l0,0c0.1,0,0.2,0,0.3,0.1c0.1,0,0.2,0.1,0.2,0.2
			c0.1,0.1,0.1,0.1,0.2,0.2C294.4,113,294.4,113.1,294.4,113.3z"/>
	</g>
</g>
</svg>
