<?xml version="1.0" encoding="utf-8"?>
<!-- Generator: Adobe Illustrator 22.0.0, SVG Export Plug-In . SVG Version: 6.00 Build 0)  -->
<svg version="1.1" id="Слой_1" xmlns="http://www.w3.org/2000/svg" xmlns:xlink="http://www.w3.org/1999/xlink" x="0px" y="0px"
	 viewBox="0 0 44 44.1" style="enable-background:new 0 0 44 44.1;" xml:space="preserve">
<style type="text/css">
	.st0{filter:url(#filter-5);}
	.st1{fill:#FFFFFF;}
	.st2{fill:#cb0823;}
</style>
<filter  filterUnits="objectBoundingBox" height="128.5%" id="filter-5" width="128.2%" x="-14.1%" y="-9.1%">
	<feOffset  dx="0" dy="2" in="SourceAlpha" result="shadowOffsetOuter1"></feOffset>
	<feGaussianBlur  in="shadowOffsetOuter1" result="shadowBlurOuter1" stdDeviation="1.5"></feGaussianBlur>
	<feColorMatrix  in="shadowBlurOuter1" type="matrix" values="0 0 0 0 0   0 0 0 0 0   0 0 0 0 0  0 0 0 0.145153986 0">
		</feColorMatrix>
</filter>
<title>1FEA25A9-966E-485A-8EEF-1ABB367347DB</title>
<desc>Created with sketchtool.</desc>
<g id="Page-1">
	<g id="iPhone-8-Copy-3" transform="translate(-268.000000, -99.000000)">
		<g id="Group-12-Copy-5" transform="translate(271.000000, 100.000000)">
			<g id="Group-10" transform="translate(0.000000, 44.173913)">
				<g id="Group-16">
					<g id="Rectangle-Copy">
						<g class="st0">
							<path id="path-4_2_" d="M4.9-43.2h29c2.8,0,5,2.2,5,5v28.7c0,2.8-2.2,5-5,5h-29c-2.8,0-5-2.2-5-5v-28.7
								C-0.1-40.9,2.1-43.2,4.9-43.2z"/>
						</g>
						<g>
							<path id="path-4_1_" class="st1" d="M4.9-43.2h29c2.8,0,5,2.2,5,5v28.7c0,2.8-2.2,5-5,5h-29c-2.8,0-5-2.2-5-5v-28.7
								C-0.1-40.9,2.1-43.2,4.9-43.2z"/>
						</g>
					</g>
					<polygon id="Shape" class="st2" points="27.7,-22.7 20.6,-22.7 20.6,-15.6 18.2,-15.6 18.2,-22.7 11,-22.7 11,-25 18.2,-25 
						18.2,-32.1 20.6,-32.1 20.6,-25 27.7,-25 					"/>
				</g>
				<g id="ic_add_48px" transform="translate(11.142857, 11.043478)">
				</g>
			</g>
		</g>
	</g>
</g>
</svg>
